<?xml version="1.0" encoding="UTF-8"?>
<svg width="1263px" height="976px" viewBox="0 0 1263 976" version="1.1" xmlns="http://www.w3.org/2000/svg" xmlns:xlink="http://www.w3.org/1999/xlink">
    <!-- Generator: Sketch 54.1 (76490) - https://sketchapp.com -->
    <title>339252-PAJF05-394</title>
    <desc>Created with Sketch.</desc>
    <defs>
        <linearGradient x1="50.0029612%" y1="100.055835%" x2="50.0029612%" y2="0.0105529716%" id="linearGradient-1">
            <stop stop-color="#FFFFFF" stop-opacity="0.3" offset="0%"></stop>
            <stop stop-color="#FFFFFF" offset="100%"></stop>
        </linearGradient>
        <linearGradient x1="49.9968548%" y1="100.012627%" x2="49.9968548%" y2="0.00946232144%" id="linearGradient-2">
            <stop stop-color="#FFFFFF" stop-opacity="0.3" offset="0%"></stop>
            <stop stop-color="#FFFFFF" offset="100%"></stop>
        </linearGradient>
        <linearGradient x1="49.9796342%" y1="99.9710781%" x2="49.9796342%" y2="-0.0083055224%" id="linearGradient-3">
            <stop stop-color="#FFFFFF" stop-opacity="0.3" offset="0%"></stop>
            <stop stop-color="#FFFFFF" offset="100%"></stop>
        </linearGradient>
        <linearGradient x1="50.0041007%" y1="99.9279176%" x2="50.0041007%" y2="-0.00143006813%" id="linearGradient-4">
            <stop stop-color="#FFFFFF" stop-opacity="0.3" offset="0%"></stop>
            <stop stop-color="#FFFFFF" offset="100%"></stop>
        </linearGradient>
        <linearGradient x1="50.0017669%" y1="99.9658481%" x2="50.0017669%" y2="-0.0278017024%" id="linearGradient-5">
            <stop stop-color="#FFFFFF" stop-opacity="0.3" offset="0%"></stop>
            <stop stop-color="#FFFFFF" offset="100%"></stop>
        </linearGradient>
        <linearGradient x1="50.0089987%" y1="99.8848995%" x2="50.0089987%" y2="-0.0279286865%" id="linearGradient-6">
            <stop stop-color="#FFFFFF" stop-opacity="0.3" offset="0%"></stop>
            <stop stop-color="#FFFFFF" offset="100%"></stop>
        </linearGradient>
        <linearGradient x1="0%" y1="49.9980488%" x2="100%" y2="49.9980488%" id="linearGradient-7">
            <stop stop-color="#F577B6" offset="0%"></stop>
            <stop stop-color="#FF8262" offset="100%"></stop>
        </linearGradient>
        <linearGradient x1="166.630509%" y1="49.9431888%" x2="15.8181711%" y2="49.9431888%" id="linearGradient-8">
            <stop stop-color="#FFFFFF" stop-opacity="0.3" offset="0%"></stop>
            <stop stop-color="#FFFFFF" offset="100%"></stop>
        </linearGradient>
        <linearGradient x1="91.6385482%" y1="50.004887%" x2="8.70478667%" y2="50.004887%" id="linearGradient-9">
            <stop stop-color="#FFFFFF" stop-opacity="0.3" offset="0%"></stop>
            <stop stop-color="#FFFFFF" offset="100%"></stop>
        </linearGradient>
        <linearGradient x1="49.9956177%" y1="100.001832%" x2="49.9956177%" y2="0.0323565324%" id="linearGradient-10">
            <stop stop-color="#FFFFFF" stop-opacity="0.3" offset="0%"></stop>
            <stop stop-color="#FFFFFF" offset="100%"></stop>
        </linearGradient>
        <linearGradient x1="49.9921829%" y1="100.007326%" x2="49.9921829%" y2="0.0378510379%" id="linearGradient-11">
            <stop stop-color="#FFFFFF" stop-opacity="0.3" offset="0%"></stop>
            <stop stop-color="#FFFFFF" offset="100%"></stop>
        </linearGradient>
    </defs>
    <g id="Palmspire-Website-Design-" stroke="none" stroke-width="1" fill="none" fill-rule="evenodd">
        <g id="Group-26" transform="translate(-1188.000000, -1022.000000)">
            <g id="339252-PAJF05-394" transform="translate(1188.000000, 1022.000000)">
                <g id="OBJECTS" transform="translate(0.308123, 0.000000)">
                    <g id="Group">
                        <g transform="translate(820.520607, 0.000000)" fill-rule="nonzero" id="Path">
                            <path d="M440.68551,140.255602 C432.062299,128.378347 408.43744,98.0284034 389.603254,94.0054622 C366.087896,89.0246779 361.516226,121.235574 323.190846,82.4018768 C292.612668,51.4498599 252.836399,76.1895798 224.283991,103.146022 C216.892668,110.124594 205.586681,111.05507 197.346725,105.089076 C179.990803,92.5276471 159.787852,85.7132773 143.41744,102.27028 C117.246681,128.761485 114.1259,106.785826 98.0839913,110.179328 C85.2176139,112.916022 69.1209544,133.632801 63.2352711,141.733417 C62.1950108,143.156499 63.4542733,144.962717 65.4526681,144.962717 L165.618785,144.962717 L194.41757,144.962717 L231.264685,144.962717 L290.614273,144.962717 L437.400477,144.962717 C440.384382,145.017451 442.19115,142.362857 440.68551,140.255602 Z" fill="url(#linearGradient-1)"></path>
                            <path d="M207.064946,50.8477871 C201.015011,42.4735014 184.425597,21.099916 171.175965,18.3084874 C154.668677,14.8055182 151.438395,37.4653501 124.528503,10.1257703 C100.712017,-14.0666106 68.874577,10.0436695 48.7537527,30.9793838 C37.5572668,37.9305882 34.4364859,27.6953501 25.1288937,29.6931373 C16.0950542,31.6088235 4.76169197,46.1954062 0.655401302,51.915098 C-0.0837310195,52.9276751 0.792277657,54.1865546 2.21579176,54.1865546 L34.1079826,54.1865546 L72.5702386,54.1865546 L101.670152,54.1865546 L118.670195,54.1865546 L204.792798,54.1865546 C206.845944,54.1865546 208.132581,52.3256022 207.064946,50.8477871 Z" fill="url(#linearGradient-2)"></path>
                            <path d="M428.06551,40.7767507 C424.58885,35.9601681 415.007505,23.645042 407.39718,22.0303922 C397.870586,20.0052381 396.036443,33.0866387 380.514664,17.3232773 C366.772278,3.3935014 348.458221,17.2685434 336.851106,29.3373669 C330.390542,33.3329412 328.61115,27.4490476 323.245597,28.5984594 C318.044295,29.6931373 311.52898,38.0947899 309.147332,41.4061905 C308.736703,41.9808964 309.229458,42.7198039 310.050716,42.7198039 L328.419523,42.7198039 L350.593492,42.7198039 L367.374534,42.7198039 L377.174881,42.7198039 L426.778872,42.7198039 C427.928633,42.7198039 428.667766,41.6251261 428.06551,40.7767507 Z" fill="url(#linearGradient-3)"></path>
                        </g>
                        <g transform="translate(0.000000, 2.736695)" fill-rule="nonzero" id="Path">
                            <path d="M320.345423,97.3168627 C313.583731,88.0121008 295.078048,64.2028571 280.295401,61.0830252 C261.871844,57.1695518 258.285683,82.4292437 228.227636,51.9698319 C204.274273,27.6953501 173.093839,47.0985154 150.728243,68.2257983 C144.924685,73.6991877 136.082473,74.4380952 129.621909,69.7583473 C116.016399,59.9062465 100.166117,54.5696919 87.3544902,67.5689916 C66.8504121,88.3405042 64.414013,71.0993277 51.8213883,73.7812885 C41.7472885,75.9159104 29.0999132,92.1445098 24.5008677,98.5210084 C23.6796095,99.6430532 24.6651193,101.066134 26.252885,101.066134 L104.765163,101.066134 L127.349761,101.066134 L156.230672,101.066134 L202.741258,101.066134 L317.799523,101.066134 C320.099046,101.011401 321.52256,98.9315126 320.345423,97.3168627 Z" fill="url(#linearGradient-4)"></path>
                            <path d="M124.447983,40.0104762 C119.712061,33.442409 106.708807,16.6938375 96.3335792,14.5044818 C83.3850759,11.7404202 80.866551,29.5289356 59.7602169,8.10061625 C41.090282,-10.8646779 16.15141,8.04588235 0.383253796,24.4386835 C0.24637744,24.5207843 0.136876356,24.5755182 0,24.657619 L0,42.6377031 L122.66859,42.6377031 C124.283731,42.6103361 125.296616,41.159888 124.447983,40.0104762 Z" fill="url(#linearGradient-5)"></path>
                            <path d="M146.92308,148.192017 C144.185553,144.415378 136.684729,134.754846 130.71692,133.495966 C123.270846,131.908683 121.819957,142.143922 109.637961,129.801429 C98.8794794,118.882017 84.507462,129.774062 75.418872,139.215658 C70.3544469,142.362857 68.958308,137.737843 64.7425163,138.640952 C60.6636009,139.516695 55.5444252,146.084762 53.6829067,148.684622 C53.3544035,149.14986 53.7376573,149.724566 54.3946638,149.724566 L68.7940564,149.724566 L86.1773536,149.724566 L99.3174837,149.724566 L106.98256,149.724566 L145.88282,149.724566 C146.813579,149.697199 147.38846,148.848824 146.92308,148.192017 Z" fill="url(#linearGradient-6)"></path>
                        </g>
                        <path d="M1212.75189,416.16916 L1212.75189,425.556022 C1212.75189,449.994706 1206.18182,473.968151 1193.72607,494.985966 L1170.56659,534.038599 L1166.21393,434.039776 L1212.75189,416.16916 Z" id="Path" fill="#001D47" fill-rule="nonzero"></path>
                        <g transform="translate(1122.386117, 506.288515)" fill-rule="nonzero" id="Path">
                            <g>
                                <path d="M10.5668547,47.2627171 L127.130759,47.2627171 C132.414187,47.2627171 136.712104,42.9661064 136.712104,37.6842857 L136.712104,10.262605 C136.712104,4.98078431 132.414187,0.684173669 127.130759,0.684173669 L10.5668547,0.684173669 C5.28342733,0.684173669 0.985509761,4.98078431 0.985509761,10.262605 L0.985509761,37.6842857 C0.985509761,42.9661064 5.28342733,47.2627171 10.5668547,47.2627171 Z" fill="#F577B6"></path>
                                <path d="M101.069501,38.6421289 L121.984208,38.6421289 C125.187115,38.6421289 127.787766,36.0422689 127.787766,32.8403361 L127.787766,15.7633613 C127.787766,12.5614286 125.187115,9.96156863 121.984208,9.96156863 L101.069501,9.96156863 C97.8665944,9.96156863 95.2659436,12.5614286 95.2659436,15.7633613 L95.2659436,32.8403361 C95.2385683,36.0422689 97.8392191,38.6421289 101.069501,38.6421289 Z" fill="#FFFFFF"></path>
                                <g transform="translate(17.425163, 15.683473)" fill="#001D47" opacity="0.12">
                                    <path d="M2.77778742,0.572492997 L63.0581345,0.572492997 C64.3721475,0.572492997 65.4397831,1.63980392 65.4397831,2.95341737 C65.4397831,4.26703081 64.3721475,5.33434174 63.0581345,5.33434174 L2.77778742,5.33434174 C1.4637744,5.33434174 0.396138829,4.26703081 0.396138829,2.95341737 C0.396138829,1.63980392 1.4637744,0.572492997 2.77778742,0.572492997 Z"></path>
                                    <path d="M33.7665944,11.2729692 L63.0581345,11.2729692 C64.3721475,11.2729692 65.4397831,12.3402801 65.4397831,13.6538936 C65.4397831,14.967507 64.3721475,16.0348179 63.0581345,16.0348179 L33.7665944,16.0348179 C32.4525813,16.0348179 31.3849458,14.967507 31.3849458,13.6538936 C31.3849458,12.3402801 32.4799566,11.2729692 33.7665944,11.2729692 Z"></path>
                                </g>
                            </g>
                            <g transform="translate(0.000000, 64.943978)">
                                <path d="M10.5668547,46.85 L127.130759,46.85 C132.414187,46.85 136.712104,42.5533894 136.712104,37.2715686 L136.712104,9.84988796 C136.712104,4.56806723 132.414187,0.271456583 127.130759,0.271456583 L10.5668547,0.271456583 C5.28342733,0.271456583 0.985509761,4.56806723 0.985509761,9.84988796 L0.985509761,37.2715686 C0.985509761,42.5807563 5.28342733,46.85 10.5668547,46.85 Z" fill="#FFFFFF"></path>
                                <path d="M101.069501,38.2567787 L121.984208,38.2567787 C125.187115,38.2567787 127.787766,35.6569188 127.787766,32.454986 L127.787766,15.3780112 C127.787766,12.1760784 125.187115,9.57621849 121.984208,9.57621849 L101.069501,9.57621849 C97.8665944,9.57621849 95.2659436,12.1760784 95.2659436,15.3780112 L95.2659436,32.454986 C95.2385683,35.6569188 97.8392191,38.2567787 101.069501,38.2567787 Z" fill="#E0E9F8"></path>
                                <g transform="translate(17.425163, 15.420168)" fill="#001D47" opacity="0.12">
                                    <path d="M2.77778742,0.450448179 L63.0581345,0.450448179 C64.3721475,0.450448179 65.4397831,1.5177591 65.4397831,2.83137255 C65.4397831,4.14498599 64.3721475,5.21229692 63.0581345,5.21229692 L2.77778742,5.21229692 C1.4637744,5.21229692 0.396138829,4.14498599 0.396138829,2.83137255 C0.396138829,1.5177591 1.4637744,0.450448179 2.77778742,0.450448179 Z"></path>
                                    <path d="M33.7665944,11.1235574 L63.0581345,11.1235574 C64.3721475,11.1235574 65.4397831,12.1908683 65.4397831,13.5044818 C65.4397831,14.8180952 64.3721475,15.8854062 63.0581345,15.8854062 L33.7665944,15.8854062 C32.4525813,15.8854062 31.3849458,14.8180952 31.3849458,13.5044818 C31.3849458,12.1908683 32.4799566,11.1235574 33.7665944,11.1235574 Z"></path>
                                </g>
                            </g>
                            <g transform="translate(0.000000, 129.624650)">
                                <path d="M10.5668547,46.7279552 L127.130759,46.7279552 C132.414187,46.7279552 136.712104,42.4313445 136.712104,37.1495238 L136.712104,9.72784314 C136.712104,4.44602241 132.414187,0.149411765 127.130759,0.149411765 L10.5668547,0.149411765 C5.28342733,0.149411765 0.985509761,4.44602241 0.985509761,9.72784314 L0.985509761,37.1495238 C0.985509761,42.4313445 5.28342733,46.7279552 10.5668547,46.7279552 Z" fill="#7736F6"></path>
                                <path d="M101.069501,38.1073669 L121.984208,38.1073669 C125.187115,38.1073669 127.787766,35.507507 127.787766,32.3055742 L127.787766,15.2285994 C127.787766,12.0266667 125.187115,9.42680672 121.984208,9.42680672 L101.069501,9.42680672 C97.8665944,9.42680672 95.2659436,12.0266667 95.2659436,15.2285994 L95.2659436,32.3055742 C95.2385683,35.507507 97.8392191,38.1073669 101.069501,38.1073669 Z" fill="#FFFFFF"></path>
                                <g transform="translate(17.425163, 15.420168)" fill="#001D47" opacity="0.12">
                                    <path d="M2.77778742,0.301036415 L63.0581345,0.301036415 C64.3721475,0.301036415 65.4397831,1.36834734 65.4397831,2.68196078 C65.4397831,3.99557423 64.3721475,5.06288515 63.0581345,5.06288515 L2.77778742,5.06288515 C1.4637744,5.06288515 0.396138829,3.99557423 0.396138829,2.68196078 C0.396138829,1.36834734 1.4637744,0.301036415 2.77778742,0.301036415 Z"></path>
                                    <path d="M33.7665944,10.9741457 L63.0581345,10.9741457 C64.3721475,10.9741457 65.4397831,12.0414566 65.4397831,13.35507 C65.4397831,14.6686835 64.3721475,15.7359944 63.0581345,15.7359944 L33.7665944,15.7359944 C32.4525813,15.7359944 31.3849458,14.6686835 31.3849458,13.35507 C31.3849458,12.0414566 32.4799566,10.9741457 33.7665944,10.9741457 Z"></path>
                                </g>
                            </g>
                        </g>
                        <path d="M177.583384,703.604202 L221.630195,741.233754 C225.052104,744.162017 225.982863,749.0607 223.902343,753.028908 L223.902343,753.028908 C221.246941,758.064426 214.786377,759.706443 210.050456,756.531877 L166.441649,727.468179 L177.583384,703.604202 Z" id="Path" fill="#001D47" fill-rule="nonzero"></path>
                        <path d="M1155.23644,893.421345 L213.527115,893.421345 C201.427245,893.421345 191.626898,883.623978 191.626898,871.527787 L191.626898,245.755182 C191.626898,233.658992 201.427245,223.861625 213.527115,223.861625 L1155.23644,223.861625 C1167.33631,223.861625 1177.13666,233.658992 1177.13666,245.755182 L1177.13666,871.527787 C1177.13666,883.623978 1167.33631,893.421345 1155.23644,893.421345 Z" id="Path" fill="#CEDFE7" fill-rule="nonzero"></path>
                        <g transform="translate(956.396963, 489.868347)" fill-rule="nonzero">
                            <path d="M178.609154,125.340616 L7.89696312,125.340616 C3.73592191,125.340616 0.368763557,121.974482 0.368763557,117.814706 L0.368763557,8.34691877 C0.368763557,4.18714286 3.73592191,0.821008403 7.89696312,0.821008403 L178.609154,0.821008403 C182.770195,0.821008403 186.137354,4.18714286 186.137354,8.34691877 L186.137354,117.814706 C186.137354,121.974482 182.770195,125.340616 178.609154,125.340616 Z" id="Path" fill="#FFFFFF"></path>
                            <path d="M166.180781,105.964818 L20.3253362,105.964818 C17.8068113,105.964818 15.7810412,103.912297 15.7810412,101.421905 L15.7810412,70.5793557 C15.7810412,68.0615966 17.8341866,66.0364426 20.3253362,66.0364426 L166.180781,66.0364426 C168.699306,66.0364426 170.725076,68.0889636 170.725076,70.5793557 L170.725076,101.421905 C170.725076,103.939664 168.699306,105.964818 166.180781,105.964818 Z" id="Path" fill="#E0E9F8"></path>
                            <g transform="translate(143.351410, 13.683473)" fill="#C2C9E9" id="Path">
                                <path d="M3.47505423,0.492605042 C5.28182213,0.492605042 6.76008677,1.97042017 6.76008677,3.77663866 C6.76008677,5.58285714 5.28182213,7.06067227 3.47505423,7.06067227 C1.66828633,7.06067227 0.190021692,5.58285714 0.190021692,3.77663866 C0.190021692,1.97042017 1.66828633,0.492605042 3.47505423,0.492605042 Z"></path>
                                <path d="M15.4380477,0.492605042 C17.2448156,0.492605042 18.7230803,1.97042017 18.7230803,3.77663866 C18.7230803,5.58285714 17.2448156,7.06067227 15.4380477,7.06067227 C13.6312798,7.06067227 12.1530152,5.58285714 12.1530152,3.77663866 C12.1530152,1.97042017 13.6312798,0.492605042 15.4380477,0.492605042 Z"></path>
                                <path d="M27.3736659,0.492605042 C29.1804338,0.492605042 30.6586985,1.97042017 30.6586985,3.77663866 C30.6586985,5.58285714 29.1804338,7.06067227 27.3736659,7.06067227 C25.566898,7.06067227 24.0886334,5.58285714 24.0886334,3.77663866 C24.0886334,1.97042017 25.566898,0.492605042 27.3736659,0.492605042 Z"></path>
                            </g>
                            <g transform="translate(16.425163, 27.366947)">
                                <ellipse id="Oval" fill="#A4B5E9" cx="12.7423861" cy="12.9171989" rx="12.3736226" ry="12.3698599"></ellipse>
                                <path d="M151.452885,20.4431092 L39.5975271,20.4431092 C38.5846421,20.4431092 37.7633839,19.6221008 37.7633839,18.6095238 L37.7633839,6.75963585 C37.7633839,5.74705882 38.5846421,4.92605042 39.5975271,4.92605042 L151.452885,4.92605042 C152.46577,4.92605042 153.287028,5.74705882 153.287028,6.75963585 L153.287028,18.6095238 C153.287028,19.6494678 152.46577,20.4431092 151.452885,20.4431092 Z" id="Path" fill="#E0E9F8"></path>
                            </g>
                        </g>
                        <path d="M1177.13666,278.595518 L1177.13666,245.755182 C1177.13666,233.658992 1167.33631,223.861625 1155.23644,223.861625 L213.527115,223.861625 C201.427245,223.861625 191.626898,233.658992 191.626898,245.755182 L191.626898,278.595518 L1177.13666,278.595518 Z" id="Path" fill="#7736F6" fill-rule="nonzero"></path>
                        <rect id="Rectangle" fill="url(#linearGradient-7)" fill-rule="nonzero" x="191.626898" y="351.117927" width="985.509761" height="112.204482"></rect>
                        <path d="M1096.37961,337.434454 L278.214881,337.434454 C272.164946,337.434454 267.264772,332.53577 267.264772,326.487675 L267.264772,303.554174 C267.264772,297.506078 272.164946,292.607395 278.214881,292.607395 L1096.37961,292.607395 C1102.42954,292.607395 1107.32972,297.506078 1107.32972,303.554174 L1107.32972,326.487675 C1107.32972,332.53577 1102.42954,337.434454 1096.37961,337.434454 Z" id="Path" fill="#FFFFFF" fill-rule="nonzero"></path>
                        <g transform="translate(1124.386117, 299.299720)" id="Path" stroke="#8DAEE6" stroke-linecap="round" stroke-linejoin="round" stroke-width="1.5">
                            <path d="M35.9968764,2.03773109 L0.272147505,2.03773109"></path>
                            <path d="M35.9968764,15.7212045 L0.272147505,15.7212045"></path>
                            <path d="M35.9968764,29.4046779 L0.272147505,29.4046779"></path>
                        </g>
                        <path d="M227.023124,297.31451 L210.816963,309.246499 C210.214707,309.903305 209.858829,310.779048 209.858829,311.682157 L209.858829,331.386359 C209.858829,332.672605 210.899089,333.712549 212.185727,333.712549 L221.739696,333.712549 C223.026334,333.712549 224.066594,332.672605 224.066594,331.386359 L224.066594,318.879664 C224.066594,316.197703 225.900738,313.652577 228.556139,313.26944 C231.786421,312.804202 234.578698,315.321961 234.578698,318.46916 L234.578698,331.386359 C234.578698,332.672605 235.618959,333.712549 236.905597,333.712549 L246.432191,333.712549 C247.718829,333.712549 248.759089,332.672605 248.759089,331.386359 L248.759089,311.682157 C248.759089,310.779048 248.430586,309.903305 247.800954,309.246499 L231.594794,297.31451 C230.390282,295.973529 228.255011,295.973529 227.023124,297.31451 Z" id="Path" stroke="#8DAEE6" stroke-width="1.5" stroke-linecap="round" stroke-linejoin="round"></path>
                        <g transform="translate(279.227766, 303.036415)" stroke="#E0E9F8" stroke-linecap="round" stroke-linejoin="round" stroke-width="1.5">
                            <ellipse id="Oval" cx="11.0322343" cy="11.1361345" rx="11.004859" ry="11.0015126"></ellipse>
                            <path d="M21.7359653,23.8617647 L18.067679,19.592521" id="Path"></path>
                        </g>
                        <g transform="translate(433.529284, 385.137255)">
                            <path d="M495.17679,43.9764706 L6.52819957,43.9764706 C3.13366594,43.9764706 0.368763557,41.212409 0.368763557,37.8189076 L0.368763557,6.34691877 C0.368763557,2.95341737 3.13366594,0.189355742 6.52819957,0.189355742 L495.17679,0.189355742 C498.571323,0.189355742 501.336226,2.95341737 501.336226,6.34691877 L501.336226,37.8189076 C501.336226,41.212409 498.571323,43.9764706 495.17679,43.9764706 Z" id="Path" fill="#FFFFFF" fill-rule="nonzero"></path>
                            <path d="M495.17679,0.189355742 L453.429501,0.189355742 L453.429501,43.9764706 L495.17679,43.9764706 C498.571323,43.9764706 501.336226,41.212409 501.336226,37.8189076 L501.336226,6.34691877 C501.336226,2.95341737 498.571323,0.189355742 495.17679,0.189355742 Z" id="Path" fill="#E0E9F8" fill-rule="nonzero"></path>
                            <g transform="translate(467.117137, 11.683473)" stroke="#C2C9E9" stroke-linecap="round" stroke-linejoin="round" stroke-width="1.5">
                                <ellipse id="Oval" cx="10.2657267" cy="9.66053221" rx="9.41709328" ry="9.41422969"></ellipse>
                                <path d="M19.4090672,20.552577 L16.2882863,16.8854062" id="Path"></path>
                            </g>
                        </g>
                        <ellipse id="Oval" fill="#7736F6" fill-rule="nonzero" cx="236.412842" cy="507.301092" rx="12.3736226" ry="12.3698599"></ellipse>
                        <path d="M1135.00612,859.240028 L964.293926,859.240028 C960.132885,859.240028 956.765727,855.873894 956.765727,851.714118 L956.765727,646.024146 C956.765727,641.86437 960.132885,638.498235 964.293926,638.498235 L1135.00612,638.498235 C1139.16716,638.498235 1142.53432,641.86437 1142.53432,646.024146 L1142.53432,851.714118 C1142.53432,855.873894 1139.16716,859.240028 1135.00612,859.240028 Z" id="Path" fill="#FFFFFF" fill-rule="nonzero"></path>
                        <path d="M360.8882,514.85437 L263.267983,514.85437 C262.255098,514.85437 261.433839,514.033361 261.433839,513.020784 L261.433839,501.170896 C261.433839,500.158319 262.255098,499.337311 263.267983,499.337311 L360.915575,499.337311 C361.92846,499.337311 362.749718,500.158319 362.749718,501.170896 L362.749718,513.020784 C362.722343,514.033361 361.901085,514.85437 360.8882,514.85437 Z" id="Path" fill="#A4B5E9" fill-rule="nonzero"></path>
                        <path d="M460.588937,322.793137 L327.818872,322.793137 C326.805987,322.793137 325.984729,321.972129 325.984729,320.959552 L325.984729,309.109664 C325.984729,308.097087 326.805987,307.276078 327.818872,307.276078 L460.588937,307.276078 C461.601822,307.276078 462.42308,308.097087 462.42308,309.109664 L462.42308,320.959552 C462.42308,321.972129 461.601822,322.793137 460.588937,322.793137 Z" id="Path" fill="#E0E9F8" fill-rule="nonzero"></path>
                        <ellipse id="Oval" fill="#A4B5E9" fill-rule="nonzero" cx="236.412842" cy="543.562297" rx="12.3736226" ry="12.3698599"></ellipse>
                        <path d="M360.8882,551.115574 L263.267983,551.115574 C262.255098,551.115574 261.433839,550.294566 261.433839,549.281989 L261.433839,537.432101 C261.433839,536.419524 262.255098,535.598515 263.267983,535.598515 L360.915575,535.598515 C361.92846,535.598515 362.749718,536.419524 362.749718,537.432101 L362.749718,549.281989 C362.722343,550.294566 361.901085,551.115574 360.8882,551.115574 Z" id="Path" fill="#A4B5E9" fill-rule="nonzero"></path>
                        <path d="M291.546638,587.376779 L225.845987,587.376779 C224.833102,587.376779 224.011844,586.55577 224.011844,585.543193 L224.011844,581.438151 C224.011844,580.425574 224.833102,579.604566 225.845987,579.604566 L291.546638,579.604566 C292.559523,579.604566 293.380781,580.425574 293.380781,581.438151 L293.380781,585.543193 C293.380781,586.55577 292.559523,587.376779 291.546638,587.376779 Z" id="Path" fill="#F577B6" fill-rule="nonzero"></path>
                        <ellipse id="Oval" fill="#FFFFFF" fill-rule="nonzero" cx="236.412842" cy="616.084706" rx="12.3736226" ry="12.3698599"></ellipse>
                        <path d="M360.8882,623.637983 L263.267983,623.637983 C262.255098,623.637983 261.433839,622.816975 261.433839,621.804398 L261.433839,609.95451 C261.433839,608.941933 262.255098,608.120924 263.267983,608.120924 L360.915575,608.120924 C361.92846,608.120924 362.749718,608.941933 362.749718,609.95451 L362.749718,621.804398 C362.722343,622.816975 361.901085,623.637983 360.8882,623.637983 Z" id="Path" fill="#A4B5E9" fill-rule="nonzero"></path>
                        <ellipse id="Oval" fill="#A4B5E9" fill-rule="nonzero" cx="236.412842" cy="652.34591" rx="12.3736226" ry="12.3698599"></ellipse>
                        <path d="M360.8882,659.899188 L263.267983,659.899188 C262.255098,659.899188 261.433839,659.078179 261.433839,658.065602 L261.433839,646.215714 C261.433839,645.203137 262.255098,644.382129 263.267983,644.382129 L360.915575,644.382129 C361.92846,644.382129 362.749718,645.203137 362.749718,646.215714 L362.749718,658.065602 C362.722343,659.078179 361.901085,659.899188 360.8882,659.899188 Z" id="Path" fill="#A4B5E9" fill-rule="nonzero"></path>
                        <ellipse id="Oval" fill="#A4B5E9" fill-rule="nonzero" cx="236.412842" cy="688.607115" rx="12.3736226" ry="12.3698599"></ellipse>
                        <path d="M360.8882,696.160392 L263.267983,696.160392 C262.255098,696.160392 261.433839,695.339384 261.433839,694.326807 L261.433839,682.476919 C261.433839,681.464342 262.255098,680.643333 263.267983,680.643333 L360.915575,680.643333 C361.92846,680.643333 362.749718,681.464342 362.749718,682.476919 L362.749718,694.326807 C362.722343,695.339384 361.901085,696.160392 360.8882,696.160392 Z" id="Path" fill="#A4B5E9" fill-rule="nonzero"></path>
                        <ellipse id="Oval" fill="#FFFFFF" fill-rule="nonzero" cx="236.412842" cy="724.868319" rx="12.3736226" ry="12.3698599"></ellipse>
                        <path d="M360.8882,732.421597 L263.267983,732.421597 C262.255098,732.421597 261.433839,731.600588 261.433839,730.588011 L261.433839,718.738123 C261.433839,717.725546 262.255098,716.904538 263.267983,716.904538 L360.915575,716.904538 C361.92846,716.904538 362.749718,717.725546 362.749718,718.738123 L362.749718,730.588011 C362.722343,731.600588 361.901085,732.421597 360.8882,732.421597 Z" id="Path" fill="#A4B5E9" fill-rule="nonzero"></path>
                        <path d="M291.546638,768.682801 L225.845987,768.682801 C224.833102,768.682801 224.011844,767.861793 224.011844,766.849216 L224.011844,762.744174 C224.011844,761.731597 224.833102,760.910588 225.845987,760.910588 L291.546638,760.910588 C292.559523,760.910588 293.380781,761.731597 293.380781,762.744174 L293.380781,766.849216 C293.380781,767.861793 292.559523,768.682801 291.546638,768.682801 Z" id="Path" fill="#F577B6" fill-rule="nonzero"></path>
                        <ellipse id="Oval" fill="#A4B5E9" fill-rule="nonzero" cx="236.412842" cy="797.390728" rx="12.3736226" ry="12.3698599"></ellipse>
                        <path d="M360.8882,804.944006 L263.267983,804.944006 C262.255098,804.944006 261.433839,804.122997 261.433839,803.11042 L261.433839,791.260532 C261.433839,790.247955 262.255098,789.426947 263.267983,789.426947 L360.915575,789.426947 C361.92846,789.426947 362.749718,790.247955 362.749718,791.260532 L362.749718,803.11042 C362.722343,804.122997 361.901085,804.944006 360.8882,804.944006 Z" id="Path" fill="#A4B5E9" fill-rule="nonzero"></path>
                        <ellipse id="Oval" fill="#FFFFFF" fill-rule="nonzero" cx="236.412842" cy="833.651933" rx="12.3736226" ry="12.3698599"></ellipse>
                        <path d="M360.8882,841.20521 L263.267983,841.20521 C262.255098,841.20521 261.433839,840.384202 261.433839,839.371625 L261.433839,827.521737 C261.433839,826.50916 262.255098,825.688151 263.267983,825.688151 L360.915575,825.688151 C361.92846,825.688151 362.749718,826.50916 362.749718,827.521737 L362.749718,839.371625 C362.722343,840.384202 361.901085,841.20521 360.8882,841.20521 Z" id="Path" fill="#A4B5E9" fill-rule="nonzero"></path>
                        <g transform="translate(394.203905, 489.868347)" fill-rule="nonzero" id="Path">
                            <path d="M537.239696,174.60112 L7.52819957,174.60112 C3.36715835,174.60112 0,171.234986 0,167.07521 L0,8.34691877 C0,4.18714286 3.36715835,0.821008403 7.52819957,0.821008403 L537.239696,0.821008403 C541.400738,0.821008403 544.767896,4.18714286 544.767896,8.34691877 L544.767896,167.07521 C544.767896,171.234986 541.400738,174.60112 537.239696,174.60112 Z" fill="#FFFFFF"></path>
                            <path d="M151.467375,32.7582353 L18.6973102,32.7582353 C17.6844252,32.7582353 16.863167,31.9372269 16.863167,30.9246499 L16.863167,19.0747619 C16.863167,18.0621849 17.6844252,17.2411765 18.6973102,17.2411765 L151.467375,17.2411765 C152.48026,17.2411765 153.301518,18.0621849 153.301518,19.0747619 L153.301518,30.9246499 C153.301518,31.9372269 152.48026,32.7582353 151.467375,32.7582353 Z" fill="#E0E9F8"></path>
                            <path d="M523.716312,157.879916 L18.6973102,157.879916 C17.6844252,157.879916 16.863167,157.058908 16.863167,156.046331 L16.863167,144.196443 C16.863167,143.183866 17.6844252,142.362857 18.6973102,142.362857 L523.716312,142.362857 C524.729197,142.362857 525.550456,143.183866 525.550456,144.196443 L525.550456,156.046331 C525.550456,157.058908 524.729197,157.879916 523.716312,157.879916 Z" fill="#E0E9F8"></path>
                            <path d="M304.768894,32.7582353 L171.998829,32.7582353 C170.985944,32.7582353 170.164685,31.9372269 170.164685,30.9246499 L170.164685,19.0747619 C170.164685,18.0621849 170.985944,17.2411765 171.998829,17.2411765 L304.768894,17.2411765 C305.781779,17.2411765 306.603037,18.0621849 306.603037,19.0747619 L306.603037,30.9246499 C306.603037,31.9372269 305.781779,32.7582353 304.768894,32.7582353 Z" fill="#E0E9F8"></path>
                            <path d="M458.070412,32.7582353 L325.300347,32.7582353 C324.287462,32.7582353 323.466204,31.9372269 323.466204,30.9246499 L323.466204,19.0747619 C323.466204,18.0621849 324.287462,17.2411765 325.300347,17.2411765 L458.070412,17.2411765 C459.083297,17.2411765 459.904555,18.0621849 459.904555,19.0747619 L459.904555,30.9246499 C459.904555,31.9372269 459.083297,32.7582353 458.070412,32.7582353 Z" fill="#E0E9F8"></path>
                            <path d="M456.373145,118.279944 L20.4219523,118.279944 C18.478308,118.279944 16.8905423,116.692661 16.8905423,114.749608 L16.8905423,66.6385154 C16.8905423,64.6954622 18.478308,63.1081793 20.4219523,63.1081793 L456.373145,63.1081793 C458.31679,63.1081793 459.904555,64.6954622 459.904555,66.6385154 L459.904555,114.749608 C459.904555,116.692661 458.31679,118.279944 456.373145,118.279944 Z" fill="#CEDFE7"></path>
                        </g>
                        <g transform="translate(394.203905, 685.173669)" fill-rule="nonzero" id="Path">
                            <path d="M537.239696,174.066359 L7.52819957,174.066359 C3.36715835,174.066359 0,170.700224 0,166.540448 L0,7.81215686 C0,3.65238095 3.36715835,0.286246499 7.52819957,0.286246499 L537.239696,0.286246499 C541.400738,0.286246499 544.767896,3.65238095 544.767896,7.81215686 L544.767896,166.540448 C544.767896,170.700224 541.400738,174.066359 537.239696,174.066359 Z" fill="#FFFFFF"></path>
                            <path d="M151.467375,32.2234734 L18.6973102,32.2234734 C17.6844252,32.2234734 16.863167,31.402465 16.863167,30.389888 L16.863167,18.54 C16.863167,17.527423 17.6844252,16.7064146 18.6973102,16.7064146 L151.467375,16.7064146 C152.48026,16.7064146 153.301518,17.527423 153.301518,18.54 L153.301518,30.389888 C153.301518,31.402465 152.48026,32.2234734 151.467375,32.2234734 Z" fill="#E0E9F8"></path>
                            <path d="M523.716312,157.345154 L18.6973102,157.345154 C17.6844252,157.345154 16.863167,156.524146 16.863167,155.511569 L16.863167,143.661681 C16.863167,142.649104 17.6844252,141.828095 18.6973102,141.828095 L523.716312,141.828095 C524.729197,141.828095 525.550456,142.649104 525.550456,143.661681 L525.550456,155.511569 C525.550456,156.524146 524.729197,157.345154 523.716312,157.345154 Z" fill="#E0E9F8"></path>
                            <path d="M304.768894,32.2234734 L171.998829,32.2234734 C170.985944,32.2234734 170.164685,31.402465 170.164685,30.389888 L170.164685,18.54 C170.164685,17.527423 170.985944,16.7064146 171.998829,16.7064146 L304.768894,16.7064146 C305.781779,16.7064146 306.603037,17.527423 306.603037,18.54 L306.603037,30.389888 C306.603037,31.402465 305.781779,32.2234734 304.768894,32.2234734 Z" fill="#E0E9F8"></path>
                            <path d="M458.070412,32.2234734 L325.300347,32.2234734 C324.287462,32.2234734 323.466204,31.402465 323.466204,30.389888 L323.466204,18.54 C323.466204,17.527423 324.287462,16.7064146 325.300347,16.7064146 L458.070412,16.7064146 C459.083297,16.7064146 459.904555,17.527423 459.904555,18.54 L459.904555,30.389888 C459.904555,31.402465 459.083297,32.2234734 458.070412,32.2234734 Z" fill="#E0E9F8"></path>
                            <path d="M456.373145,117.745182 L20.4219523,117.745182 C18.478308,117.745182 16.8905423,116.157899 16.8905423,114.214846 L16.8905423,66.1037535 C16.8905423,64.1607003 18.478308,62.5734174 20.4219523,62.5734174 L456.373145,62.5734174 C458.31679,62.5734174 459.904555,64.1607003 459.904555,66.1037535 L459.904555,114.214846 C459.904555,116.157899 458.31679,117.745182 456.373145,117.745182 Z" fill="#CEDFE7"></path>
                        </g>
                        <path d="M1087.20889,659.899188 L1126.51978,659.899188 C1128.65505,659.899188 1130.40707,658.17507 1130.40707,656.013081 L1130.40707,656.013081 C1130.40707,653.878459 1128.68243,652.126975 1126.51978,652.126975 L1087.20889,652.126975 C1085.07362,652.126975 1083.32161,653.851092 1083.32161,656.013081 L1083.32161,656.013081 C1083.34898,658.17507 1085.07362,659.899188 1087.20889,659.899188 Z" id="Path" fill="#E0E9F8" fill-rule="nonzero"></path>
                        <g transform="translate(980.034707, 678.700280)" fill-rule="nonzero">
                            <ellipse id="Oval" fill="#7736F6" cx="12.6473753" cy="13.1635014" rx="12.3736226" ry="12.3698599"></ellipse>
                            <path d="M137.122733,20.7167787 L39.475141,20.7167787 C38.462256,20.7167787 37.6409978,19.8957703 37.6409978,18.8831933 L37.6409978,7.03330532 C37.6409978,6.02072829 38.462256,5.19971989 39.475141,5.19971989 L137.122733,5.19971989 C138.135618,5.19971989 138.956876,6.02072829 138.956876,7.03330532 L138.956876,18.8831933 C138.956876,19.8957703 138.135618,20.7167787 137.122733,20.7167787 Z" id="Path" fill="#E0E9F8"></path>
                            <path d="M137.122733,56.9779832 L2.08052061,56.9779832 C1.06763557,56.9779832 0.24637744,56.1569748 0.24637744,55.1443978 L0.24637744,43.2945098 C0.24637744,42.2819328 1.06763557,41.4609244 2.08052061,41.4609244 L137.122733,41.4609244 C138.135618,41.4609244 138.956876,42.2819328 138.956876,43.2945098 L138.956876,55.1443978 C138.956876,56.1569748 138.135618,56.9779832 137.122733,56.9779832 Z" id="Path" fill="#A4B5E9"></path>
                        </g>
                        <g transform="translate(980.034707, 776.484594)" fill-rule="nonzero">
                            <ellipse id="Oval" fill="#7736F6" cx="12.6473753" cy="12.7507843" rx="12.3736226" ry="12.3698599"></ellipse>
                            <path d="M137.122733,20.3040616 L39.475141,20.3040616 C38.462256,20.3040616 37.6409978,19.4830532 37.6409978,18.4704762 L37.6409978,6.62058824 C37.6409978,5.6080112 38.462256,4.7870028 39.475141,4.7870028 L137.122733,4.7870028 C138.135618,4.7870028 138.956876,5.6080112 138.956876,6.62058824 L138.956876,18.4704762 C138.956876,19.4830532 138.135618,20.3040616 137.122733,20.3040616 Z" id="Path" fill="#E0E9F8"></path>
                            <path d="M137.122733,56.5652661 L2.08052061,56.5652661 C1.06763557,56.5652661 0.24637744,55.7442577 0.24637744,54.7316807 L0.24637744,42.8817927 C0.24637744,41.8692157 1.06763557,41.0482073 2.08052061,41.0482073 L137.122733,41.0482073 C138.135618,41.0482073 138.956876,41.8692157 138.956876,42.8817927 L138.956876,54.7316807 C138.956876,55.7442577 138.135618,56.5652661 137.122733,56.5652661 Z" id="Path" fill="#A4B5E9"></path>
                        </g>
                        <path d="M1082.9931,302.076359 L1085.70325,307.577115 C1086.33289,308.863361 1087.56477,309.739104 1088.96091,309.930672 L1095.03822,310.806415 C1096.10586,310.970616 1096.54386,312.28423 1095.74998,313.023137 L1091.36993,317.292381 C1090.35705,318.277591 1089.89167,319.728039 1090.13805,321.123754 L1091.17831,327.171849 C1091.36993,328.23916 1090.24755,329.032801 1089.28941,328.540196 L1083.86911,325.694034 C1082.60985,325.037227 1081.10421,325.037227 1079.84495,325.694034 L1074.42464,328.540196 C1073.46651,329.032801 1072.34412,328.23916 1072.53575,327.171849 L1073.57601,321.123754 C1073.82239,319.728039 1073.35701,318.277591 1072.34412,317.292381 L1067.96408,313.023137 C1067.19757,312.28423 1067.6082,310.970616 1068.67584,310.806415 L1074.75315,309.930672 C1076.14928,309.739104 1077.38117,308.835994 1078.0108,307.577115 L1080.72095,302.076359 C1081.13158,301.091148 1082.50035,301.091148 1082.9931,302.076359 Z" id="Path" fill="#CEDFE7" fill-rule="nonzero"></path>
                        <g transform="translate(993.722343, 602.072829)" fill="#001D47" fill-rule="nonzero" id="Path">
                            <path d="M68.9309328,48.0563585 L104.49141,52.5992717 C115.386768,53.994986 124.69436,61.1651261 128.828026,71.3456303 L145.390065,109.166751 C147.935965,114.99591 149.085727,121.345042 148.757223,127.694174 L146.40295,170.988683 C145.910195,174.655854 142.378785,177.091513 138.765249,176.325238 L138.765249,176.325238 C135.75397,175.695798 133.646074,172.986471 133.755575,169.921373 L130.634794,120.82507 L118.343297,100.628263 L125.351367,311.38112 C125.460868,314.774622 122.750716,317.593417 119.356182,317.593417 L95.2385683,317.593417 C94.0614317,317.593417 93.486551,316.170336 94.3078091,315.349328 L98.8521041,310.806415 L91.2144035,179.144034 L80.6201735,312.065294 C80.3737961,315.185126 77.7731453,317.593417 74.6249892,317.593417 L52.1498915,317.593417 C50.7263774,317.593417 50.0419957,315.814566 51.1370065,314.88409 L56.8584382,309.985406 L61.5122343,73.8907563 L26.6361388,63.5460504 C21.70859,62.0956022 17.7939262,58.3463305 16.0966594,53.502381 L0.848633406,9.68789916 C-0.547505423,5.66495798 1.83414317,1.31361345 5.99518438,0.355770308 L5.99518438,0.355770308 C9.28021692,-0.410504202 12.6473753,1.20414566 14.0982646,4.24187675 L32.2206941,42.2545658 C33.0967028,44.0881513 34.9034707,45.3470308 36.9292408,45.5112325 L68.9309328,48.0563585 Z"></path>
                            <path d="M81.1950542,47.3995518 L85.0002169,29.7752381 C86.5058568,22.7692997 93.6234273,18.4726891 100.549371,20.4157423 L100.549371,20.4157423 C107.092061,22.2493277 110.951974,28.9815966 109.254707,35.5496639 L104.737787,53.0097759 C103.013145,59.632577 96.1693275,63.5186835 89.5992625,61.5756303 L89.5992625,61.5756303 C83.5219523,59.7694118 79.8536659,53.5844818 81.1950542,47.3995518 Z"></path>
                        </g>
                        <g transform="translate(107.763557, 630.439776)" fill="#001D47" fill-rule="nonzero" id="Path">
                            <path d="M32.1240781,274.092549 C31.6860738,273.54521 31.6039479,272.751569 31.9324512,271.875826 L59.4172234,213.611597 C66.6169197,199.408151 70.9695879,183.097451 70.2304555,170.426555 L68.8069414,146.53521 C68.5879393,142.703838 16.3011714,129.868739 16.3011714,129.868739 C16.2737961,132.906471 23.5556182,154.827395 23.5556182,154.827395 L35.4638612,193.524258 C36.558872,197.081961 36.3398698,200.913333 34.8068547,204.334202 L0.888893709,280.605882 C-0.507245119,284.081485 1.13527115,286.818179 4.61193059,286.818179 L33.6023427,286.818179 C36.558872,286.818179 39.5427766,283.068908 38.0371367,281.235322 L32.1240781,274.092549 Z"></path>
                            <path d="M64.016269,21.7419328 L68.4236876,8.71526611 C70.4220824,2.8040056 76.6636443,-0.534761905 82.6862039,1.07988796 L84.1644685,1.46302521 C90.6797831,3.2145098 94.40282,10.0562465 92.3496746,16.460112 L88.0791323,29.8972829 C85.8891106,36.7937535 78.0324078,40.132521 71.5444685,36.9032213 L69.9293275,36.1095798 C64.6459002,33.4823529 62.1273753,27.3521569 64.016269,21.7419328 Z"></path>
                            <path d="M20.0515835,138.434594 C12.7423861,129.430868 10.0322343,117.58098 12.6876356,106.278431 C18.1900651,82.8796919 27.5250325,43.8270588 30.4815618,35.2612045 C31.7408243,31.6487675 34.8068547,28.5289356 38.5298915,25.9290756 C49.5347505,18.2663305 63.8793926,17.4179552 76.0887636,22.8913445 C76.6636443,23.1376471 77.2385249,23.4113165 77.8134056,23.7123529 C88.5171367,28.9668067 97.4140998,37.2316246 103.847289,47.2479272 L116.11141,66.2953221 C116.11141,66.2953221 143.760434,37.067423 148.742733,36.3285154 C153.725033,35.6169748 160.869978,41.9113725 158.734707,47.3026611 C157.092191,51.462437 141.734664,72.8633894 124.241866,90.1866667 C119.889197,94.5106443 113.072755,95.0579832 108.035705,91.5276471 L82.5493275,73.6022969 L82.5493275,73.6022969 C71.7087202,89.7214286 65.9872885,108.768824 66.1241649,128.199356 C66.1241649,129.211933 66.1515401,129.786639 66.1515401,129.786639 C66.3157918,134.083249 86.9841215,170.344454 86.9841215,170.344454 C93.4446855,183.01535 96.4012148,199.32605 95.5799566,213.529496 L94.3206941,271.793725 C94.3754447,272.669468 94.813449,273.463109 95.4978308,274.010448 L104.586421,281.153221 C106.913319,282.986807 105.626681,286.736078 102.670152,286.736078 L73.707115,286.736078 C70.2304555,286.736078 67.3560521,283.999384 67.1918004,280.523782 L69.5460738,208.685546 C69.6555748,205.182577 68.5879393,201.734342 66.4800434,198.915546 L33.3559653,154.745294 L20.0515835,138.434594 Z"></path>
                        </g>
                        <path d="M1176.94503,350.324286 L1197.88711,353.827255 C1208.72772,355.633473 1217.56993,363.46042 1220.63597,373.996695 L1226.30265,403.033025 C1228.43792,410.34 1224.4685,418.030112 1217.24143,420.520504 L1159.17848,449.803137 C1153.37492,451.800924 1147.13336,448.462157 1145.5456,442.550896 L1145.5456,442.550896 C1144.20421,437.542745 1146.69536,432.315658 1151.4039,430.208403 L1176.91766,409.628459 L1176.94503,350.324286 Z" id="Path" fill="#001D47" fill-rule="nonzero"></path>
                        <path d="M1191.1528,362.11944 L1189.59241,349.147507 C1188.74377,342.168936 1182.63909,337.051317 1175.60364,337.461821 L1175.60364,337.461821 C1168.02069,337.899692 1162.32664,344.577227 1163.09315,352.130504 L1164.43453,365.157171 C1165.25579,373.285154 1173.13987,378.731176 1181.05132,376.678655 L1181.27033,376.623922 C1187.73089,374.927171 1191.94668,368.742241 1191.1528,362.11944 Z" id="Path" fill="#001D47" fill-rule="nonzero"></path>
                        <path d="M412.025206,205.334202 L386.292451,201.22916 C370.223167,198.656667 354.263384,206.346779 346.24243,220.49549 L346.24243,220.49549 C343.614403,225.120504 341.889761,230.238123 341.178004,235.519944 L337.947722,259.548123 C336.907462,267.37507 339.590239,275.202017 345.174794,280.757507 L373.590325,308.835994 C376.10885,311.326387 380.10564,311.627423 382.952668,309.520168 L382.952668,309.520168 C386.265076,307.08451 386.894707,302.377395 384.321432,299.148095 L359.546811,266.006723 L363.132972,252.870588 C365.103991,245.618347 371.455054,240.445994 378.955879,239.953389 L412.381085,237.791401 C419.52603,237.326162 426.205597,241.239636 429.326377,247.670868 L439.619479,268.934986 L426.369848,298.792325 C424.426204,303.171036 426.506725,308.288655 430.941518,310.094874 L430.941518,310.094874 C435.129935,311.791625 439.947983,309.903305 441.836876,305.770896 L455.36026,276.433529 C458.426291,269.783361 458.426291,262.147983 455.387636,255.470448 L443.342516,229.143445 C437.593709,216.472549 425.794967,207.523557 412.025206,205.334202 Z" id="Path" fill="#001D47" fill-rule="nonzero"></path>
                        <path d="M383.938178,237.43563 L385.471193,224.655266 C386.292451,217.786162 392.315011,212.750644 399.213579,213.133782 L399.213579,213.133782 C406.687028,213.544286 412.271584,220.112353 411.505076,227.556162 L410.191063,240.391261 C409.369805,248.382409 401.622603,253.773697 393.848026,251.721176 L393.629024,251.666443 C387.277961,250.024426 383.144295,243.948964 383.938178,237.43563 Z" id="Path" fill="#001D47" fill-rule="nonzero"></path>
                        <path d="M1166.65193,925.796443 L107.666941,925.796443 C101.863384,925.796443 97.1822126,921.089328 97.1822126,915.314902 L97.1822126,915.314902 C97.1822126,909.513109 101.890759,904.833361 107.666941,904.833361 L1166.65193,904.833361 C1172.45549,904.833361 1177.13666,909.540476 1177.13666,915.314902 L1177.13666,915.314902 C1177.13666,921.116695 1172.42811,925.796443 1166.65193,925.796443 Z" id="Path" fill="#CFDDF4" fill-rule="nonzero"></path>
                        <g transform="translate(543.030369, 929.739496)" fill-rule="nonzero" id="Path">
                            <g>
                                <path d="M121.613839,33.987535 C123.530108,31.8802801 125.610629,29.9098599 127.581649,27.829972 C127.964902,27.4468347 128.293406,27.0363305 128.649284,26.6531933 C132.153319,20.0303922 138.531757,13.3802241 143.076052,7.96156863 C145.3482,5.2522409 147.866725,2.84394958 150.467375,0.572492997 L47.2078525,0.572492997 C42.8278091,0.572492997 38.5025163,1.42086835 37.5170065,2.51554622 L1.19002169,41.5955462 C-0.726247289,43.6480672 2.75041215,45.3721849 8.9645987,45.3721849 L112.169371,45.3721849 C115.016399,41.2945098 118.383557,37.5178711 121.613839,33.987535 Z" fill="url(#linearGradient-8)"></path>
                                <g transform="translate(29.112798, 7.210084)">
                                    <path d="M92.5010412,26.777451 C94.4173102,24.6701961 96.4978308,22.6997759 98.4688503,20.619888 C98.8521041,20.2367507 99.1806074,19.8262465 99.5364859,19.4431092 C100.713623,17.2263866 102.219262,15.0096639 103.861779,12.8476751 L16.9179176,12.8476751 C13.7971367,12.8476751 10.6763557,13.5865826 9.9645987,14.4896919 L0.410629067,26.8048179 C-0.438004338,27.9268627 1.69726681,28.829972 5.22867679,28.829972 L90.6121475,28.829972 C91.269154,28.1184314 91.8987852,27.4342577 92.5010412,26.777451 Z" fill="#E0E9F8"></path>
                                    <g transform="translate(18.425163, 0.000000)">
                                        <path d="M29.3173102,4.33655462 C28.2222993,6.47117647 20.6393492,8.27739496 12.4267679,8.27739496 C4.24156182,8.27739496 -1.04186551,6.47117647 0.600650759,4.33655462 C2.18841649,2.28403361 9.63449024,0.642016807 17.3269414,0.642016807 C25.0193926,0.642016807 30.3849458,2.28403361 29.3173102,4.33655462 Z" fill="#A4B5E9"></path>
                                        <path d="M94.5252061,1.92826331 L47.0291106,1.92826331 C45.8793492,1.92826331 44.8664642,2.17456583 44.7569631,2.47560224 L43.333449,6.11540616 C43.1965727,6.44380952 44.0725813,6.69011204 45.2770933,6.69011204 L90.4462907,6.69011204 C91.8424295,5.04809524 93.2385683,3.46081232 94.5252061,1.92826331 Z" fill="#E0E9F8"></path>
                                    </g>
                                </g>
                            </g>
                            <g transform="translate(102.288503, 0.000000)">
                                <path d="M264.279262,45.3448179 L8.45735358,45.3448179 C2.21579176,45.3448179 -1.23349241,43.6480672 0.682776573,41.5681793 L37.0097614,2.48817927 C38.0226464,1.42086835 42.3479393,0.54512605 46.7006074,0.54512605 L226.008633,0.54512605 C230.388677,0.54512605 234.71397,1.3935014 235.699479,2.48817927 L272.026464,41.5681793 C273.970108,43.6207003 270.520824,45.3448179 264.279262,45.3448179 Z" fill="url(#linearGradient-9)"></path>
                                <g transform="translate(28.112798, 3.473389)">
                                    <path d="M210.762213,32.5392997 L5.77618221,32.5392997 C2.24477223,32.5392997 0.0821258134,31.6361905 0.95813449,30.5141457 L10.5121041,18.1990196 C11.2238612,17.2959104 14.3172668,16.5570028 17.465423,16.5570028 L199.127722,16.5570028 C202.248503,16.5570028 205.369284,17.2959104 206.081041,18.1990196 L215.635011,30.5141457 C216.456269,31.6361905 214.293623,32.5392997 210.762213,32.5392997 Z" fill="#E0E9F8"></path>
                                    <g transform="translate(162.514100, 0.000000)" fill="#C2C9E9">
                                        <path d="M3.90017354,0.574705882 C5.87119306,0.574705882 7.67796095,0.957843137 7.95171367,1.45044818 C8.22546638,1.94305322 6.85670282,2.35355742 4.85830803,2.35355742 C2.85991323,2.35355742 1.02577007,1.94305322 0.779392625,1.45044818 C0.533015184,0.957843137 1.92915401,0.574705882 3.90017354,0.574705882 Z"></path>
                                        <path d="M16.8760521,0.574705882 C18.8470716,0.574705882 20.70859,0.957843137 21.0370933,1.45044818 C21.3929718,1.94305322 20.0515835,2.35355742 18.0531887,2.35355742 C16.0547939,2.35355742 14.1932755,1.94305322 13.8647722,1.45044818 C13.5636443,0.957843137 14.9050325,0.574705882 16.8760521,0.574705882 Z"></path>
                                        <path d="M29.8245553,0.574705882 C31.7955748,0.574705882 33.7118438,0.957843137 34.0950976,1.45044818 C34.5057267,1.94305322 33.2190889,2.35355742 31.2206941,2.35355742 C29.2222993,2.35355742 27.3060304,1.94305322 26.9227766,1.45044818 C26.566898,0.957843137 27.8809111,0.574705882 29.8245553,0.574705882 Z"></path>
                                    </g>
                                    <g transform="translate(19.162690, 3.736695)">
                                        <path d="M29.0999132,4.33655462 C28.0049024,6.47117647 20.4219523,8.27739496 12.2093709,8.27739496 C4.02416486,8.27739496 -1.25926247,6.47117647 0.383253796,4.33655462 C1.97101952,2.28403361 9.41709328,0.642016807 17.1095445,0.642016807 C24.7746204,0.642016807 30.1675488,2.28403361 29.0999132,4.33655462 Z" fill="#A4B5E9"></path>
                                        <path d="M177.473883,6.71747899 L45.032321,6.71747899 C43.8278091,6.71747899 42.9791757,6.44380952 43.0886768,6.14277311 L44.5121909,2.50296919 C44.621692,2.20193277 45.6619523,1.95563025 46.7843384,1.95563025 L173.887722,1.95563025 C175.037484,1.95563025 176.15987,2.20193277 176.378872,2.50296919 L179.17115,6.14277311 C179.444902,6.44380952 178.678395,6.71747899 177.473883,6.71747899 Z" fill="#E0E9F8"></path>
                                    </g>
                                </g>
                            </g>
                            <g transform="translate(225.477223, 0.000000)">
                                <path d="M264.498265,45.3448179 L8.67635575,45.3448179 C2.43479393,45.3448179 -1.01449024,43.6480672 0.901778742,41.5681793 L37.2287636,2.48817927 C38.2416486,1.42086835 42.5669414,0.54512605 46.9196095,0.54512605 L226.227636,0.54512605 C230.607679,0.54512605 234.932972,1.3935014 235.918482,2.48817927 L272.245466,41.5681793 C274.189111,43.6207003 270.739826,45.3448179 264.498265,45.3448179 Z" fill="#FFFFFF"></path>
                                <g transform="translate(28.112798, 3.473389)">
                                    <path d="M210.981215,32.5392997 L5.99518438,32.5392997 C2.4637744,32.5392997 0.301127983,31.6361905 1.17713666,30.5141457 L10.7311063,18.1990196 C11.4428633,17.2959104 14.536269,16.5570028 17.6844252,16.5570028 L199.346725,16.5570028 C202.467505,16.5570028 205.588286,17.2959104 206.300043,18.1990196 L215.854013,30.5141457 C216.675271,31.6361905 214.512625,32.5392997 210.981215,32.5392997 Z" fill="#E0E9F8"></path>
                                    <g transform="translate(162.514100, 0.000000)" fill="#C2C9E9">
                                        <path d="M4.1191757,0.574705882 C6.09019523,0.574705882 7.89696312,0.957843137 8.17071584,1.45044818 C8.44446855,1.94305322 7.07570499,2.35355742 5.0773102,2.35355742 C3.0789154,2.35355742 1.24477223,1.94305322 0.998394794,1.45044818 C0.752017354,0.957843137 2.14815618,0.574705882 4.1191757,0.574705882 Z"></path>
                                        <path d="M17.0950542,0.574705882 C19.0660738,0.574705882 20.9275922,0.957843137 21.2560954,1.45044818 C21.611974,1.94305322 20.2705857,2.35355742 18.2721909,2.35355742 C16.2737961,2.35355742 14.4122777,1.94305322 14.0837744,1.45044818 C13.7826464,0.957843137 15.1240347,0.574705882 17.0950542,0.574705882 Z"></path>
                                        <path d="M30.0435575,0.574705882 C32.014577,0.574705882 33.930846,0.957843137 34.3140998,1.45044818 C34.7247289,1.94305322 33.4380911,2.35355742 31.4396963,2.35355742 C29.4413015,2.35355742 27.5250325,1.94305322 27.1417787,1.45044818 C26.7859002,0.957843137 28.0999132,0.574705882 30.0435575,0.574705882 Z"></path>
                                    </g>
                                    <g transform="translate(19.162690, 3.736695)">
                                        <path d="M29.3189154,4.33655462 C28.2239046,6.47117647 20.6409544,8.27739496 12.4283731,8.27739496 C4.24316703,8.27739496 -1.0402603,6.47117647 0.602255965,4.33655462 C2.19002169,2.28403361 9.63609544,0.642016807 17.3285466,0.642016807 C25.0209978,0.642016807 30.386551,2.28403361 29.3189154,4.33655462 Z" fill="#A4B5E9"></path>
                                        <path d="M177.692885,6.71747899 L45.2513232,6.71747899 C44.0468113,6.71747899 43.1981779,6.44380952 43.307679,6.14277311 L44.7311931,2.50296919 C44.8406941,2.20193277 45.8809544,1.95563025 47.0033406,1.95563025 L174.106725,1.95563025 C175.256486,1.95563025 176.378872,2.20193277 176.597874,2.50296919 L179.390152,6.14277311 C179.663905,6.44380952 178.897397,6.71747899 177.692885,6.71747899 Z" fill="#E0E9F8"></path>
                                    </g>
                                </g>
                            </g>
                        </g>
                        <g transform="translate(405.154013, 124.151261)" fill-rule="nonzero">
                            <g transform="translate(40.325380, 38.313725)">
                                <path d="M220.506204,45.5238095 L11.2770065,45.5238095 C5.22707158,45.5238095 0.326898048,40.6251261 0.326898048,34.5770308 L0.326898048,11.6435294 C0.326898048,5.59543417 5.22707158,0.6967507 11.2770065,0.6967507 L220.506204,0.6967507 C226.556139,0.6967507 231.456312,5.59543417 231.456312,11.6435294 L231.456312,34.5770308 C231.456312,40.6251261 226.556139,45.5238095 220.506204,45.5238095 Z" id="Path" fill="url(#linearGradient-10)"></path>
                                <path d="M33.0950976,30.8003922 C35.0934924,28.5015686 36.3527549,25.5459384 36.3527549,22.2619048 C36.3527549,15.0643978 30.4944469,9.20787115 23.2947505,9.20787115 C16.0950542,9.20787115 10.2367462,15.0643978 10.2367462,22.2619048 C10.2367462,29.4594118 16.0950542,35.3159384 23.2947505,35.3159384 C25.7311497,35.3159384 28.0032972,34.6043978 29.9469414,33.427619 L32.4380911,36.3285154 C32.8487202,36.7937535 33.4236009,37.040056 33.9984816,37.040056 C34.4638612,37.040056 34.9566161,36.8758543 35.3398698,36.547451 C36.1885033,35.8085434 36.2980043,34.5222969 35.558872,33.6465546 L33.0950976,30.8003922 Z M14.3430369,22.2619048 C14.3430369,17.3358543 18.3672017,13.3129132 23.2947505,13.3129132 C28.2222993,13.3129132 32.2464642,17.3358543 32.2464642,22.2619048 C32.2464642,27.1879552 28.2222993,31.2108964 23.2947505,31.2108964 C18.3672017,31.2108964 14.3430369,27.1879552 14.3430369,22.2619048 Z" id="Shape" fill="#E0E9F8"></path>
                                <path d="M193.623688,30.882493 L60.8536226,30.882493 C59.8407375,30.882493 59.0194794,30.0614846 59.0194794,29.0489076 L59.0194794,17.1990196 C59.0194794,16.1864426 59.8407375,15.3654342 60.8536226,15.3654342 L193.623688,15.3654342 C194.636573,15.3654342 195.457831,16.1864426 195.457831,17.1990196 L195.457831,29.0489076 C195.457831,30.0614846 194.636573,30.882493 193.623688,30.882493 Z" id="Path" fill="#E0E9F8"></path>
                            </g>
                            <g>
                                <path d="M220.945813,45.4964426 L11.7166161,45.4964426 C5.66668113,45.4964426 0.766507592,40.5977591 0.766507592,34.5496639 L0.766507592,11.6161625 C0.766507592,5.56806723 5.66668113,0.669383754 11.7166161,0.669383754 L220.945813,0.669383754 C226.995748,0.669383754 231.895922,5.56806723 231.895922,11.6161625 L231.895922,34.5496639 C231.895922,40.5977591 226.968373,45.4964426 220.945813,45.4964426 Z" id="Path" fill="url(#linearGradient-11)"></path>
                                <path d="M33.5347072,30.7730252 C35.533102,28.4742017 36.7923644,25.5185714 36.7923644,22.2345378 C36.7923644,15.0370308 30.9340564,9.1805042 23.7343601,9.1805042 C16.5346638,9.1805042 10.6763557,15.0370308 10.6763557,22.2345378 C10.6763557,29.4320448 16.5346638,35.2885714 23.7343601,35.2885714 C26.1707592,35.2885714 28.4429067,34.5770308 30.386551,33.4002521 L32.8777007,36.3011485 C33.2883297,36.7663866 33.8632104,37.0126891 34.4380911,37.0126891 C34.9034707,37.0126891 35.3962256,36.8484874 35.7794794,36.520084 C36.6281128,35.7811765 36.7376139,34.49493 35.9984816,33.6191877 L33.5347072,30.7730252 Z M14.7826464,22.2345378 C14.7826464,17.3084874 18.8068113,13.2855462 23.7343601,13.2855462 C28.6619089,13.2855462 32.6860738,17.3084874 32.6860738,22.2345378 C32.6860738,27.1605882 28.6619089,31.1835294 23.7343601,31.1835294 C18.8068113,31.1835294 14.7826464,27.1605882 14.7826464,22.2345378 Z" id="Shape" fill="#E0E9F8"></path>
                                <path d="M194.063297,30.8551261 L61.2932321,30.8551261 C60.2803471,30.8551261 59.4590889,30.0341176 59.4590889,29.0215406 L59.4590889,17.1716527 C59.4590889,16.1590756 60.2803471,15.3380672 61.2932321,15.3380672 L194.063297,15.3380672 C195.076182,15.3380672 195.89744,16.1590756 195.89744,17.1716527 L195.89744,29.0215406 C195.89744,30.0341176 195.076182,30.8551261 194.063297,30.8551261 Z" id="Path" fill="#E0E9F8"></path>
                            </g>
                            <g transform="translate(75.913232, 77.627451)">
                                <path d="M220.533579,45.0711485 L11.3043818,45.0711485 C5.25444685,45.0711485 0.354273319,40.172465 0.354273319,34.1243697 L0.354273319,11.1908683 C0.354273319,5.14277311 5.25444685,0.244089636 11.3043818,0.244089636 L220.533579,0.244089636 C226.583514,0.244089636 231.483688,5.14277311 231.483688,11.1908683 L231.483688,34.1243697 C231.483688,40.145098 226.583514,45.0711485 220.533579,45.0711485 Z" id="Path" fill="#FFFFFF"></path>
                                <g transform="translate(9.950108, 8.210084)" fill="#E0E9F8">
                                    <path d="M13.3993926,26.6258263 C6.19969631,26.6258263 0.341388286,20.7692997 0.341388286,13.5717927 C0.341388286,6.37428571 6.19969631,0.517759104 13.3993926,0.517759104 C20.5990889,0.517759104 26.457397,6.37428571 26.457397,13.5717927 C26.457397,20.7692997 20.5990889,26.6258263 13.3993926,26.6258263 Z M13.3993926,4.62280112 C8.47184382,4.62280112 4.44767896,8.6457423 4.44767896,13.5717927 C4.44767896,18.4978431 8.47184382,22.5207843 13.3993926,22.5207843 C18.3269414,22.5207843 22.3511063,18.4978431 22.3511063,13.5717927 C22.3511063,8.6457423 18.3269414,4.62280112 13.3993926,4.62280112 Z" id="Shape"></path>
                                    <path d="M24.1031236,28.349944 C23.528243,28.349944 22.9533623,28.1036415 22.5427332,27.6384034 L18.8744469,23.3691597 C18.1353145,22.5207843 18.2448156,21.2071709 19.093449,20.4682633 C19.9420824,19.7293557 21.2560954,19.8114566 21.9952278,20.6871989 L25.6635141,24.9564426 C26.4026464,25.8048179 26.2931453,27.1184314 25.4445119,27.8573389 C25.0338829,28.1857423 24.5685033,28.349944 24.1031236,28.349944 Z" id="Path"></path>
                                </g>
                                <path d="M193.678438,30.402465 L60.9083731,30.402465 C59.8954881,30.402465 59.0742299,29.5814566 59.0742299,28.5688796 L59.0742299,16.7189916 C59.0742299,15.7064146 59.8954881,14.8854062 60.9083731,14.8854062 L193.678438,14.8854062 C194.691323,14.8854062 195.512581,15.7064146 195.512581,16.7189916 L195.512581,28.5688796 C195.485206,29.5814566 194.691323,30.402465 193.678438,30.402465 Z" id="Path" fill="#E0E9F8"></path>
                            </g>
                        </g>
                        <g transform="translate(290.177874, 942.422969)" fill="#CFE4E9" fill-rule="nonzero">
                            <ellipse id="Oval" cx="15.3301518" cy="15.3380672" rx="15.248026" ry="15.2433894"></ellipse>
                            <path d="M60.4993492,0.0946778711 C68.9309328,0.0946778711 75.7473753,6.90904762 75.7473753,15.3380672 C75.7473753,23.7670868 68.9309328,30.5814566 60.4993492,30.5814566 C52.0677657,30.5814566 45.2513232,23.7670868 45.2513232,15.3380672 C45.2513232,6.90904762 52.095141,0.0946778711 60.4993492,0.0946778711 Z" id="Path" opacity="0.6"></path>
                            <path d="M105.695922,0.0946778711 C114.127505,0.0946778711 120.943948,6.90904762 120.943948,15.3380672 C120.943948,23.7670868 114.127505,30.5814566 105.695922,30.5814566 C97.2643384,30.5814566 90.4478959,23.7670868 90.4478959,15.3380672 C90.4478959,6.90904762 97.2643384,0.0946778711 105.695922,0.0946778711 Z" id="Path" opacity="0.35"></path>
                        </g>
                    </g>
                </g>
            </g>
        </g>
    </g>
</svg>