<?xml version="1.0" encoding="UTF-8"?>
<svg width="178px" height="191px" viewBox="0 0 178 191" version="1.1" xmlns="http://www.w3.org/2000/svg" xmlns:xlink="http://www.w3.org/1999/xlink">
    <!-- Generator: Sketch 54.1 (76490) - https://sketchapp.com -->
    <title>API </title>
    <desc>Created with Sketch.</desc>
    <g id="Palmspire-Website-Design-" stroke="none" stroke-width="1" fill="none" fill-rule="evenodd">
        <g id="API-" transform="translate(-1.000000, 8.000000)">
            <g id="Group-64" transform="translate(11.884361, -8.000000)">
                <rect id="Rectangle" fill="#93CEDC" x="42.2838875" y="0" width="124.716113" height="180" rx="2"></rect>
                <rect id="Rectangle" fill="#62B08E" x="0" y="39.9522673" width="103.360614" height="140.047733" rx="3"></rect>
            </g>
            <g id="1471300" transform="translate(0.884361, 0.000000)" fill="#000000" fill-rule="nonzero">
                <path d="M45.6386608,0.129381312 C42.4780307,0.129381312 39.9078327,2.69234911 39.9078327,5.84408815 L39.9162277,40.1323291 L43.3951495,40.1323291 L43.3867546,3.32330372 L68.561973,3.32330372 L68.561973,17.2735018 L54.2349029,17.2735018 C52.649691,17.2735018 51.3694888,18.5501027 51.3694888,20.1308552 L51.3694888,40.1323291 L54.2349029,40.1323291 L54.2349029,20.5529644 L68.561973,20.5529644 L68.561973,28.7029155 C68.561973,31.8546545 71.1321709,34.4176223 74.292801,34.4176223 L137.33191,34.4176223 C140.49254,34.4176223 143.062738,31.8546545 143.062738,28.7029155 L143.062738,22.9882086 L156.829487,22.9882086 L156.829487,125.852932 L128.735668,125.852932 C127.150456,125.852932 125.870254,127.129533 125.870254,128.710285 L125.870254,162.867288 L106.443158,162.867288 L106.443158,165.855879 L128.913357,165.855879 C129.766825,165.855879 130.575521,165.476387 131.12258,164.822042 L159.37517,130.801678 L159.593434,130.542172 C159.596232,130.539382 159.596232,130.536591 159.596232,130.536591 C159.601829,130.531011 159.601829,130.524035 159.604627,130.521244 C159.799106,130.284062 159.940418,130.021766 160.04955,129.744122 C160.083129,129.659016 160.09712,129.566933 160.123704,129.479036 C160.181068,129.276733 160.220244,129.070244 160.232836,128.858175 C160.232836,128.807949 160.255222,128.761907 160.255222,128.710285 L160.255222,22.9882086 C160.255222,21.4074561 158.97502,20.1308552 157.389808,20.1308552 L143.062738,20.1308552 L143.062738,3.32330372 L168.628732,3.32330372 L168.628732,179.428308 L106.443158,179.428308 L106.443158,183 L165.98605,183 C169.14668,183 171.716878,180.437032 171.716878,177.285293 L171.716878,5.84408815 C171.716878,4.22795093 170.784964,0.843119377 167.065444,0.275213223 C166.782247,0.231973902 166.04476,0.162744148 164.770065,0.129381312 C158.179026,-0.0431271039 118.468558,-0.0431271039 45.6386608,0.129381312 Z M128.750772,128.710285 L157.159546,128.710285 L128.750772,162.623279 L128.750772,128.710285 Z M139.764751,31.1401594 L71.7111675,31.1401594 L71.7111675,3.32858618 L139.764751,3.32858618 L139.764751,31.1401594 Z" id="Shape"></path>
                <polygon id="Path" points="115.535973 15.5377358 118.561099 15.5377358 118.561099 18.5589623 115.535973 18.5589623"></polygon>
                <polygon id="Path" points="93.0636116 15.5377358 96.0887372 15.5377358 96.0887372 18.5589623 93.0636116 18.5589623"></polygon>
                <polygon id="Path" points="104.731953 15.5377358 107.757079 15.5377358 107.757079 18.5589623 104.731953 18.5589623"></polygon>
                <path d="M105.766865,40.1391509 L3.00357459,40.1391509 C1.42438078,40.1391509 0.14903875,41.4156908 0.14903875,42.9963679 L0.14903875,180.142783 C0.14903875,181.72346 1.42438078,183 3.00357459,183 L105.766865,183 C107.346059,183 108.621401,181.72346 108.621401,180.142783 L108.621401,42.9963679 C108.621401,41.4156908 107.346059,40.1391509 105.766865,40.1391509 Z M3.71720855,44.0678243 L105.053231,44.0678243 L105.053231,59.4253656 L3.71720855,59.4253656 L3.71720855,44.0678243 Z M3.71720855,179.428479 L3.71720855,62.9968868 L105.053231,62.9968868 L105.053231,179.428479 L3.71720855,179.428479 Z" id="Shape"></path>
                <polygon id="Path" points="17.0033101 145.882075 56.7621041 145.882075 56.7621041 148.903302 17.0033101 148.903302"></polygon>
                <polygon id="Path" points="63.2445161 145.882075 80.0987875 145.882075 80.0987875 148.903302 63.2445161 148.903302"></polygon>
                <polygon id="Path" points="85.7168779 145.882075 91.3349684 145.882075 91.3349684 148.903302 85.7168779 148.903302"></polygon>
                <polygon id="Path" points="80.0987875 151.492925 85.7168779 151.492925 85.7168779 154.514151 80.0987875 154.514151"></polygon>
                <polygon id="Path" points="17.0033101 157.103774 56.7621041 157.103774 56.7621041 160.125 17.0033101 160.125"></polygon>
                <polygon id="Path" points="63.2445161 157.103774 80.0987875 157.103774 80.0987875 160.125 63.2445161 160.125"></polygon>
                <polygon id="Path" points="85.7168779 157.103774 91.3349684 157.103774 91.3349684 160.125 85.7168779 160.125"></polygon>
                <polygon id="Path" points="17.0033101 151.492925 33.8575815 151.492925 33.8575815 154.514151 17.0033101 154.514151"></polygon>
                <polygon id="Path" points="39.9078327 151.492925 45.5259232 151.492925 45.5259232 154.514151 39.9078327 154.514151"></polygon>
                <polygon id="Path" points="51.5761744 151.492925 74.480697 151.492925 74.480697 154.514151 51.5761744 154.514151"></polygon>
                <polygon id="Path" points="11.3852197 50.4976415 14.4103453 50.4976415 14.4103453 53.5188679 11.3852197 53.5188679"></polygon>
                <polygon id="Path" points="17.0033101 50.4976415 20.0284357 50.4976415 20.0284357 53.5188679 17.0033101 53.5188679"></polygon>
                <polygon id="Path" points="22.6214006 50.4976415 25.6465262 50.4976415 25.6465262 53.5188679 22.6214006 53.5188679"></polygon>
                <polygon id="Path" points="85.7168779 50.0660377 96.9530589 50.0660377 96.9530589 53.0872642 85.7168779 53.0872642"></polygon>
                <path d="M35.9814604,90.3850236 L42.6799528,90.3850236 L42.6799528,98.8372642 L46.029199,98.8372642 L46.029199,81.932783 C46.029199,80.0681725 44.527108,78.5518868 42.6799528,78.5518868 L35.9814604,78.5518868 C34.1343052,78.5518868 32.6322141,80.0681725 32.6322141,81.932783 L32.6322141,98.8372642 L35.9814604,98.8372642 L35.9814604,90.3850236 Z M42.5719126,81.5731132 L42.5719126,86.7523585 L35.6573397,86.7523585 L35.6573397,81.5731132 L42.5719126,81.5731132 Z" id="Shape"></path>
                <path d="M52.8357317,92.0754717 L59.5342242,92.0754717 C61.3813793,92.0754717 62.8834704,90.559186 62.8834704,88.6945755 L62.8834704,81.932783 C62.8834704,80.0681725 61.3813793,78.5518868 59.5342242,78.5518868 L52.8357317,78.5518868 C50.9885766,78.5518868 49.4864855,80.0681725 49.4864855,81.932783 L49.4864855,98.8372642 L52.8357317,98.8372642 L52.8357317,92.0754717 Z M52.5116111,81.5731132 L59.4228094,81.5731132 L59.426184,88.4787736 L52.5116111,88.4787736 L52.5116111,81.5731132 Z" id="Shape"></path>
                <polygon id="Path" points="66.3243457 81.932783 69.6667539 81.932783 69.6667539 95.4563679 66.3243457 95.4563679 66.3243457 98.8372642 76.3515704 98.8372642 76.3515704 95.4563679 73.0091622 95.4563679 73.0091622 81.932783 76.3515704 81.932783 76.3515704 78.5518868 66.3243457 78.5518868"></polygon>
            </g>
        </g>
    </g>
</svg>