<?xml version="1.0" encoding="UTF-8"?>
<svg width="545px" height="620px" viewBox="0 0 545 620" version="1.1" xmlns="http://www.w3.org/2000/svg" xmlns:xlink="http://www.w3.org/1999/xlink">
    <!-- Generator: Sketch 54.1 (76490) - https://sketchapp.com -->
    <title>api_icon</title>
    <desc>Created with Sketch.</desc>
    <g id="Palmspire-Website-Design-" stroke="none" stroke-width="1" fill="none" fill-rule="evenodd">
        <g id="api_icon">
            <g id="Group-83" transform="translate(15.000000, 66.000000)">
                <circle id="Oval" fill="#D8E7FF" opacity="0.838518415" cx="265" cy="265" r="265"></circle>
                <polygon id="Path" fill="#FFFFFF" points="162.745313 375.026309 162.745313 229.655073 289.268901 229.655073 289.268901 375.026309"></polygon>
                <polygon id="Path" fill="#FFFFFF" points="332.60814 189.880199 247.639504 189.880199 247.639504 155.155923 332.60814 155.155923"></polygon>
                <polygon id="Path" fill="#FFFFFF" points="318.856583 311.701859 354.326497 311.701859 318.856583 354.044094"></polygon>
                <g id="API-" transform="translate(158.000000, 151.000000)" fill="#0D51FF" fill-rule="nonzero">
                    <g id="1471300" transform="translate(0.104174, 0.000000)">
                        <path d="M56.9823741,0.161539673 C53.0361539,0.161539673 49.8271206,3.36154571 49.8271206,7.29666497 L49.8376022,50.1074167 L54.1812271,50.1074167 L54.1707456,4.14932719 L85.6033882,4.14932719 L85.6033882,21.5669156 L67.7152544,21.5669156 C65.7360304,21.5669156 64.1376277,23.1608218 64.1376277,25.1344782 L64.1376277,50.1074167 L67.7152544,50.1074167 L67.7152544,25.6615047 L85.6033882,25.6615047 L85.6033882,35.8371662 C85.6033882,39.7722854 88.8124215,42.9722914 92.7586418,42.9722914 L171.466431,42.9722914 C175.412651,42.9722914 178.621684,39.7722854 178.621684,35.8371662 L178.621684,28.7020409 L195.810227,28.7020409 L195.810227,157.134296 L160.73355,157.134296 C158.754326,157.134296 157.155923,158.728202 157.155923,160.701859 L157.155923,203.348753 L132.900128,203.348753 L132.900128,207.080173 L160.955405,207.080173 C162.021007,207.080173 163.030708,206.606356 163.713741,205.789371 L198.988652,163.313078 L199.261167,162.989071 C199.26466,162.985587 199.26466,162.982103 199.26466,162.982103 C199.271648,162.975135 199.271648,162.966425 199.275142,162.962941 C199.517959,162.666805 199.694395,162.339314 199.830652,161.992661 C199.872577,161.886401 199.890046,161.771431 199.923237,161.661687 C199.99486,161.4091 200.043773,161.151288 200.059494,160.886508 C200.059494,160.823797 200.087445,160.766312 200.087445,160.701859 L200.087445,28.7020409 C200.087445,26.7283845 198.489042,25.1344782 196.509818,25.1344782 L178.621684,25.1344782 L178.621684,4.14932719 L210.542231,4.14932719 L210.542231,224.026096 L132.900128,224.026096 L132.900128,228.485549 L207.242698,228.485549 C211.188918,228.485549 214.397952,225.285543 214.397952,221.350424 L214.397952,7.29666497 C214.397952,5.27882891 213.234406,1.05268084 208.590381,0.343618822 C208.236794,0.289632155 207.316001,0.203195006 205.724474,0.161539673 C197.4952,-0.0538465575 147.9145,-0.0538465575 56.9823741,0.161539673 Z M160.75241,160.701859 L196.222323,160.701859 L160.75241,203.044094 L160.75241,160.701859 Z M174.503966,38.8801991 L89.5353305,38.8801991 L89.5353305,4.15592263 L174.503966,4.15592263 L174.503966,38.8801991 Z" id="Shape"></path>
                        <polygon id="Path" points="144.253007 19.3997164 148.030043 19.3997164 148.030043 23.1718835 144.253007 23.1718835"></polygon>
                        <polygon id="Path" points="116.19503 19.3997164 119.972065 19.3997164 119.972065 23.1718835 116.19503 23.1718835"></polygon>
                        <polygon id="Path" points="130.763595 19.3997164 134.54063 19.3997164 134.54063 23.1718835 130.763595 23.1718835"></polygon>
                        <path d="M132.055739,50.1159341 L3.75012781,50.1159341 C1.77841762,50.1159341 0.186083063,51.7097643 0.186083063,53.6833264 L0.186083063,224.918157 C0.186083063,226.891719 1.77841762,228.485549 3.75012781,228.485549 L132.055739,228.485549 C134.027449,228.485549 135.619783,226.891719 135.619783,224.918157 L135.619783,53.6833264 C135.619783,51.7097643 134.027449,50.1159341 132.055739,50.1159341 Z M4.64113899,55.0210985 L131.164727,55.0210985 L131.164727,74.1958322 L4.64113899,74.1958322 L4.64113899,55.0210985 Z M4.64113899,224.026309 L4.64113899,78.6550725 L131.164727,78.6550725 L131.164727,224.026309 L4.64113899,224.026309 Z" id="Shape"></path>
                        <polygon id="Path" points="21.2295664 182.141782 70.8706039 182.141782 70.8706039 185.913949 21.2295664 185.913949"></polygon>
                        <polygon id="Path" points="78.9642514 182.141782 100.007735 182.141782 100.007735 185.913949 78.9642514 185.913949"></polygon>
                        <polygon id="Path" points="107.022229 182.141782 114.036724 182.141782 114.036724 185.913949 107.022229 185.913949"></polygon>
                        <polygon id="Path" points="100.007735 189.147235 107.022229 189.147235 107.022229 192.919402 100.007735 192.919402"></polygon>
                        <polygon id="Path" points="21.2295664 196.152688 70.8706039 196.152688 70.8706039 199.924855 21.2295664 199.924855"></polygon>
                        <polygon id="Path" points="78.9642514 196.152688 100.007735 196.152688 100.007735 199.924855 78.9642514 199.924855"></polygon>
                        <polygon id="Path" points="107.022229 196.152688 114.036724 196.152688 114.036724 199.924855 107.022229 199.924855"></polygon>
                        <polygon id="Path" points="21.2295664 189.147235 42.2730497 189.147235 42.2730497 192.919402 21.2295664 192.919402"></polygon>
                        <polygon id="Path" points="49.8271206 189.147235 56.8416151 189.147235 56.8416151 192.919402 49.8271206 192.919402"></polygon>
                        <polygon id="Path" points="64.395686 189.147235 92.9932402 189.147235 92.9932402 192.919402 64.395686 192.919402"></polygon>
                        <polygon id="Path" points="14.2150719 63.0490784 17.9921074 63.0490784 17.9921074 66.8212455 14.2150719 66.8212455"></polygon>
                        <polygon id="Path" points="21.2295664 63.0490784 25.0066018 63.0490784 25.0066018 66.8212455 21.2295664 66.8212455"></polygon>
                        <polygon id="Path" points="28.2440608 63.0490784 32.0210963 63.0490784 32.0210963 66.8212455 28.2440608 66.8212455"></polygon>
                        <polygon id="Path" points="107.022229 62.5101974 121.051218 62.5101974 121.051218 66.2823645 107.022229 66.2823645"></polygon>
                        <path d="M44.9248291,112.850665 L53.2882648,112.850665 L53.2882648,123.403752 L57.4699826,123.403752 L57.4699826,102.297579 C57.4699826,99.9695101 55.5945394,98.0763442 53.2882648,98.0763442 L44.9248291,98.0763442 C42.6185545,98.0763442 40.7431113,99.9695101 40.7431113,102.297579 L40.7431113,123.403752 L44.9248291,123.403752 L44.9248291,112.850665 Z M53.1533707,101.848511 L53.1533707,108.315083 L44.5201467,108.315083 L44.5201467,101.848511 L53.1533707,101.848511 Z" id="Shape"></path>
                        <path d="M65.9683124,114.961283 L74.3317481,114.961283 C76.6380227,114.961283 78.5134659,113.068117 78.5134659,110.740048 L78.5134659,102.297579 C78.5134659,99.9695101 76.6380227,98.0763442 74.3317481,98.0763442 L65.9683124,98.0763442 C63.6620378,98.0763442 61.7865946,99.9695101 61.7865946,102.297579 L61.7865946,123.403752 L65.9683124,123.403752 L65.9683124,114.961283 Z M65.5636301,101.848511 L74.1926406,101.848511 L74.196854,110.470607 L65.5636301,110.470607 L65.5636301,101.848511 Z" id="Shape"></path>
                        <polygon id="Path" points="82.8095877 102.297579 86.9827679 102.297579 86.9827679 119.182517 82.8095877 119.182517 82.8095877 123.403752 95.3291284 123.403752 95.3291284 119.182517 91.1559481 119.182517 91.1559481 102.297579 95.3291284 102.297579 95.3291284 98.0763442 82.8095877 98.0763442"></polygon>
                    </g>
                </g>
            </g>
            <circle id="Oval" fill="#FF2380" cx="481.5" cy="42.5" r="42.5"></circle>
            <circle id="Oval" fill="#FF2380" cx="42.5" cy="427.5" r="42.5"></circle>
            <circle id="Oval" fill="#0D51FF" cx="503" cy="128" r="21"></circle>
            <circle id="Oval" fill="#FF2380" cx="451" cy="562" r="14"></circle>
            <circle id="Oval" fill="#FFFFFF" cx="465.5" cy="253.5" r="9.5"></circle>
            <circle id="Oval" fill="#0D51FF" cx="153" cy="603" r="17"></circle>
            <circle id="Oval" fill="#FFFFFF" cx="102" cy="314" r="17"></circle>
            <circle id="Oval" fill="#FF2380" cx="410.5" cy="24.5" r="5.5"></circle>
        </g>
    </g>
</svg>