<?xml version="1.0" encoding="UTF-8"?>
<svg width="190px" height="160px" viewBox="0 0 190 160" version="1.1" xmlns="http://www.w3.org/2000/svg" xmlns:xlink="http://www.w3.org/1999/xlink">
    <!-- Generator: Sketch 54.1 (76490) - https://sketchapp.com -->
    <title>Backend</title>
    <desc>Created with Sketch.</desc>
    <g id="Palmspire-Website-Design-" stroke="none" stroke-width="1" fill="none" fill-rule="evenodd">
        <g id="Backend" transform="translate(-0.294053, 0.000000)">
            <rect id="Rectangle" fill="#93CEDC" x="12.2940529" y="14" width="178" height="146" rx="14"></rect>
            <g id="94771" transform="translate(0.294053, 0.000000)" fill="#000000" fill-rule="nonzero">
                <path d="M158.634628,0 L19.4583248,0 C8.8102938,0 0.147612747,8.43378654 0.147612747,18.800464 L0.147612747,127.199536 C0.147612747,137.566213 8.8102938,146 19.4583248,146 L158.634628,146 C169.282659,146 177.94534,137.566213 177.94534,127.199536 L177.94534,18.800464 C177.94534,8.43378654 169.282659,0 158.634628,0 Z M173.769183,128.044714 C173.769183,135.70394 167.368975,141.935035 159.501877,141.935035 L18.5902083,141.935035 C10.7231098,141.935035 4.32290184,135.70394 4.32290184,128.044714 L4.32290184,18.2940329 C4.32290184,10.6348072 10.7231098,4.4037123 18.5902083,4.4037123 L159.501877,4.4037123 C167.368975,4.4037123 173.769183,10.6348072 173.769183,18.2940329 L173.769183,128.044714 Z" id="Shape"></path>
                <path d="M164.0116,27.1902834 L13.8790801,27.1902834 C12.4396151,27.1902834 11.2726127,27.9399077 11.2726127,28.8650472 C11.2726127,29.7901868 12.4396151,30.5398111 13.8790801,30.5398111 L164.0116,30.5398111 C165.451065,30.5398111 166.618067,29.7901868 166.618067,28.8650472 C166.618067,27.9399077 165.451065,27.1902834 164.0116,27.1902834 Z" id="Path"></path>
                <path d="M19.3635218,18.7179487 C20.0577218,18.7179487 20.7343915,18.4447323 21.221734,17.9666037 C21.7125824,17.4918902 21.9930673,16.8327557 21.9930673,16.1565452 C21.9930673,15.4834084 21.7125824,14.8212002 21.221734,14.3464867 C20.7343915,13.8683581 20.0577218,13.5951417 19.3635218,13.5951417 C18.6693218,13.5951417 17.9926521,13.8683581 17.5053097,14.3464867 C17.0144612,14.8212002 16.7339764,15.4834084 16.7339764,16.1565452 C16.7339764,16.8324142 17.0144612,17.4918902 17.5053097,17.9666037 C17.9926521,18.4447323 18.6693218,18.7179487 19.3635218,18.7179487 Z" id="Path"></path>
                <path d="M41.6135218,18.7179487 C42.3042158,18.7179487 42.9843915,18.4447323 43.471734,17.9666037 C43.9625824,17.4918902 44.2430673,16.8327557 44.2430673,16.1565452 C44.2430673,15.4834084 43.9625824,14.8212002 43.471734,14.3464867 C42.9843915,13.8683581 42.3042158,13.5951417 41.6135218,13.5951417 C40.9193218,13.5951417 40.2426521,13.8683581 39.7553097,14.3464867 C39.2644612,14.8212002 38.9839764,15.4834084 38.9839764,16.1565452 C38.9839764,16.8324142 39.2644612,17.4918902 39.7553097,17.9666037 C40.2426521,18.4447323 40.9193218,18.7179487 41.6135218,18.7179487 Z" id="Path"></path>
                <path d="M30.2862491,18.7179487 C30.9804491,18.7179487 31.6571188,18.4447323 32.1444612,17.9666037 C32.6353097,17.4918902 32.9157946,16.8327557 32.9157946,16.1565452 C32.9157946,15.4834084 32.6353097,14.8212002 32.1444612,14.3464867 C31.6571188,13.8683581 30.9804491,13.5951417 30.2862491,13.5951417 C29.5955552,13.5951417 28.9153794,13.8683581 28.428037,14.3464867 C27.9371885,14.8212002 27.6567037,15.4834084 27.6567037,16.1565452 C27.6567037,16.8324142 27.9371885,17.4918902 28.428037,17.9666037 C28.9153794,18.4447323 29.5955552,18.7179487 30.2862491,18.7179487 Z" id="Path"></path>
                <path d="M65.7259876,57.6861844 C64.7032146,56.6938989 63.0449187,56.6938989 62.022495,57.6861844 L34.0874197,84.7978104 C33.0646468,85.7907736 33.0646468,87.3998486 34.0874197,88.3924731 L62.022495,115.504099 C62.5337069,116.000242 63.2041487,116.248313 63.8742413,116.248313 C64.5443339,116.248313 65.2147757,116.000242 65.7259876,115.504099 C66.7487605,114.511136 66.7487605,112.902061 65.7259876,111.909436 L39.6426586,86.5953111 L65.7259876,61.281186 C66.7487605,60.2882227 66.7487605,58.6791477 65.7259876,57.6861844 Z" id="Path"></path>
                <path d="M115.665912,57.6861887 C114.643139,56.6938975 112.984843,56.6938975 111.96242,57.6861887 C110.939647,58.6791577 110.939647,60.2882419 111.96242,61.2808719 L138.045749,86.5951417 L111.96242,111.909411 C110.939647,112.90238 110.939647,114.511465 111.96242,115.504095 C112.473632,116.00024 113.144073,116.248313 113.814166,116.248313 C114.484259,116.248313 115.1547,116.00024 115.665912,115.504095 L143.600988,88.3923139 C144.623761,87.3993449 144.623761,85.7902607 143.600988,84.7976306 L115.665912,57.6861887 Z" id="Path"></path>
                <path d="M100.980023,54.3364804 C99.6248362,53.8587254 98.1265404,54.5374623 97.6334921,55.8539953 L75.3488226,115.40419 C74.8557742,116.721738 75.5549557,118.177334 76.9104904,118.656443 C77.2050659,118.760655 77.5062571,118.809717 77.8029218,118.809717 C78.8698003,118.809717 79.8715659,118.169214 80.2573692,117.138928 L102.542039,57.588733 C103.034739,56.2715233 102.335557,54.8155887 100.980023,54.3364804 Z" id="Path"></path>
            </g>
        </g>
    </g>
</svg>