<?xml version="1.0" encoding="UTF-8"?>
<svg width="545px" height="620px" viewBox="0 0 545 620" version="1.1" xmlns="http://www.w3.org/2000/svg" xmlns:xlink="http://www.w3.org/1999/xlink">
    <!-- Generator: Sketch 54.1 (76490) - https://sketchapp.com -->
    <title>business_icon</title>
    <desc>Created with Sketch.</desc>
    <g id="Palmspire-Website-Design-" stroke="none" stroke-width="1" fill="none" fill-rule="evenodd">
        <g id="business_icon">
            <g id="Group-83" transform="translate(15.000000, 66.000000)">
                <circle id="Oval" fill="#D8E7FF" opacity="0.838518415" cx="265" cy="265" r="265"></circle>
                <polygon id="Path" fill="#FFFFFF" points="172.799974 191.760819 209.799974 191.760819 209.799974 333.760819 172.799974 333.760819"></polygon>
                <polygon id="Path" fill="#FFFFFF" points="294.194599 159.486556 331.194599 159.486556 331.194599 332.486556 294.194599 332.486556"></polygon>
                <g id="Group-2" transform="translate(168.000000, 155.000000)" fill="#0D51FF" fill-rule="nonzero">
                    <g id="Rectangle-2" transform="translate(0.374613, 0.000000)">
                        <g id="Years-in-business">
                            <g id="118003" transform="translate(0.425361, 0.727273)">
                                <path d="M4.81529975,181.71242 L40.0503297,181.71242 C42.7357853,181.71242 44.8656294,179.560414 44.8656294,176.950535 L44.8656294,36.795432 C44.8656294,34.1397652 42.6894843,32.0335467 40.0503297,32.0335467 L4.81529975,32.0335467 C2.12984412,32.0335467 0,34.1855526 0,36.795432 L0,176.950535 C8.22470255e-16,179.606202 2.17614508,181.71242 4.81529975,181.71242 Z M4,36.0335467 L41,36.0335467 L41,178.033547 L4,178.033547 L4,36.0335467 Z" id="Shape"></path>
                                <path d="M65.384547,181.145455 L100.619007,181.145455 C103.304419,181.145455 105.434229,178.995185 105.434229,176.387411 L105.434229,79.030515 C105.434229,76.3769906 103.258119,74.2724712 100.619007,74.2724712 L65.384547,74.2724712 C62.6991348,74.2724712 60.5693251,76.422741 60.5693251,79.030515 L60.5693251,176.387411 C60.5230249,179.040935 62.6991348,181.145455 65.384547,181.145455 Z M64.5456153,78.1923175 L101.545615,78.1923175 L101.545615,177.192318 L64.5456153,177.192318 L64.5456153,78.1923175 L64.5456153,78.1923175 Z" id="Shape"></path>
                                <path d="M125.952499,181.428937 L161.187529,181.428937 C163.872985,181.428937 166.002829,179.278872 166.002829,176.671345 L166.002829,4.7575919 C166.002829,2.10431949 163.826684,0 161.187529,0 L125.952499,0 C123.267044,0 121.137199,2.15006557 121.137199,4.7575919 L121.137199,176.671345 C121.137199,179.324618 123.267044,181.428937 125.952499,181.428937 Z M125.394625,3.75928297 L162.394625,3.75928297 L162.394625,176.759283 L125.394625,176.759283 L125.394625,3.75928297 Z" id="Shape"></path>
                                <path d="M221.756129,53.2947503 L186.521099,53.2947503 C183.835643,53.2947503 181.705799,55.4423497 181.705799,58.0468851 L181.705799,176.39332 C181.705799,179.043549 183.881944,181.145455 186.521099,181.145455 L221.756129,181.145455 C224.441584,181.145455 226.571429,178.997855 226.571429,176.39332 L226.571429,58.0468851 C226.571429,55.4423497 224.395283,53.2947503 221.756129,53.2947503 Z M222.682815,177.4758 L185.682815,177.4758 L185.682815,57.4758003 L222.682815,57.4758003 L222.682815,177.4758 Z" id="Shape"></path>
                                <path d="M224.051248,197.272727 L4.19523555,197.272727 C1.51282223,197.272727 0,198.176573 0,199.272727 C0,200.368881 1.55907073,201.272727 4.19523555,201.272727 L224.004999,201.272727 C226.687413,201.272727 227.076694,200.368881 227.076694,199.272727 C227.076694,198.176573 226.687413,197.272727 224.051248,197.272727 Z" id="Path"></path>
                            </g>
                        </g>
                    </g>
                </g>
            </g>
            <circle id="Oval" fill="#FF2380" cx="481.5" cy="42.5" r="42.5"></circle>
            <circle id="Oval" fill="#FF2380" cx="42.5" cy="427.5" r="42.5"></circle>
            <circle id="Oval" fill="#0D51FF" cx="503" cy="128" r="21"></circle>
            <circle id="Oval" fill="#FF2380" cx="451" cy="562" r="14"></circle>
            <circle id="Oval" fill="#FFFFFF" cx="465.5" cy="253.5" r="9.5"></circle>
            <circle id="Oval" fill="#0D51FF" cx="153" cy="603" r="17"></circle>
            <circle id="Oval" fill="#FFFFFF" cx="102" cy="314" r="17"></circle>
            <circle id="Oval" fill="#FF2380" cx="410.5" cy="24.5" r="5.5"></circle>
        </g>
    </g>
</svg>