<?xml version="1.0" encoding="UTF-8"?>
<svg width="545px" height="620px" viewBox="0 0 545 620" version="1.1" xmlns="http://www.w3.org/2000/svg" xmlns:xlink="http://www.w3.org/1999/xlink">
    <!-- Generator: Sketch 54.1 (76490) - https://sketchapp.com -->
    <title>clients_icon</title>
    <desc>Created with Sketch.</desc>
    <g id="Palmspire-Website-Design-" stroke="none" stroke-width="1" fill="none" fill-rule="evenodd">
        <g id="clients_icon">
            <g id="Group-83" transform="translate(15.000000, 66.000000)">
                <circle id="Oval" fill="#D8E7FF" opacity="0.838518415" cx="265" cy="265" r="265"></circle>
                <path d="M264.949605,147.033892 C199.541953,147.033892 146.328802,200.204082 146.328802,265.558928 C146.328802,330.913774 199.541953,384.084444 264.949605,384.084444 C330.357257,384.084444 383.570888,330.914254 383.570888,265.558928 C383.570888,200.203603 330.357737,147.033892 264.949605,147.033892 Z" id="Path" fill="#FFFFFF"></path>
                <g id="Rectangle-2" transform="translate(141.000000, 142.000000)" fill="#0D51FF" fill-rule="nonzero">
                    <g id="Happy-Clients" transform="translate(0.044053, 0.000000)">
                        <g id="87067" transform="translate(0.246790, 0.000000)">
                            <path d="M123.447408,246.695947 C55.3795394,246.695947 0,191.366151 0,123.347745 C0,55.3348294 55.3795394,0 123.447408,0 C191.520315,0 246.894817,55.3348294 246.894817,123.347745 C246.895275,191.366151 191.520773,246.695947 123.447408,246.695947 Z M123.658763,5.03389204 C58.2511108,5.03389204 5.03795937,58.2040825 5.03795937,123.558928 C5.03795937,188.913774 58.2511108,242.084444 123.658763,242.084444 C189.066415,242.084444 242.280046,188.914254 242.280046,123.558928 C242.280046,58.2036027 189.066895,5.03389204 123.658763,5.03389204 Z" id="Shape"></path>
                            <path d="M123.447408,215.858782 C78.0686764,215.858782 41.1491361,178.969048 41.1491361,133.626952 C41.1491361,130.786007 45.0610704,130.786007 45.0610704,133.626952 C45.0610704,151.462928 51.575439,169.493489 63.7907766,183.484358 C78.7447604,200.611942 101.592239,211.891033 123.447408,211.891033 C143.885407,211.891033 165.145287,202.530032 179.867644,187.407988 C193.744885,173.154003 201.687527,153.709456 201.687527,134.460224 C201.687527,131.619278 205.746597,130.786007 205.746597,133.626952 C205.746139,178.969048 168.82614,215.858782 123.447408,215.858782 Z M189.971479,96.8245299 C186.833349,88.4846179 178.249414,81.4245178 169.740301,81.4245178 C161.231188,81.4245178 151.467596,87.6820507 149.251842,96.1066577 C148.838808,97.6770671 148.175901,100.327885 147.393705,101.534393 C145.43043,104.562666 144.021977,104.821335 144.021977,102.789787 C144.021977,88.6212116 155.554782,77.092226 169.740301,77.092226 C183.925821,77.092226 195.458626,88.620754 195.458626,102.789787 C195.458626,104.572143 193.755169,103.635717 191.789986,101.534393 C190.62281,100.286359 190.41845,98.0124023 189.971479,96.8245299 Z" id="Shape"></path>
                            <path d="M189.971479,96.8245299 C186.833349,88.4846179 178.249414,81.4245178 169.740301,81.4245178 C161.231188,81.4245178 151.467596,87.6820507 149.251842,96.1066577 C148.838808,97.6770671 148.175901,100.327885 147.393705,101.534393 C145.43043,104.562666 144.021977,104.821335 144.021977,102.789787 C144.021977,88.6212116 155.554782,77.092226 169.740301,77.092226 C183.925821,77.092226 195.458626,88.620754 195.458626,102.789787 C195.458626,104.572143 193.755169,103.635717 191.789986,101.534393 C190.62281,100.286359 190.41845,98.0124023 189.971479,96.8245299 Z M96.082236,96.8245299 C92.9441067,88.4846179 84.3601717,81.4245178 75.8510583,81.4245178 C67.3419449,81.4245178 57.5783534,87.6820507 55.3625987,96.1066577 C54.9495655,97.6770671 54.2866585,100.327885 53.5044619,101.534393 C51.5411877,104.562666 50.1327337,104.821335 50.1327337,102.789787 C50.1327337,88.6212116 61.6655387,77.092226 75.8510583,77.092226 C90.0365779,77.092226 101.569383,88.620754 101.569383,102.789787 C101.569383,104.572143 99.8659265,103.635717 97.9007434,101.534393 C96.7335675,100.286359 96.5292068,98.0124023 96.082236,96.8245299 Z" id="Shape"></path>
                        </g>
                    </g>
                </g>
            </g>
            <circle id="Oval" fill="#FF2380" cx="481.5" cy="42.5" r="42.5"></circle>
            <circle id="Oval" fill="#FF2380" cx="42.5" cy="427.5" r="42.5"></circle>
            <circle id="Oval" fill="#0D51FF" cx="503" cy="128" r="21"></circle>
            <circle id="Oval" fill="#FF2380" cx="451" cy="562" r="14"></circle>
            <circle id="Oval" fill="#FFFFFF" cx="465.5" cy="253.5" r="9.5"></circle>
            <circle id="Oval" fill="#0D51FF" cx="153" cy="603" r="17"></circle>
            <circle id="Oval" fill="#FFFFFF" cx="102" cy="314" r="17"></circle>
            <circle id="Oval" fill="#FF2380" cx="410.5" cy="24.5" r="5.5"></circle>
        </g>
    </g>
</svg>