<?xml version="1.0" encoding="UTF-8"?>
<svg width="163px" height="158px" viewBox="0 0 163 158" version="1.1" xmlns="http://www.w3.org/2000/svg" xmlns:xlink="http://www.w3.org/1999/xlink">
    <!-- Generator: Sketch 54.1 (76490) - https://sketchapp.com -->
    <title>CMS</title>
    <desc>Created with Sketch.</desc>
    <g id="Palmspire-Website-Design-" stroke="none" stroke-width="1" fill="none" fill-rule="evenodd">
        <g id="CMS" transform="translate(-0.126652, 1.000000)">
            <g id="Group-65" transform="translate(0.126652, 0.000000)">
                <path d="M109.840924,137.614553 L109.840924,149.878001 L46.2573369,149.878001 L46.2573369,137.614553 L10.0645161,137.614553 C7.44428648,136.593985 5.2832336,135.270889 3.58135749,133.645265 C1.87948138,132.019641 0.685695553,129.988631 1.70530257e-13,127.552236 L1.70530257e-13,43.1909824 C0.283252858,40.1814785 1.47703869,37.55731 3.58135749,35.3184769 C5.68567629,33.0796438 8.66292855,31.9602273 12.5131143,31.9602273 L145.935484,31.9602273 C149.140957,32.9011156 151.560846,34.3506759 153.19515,36.3089082 C154.829455,38.2671406 155.764405,40.9578043 156,44.3808995 L156,127.552236 C156,129.517539 154.891194,131.548549 152.673582,133.645265 C150.45597,135.741981 148.209938,137.065077 145.935484,137.614553 L109.840924,137.614553 Z" id="Combined-Shape" fill="#E06D3F"></path>
                <path d="M43.4795088,35.5187478 C44.3269821,32.3596244 45.5687202,29.3450535 47.1706673,26.5538812 L42.1242397,18.2786629 L52.7443802,7.80982803 L60.9961381,12.6860652 C63.7730208,11.0789075 66.7778174,9.83313003 69.9266977,8.98289999 L72.2527182,-0.426136364 L86.9318876,-0.426136364 L89.4749046,8.98552804 C92.6237849,9.83575809 95.6285818,11.0815355 98.4054646,12.6886936 L106.834607,7.80982803 L117.083,18.2786629 L112.230935,26.5565093 C113.832882,29.3450535 115.07462,32.3622528 115.922093,35.5213762 L125.305861,37.9057829 L125.305861,53.0832358 L115.924713,55.1305437 C115.07724,58.2896671 113.835502,61.3042384 112.233555,64.0954106 L117.083,72.7351213 L106.834607,83.0002303 L98.4080841,77.9632263 C95.6312013,79.5703844 92.6264047,80.8161618 89.4775245,81.6663919 L89.0768159,82.0750802 L86.9318876,91.0780563 L72.5637694,91.0780563 L70.3860049,82.0750802 L69.9293176,81.6663919 C66.7804373,80.8161618 63.7756404,79.5703844 60.9987576,77.9632263 L60.272433,77.9632263 L52.7443802,82.6637777 L42.5498422,72.233569 L46.8786075,64.6752317 L47.1732872,64.0954106 C45.5713401,61.3068664 44.329602,58.2896671 43.4821287,55.1305437 L34.0983607,53.0832358 L34.0983607,37.9057829 L43.4795088,35.5187478 Z" id="Path" fill="#93CEDC"></path>
            </g>
            <g id="1276552" transform="translate(7.126652, 3.000000)" fill="#000000" fill-rule="nonzero">
                <path d="M143.419355,35.3537634 L115.741935,35.3537634 L115.741935,37.9194937 L144.562327,37.9194937 C148.723523,37.9194937 153.692073,43.1939109 153.692073,47.3702223 L153.692073,117.576759 L2.51590009,117.41893 L2.51590009,47.0331317 C2.51590009,42.8568204 7.10787943,37.9194937 11.2690753,37.9194937 L39.8951201,37.9194937 L39.8951201,35.3537634 L12.5806452,35.3537634 C5.64409006,35.3537634 0,41.0183555 0,47.9801075 L0,128.78871 C0,135.750462 5.64409006,141.415054 12.5806452,141.415054 L46.2573369,141.415054 L46.2573369,151.516129 L35.2258065,151.516129 L35.2258065,153.725739 L120.774194,153.725739 L120.774194,151.516129 L109.785043,151.516129 L109.785043,141.415054 L143.419355,141.415054 C150.35591,141.415054 156,135.750462 156,128.78871 L156,47.9801075 C156,41.0183555 150.35591,35.3537634 143.419355,35.3537634 Z M107.355976,151.516129 L48.518581,151.516129 L48.518581,141.415054 L107.355976,141.415054 L107.355976,151.516129 Z M144.172719,139.189454 L11.6808916,139.189454 C7.51969566,139.189454 2.51590009,134.548405 2.51590009,130.372094 L2.51590009,119.770039 L153.692073,119.927868 L153.692073,129.779403 C153.692073,133.955714 148.333915,139.189454 144.172719,139.189454 Z" id="Shape"></path>
                <polygon id="Path" points="120.774194 126.263441 125.806452 126.263441 125.806452 131.313978 120.774194 131.313978"></polygon>
                <polygon id="Path" points="130.83871 126.263441 135.870968 126.263441 135.870968 131.313978 130.83871 131.313978"></polygon>
                <polygon id="Path" points="140.903226 126.263441 145.935484 126.263441 145.935484 131.313978 140.903226 131.313978"></polygon>
                <polygon id="Path" points="110.709677 108.902218 145.935484 108.902218 145.935484 111.111828 110.709677 111.111828"></polygon>
                <polygon id="Path" points="110.709677 101.326411 145.935484 101.326411 145.935484 103.536022 110.709677 103.536022"></polygon>
                <polygon id="Path" points="115.741935 93.4349462 145.935484 93.4349462 145.935484 95.6445565 115.741935 95.6445565"></polygon>
                <polygon id="Path" points="125.806452 85.8591398 145.935484 85.8591398 145.935484 88.06875 125.806452 88.06875"></polygon>
                <path d="M30.1935484,38.4449983 L30.1935484,45.4548387 L10.0645161,45.4548387 L10.0645161,111.111828 L60.3870968,111.111828 L60.3870968,84.2401565 C62.2262789,85.1390436 64.1232043,85.9318893 66.0963017,86.5434778 L68.4994015,95.9602151 L87.5030558,95.9602151 L89.9061556,86.5434778 C92.283455,85.8061189 94.5808972,84.854211 96.7628528,83.7025504 L105.08893,88.6519785 L118.527123,75.1674376 L113.593152,66.8086501 C114.743101,64.6212345 115.691564,62.3154469 116.426254,59.929512 L125.806452,57.5152167 L125.806452,38.4425321 L116.423797,36.0307031 C115.689107,33.6447682 114.740644,31.3389806 113.590694,29.151565 L118.524666,20.7927775 L105.086473,7.30823654 L96.7603958,12.2576646 C94.5808972,11.1035379 92.283455,10.1540961 89.9036983,9.4167372 L87.5005985,-2.84217094e-14 L68.4969442,-2.84217094e-14 L66.0938444,9.4167372 C63.716545,10.1540961 61.4191028,11.1060041 59.2371472,12.2576646 L50.9110699,7.30823654 L37.4728767,20.7927775 L42.4068485,29.151565 C41.2568989,31.3389806 40.3084362,33.6447682 39.5737463,36.0307031 L30.1935484,38.4449983 Z M12.5131143,108.586559 L12.5131143,47.8222782 L30.1935484,47.9801075 L30.1935484,57.5152167 L39.5762033,59.9270457 C40.3108935,62.3129809 41.2593562,64.6187685 42.4093058,66.8061838 L37.475334,75.1649717 L50.9135269,88.6495126 L57.9531359,84.3026881 L57.9531359,108.586559 L12.5131143,108.586559 Z M41.7773978,37.9772902 C42.624871,34.8059983 43.8666092,31.7798157 45.4685563,28.9778922 L40.4221286,20.670799 L51.0422692,10.1616397 L59.294027,15.0566595 C62.0709098,13.4433112 65.0757063,12.1927352 68.2245866,11.3392302 L70.5506071,1.89395161 L85.2297765,1.89395161 L87.7727935,11.3418684 C90.9216738,12.1953734 93.9264707,13.4459493 96.7033535,15.059298 L105.132496,10.1616397 L115.380889,20.670799 L110.528824,28.9805304 C112.130771,31.7798157 113.372509,34.8086368 114.219982,37.9799287 L123.60375,40.3735197 L123.60375,55.6094339 L114.222602,57.6646278 C113.375129,60.8359196 112.133391,63.8621026 110.531444,66.664026 L115.380889,75.3370156 L105.132496,85.6416643 L96.705973,80.5852585 C93.9290902,82.1986071 90.9242937,83.4491831 87.7754134,84.3026881 L87.3747048,84.7129506 L85.2297765,93.7506048 L70.8616583,93.7506048 L68.6838938,84.7129506 L68.2272065,84.3026881 C65.0783262,83.4491831 62.0735293,82.1986071 59.2966465,80.5852585 L58.5703219,80.5852585 L51.0422692,85.3039157 L40.8477311,74.8335314 L45.1764964,67.2460805 L45.4711761,66.664026 C43.869229,63.8647408 42.6274909,60.8359196 41.7800176,57.6646278 L32.3962496,55.6094339 L32.3962496,40.3735197 L41.7773978,37.9772902 Z" id="Shape"></path>
                <path d="M78,78.2833333 C94.6496976,78.2833333 108.193548,64.6902848 108.193548,47.9801075 C108.193548,31.2699303 94.6496976,17.6768817 78,17.6768817 C61.3503024,17.6768817 47.8064516,31.2699303 47.8064516,47.9801075 C47.8064516,64.6902848 61.3503024,78.2833333 78,78.2833333 Z M78,20.2021505 C93.2617722,20.2021505 105.677419,32.6628972 105.677419,47.9801075 C105.677419,63.2973178 93.2617722,75.7580645 78,75.7580645 C62.7382278,75.7580645 50.3225806,63.2973178 50.3225806,47.9801075 C50.3225806,32.6628972 62.7382278,20.2021505 78,20.2021505 Z" id="Shape"></path>
                <polygon id="Path" points="20.1290323 63.7630376 24.2177419 63.7630376 24.2177419 65.9726478 20.1290323 65.9726478"></polygon>
                <polygon id="Path" points="20.1290323 71.3388441 28.3064516 71.3388441 28.3064516 73.5484543 20.1290323 73.5484543"></polygon>
                <polygon id="Path" points="20.1290323 78.9146505 28.3064516 78.9146505 28.3064516 81.4399194 20.1290323 81.4399194"></polygon>
                <polygon id="Path" points="20.1290323 86.8061156 36.483871 86.8061156 36.483871 89.0157258 20.1290323 89.0157258"></polygon>
                <polygon id="Path" points="20.1290323 94.381922 44.6612903 94.381922 44.6612903 96.5915323 20.1290323 96.5915323"></polygon>
            </g>
        </g>
    </g>
</svg>