<?xml version="1.0" encoding="UTF-8"?>
<svg width="545px" height="620px" viewBox="0 0 545 620" version="1.1" xmlns="http://www.w3.org/2000/svg" xmlns:xlink="http://www.w3.org/1999/xlink">
    <!-- Generator: Sketch 54.1 (76490) - https://sketchapp.com -->
    <title>cms_icon</title>
    <desc>Created with Sketch.</desc>
    <g id="Palmspire-Website-Design-" stroke="none" stroke-width="1" fill="none" fill-rule="evenodd">
        <g id="cms_icon">
            <g id="Group-83" transform="translate(15.000000, 66.000000)">
                <circle id="Oval" fill="#D8E7FF" opacity="0.838518415" cx="265" cy="265" r="265"></circle>
                <g id="CMS" transform="translate(142.000000, 144.000000)">
                    <g id="1276552" fill="#0D51FF" fill-rule="nonzero">
                        <path d="M226.16129,55.7501654 L182.516129,55.7501654 L182.516129,59.7961246 L227.96367,59.7961246 C234.525556,59.7961246 242.360576,68.1134749 242.360576,74.6991967 L242.360576,185.409504 L3.96738092,185.16062 L3.96738092,74.1676308 C3.96738092,67.581909 11.2085791,59.7961246 17.7704649,59.7961246 L62.9115355,59.7961246 L62.9115355,55.7501654 L19.8387097,55.7501654 C8.90029587,55.7501654 0,64.6827914 0,75.6609388 L0,203.089888 C0,214.068036 8.90029587,223.000662 19.8387097,223.000662 L72.944262,223.000662 L72.944262,238.92928 L55.5483871,238.92928 L55.5483871,242.413666 L190.451613,242.413666 L190.451613,238.92928 L173.122568,238.92928 L173.122568,223.000662 L226.16129,223.000662 C237.099704,223.000662 246,214.068036 246,203.089888 L246,75.6609388 C246,64.6827914 237.099704,55.7501654 226.16129,55.7501654 Z M169.292116,238.92928 L76.5100701,238.92928 L76.5100701,223.000662 L169.292116,223.000662 L169.292116,238.92928 Z M227.349287,219.491063 L18.4198675,219.491063 C11.8579816,219.491063 3.96738092,212.172485 3.96738092,205.586763 L3.96738092,188.868138 L242.360576,189.117023 L242.360576,204.652135 C242.360576,211.237857 233.911173,219.491063 227.349287,219.491063 Z" id="Shape"></path>
                        <polygon id="Path" points="190.451613 199.107734 198.387097 199.107734 198.387097 207.072043 190.451613 207.072043"></polygon>
                        <polygon id="Path" points="206.322581 199.107734 214.258065 199.107734 214.258065 207.072043 206.322581 207.072043"></polygon>
                        <polygon id="Path" points="222.193548 199.107734 230.129032 199.107734 230.129032 207.072043 222.193548 207.072043"></polygon>
                        <polygon id="Path" points="174.580645 171.73042 230.129032 171.73042 230.129032 175.214806 174.580645 175.214806"></polygon>
                        <polygon id="Path" points="174.580645 159.783956 230.129032 159.783956 230.129032 163.268342 174.580645 163.268342"></polygon>
                        <polygon id="Path" points="182.516129 147.339723 230.129032 147.339723 230.129032 150.824108 182.516129 150.824108"></polygon>
                        <polygon id="Path" points="198.387097 135.393259 230.129032 135.393259 230.129032 138.877644 198.387097 138.877644"></polygon>
                        <path d="M47.6129032,60.6248051 L47.6129032,71.6787841 L15.8709677,71.6787841 L15.8709677,175.214806 L95.2258065,175.214806 L95.2258065,132.840247 C98.1260552,134.257723 101.117361,135.507979 104.228784,136.472407 L108.018287,151.321878 L137.985588,151.321878 L141.775091,136.472407 C145.52391,135.309649 149.146799,133.808563 152.587576,131.992483 L165.717159,139.797351 L186.908156,118.533267 L179.127662,105.352102 C180.941044,101.902716 182.436697,98.2666662 183.595246,94.5042304 L198.387097,90.6970725 L198.387097,60.620916 L183.591372,56.8176472 C182.432822,53.0552114 180.937169,49.4191617 179.123787,45.9697755 L186.904281,32.7886106 L165.713285,11.5245269 L152.583701,19.3293942 C149.146799,17.5094251 145.52391,16.0122285 141.771216,14.8494702 L137.981713,-2.84217094e-14 L108.014412,-2.84217094e-14 L104.224909,14.8494702 C100.47609,16.0122285 96.8532006,17.5133142 93.4124244,19.3293942 L80.282841,11.5245269 L59.091844,32.7886106 L66.872338,45.9697755 C65.0589559,49.4191617 63.5633032,53.0552114 62.4047538,56.8176472 L47.6129032,60.6248051 Z M19.7322186,171.232651 L19.7322186,75.4120541 L47.6129032,75.6609388 L47.6129032,90.6970725 L62.4086283,94.5003413 C63.5671782,98.2627776 65.0628309,101.898827 66.876213,105.348213 L59.095719,118.529378 L80.2867155,139.793462 L91.3876374,132.938854 L91.3876374,171.232651 L19.7322186,171.232651 Z M65.8797426,59.8872653 C67.2161428,54.8863819 69.1742683,50.1143247 71.7004156,45.695907 L63.7425874,32.59626 L80.4897321,16.0241242 L93.5021195,23.7431938 C97.88105,21.1990676 102.619383,19.2270055 107.584925,17.8810937 L111.25288,2.986616 L134.400801,2.986616 L138.410944,17.8852539 C143.376486,19.2311657 148.114819,21.2032278 152.49375,23.7473545 L165.785859,16.0241242 L181.946787,32.59626 L174.295453,45.7000672 C176.8216,50.1143247 178.779726,54.8905427 180.116126,59.891426 L194.913606,63.665935 L194.913606,87.6917997 L180.120257,90.9326823 C178.783857,95.9335656 176.825732,100.705623 174.299584,105.124041 L181.946787,118.800678 L165.785859,135.050317 L152.497881,127.076754 C148.11895,129.62088 143.380617,131.592943 138.415075,132.938854 L137.783188,133.585807 L134.400801,147.837492 L111.743384,147.837492 L108.309217,133.585807 L107.589056,132.938854 C102.623514,131.592943 97.8851808,129.62088 93.5062503,127.076754 L92.3608923,127.076754 L80.4897321,134.517713 L64.4137299,118.006723 L71.2398598,106.041896 L71.704547,105.124041 C69.1783996,100.709784 67.2202741,95.9335656 65.8838739,90.9326823 L51.0863936,87.6917997 L51.0863936,63.665935 L65.8797426,59.8872653 Z" id="Shape"></path>
                        <path d="M123,123.446795 C149.255292,123.446795 170.612903,102.011603 170.612903,75.6609388 C170.612903,49.3102747 149.255292,27.8750827 123,27.8750827 C96.7447077,27.8750827 75.3870968,49.3102747 75.3870968,75.6609388 C75.3870968,102.011603 96.7447077,123.446795 123,123.446795 Z M123,31.8572374 C147.066641,31.8572374 166.645161,51.5068764 166.645161,75.6609388 C166.645161,99.8150012 147.066641,119.46464 123,119.46464 C98.9333592,119.46464 79.3548387,99.8150012 79.3548387,75.6609388 C79.3548387,51.5068764 98.9333592,31.8572374 123,31.8572374 Z" id="Shape"></path>
                        <polygon id="Path" points="31.7419355 100.549406 38.1895161 100.549406 38.1895161 104.033791 31.7419355 104.033791"></polygon>
                        <polygon id="Path" points="31.7419355 112.49587 44.6370968 112.49587 44.6370968 115.980255 31.7419355 115.980255"></polygon>
                        <polygon id="Path" points="31.7419355 124.442334 44.6370968 124.442334 44.6370968 128.424488 31.7419355 128.424488"></polygon>
                        <polygon id="Path" points="31.7419355 136.886567 57.5322581 136.886567 57.5322581 140.370952 31.7419355 140.370952"></polygon>
                        <polygon id="Path" points="31.7419355 148.833031 70.4274194 148.833031 70.4274194 152.317416 31.7419355 152.317416"></polygon>
                    </g>
                    <path d="M19.7322186,171.232651 L19.7322186,75.4120541 L47.6129032,75.6609388 L47.6129032,90.6970725 L62.4086283,94.5003413 C63.5671782,98.2627776 65.0628309,101.898827 66.876213,105.348213 L59.095719,118.529378 L80.2867155,139.793462 L91.3876374,132.938854 L91.3876374,171.232651 L19.7322186,171.232651 Z" id="Path" fill="#FFFFFF"></path>
                    <path d="M123,31.8572374 C147.066641,31.8572374 166.645161,51.5068764 166.645161,75.6609388 C166.645161,99.8150012 147.066641,119.46464 123,119.46464 C98.9333592,119.46464 79.3548387,99.8150012 79.3548387,75.6609388 C79.3548387,51.5068764 98.9333592,31.8572374 123,31.8572374 Z" id="Path" fill="#FFFFFF"></path>
                </g>
            </g>
            <circle id="Oval" fill="#FF2380" cx="481.5" cy="42.5" r="42.5"></circle>
            <circle id="Oval" fill="#FF2380" cx="42.5" cy="427.5" r="42.5"></circle>
            <circle id="Oval" fill="#0D51FF" cx="503" cy="128" r="21"></circle>
            <circle id="Oval" fill="#FF2380" cx="451" cy="562" r="14"></circle>
            <circle id="Oval" fill="#FFFFFF" cx="465.5" cy="253.5" r="9.5"></circle>
            <circle id="Oval" fill="#0D51FF" cx="153" cy="603" r="17"></circle>
            <circle id="Oval" fill="#FFFFFF" cx="102" cy="314" r="17"></circle>
            <circle id="Oval" fill="#FF2380" cx="410.5" cy="24.5" r="5.5"></circle>
        </g>
    </g>
</svg>