<?xml version="1.0" encoding="UTF-8"?>
<svg width="71px" height="122px" viewBox="0 0 71 122" version="1.1" xmlns="http://www.w3.org/2000/svg" xmlns:xlink="http://www.w3.org/1999/xlink">
    <!-- Generator: Sketch 54.1 (76490) - https://sketchapp.com -->
    <title>Completed Projects</title>
    <desc>Created with Sketch.</desc>
    <g id="Palmspire-Website-Design-" stroke="none" stroke-width="1" fill="none" fill-rule="evenodd">
        <g id="Completed-Projects" transform="translate(1.000000, 0.000000)">
            <path d="M42.7468526,103.664122 L41.4413518,108.874046 L22.9088165,108.874046 L21.1574434,103.664122 L19.7764848,103.664122 C15.5017303,105.490909 12.1927111,107.561672 9.84942718,109.876413 C7.48278989,112.214222 5.40844486,115.754145 3.62639208,120.496183 C0.292125449,108.30913 -0.900660355,98.9579853 0.0480346664,92.4427481 C0.996729688,85.9275109 4.91278847,76.5763658 11.796211,64.389313 C12.0044935,65.6612908 12.2078672,66.8895332 12.4063322,68.0740401 C11.5177248,60.2990517 11.384309,53.7573692 12.0060849,48.4489928 C13.417512,36.3990145 19.913625,20.5165258 31.4944237,0.801526718 C43.2832439,19.3991693 49.9226515,34.8392461 51.4126465,47.121757 C52.0009096,51.9709994 51.9703575,57.8435453 51.3209903,64.7393949 C58.0819478,76.7555844 61.932222,85.9900355 62.8718127,92.4427481 C63.8205077,98.9579853 62.6277219,108.30913 59.2934552,120.496183 C57.5114025,115.754145 55.4370574,112.214222 53.0704202,109.876413 C50.7271362,107.561672 47.418117,105.490909 43.1433626,103.664122 L42.7468526,103.664122 Z" id="Combined-Shape" fill="#E06D3F"></path>
            <path d="M64.4078858,120.044561 C64.3743035,119.960284 64.3407212,119.865094 64.3125847,119.790215 C64.2732541,119.676229 64.2324108,119.528593 64.1764404,119.332149 C62.0262669,111.873647 58.2130144,107.41334 54.0993366,104.764985 L60.9210772,72.2941444 C66.4627582,82.4773955 71.7932641,98.8586332 64.4078858,120.044561 L64.4078858,120.044561 Z M49.5245832,102.528011 C50.4800141,98.7858762 54.7861093,81.3254097 56.2849075,64.93629 C57.2500199,66.2865386 58.3679164,67.9323625 59.5251436,69.856785 L52.3990446,103.775187 C51.4414959,103.276195 50.4785014,102.866634 49.5245832,102.528011 L49.5245832,102.528011 Z M47.4678955,101.392699 L36.2692647,101.392699 L25.0706338,101.392699 L24.6525193,101.392699 C23.174294,95.5181776 17.604779,72.3311292 17.604779,56.5070889 C17.604779,45.1809466 21.1511886,34.021236 25.2666817,24.8741658 C26.6066448,25.403473 30.2556165,26.5836521 36.2692647,26.5836521 C41.70082,26.5836521 45.2599364,25.5905191 46.8746086,25.0163451 C51.1583156,34.3019568 54.9340528,45.1548754 54.9340528,54.6369309 C54.9340528,72.0598063 49.3627226,95.4921063 47.8863126,101.392699 L47.4678955,101.392699 L47.4678955,101.392699 Z M44.2818147,109.180426 C44.1305432,110.085644 43.356033,110.743792 42.4396301,110.743792 L30.1004119,110.743792 C29.184009,110.743792 28.4094988,110.085341 28.2582273,109.180426 L27.2876692,103.337736 C27.4032407,103.315302 27.5079206,103.281652 27.6253073,103.262857 L36.2689621,103.262857 L44.9144322,103.262857 C45.0339367,103.281652 45.1364988,103.315302 45.2523728,103.335917 L44.2818147,109.180426 Z M20.1391821,103.77549 L13.0130832,69.8570882 C14.1349128,67.9905681 15.2210424,66.3914299 16.1655817,65.0654337 C17.5690789,80.7118257 22.0373372,98.7182728 23.0136436,102.528011 C22.0615406,102.866634 21.0985461,103.276195 20.1391821,103.77549 L20.1391821,103.77549 Z M8.36360166,119.331846 C8.30763119,119.528289 8.26860314,119.675926 8.22745729,119.789912 C8.19932078,119.864791 8.16604105,119.959981 8.13245877,120.044258 C0.746777914,98.8565111 6.0775864,82.4749703 11.6189648,72.2935381 L18.4407055,104.764379 C14.3288429,107.413037 10.5137751,111.873647 8.36360166,119.331846 L8.36360166,119.331846 Z M36.1963518,5.55475813 C38.2869242,8.81821256 42.2977374,15.3996892 46.0737772,23.308981 C44.5450272,23.8307093 41.2415596,24.7134941 36.2692647,24.7134941 C30.7390803,24.7134941 27.321554,23.6494231 26.0578317,23.1725616 C29.8783453,15.0443925 34.0144113,8.67997427 36.1963518,5.55475813 L36.1963518,5.55475813 Z M56.5145377,62.0863378 C56.6954584,59.5371146 56.8001383,57.0330613 56.8001383,54.6372341 C56.8001383,31.9552405 36.2689621,2.27099237 36.2689621,2.27099237 C36.2689621,2.27099237 15.7377859,28.6599549 15.7377859,56.5076952 C15.7377859,58.3254075 15.812514,60.2349754 15.9413973,62.200627 C10.7358417,69.2271339 -4.22188654,90.3457615 6.38890319,120.712713 C6.6539309,121.468173 7.13164637,121.965649 8.15091389,121.965649 C9.44640322,121.965649 9.74319795,121.094081 9.99309851,120.398342 C10.4765623,119.049912 12.9177821,107.003779 25.4606118,103.738202 L26.4181605,109.489037 C26.7185858,111.291894 28.2751697,112.614253 30.1007145,112.614253 L42.4399326,112.614253 C44.2654774,112.614253 45.8220614,111.291894 46.1224866,109.489037 L47.0779175,103.738202 C59.6225624,107.00196 62.0655975,119.049912 62.5490613,120.398342 C62.7971466,121.094081 63.0939413,121.965649 64.3912459,121.965649 C65.4083956,121.965649 65.8882289,121.468173 66.1532566,120.712713 C76.817899,90.1881213 61.64355,69.0003746 56.5145377,62.0863378 L56.5145377,62.0863378 Z M36.2689621,77.0797358 C34.2122745,77.0797358 32.5358835,75.4020808 32.5358835,73.3394199 C32.5358835,71.2764559 34.2119719,69.5988009 36.2689621,69.5988009 C38.3277675,69.5988009 40.0017382,71.2764559 40.0017382,73.3394199 C40.0020408,75.4020808 38.3277675,77.0797358 36.2689621,77.0797358 L36.2689621,77.0797358 Z M36.2689621,67.7286429 C33.1893764,67.7286429 30.6694954,70.2533107 30.6694954,73.3394199 C30.6694954,76.4255292 33.1893764,78.9501969 36.2689621,78.9501969 C39.3485478,78.9501969 41.8684288,76.4255292 41.8684288,73.3394199 C41.8684288,70.2533107 39.3488503,67.7286429 36.2689621,67.7286429 L36.2689621,67.7286429 Z M43.7348169,86.4308288 C43.7348169,87.4612497 42.8985879,88.3009867 41.8684288,88.3009867 L30.6697979,88.3009867 C29.6414541,88.3009867 28.8034099,87.4612497 28.8034099,86.4308288 L28.8034099,67.7286429 C28.8034099,66.696403 29.6414541,65.8584849 30.6697979,65.8584849 L41.8684288,65.8584849 C42.8985879,65.8584849 43.7348169,66.696403 43.7348169,67.7286429 L43.7348169,86.4308288 Z M41.8684288,63.988327 L30.6697979,63.988327 C28.6167408,63.988327 26.9367193,65.6714388 26.9367193,67.7289461 L26.9367193,86.4311319 C26.9367193,88.488327 28.6164383,90.171751 30.6697979,90.171751 L41.8684288,90.171751 C43.9214859,90.171751 45.6012049,88.4886391 45.6012049,86.4311319 L45.6012049,67.7289461 C45.6012049,65.6714388 43.9214859,63.988327 41.8684288,63.988327 L41.8684288,63.988327 Z M37.2023074,37.804903 C36.6870766,37.804903 36.2689621,38.2220431 36.2689621,38.7401335 C36.2689621,39.2564051 36.6870766,39.6753641 37.2023074,39.6753641 C38.7476973,39.6753641 40.0020408,40.9340601 40.0020408,42.4807526 C40.0020408,42.9970241 40.4201553,43.4159832 40.9353861,43.4159832 C41.4524321,43.4159832 41.8687314,42.9970241 41.8687314,42.4807526 C41.8684288,39.9015171 39.7760411,37.804903 37.2023074,37.804903 L37.2023074,37.804903 Z M36.2689621,50.896615 C32.153469,50.896615 28.8031073,47.5394859 28.8031073,43.41568 C28.8031073,39.2900552 32.153469,35.934745 36.2689621,35.934745 C40.386573,35.934745 43.7348169,39.2900552 43.7348169,43.41568 C43.7348169,47.5394859 40.386573,50.896615 36.2689621,50.896615 L36.2689621,50.896615 Z M36.2689621,34.0645871 C31.1157464,34.0645871 26.9367193,38.2502364 26.9367193,43.41568 C26.9367193,48.5793047 31.1157464,52.7667729 36.2689621,52.7667729 C41.4242956,52.7667729 45.6012049,48.5793047 45.6012049,43.41568 C45.6012049,38.2502364 41.4242956,34.0645871 36.2689621,34.0645871 L36.2689621,34.0645871 Z" id="Rocket" fill="#000000" fill-rule="nonzero"></path>
        </g>
    </g>
</svg>