<?xml version="1.0" encoding="UTF-8"?>
<svg width="100px" height="85px" viewBox="0 0 100 85" version="1.1" xmlns="http://www.w3.org/2000/svg" xmlns:xlink="http://www.w3.org/1999/xlink">
    <!-- Generator: Sketch 54.1 (76490) - https://sketchapp.com -->
    <title>Developers</title>
    <desc>Created with Sketch.</desc>
    <g id="Palmspire-Website-Design-" stroke="none" stroke-width="1" fill="none" fill-rule="evenodd">
        <g id="Developers" transform="translate(0.000000, 0.000000)">
            <rect id="Rectangle" fill="#93CEDC" x="8.23774765" y="7.0907195" width="91.7622523" height="77.2679875" rx="8"></rect>
            <g id="94771" fill="#000000" fill-rule="nonzero">
                <path d="M81.7790492,0 L10.031122,0 C4.54186743,0 0.076097068,4.46343639 0.076097068,9.94982205 L0.076097068,67.3181654 C0.076097068,72.8045511 4.54186743,77.2679875 10.031122,77.2679875 L81.7790492,77.2679875 C87.2683038,77.2679875 91.7340741,72.8045511 91.7340741,67.3181654 L91.7340741,9.94982205 C91.7340741,4.46343639 87.2683038,0 81.7790492,0 Z M89.581189,67.7654615 C89.581189,71.8189748 86.2817648,75.1166746 82.2261318,75.1166746 L9.58359204,75.1166746 C5.52795904,75.1166746 2.22853489,71.8189748 2.22853489,67.7654615 L2.22853489,9.68180209 C2.22853489,5.62828871 5.52795904,2.33058895 9.58359204,2.33058895 L82.2261318,2.33058895 C86.2817648,2.33058895 89.581189,5.62828871 89.581189,9.68180209 L89.581189,67.7654615 Z" id="Shape"></path>
                <path d="M84.5509765,14.3899896 L7.15491939,14.3899896 C6.41284886,14.3899896 5.81123784,14.7867153 5.81123784,15.2763295 C5.81123784,15.7659437 6.41284886,16.1626694 7.15491939,16.1626694 L84.5509765,16.1626694 C85.2930471,16.1626694 85.8946581,15.7659437 85.8946581,15.2763295 C85.8946581,14.7867153 85.2930471,14.3899896 84.5509765,14.3899896 Z" id="Path"></path>
                <path d="M9.98224931,9.90615224 C10.3401221,9.90615224 10.6889577,9.76155718 10.9401916,9.50851582 C11.193233,9.25728189 11.337828,8.9084463 11.337828,8.55057351 C11.337828,8.19432742 11.193233,7.84386514 10.9401916,7.59263121 C10.6889577,7.33958985 10.3401221,7.19499479 9.98224931,7.19499479 C9.62437653,7.19499479 9.27554093,7.33958985 9.02430701,7.59263121 C8.77126565,7.84386514 8.62667058,8.19432742 8.62667058,8.55057351 C8.62667058,8.90826555 8.77126565,9.25728189 9.02430701,9.50851582 C9.27554093,9.76155718 9.62437653,9.90615224 9.98224931,9.90615224 Z" id="Path"></path>
                <path d="M21.4525309,9.90615224 C21.8085962,9.90615224 22.1592392,9.76155718 22.4104732,9.50851582 C22.6635145,9.25728189 22.8081096,8.9084463 22.8081096,8.55057351 C22.8081096,8.19432742 22.6635145,7.84386514 22.4104732,7.59263121 C22.1592392,7.33958985 21.8085962,7.19499479 21.4525309,7.19499479 C21.0946581,7.19499479 20.7458225,7.33958985 20.4945886,7.59263121 C20.2415472,7.84386514 20.0969521,8.19432742 20.0969521,8.55057351 C20.0969521,8.90826555 20.2415472,9.25728189 20.4945886,9.50851582 C20.7458225,9.76155718 21.0946581,9.90615224 21.4525309,9.90615224 Z" id="Path"></path>
                <path d="M15.6131148,9.90615224 C15.9709876,9.90615224 16.3198232,9.76155718 16.5710571,9.50851582 C16.8240985,9.25728189 16.9686935,8.9084463 16.9686935,8.55057351 C16.9686935,8.19432742 16.8240985,7.84386514 16.5710571,7.59263121 C16.3198232,7.33958985 15.9709876,7.19499479 15.6131148,7.19499479 C15.2570494,7.19499479 14.9064064,7.33958985 14.6551725,7.59263121 C14.4021311,7.84386514 14.2575361,8.19432742 14.2575361,8.55057351 C14.2575361,8.90826555 14.4021311,9.25728189 14.6551725,9.50851582 C14.9064064,9.76155718 15.2570494,9.90615224 15.6131148,9.90615224 Z" id="Path"></path>
                <path d="M33.8829475,30.5294204 C33.3556894,30.0042704 32.5008075,30.0042704 31.9737294,30.5294204 L17.5726877,44.8777818 C17.0454296,45.4032906 17.0454296,46.2548658 17.5726877,46.7801952 L31.9737294,61.1285567 C32.2372685,61.3911317 32.5828935,61.5224192 32.9283385,61.5224192 C33.2737835,61.5224192 33.6194085,61.3911317 33.8829475,61.1285567 C34.4102057,60.6030479 34.4102057,59.7514727 33.8829475,59.2261433 L20.4365149,45.8290782 L33.8829475,32.4320131 C34.4102057,31.9065044 34.4102057,31.0549291 33.8829475,30.5294204 Z" id="Path"></path>
                <path d="M59.6278912,30.5294226 C59.1006331,30.0042696 58.2457512,30.0042696 57.7186731,30.5294226 C57.191415,31.0549344 57.191415,31.9065145 57.7186731,32.4318469 L71.1651058,45.8289885 L57.7186731,59.2261302 C57.191415,59.7516419 57.191415,60.603222 57.7186731,61.1285544 C57.9822122,61.3911309 58.3278372,61.5224192 58.6732822,61.5224192 C59.0187271,61.5224192 59.3643521,61.3911309 59.6278912,61.1285544 L74.0289329,46.780111 C74.5561911,46.2545992 74.5561911,45.4030191 74.0289329,44.8776867 L59.6278912,30.5294226 Z" id="Path"></path>
                <path d="M52.0570468,28.7566472 C51.3584234,28.5038036 50.5860245,28.8630134 50.3318491,29.5597658 L38.8436948,61.0756815 C38.5895194,61.7729711 38.9499602,62.5433204 39.6487631,62.7968802 C39.8006221,62.8520331 39.9558917,62.8779979 40.1088278,62.8779979 C40.6588232,62.8779979 41.1752516,62.5390228 41.3741403,61.9937616 L52.8622946,30.4778459 C53.1162905,29.7807353 52.7558497,29.010207 52.0570468,28.7566472 Z" id="Path"></path>
            </g>
        </g>
    </g>
</svg>