<?xml version="1.0" encoding="utf-8"?>
<svg xmlns="http://www.w3.org/2000/svg" width="58" height="57" viewBox="0 0 58 57">
    <defs>
        <linearGradient id="a" x1="8.685%" x2="89.607%" y1="11.557%" y2="91.251%">
            <stop offset="0%" stop-color="#10E4F8"/>
            <stop offset="100%" stop-color="#2A59F1"/>
        </linearGradient>
    </defs>
    <path fill="url(#a)" fill-rule="nonzero" d="M4.918 5.7h12.35v1.9H4.918V5.7zm0 3.8h12.35v1.9H4.918V9.5zm0 3.8h8.55v1.9h-8.55v-1.9zm0 3.8h8.55V19h-8.55v-1.9zm-4.75 38h57V57h-57v-1.9zm55-46.974a.95.95 0 1 1-1.7.85l-2.796-5.591-1.533 4.381A52.597 52.597 0 0 1 4.05 42.75l-.162-1.9A50.696 50.696 0 0 0 47.345 7.14l1.502-4.288-5.505 2.75a.95.95 0 0 1-.849-1.7l7.6-3.8a.95.95 0 0 1 1.275.425l3.8 7.6zM11.568 45.6a.95.95 0 0 1 .95.95v5.7a.95.95 0 0 1-.95.95h-6.65a.95.95 0 0 1-.95-.95v-5.7a.95.95 0 0 1 .95-.95h6.65zm-.95 5.7v-3.8h-4.75v3.8h4.75zm11.4-8.55a.95.95 0 0 1 .95.95v8.55a.95.95 0 0 1-.95.95h-6.65a.95.95 0 0 1-.95-.95V43.7a.95.95 0 0 1 .95-.95h6.65zm-.95 8.55v-6.65h-4.75v6.65h4.75zm11.4-13.3a.95.95 0 0 1 .95.95v13.3a.95.95 0 0 1-.95.95h-6.65a.95.95 0 0 1-.95-.95v-13.3a.95.95 0 0 1 .95-.95h6.65zm-.95 13.3V39.9h-4.75v11.4h4.75zm11.4-19.95a.95.95 0 0 1 .95.95v19.95a.95.95 0 0 1-.95.95h-6.65a.95.95 0 0 1-.95-.95V32.3a.95.95 0 0 1 .95-.95h6.65zm-.95 19.95V33.25h-4.75V51.3h4.75zm11.4-33.25a.95.95 0 0 1 .95.95v33.25a.95.95 0 0 1-.95.95h-6.65a.95.95 0 0 1-.95-.95V19a.95.95 0 0 1 .95-.95h6.65zm-.95 33.25V19.95h-4.75V51.3h4.75z" transform="translate(.382)"/>
</svg>
