<?xml version="1.0" encoding="UTF-8"?>
<svg width="545px" height="620px" viewBox="0 0 545 620" version="1.1" xmlns="http://www.w3.org/2000/svg" xmlns:xlink="http://www.w3.org/1999/xlink">
    <!-- Generator: Sketch 54.1 (76490) - https://sketchapp.com -->
    <title>email_icon</title>
    <desc>Created with Sketch.</desc>
    <g id="Palmspire-Website-Design-" stroke="none" stroke-width="1" fill="none" fill-rule="evenodd">
        <g id="email_icon">
            <g id="Group-83" transform="translate(15.000000, 66.000000)">
                <circle id="Oval" fill="#D8E7FF" opacity="0.838518415" cx="265" cy="265" r="265"></circle>
                <path d="M348.8822,227.526237 L348.8822,162.789218 C348.8822,160.696559 347.178224,159 345.076415,159 L184.984803,159 C182.882995,159 181.179018,160.696559 181.179018,162.789218 L181.179018,227.530784 L184.984803,263.300408 C219.548206,282.096127 242.238277,294.428391 253.055016,300.297202 C258.634299,303.32434 260.949612,291.177267 265,293.369822 C267.58823,294.770882 271.376502,296.854848 276.364815,299.62172 L345.955667,263.528628 L348.8822,227.526237 Z" id="Path" fill="#FFFFFF"></path>
                <g id="Group-24" transform="translate(150.000000, 159.000000)" fill="#0D51FF" fill-rule="nonzero">
                    <g id="Group-23" transform="translate(0.112984, 0.000000)">
                        <g id="115757">
                            <path d="M198.769216,68.5262374 L198.769216,3.7892179 C198.769216,1.69655916 197.065239,0 194.963431,0 L34.8718185,0 C32.7700103,0 31.0660335,1.69655916 31.0660335,3.7892179 L31.0660335,68.5307844 L1.72901334,87.8941931 L1.72952078,87.8952036 C0.703481158,88.5737262 0.0260514365,89.7337321 0.0260514365,91.0523799 L0.0260514365,208.39688 C0.0260514365,210.489539 1.73002822,212.186098 3.83183639,212.186098 L226.008488,212.186098 C228.110296,212.186098 229.814273,210.489539 229.814273,208.39688 L229.814273,91.0523799 C229.814273,89.7337321 229.136843,88.5737262 228.110803,87.8946984 L198.769216,68.5262374 Z M31.235153,101.635821 L14.5533396,92.8253581 L31.235153,92.8253581 L31.235153,101.635821 Z M4.34291074,92.5915235 L97.8907223,141.473421 L4.34291074,204.122 L4.34291074,92.5915235 Z M222.202195,207.559624 L7.63762134,207.559624 L114.917625,136.202895 L222.202195,207.559624 Z M225.304566,92.5915235 L225.304566,204.639491 L131.008009,141.473421 L225.304566,92.5915235 Z M198.98258,91.9713114 L216.128924,91.9713114 L198.98258,101.02651 L198.98258,91.9713114 Z M221.411652,88.1419484 L198.769216,88.1419484 L198.769216,73.2131078 L221.411652,88.1419484 Z M194.123804,3.7892179 L194.123804,103.505381 L127.460477,138.810167 L117.020955,131.920358 C115.746778,131.079152 114.089993,131.079152 112.815817,131.920358 L102.377817,138.809156 L35.6865408,103.505381 L35.6865408,3.7892179 L194.123804,3.7892179 Z M31.3987754,89.2483086 L7.11172304,89.2483086 L31.3987754,73.21816 L31.3987754,89.2483086 Z" id="Shape"></path>
                        </g>
                    </g>
                </g>
            </g>
            <circle id="Oval" fill="#FF2380" cx="481.5" cy="42.5" r="42.5"></circle>
            <circle id="Oval" fill="#FF2380" cx="42.5" cy="427.5" r="42.5"></circle>
            <circle id="Oval" fill="#0D51FF" cx="503" cy="128" r="21"></circle>
            <circle id="Oval" fill="#FF2380" cx="451" cy="562" r="14"></circle>
            <circle id="Oval" fill="#FFFFFF" cx="465.5" cy="253.5" r="9.5"></circle>
            <circle id="Oval" fill="#0D51FF" cx="153" cy="603" r="17"></circle>
            <circle id="Oval" fill="#FFFFFF" cx="102" cy="314" r="17"></circle>
            <circle id="Oval" fill="#FF2380" cx="410.5" cy="24.5" r="5.5"></circle>
        </g>
    </g>
</svg>