<?xml version="1.0" encoding="utf-8"?>
<svg xmlns="http://www.w3.org/2000/svg" width="48" height="66" viewBox="0 0 48 66">
    <defs>
        <linearGradient id="a" x1="34.586%" x2="68.524%" y1="-29.428%" y2="115.841%">
            <stop offset="0%" stop-color="#13FF76"/>
            <stop offset="100%" stop-color="#2FCBFB"/>
        </linearGradient>
    </defs>
    <path fill="url(#a)" fill-rule="nonzero" d="M40.204 45.71c-.22-.065-9.913-1.884-9.913-1.884v-3.334a9.529 9.529 0 0 0 5.34-8.557v-9.58h3.205c.59 0 1.068-.477 1.068-1.065v-4.258c0-.588-.478-1.064-1.068-1.064h-1.243A15.332 15.332 0 0 0 27.086 3.663V1.065C27.086.477 26.608 0 26.018 0h-4.273c-.59 0-1.068.477-1.068 1.065v2.598A15.332 15.332 0 0 0 10.17 15.968H8.927c-.59 0-1.068.476-1.068 1.064v4.258c0 .588.478 1.065 1.068 1.065h3.205v9.58a9.529 9.529 0 0 0 5.34 8.556v3.335s-9.692 1.82-9.879 1.875a9.57 9.57 0 0 0-7.211 9.27v9.964C.382 65.523.86 66 1.45 66h44.863c.59 0 1.069-.477 1.069-1.065v-9.964a9.558 9.558 0 0 0-7.178-9.26zm-18.459-4.194h4.273a9.63 9.63 0 0 0 1.994-.213c.048-.007.096-.013.142-.025v2.367H19.61v-2.369c.046.011.093.018.14.025a9.649 9.649 0 0 0 1.996.215zm5.402 4.258l-3.265 4.555-3.266-4.555h6.531zm-4.334-42.58V2.129h2.137v1.065h-2.137zm1.069 2.129c5.987 0 10.582 5.307 11.557 10.645H12.324C13.299 10.63 17.9 5.323 23.882 5.323zM9.995 18.097h27.773v2.129H9.995v-2.13zm4.273 13.838v-9.58h19.227v9.58a7.43 7.43 0 0 1-4.668 6.91 7.605 7.605 0 0 1-2.81.542h-4.272c-.96 0-1.911-.184-2.803-.538a7.435 7.435 0 0 1-4.674-6.914zM2.518 54.971a7.425 7.425 0 0 1 4.273-6.706v15.606H2.518v-8.9zm6.409-7.378l4.273-.801V63.87H8.927V47.593zm6.41-1.201l2.73-.511 4.945 6.899a1.069 1.069 0 0 0 1.74 0l4.944-6.9 2.731.512V63.87h-17.09v-17.48zM34.562 63.87v-17.08l4.273.802v16.278h-4.273zm10.682 0h-4.273V48.255a7.427 7.427 0 0 1 4.273 6.716v8.9z"/>
</svg>
