<?xml version="1.0" encoding="UTF-8"?>
<svg width="545px" height="620px" viewBox="0 0 545 620" version="1.1" xmlns="http://www.w3.org/2000/svg" xmlns:xlink="http://www.w3.org/1999/xlink">
    <!-- Generator: Sketch 54.1 (76490) - https://sketchapp.com -->
    <title>frontend_icon</title>
    <desc>Created with Sketch.</desc>
    <g id="Palmspire-Website-Design-" stroke="none" stroke-width="1" fill="none" fill-rule="evenodd">
        <g id="frontend_icon">
            <g id="Group-84">
                <g id="Group-83" transform="translate(15.000000, 66.000000)">
                    <circle id="Oval" fill="#D8E7FF" opacity="0.838518415" cx="265" cy="265" r="265"></circle>
                    <g id="Frontend" transform="translate(148.000000, 150.000000)" fill="#0D51FF" fill-rule="nonzero">
                        <g id="1508776" transform="translate(0.393004, 0.000000)">
                            <path d="M221.35,1.70234197e-15 L11.65,1.70234197e-15 C5.21588266,0 1.72454643e-15,5.14872538 0,11.5 L0,218.5 C1.72454643e-15,224.851275 5.21588266,230 11.65,230 L221.35,230 C227.784117,230 233,224.851275 233,218.5 L233,11.5 C233,5.14872538 227.784117,0 221.35,1.70234197e-15 Z M228.63125,218.970148 C228.63125,221.153399 225.393261,225.208333 223.181533,225.208333 L9.13402608,225.208333 C6.92229825,225.208333 4.36875,221.782805 4.36875,219.599554 L4.36875,35.4583333 L228.63125,35.4583333 L228.63125,218.970148 Z M4.36875,30.6666667 L4.36875,10.4760389 C4.36875,8.05020482 8.18483412,4.3125 10.396562,4.3125 L222.609822,4.3125 C224.82155,4.3125 228.63125,8.05020482 228.63125,10.4760389 L228.63125,30.6666667 L4.36875,30.6666667 Z" id="Shape"></path>
                            <path d="M16.7521581,15.8225771 C16.242283,16.3468815 15.9548698,17.045843 15.9494048,17.7747964 C15.9537783,18.1341072 16.029013,18.4890823 16.1708539,18.8196462 C16.2979004,19.1595044 16.4960217,19.4687562 16.7521581,19.7270157 C17.4543141,20.4244765 18.4777288,20.6968659 19.4368918,20.4415775 C20.3960548,20.1862892 21.1452464,19.4421074 21.4022534,18.4893582 C21.6592603,17.5366091 21.3850371,16.5200379 20.6828811,15.8225771 C19.5728123,14.8051727 17.8622269,14.8051727 16.7521581,15.8225771 Z" id="Path"></path>
                            <path d="M27.8490408,15.8671941 C27.3426444,16.3906602 27.0554062,17.0828079 27.0446429,17.8055229 C27.0493751,17.9886264 27.067918,18.1711311 27.1001186,18.351531 C27.1303176,18.5226023 27.1864175,18.6882476 27.2665457,18.8429383 C27.3271678,19.0169459 27.4111231,19.1822083 27.5161865,19.3343456 C27.6185746,19.477382 27.7297325,19.614138 27.8490408,19.7438517 C28.9428447,20.7996685 30.6940128,20.7996685 31.7878168,19.7438517 L32.1206711,19.3343456 C32.2257345,19.1822083 32.3096897,19.0169459 32.3703118,18.8429383 C32.45044,18.6882476 32.5065399,18.5226023 32.536739,18.351531 C32.5689395,18.1711311 32.5874824,17.9886264 32.5922147,17.8055229 C32.5987681,16.6964028 31.9228897,15.693618 30.8821244,15.2683025 C29.8413591,14.842987 28.6425944,15.0796868 27.8490408,15.8671941 L27.8490408,15.8671941 Z" id="Path"></path>
                            <path d="M39.6362174,15.8225771 C38.5657053,16.9068455 38.5657053,18.6427473 39.6362174,19.7270157 C40.3383541,20.4244765 41.3617406,20.6968659 42.3208772,20.4415775 C43.2800137,20.1862892 44.0291847,19.4421074 44.2861845,18.4893582 C44.5431844,17.5366091 44.2689688,16.5200379 43.5668321,15.8225771 C42.4567939,14.8051727 40.7462557,14.8051727 39.6362174,15.8225771 L39.6362174,15.8225771 Z" id="Path"></path>
                            <path d="M217.744048,45.8630952 L15.9494048,45.8630952 L15.9494048,99.2559524 L217.744048,99.2559524 L217.744048,45.8630952 Z M212.893215,94.9654549 L20.3151542,94.9654549 L20.3151542,50.1535927 L212.893215,50.1535927 L212.893215,94.9654549 Z" id="Shape"></path>
                            <path d="M85.2946429,107.470238 L15.2559524,107.470238 L15.2559524,214.940476 L85.2946429,214.940476 L85.2946429,107.470238 Z M80.9172247,210.142698 L19.6333705,210.142698 L19.6333705,111.788239 L80.9172247,111.788239 L80.9172247,210.142698 Z" id="Shape"></path>
                            <path d="M93.6160714,157.440476 L217.744048,157.440476 L217.744048,107.470238 L93.6160714,107.470238 L93.6160714,157.440476 Z M98.4648205,111.794586 L212.895299,111.794586 L212.895299,152.635646 L98.4648205,152.635646 L98.4648205,111.794586 Z" id="Shape"></path>
                            <path d="M93.6160714,214.940476 L217.744048,214.940476 L217.744048,164.970238 L93.6160714,164.970238 L93.6160714,214.940476 Z M98.4648205,169.294586 L212.895299,169.294586 L212.895299,210.616129 L98.4648205,210.616129 L98.4648205,169.294586 Z" id="Shape"></path>
                        </g>
                    </g>
                </g>
                <circle id="Oval" fill="#FF2380" cx="481.5" cy="42.5" r="42.5"></circle>
                <circle id="Oval" fill="#FF2380" cx="42.5" cy="427.5" r="42.5"></circle>
                <circle id="Oval" fill="#0D51FF" cx="503" cy="128" r="21"></circle>
                <circle id="Oval" fill="#FF2380" cx="451" cy="562" r="14"></circle>
                <circle id="Oval" fill="#FFFFFF" cx="465.5" cy="253.5" r="9.5"></circle>
                <circle id="Oval" fill="#0D51FF" cx="153" cy="603" r="17"></circle>
                <circle id="Oval" fill="#FFFFFF" cx="102" cy="314" r="17"></circle>
                <circle id="Oval" fill="#FF2380" cx="410.5" cy="24.5" r="5.5"></circle>
            </g>
            <rect id="Rectangle" fill="#FFFFFF" x="183" y="266" width="194" height="45"></rect>
            <rect id="Rectangle" fill="#FFFFFF" x="262" y="328" width="115" height="41"></rect>
            <rect id="Rectangle" fill="#FFFFFF" x="262" y="385" width="115" height="42"></rect>
            <rect id="Rectangle" fill="#FFFFFF" x="183" y="328" width="61" height="98"></rect>
        </g>
    </g>
</svg>