<?xml version="1.0" encoding="UTF-8"?>
<svg width="153px" height="151px" viewBox="0 0 153 151" version="1.1" xmlns="http://www.w3.org/2000/svg" xmlns:xlink="http://www.w3.org/1999/xlink">
    <!-- Generator: Sketch 54.1 (76490) - https://sketchapp.com -->
    <title>Frontend</title>
    <desc>Created with Sketch.</desc>
    <g id="Palmspire-Website-Design-" stroke="none" stroke-width="1" fill="none" fill-rule="evenodd">
        <g id="Frontend">
            <rect id="Rectangle" fill="#E6BD4E" x="7.71696035" y="0" width="145" height="143" rx="8"></rect>
            <g id="1508776" transform="translate(0.716960, 8.000000)" fill="#000000" fill-rule="nonzero">
                <path d="M137.75,1.05841262e-15 L7.25,1.05841262e-15 C3.24593556,0 1.07321559e-15,3.20116404 0,7.15 L0,135.85 C1.07321559e-15,139.798836 3.24593556,143 7.25,143 L137.75,143 C141.754064,143 145,139.798836 145,135.85 L145,7.15 C145,3.20116404 141.754064,0 137.75,1.05841262e-15 Z M142.28125,136.142309 C142.28125,137.499722 140.266193,140.020833 138.889795,140.020833 L5.68426516,140.020833 C4.30786801,140.020833 2.71875,137.891048 2.71875,136.533636 L2.71875,22.0458333 L142.28125,22.0458333 L142.28125,136.142309 Z M2.71875,19.0666667 L2.71875,6.5133633 C2.71875,5.00512734 5.0935663,2.68125 6.46996345,2.68125 L138.53401,2.68125 C139.910407,2.68125 142.28125,5.00512734 142.28125,6.5133633 L142.28125,19.0666667 L2.71875,19.0666667 Z" id="Shape"></path>
                <path d="M10.4251627,9.83751531 C10.1078585,10.1634959 9.92899624,10.5980676 9.92559524,11.0512864 C9.928317,11.274684 9.97513687,11.495386 10.063407,11.7009104 C10.1424702,11.9122136 10.2657646,12.1044875 10.4251627,12.2650576 C10.8621268,12.6986962 11.4990158,12.8680514 12.0959198,12.7093287 C12.6928238,12.5506059 13.1590589,12.0879189 13.3189989,11.4955575 C13.4789388,10.9031961 13.3082849,10.271154 12.8713209,9.83751531 C12.1805055,9.20495521 11.1159781,9.20495521 10.4251627,9.83751531 Z" id="Path"></path>
                <path d="M17.3309481,9.86525548 C17.0158088,10.1907148 16.8370554,10.6210501 16.8303571,11.0703903 C16.8333021,11.1842329 16.8448417,11.2977032 16.8648807,11.4098649 C16.8836741,11.5162267 16.918586,11.6192148 16.9684512,11.7153921 C17.0061774,11.8235794 17.0584242,11.9263295 17.123807,12.0209192 C17.187525,12.1098505 17.2567005,12.1948771 17.3309481,12.2755252 C18.0116416,12.9319678 19.1014243,12.9319678 19.7821177,12.2755252 L19.9892588,12.0209192 C20.0546416,11.9263295 20.1068885,11.8235794 20.1446146,11.7153921 C20.1944799,11.6192148 20.2293918,11.5162267 20.2481852,11.4098649 C20.2682242,11.2977032 20.2797637,11.1842329 20.2827087,11.0703903 C20.286787,10.380807 19.866176,9.75733643 19.2184894,9.49290114 C18.5708029,9.22846586 17.8247905,9.37563134 17.3309481,9.86525548 L17.3309481,9.86525548 Z" id="Path"></path>
                <path d="M24.6663156,9.83751531 C24.000117,10.5116474 24.000117,11.5909255 24.6663156,12.2650576 C25.1032676,12.6986962 25.740139,12.8680514 26.3370266,12.7093287 C26.9339141,12.5506059 27.4001364,12.0879189 27.5600719,11.4955575 C27.7200075,10.9031961 27.5493583,10.271154 27.1124063,9.83751531 C26.4216099,9.20495521 25.3571119,9.20495521 24.6663156,9.83751531 L24.6663156,9.83751531 Z" id="Path"></path>
                <path d="M135.505952,28.514881 L9.92559524,28.514881 L9.92559524,61.7113095 L135.505952,61.7113095 L135.505952,28.514881 Z M132.487194,59.0437394 L12.642478,59.0437394 L12.642478,31.1824511 L132.487194,31.1824511 L132.487194,59.0437394 Z" id="Shape"></path>
                <path d="M53.0803571,66.8184524 L9.49404762,66.8184524 L9.49404762,133.636905 L53.0803571,133.636905 L53.0803571,66.8184524 Z M50.3562128,130.653938 L12.218192,130.653938 L12.218192,69.5031223 L50.3562128,69.5031223 L50.3562128,130.653938 Z" id="Shape"></path>
                <path d="M58.2589286,97.8869048 L135.505952,97.8869048 L135.505952,66.8184524 L58.2589286,66.8184524 L58.2589286,97.8869048 Z M61.2763904,69.5070685 L132.488491,69.5070685 L132.488491,94.8995536 L61.2763904,94.8995536 L61.2763904,69.5070685 Z" id="Shape"></path>
                <path d="M58.2589286,133.636905 L135.505952,133.636905 L135.505952,102.568452 L58.2589286,102.568452 L58.2589286,133.636905 Z M61.2763904,105.257068 L132.488491,105.257068 L132.488491,130.948289 L61.2763904,130.948289 L61.2763904,105.257068 Z" id="Shape"></path>
            </g>
        </g>
    </g>
</svg>