<?xml version="1.0" encoding="UTF-8"?>
<svg width="101px" height="99px" viewBox="0 0 101 99" version="1.1" xmlns="http://www.w3.org/2000/svg" xmlns:xlink="http://www.w3.org/1999/xlink">
    <!-- Generator: Sketch 54.1 (76490) - https://sketchapp.com -->
    <title>Happy Clients</title>
    <desc>Created with Sketch.</desc>
    <g id="Palmspire-Website-Design-" stroke="none" stroke-width="1" fill="none" fill-rule="evenodd">
        <g id="Happy-Clients" transform="translate(0.334821, 0.000000)">
            <circle id="Oval" fill="#E6BD4E" cx="53.0005939" cy="51.2041284" r="46.9610092"></circle>
            <g id="87067" transform="translate(0.076282, 0.000000)" fill="#000000" fill-rule="nonzero">
                <path d="M46.8781126,93.7563991 C21.0299132,93.7563991 0,72.728399 0,46.8781126 C0,21.0299132 21.0299132,0 46.8781126,0 C72.7282251,0 93.7562252,21.0299132 93.7562252,46.8781126 C93.7563991,72.728399 72.728399,93.7563991 46.8781126,93.7563991 Z M46.9583726,1.9131226 C22.1203682,1.9131226 1.9131226,22.1203682 1.9131226,46.9583726 C1.9131226,71.7963769 22.1203682,92.0038049 46.9583726,92.0038049 C71.7963769,92.0038049 92.0038049,71.7965593 92.0038049,46.9583726 C92.0038049,22.1201859 71.7965593,1.9131226 46.9583726,1.9131226 Z" id="Shape"></path>
                <path d="M46.8781126,82.036784 C29.6459217,82.036784 15.6260375,68.0168998 15.6260375,50.7847089 C15.6260375,49.7050121 17.1115616,49.7050121 17.1115616,50.7847089 C17.1115616,57.563243 19.5853381,64.4157289 24.2240096,69.732936 C29.9026589,76.2422467 38.5787962,80.5288474 46.8781126,80.5288474 C54.6392702,80.5288474 62.7125304,76.9712139 68.3032212,71.2241053 C73.5729867,65.806901 76.5891379,58.4170322 76.5891379,51.1013924 C76.5891379,50.0216955 78.1305355,49.7050121 78.1305355,50.7847089 C78.1303616,68.0168998 64.1103035,82.036784 46.8781126,82.036784 Z M72.1400674,36.7980073 C70.9483893,33.6284371 67.6887123,30.9452574 64.4574483,30.9452574 C61.2261842,30.9452574 57.5185426,33.3234228 56.6771285,36.5251811 C56.5202826,37.1220127 56.2685493,38.1294518 55.9715167,38.5879831 C55.2259799,39.7388736 54.6911313,39.8371803 54.6911313,39.0650938 C54.6911313,33.6803494 59.0706168,29.2987769 64.4574483,29.2987769 C69.8442798,29.2987769 74.2237652,33.6801755 74.2237652,39.0650938 C74.2237652,39.7424753 73.576892,39.3865879 72.8306303,38.5879831 C72.3874051,38.1136699 72.3098009,37.2494563 72.1400674,36.7980073 Z" id="Shape"></path>
                <path d="M72.1400674,36.7980073 C70.9483893,33.6284371 67.6887123,30.9452574 64.4574483,30.9452574 C61.2261842,30.9452574 57.5185426,33.3234228 56.6771285,36.5251811 C56.5202826,37.1220127 56.2685493,38.1294518 55.9715167,38.5879831 C55.2259799,39.7388736 54.6911313,39.8371803 54.6911313,39.0650938 C54.6911313,33.6803494 59.0706168,29.2987769 64.4574483,29.2987769 C69.8442798,29.2987769 74.2237652,33.6801755 74.2237652,39.0650938 C74.2237652,39.7424753 73.576892,39.3865879 72.8306303,38.5879831 C72.3874051,38.1136699 72.3098009,37.2494563 72.1400674,36.7980073 Z M36.4864191,36.7980073 C35.2947409,33.6284371 32.035064,30.9452574 28.8037999,30.9452574 C25.5725358,30.9452574 21.8648943,33.3234228 21.0234801,36.5251811 C20.8666342,37.1220127 20.6149009,38.1294518 20.3178683,38.5879831 C19.5723315,39.7388736 19.037483,39.8371803 19.037483,39.0650938 C19.037483,33.6803494 23.4169684,29.2987769 28.8037999,29.2987769 C34.1906314,29.2987769 38.5701168,33.6801755 38.5701168,39.0650938 C38.5701168,39.7424753 37.9232436,39.3865879 37.1769819,38.5879831 C36.7337567,38.1136699 36.6561525,37.2494563 36.4864191,36.7980073 Z" id="Shape"></path>
            </g>
        </g>
    </g>
</svg>