<?xml version="1.0" encoding="UTF-8"?>
<svg width="545px" height="620px" viewBox="0 0 545 620" version="1.1" xmlns="http://www.w3.org/2000/svg" xmlns:xlink="http://www.w3.org/1999/xlink">
    <!-- Generator: Sketch 54.1 (76490) - https://sketchapp.com -->
    <title>location_icon</title>
    <desc>Created with Sketch.</desc>
    <g id="Palmspire-Website-Design-" stroke="none" stroke-width="1" fill="none" fill-rule="evenodd">
        <g id="location_icon">
            <g id="Group-83" transform="translate(15.000000, 66.000000)">
                <circle id="Oval" fill="#D8E7FF" opacity="0.838518415" cx="265" cy="265" r="265"></circle>
                <path d="M194.773498,246.101442 C189.195725,235.636356 187.699027,225.325816 187.772977,213.484494 C188.01833,173.866276 223.491744,138.500165 265,137.95153 C285.732344,137.685691 304.354872,147.413653 319.104726,161.294716 C333.859166,175.179061 341.98391,193.713401 341.98391,213.484494 C341.98391,225.167735 339.79719,238.35333 334.291648,248.681121 L276.045648,345.725327 C274.143588,348.766612 268.651479,351.02393 264.965541,351.02393 C261.279603,351.02393 254.704874,349.328228 252.803387,346.286943 L194.773498,246.101442 Z" id="Path" fill="#FFFFFF"></path>
                <path d="M262.426426,241.276086 C248.060782,241.27689 236.372661,229.595825 236.372661,215.23527 C236.372661,200.876322 248.059978,189.194453 262.426426,189.194453 C276.79207,189.194453 288.479387,200.876322 288.479387,215.23527 C288.479387,229.594217 276.79207,241.276086 262.426426,241.276086 Z" id="Path" fill="#DDEAFE"></path>
                <g id="Group-23" transform="translate(165.000000, 132.000000)" fill="#0D51FF" fill-rule="nonzero">
                    <g id="263072" transform="translate(0.047174, 0.000000)">
                        <path d="M199.141244,256.859138 L164.030208,182.61397 C163.329537,181.132509 162.115458,179.997363 160.659499,179.378051 L143.192149,171.604671 L173.458311,120.895961 C173.530615,120.774282 173.598757,120.651044 173.663779,120.525205 C179.681119,108.784276 182.732444,96.0969586 182.732444,82.8178888 C182.732444,60.4794951 173.969639,39.5372836 158.058122,23.8496046 C142.149206,8.16556566 121.072909,-0.305645757 98.7133496,0.00843021699 C76.997242,0.309506358 56.5503521,9.02927459 41.1381993,24.5625155 C25.7276071,40.0947164 17.1697503,60.6048135 17.0407479,82.3160952 C16.9616819,95.5837252 20.0977941,108.795716 26.1078522,120.524686 C26.1723535,120.650004 26.2404959,120.773762 26.3127997,120.895441 L56.5784413,171.603631 L39.0101789,179.419651 C37.5729459,180.058722 36.4129641,181.191788 35.7409029,182.61345 L0.630906755,256.859138 C-0.544160006,259.342106 -0.048436844,262.294628 1.8730756,264.258643 C3.79406788,266.222658 6.73407555,266.785291 9.24494198,265.668345 L53.2295791,246.092676 L97.2142162,265.668345 C98.9156962,266.424935 100.858536,266.424935 102.560016,265.668345 L146.544653,246.092676 L190.52929,265.668345 C191.388613,266.05054 192.298392,266.236698 193.200369,266.236698 C194.933059,266.236698 196.63766,265.551347 197.901156,264.259163 C199.821108,262.294628 200.316311,259.343146 199.141244,256.859138 Z M29.7263239,114.101442 C24.1485517,103.636356 22.6518533,93.3258165 22.7258032,81.4844936 C22.9711564,41.866276 58.4445707,6.50016525 99.9528263,5.95153042 C120.68517,5.68569141 139.307698,15.4136534 154.057552,29.2947163 C168.811992,43.1790612 176.936737,61.7134009 176.936737,81.4844936 C176.936737,93.1677352 174.750017,106.35333 169.244475,116.681121 L110.998474,213.725327 C109.096414,216.766612 103.604306,219.02393 99.9183673,219.02393 C96.2324291,219.02393 89.6577007,217.328228 87.7562135,214.286943 L29.7263239,114.101442 Z M151.169646,243.113909 C147.172392,241.529194 144.141816,242.189801 142.239455,243.113909 L99.9528263,261.428445 L55.7473528,242.053375 C53.8449926,241.129266 51.6727777,241.129266 49.7704175,242.053375 C30.6463535,251.143724 16.7394463,257.353389 8.04969598,260.682371 C6.41189177,261.309802 4.7310196,260.816629 5.00535812,258.568214 C5.18825047,257.06927 16.949182,232.51396 40.2881528,184.902284 L59.0488785,175.784412 L82.250523,215.051383 C86.2657766,222.401064 92.0479354,224.57145 99.8847752,224.57145 C107.721615,224.57145 112.128804,222.400429 116.144058,215.051383 L140.720672,175.785047 L159.483142,184.906095 C182.851505,233.658079 194.743826,258.511409 195.160103,259.466086 C195.78452,260.8981 194.03367,262.464994 192.680402,261.957047 C178.85679,256.768375 155.1669,244.698624 151.169646,243.113909 Z" id="Shape"></path>
                        <path d="M97.5082152,52.2964942 C80.459905,52.2964942 66.5907931,66.159141 66.5907931,83.1989681 C66.5907931,100.238795 80.459905,114.101442 97.5082152,114.101442 C114.555989,114.101978 128.425101,100.238795 128.425101,83.1989681 C128.425101,66.159141 114.555989,52.2964942 97.5082152,52.2964942 Z M97.3792523,109.276086 C83.0136084,109.27689 71.325487,97.5958249 71.325487,83.2352697 C71.325487,68.8763224 83.0128041,57.1944534 97.3792523,57.1944534 C111.744896,57.1944534 123.432213,68.8763224 123.432213,83.2352697 C123.432213,97.594217 111.744896,109.276086 97.3792523,109.276086 Z" id="Shape"></path>
                    </g>
                </g>
            </g>
            <circle id="Oval" fill="#FF2380" cx="481.5" cy="42.5" r="42.5"></circle>
            <circle id="Oval" fill="#FF2380" cx="42.5" cy="427.5" r="42.5"></circle>
            <circle id="Oval" fill="#0D51FF" cx="503" cy="128" r="21"></circle>
            <circle id="Oval" fill="#FF2380" cx="451" cy="562" r="14"></circle>
            <circle id="Oval" fill="#FFFFFF" cx="465.5" cy="253.5" r="9.5"></circle>
            <circle id="Oval" fill="#0D51FF" cx="153" cy="603" r="17"></circle>
            <circle id="Oval" fill="#FFFFFF" cx="102" cy="314" r="17"></circle>
            <circle id="Oval" fill="#FF2380" cx="410.5" cy="24.5" r="5.5"></circle>
        </g>
    </g>
</svg>