<?xml version="1.0" encoding="UTF-8"?>
<svg width="101px" height="159px" viewBox="0 0 101 159" version="1.1" xmlns="http://www.w3.org/2000/svg" xmlns:xlink="http://www.w3.org/1999/xlink">
    <!-- Generator: Sketch 54.1 (76490) - https://sketchapp.com -->
    <title>Mobile App</title>
    <desc>Created with Sketch.</desc>
    <g id="Palmspire-Website-Design-" stroke="none" stroke-width="1" fill="none" fill-rule="evenodd">
        <g id="Mobile-App" transform="translate(-1.126652, 0.000000)">
            <path d="M1.1980957,144.579832 C1.09513272,147.109914 2.18436157,149.479129 4.46578227,151.687477 C6.74720296,153.895826 8.57829136,155 9.95904746,155 C57.773682,155 82.3316381,155 83.6329158,155 C84.5168234,155 88.4890773,154.492041 91.598761,151.687477 C92.5776635,150.804624 93.635662,148.869583 94.7727563,145.882353 L95.126652,8.95801718 C94.6284136,6.23549566 93.5521375,4.23111576 91.8978237,2.94487749 C90.2435099,1.65863921 88.2219643,0.677013385 85.833187,0 L9.95904746,0 C7.51216749,0.39878386 5.5585403,1.38040969 4.09816589,2.94487749 C2.63779148,4.50934529 1.64728685,6.42221059 1.12665198,8.68347339 L1.1980957,144.579832 Z" id="Path-14" fill="#E06D3F"></path>
            <g id="918471" transform="translate(8.126652, 4.000000)" fill="#000000" fill-rule="nonzero">
                <path d="M90.7817546,114.07778 L90.7817546,134.636547 L18.2418604,134.636547 C17.0111309,134.636547 17.0111309,137.300275 18.2418604,137.300275 L90.5227845,137.300275 L90.5227845,145.146414 C90.5227845,148.899966 86.1916201,152.259939 82.5062638,152.259939 L11.2112843,152.259939 C7.52592796,152.259939 3.33913028,148.466532 3.33913028,144.71298 L3.33913028,137.300275 L18.5501828,137.300275 C19.7809124,137.300275 19.7809124,134.636547 18.5501828,134.636547 L3.33913028,134.636547 L3.33913028,27.4512684 C3.33913028,26.1977647 3.53014142,25.1820728 2.29941183,25.1820728 C1.06868225,25.1820728 0.0714437217,26.1977647 0.0714437217,27.4512684 L0.0714437217,143.654022 C0.0714437217,149.910346 5.06862766,155 11.2112843,155 L82.5062638,155 C88.6489204,155 93.6461044,149.910346 93.6461044,143.654022 L93.6461044,114.07778 C93.6461044,112.824277 90.7817546,112.824277 90.7817546,114.07778 Z" id="Path"></path>
                <polygon id="Path" points="9.78280543 31.2605042 48.9140271 31.2605042 48.9140271 34.2997199 9.78280543 34.2997199"></polygon>
                <polygon id="Path" points="77.4117647 31.2605042 82.9411765 31.2605042 82.9411765 34.2997199 77.4117647 34.2997199"></polygon>
                <polygon id="Path" points="71.8823529 36.9047619 77.4117647 36.9047619 77.4117647 39.9439776 71.8823529 39.9439776"></polygon>
                <polygon id="Path" points="9.78280543 42.5490196 48.9140271 42.5490196 48.9140271 45.5882353 9.78280543 45.5882353"></polygon>
                <polygon id="Path" points="55.2941176 42.5490196 71.8823529 42.5490196 71.8823529 45.5882353 55.2941176 45.5882353"></polygon>
                <polygon id="Path" points="77.4117647 42.5490196 82.9411765 42.5490196 82.9411765 45.5882353 77.4117647 45.5882353"></polygon>
                <polygon id="Path" points="9.78280543 36.9047619 26.3710407 36.9047619 26.3710407 39.9439776 9.78280543 39.9439776"></polygon>
                <polygon id="Path" points="43.8099548 36.9047619 66.3529412 36.9047619 66.3529412 39.9439776 43.8099548 39.9439776"></polygon>
                <path d="M82.5062638,0 L11.2112843,0 C5.06862766,0 0.0714437217,5.08871039 0.0714437217,11.3438735 L0.0714437217,28.9268774 C0.0714437217,30.1801485 1.06868225,31.1956521 2.29941183,31.1956521 C3.53014142,31.1956521 3.33913028,30.1801485 3.33913028,28.9268774 L3.33913028,22.233992 L90.7711717,22.233992 L90.7711717,116.44922 C90.7711717,117.702491 93.6461044,117.33891 93.6461044,116.085639 L93.6461044,11.3438735 C93.6461044,5.08871039 88.6489204,0 82.5062638,0 Z M90.7711717,18.7552042 L3.33913028,18.7552042 L3.33913028,11.3073645 C3.33913028,6.9074645 6.40080562,3.32753622 10.1637484,3.32753622 L82.9596749,3.32753622 C86.7226176,3.32753622 90.7711717,6.9074645 90.7711717,11.3073645 L90.7711717,18.7552042 Z" id="Shape"></path>
                <path d="M54.8291259,8.68347339 L39.3137615,8.68347339 C38.0776047,8.68347339 37.0759686,9.36364986 37.0759686,10.2030812 C37.0759686,11.0425126 38.0776047,11.7226891 39.3137615,11.7226891 L54.8291259,11.7226891 C56.0652827,11.7226891 57.0669188,11.0425126 57.0669188,10.2030812 C57.0669188,9.36364986 56.0652827,8.68347339 54.8291259,8.68347339 Z" id="Path"></path>
                <path d="M54.7452369,143.277311 L39.3696011,143.277311 C38.1445769,143.277311 37.501308,143.860319 37.501308,144.579832 C37.501308,145.299345 38.1445769,145.882353 39.3696011,145.882353 L54.7452369,145.882353 C55.9702611,145.882353 56.6415795,145.299345 56.6415795,144.579832 C56.6415795,143.860319 55.9702611,143.277311 54.7452369,143.277311 Z" id="Path"></path>
            </g>
        </g>
    </g>
</svg>