<?xml version="1.0" encoding="UTF-8"?>
<svg width="545px" height="620px" viewBox="0 0 545 620" version="1.1" xmlns="http://www.w3.org/2000/svg" xmlns:xlink="http://www.w3.org/1999/xlink">
    <!-- Generator: Sketch 54.1 (76490) - https://sketchapp.com -->
    <title>mobileapps_icon</title>
    <desc>Created with Sketch.</desc>
    <g id="Palmspire-Website-Design-" stroke="none" stroke-width="1" fill="none" fill-rule="evenodd">
        <g id="mobileapps_icon">
            <g id="Group-83" transform="translate(15.000000, 66.000000)">
                <circle id="Oval" fill="#D8E7FF" opacity="0.838518415" cx="265" cy="265" r="265"></circle>
                <g id="Mobile-App" transform="translate(186.000000, 135.000000)">
                    <g id="918471" transform="translate(0.212105, 0.000000)" fill="#0D51FF" fill-rule="nonzero">
                        <path d="M152.032895,191.046926 L152.032895,225.476849 L30.5497824,225.476849 C28.4886702,225.476849 28.4886702,229.937814 30.5497824,229.937814 L151.599195,229.937814 L151.599195,243.077804 C151.599195,249.363906 144.345761,254.990877 138.173867,254.990877 L18.775623,254.990877 C12.6037288,254.990877 5.59206687,248.63803 5.59206687,242.351928 L5.59206687,229.937814 L31.0661321,229.937814 C33.1272443,229.937814 33.1272443,225.476849 31.0661321,225.476849 L5.59206687,225.476849 L5.59206687,45.9728478 C5.59206687,43.8735958 5.91195467,42.1726088 3.85084248,42.1726088 C1.78973029,42.1726088 0.119647344,43.8735958 0.119647344,45.9728478 L0.119647344,240.578483 C0.119647344,251.055996 8.48846928,259.579678 18.775623,259.579678 L138.173867,259.579678 C148.461021,259.579678 156.829843,251.055996 156.829843,240.578483 L156.829843,191.046926 C156.829843,188.947674 152.032895,188.947674 152.032895,191.046926 Z" id="Path"></path>
                        <path d="M138.173867,0 L18.775623,0 C8.48846928,0 0.119647344,8.52210198 0.119647344,18.9976712 L0.119647344,48.4440615 C0.119647344,50.5429242 1.78973029,52.2435957 3.85084248,52.2435957 C5.91195467,52.2435957 5.59206687,50.5429242 5.59206687,48.4440615 L5.59206687,37.2354355 L152.015171,37.2354355 L152.015171,195.018394 C152.015171,197.117257 156.829843,196.508364 156.829843,194.409502 L156.829843,18.9976712 C156.829843,8.52210198 148.461021,0 138.173867,0 Z M152.015171,31.409483 L5.59206687,31.409483 L5.59206687,18.9365292 C5.59206687,11.5679833 10.7194778,5.57265021 17.0213067,5.57265021 L138.933198,5.57265021 C145.235027,5.57265021 152.015171,11.5679833 152.015171,18.9365292 L152.015171,31.409483 Z" id="Shape"></path>
                        <path d="M91.822754,14.5422789 L65.8390553,14.5422789 C63.7688541,14.5422789 62.0914065,15.6813756 62.0914065,17.0871777 C62.0914065,18.4929798 63.7688541,19.6320765 65.8390553,19.6320765 L91.822754,19.6320765 C93.8929552,19.6320765 95.5704028,18.4929798 95.5704028,17.0871777 C95.5704028,15.6813756 93.8929552,14.5422789 91.822754,14.5422789 Z" id="Path"></path>
                        <path d="M91.6822645,239.947602 L65.9325703,239.947602 C63.8810129,239.947602 62.8037256,240.92397 62.8037256,242.128944 C62.8037256,243.333917 63.8810129,244.310286 65.9325703,244.310286 L91.6822645,244.310286 C93.7338218,244.310286 94.8580837,243.333917 94.8580837,242.128944 C94.8580837,240.92397 93.7338218,239.947602 91.6822645,239.947602 Z" id="Path"></path>
                    </g>
                    <rect id="Rectangle" fill="#FFFFFF" x="6" y="36" width="146" height="190"></rect>
                    <g id="Group-87" transform="translate(16.595444, 52.352204)" fill="#0D51FF" fill-rule="nonzero">
                        <polygon id="Path" points="-2.58637556e-12 -2.73558953e-13 65.5333545 -2.73558953e-13 65.5333545 5.08979761 -2.58637556e-12 5.08979761"></polygon>
                        <polygon id="Path" points="113.258732 -2.73558953e-13 122.51888 -2.73558953e-13 122.51888 5.08979761 113.258732 5.08979761"></polygon>
                        <polygon id="Path" points="103.998584 9.45248128 113.258732 9.45248128 113.258732 14.5422789 103.998584 14.5422789"></polygon>
                        <polygon id="Path" points="-2.58637556e-12 18.9049626 65.5333545 18.9049626 65.5333545 23.9947602 -2.58637556e-12 23.9947602"></polygon>
                        <polygon id="Path" points="76.2181406 18.9049626 103.998584 18.9049626 103.998584 23.9947602 76.2181406 23.9947602"></polygon>
                        <polygon id="Path" points="113.258732 18.9049626 122.51888 18.9049626 122.51888 23.9947602 113.258732 23.9947602"></polygon>
                        <polygon id="Path" points="-8.43769499e-13 9.45248128 27.7804438 9.45248128 27.7804438 14.5422789 -8.43769499e-13 14.5422789"></polygon>
                        <polygon id="Path" points="56.9855257 9.45248128 94.7384364 9.45248128 94.7384364 14.5422789 56.9855257 14.5422789"></polygon>
                    </g>
                </g>
            </g>
            <circle id="Oval" fill="#FF2380" cx="481.5" cy="42.5" r="42.5"></circle>
            <circle id="Oval" fill="#FF2380" cx="42.5" cy="427.5" r="42.5"></circle>
            <circle id="Oval" fill="#0D51FF" cx="503" cy="128" r="21"></circle>
            <circle id="Oval" fill="#FF2380" cx="451" cy="562" r="14"></circle>
            <circle id="Oval" fill="#FFFFFF" cx="465.5" cy="253.5" r="9.5"></circle>
            <circle id="Oval" fill="#0D51FF" cx="153" cy="603" r="17"></circle>
            <circle id="Oval" fill="#FFFFFF" cx="102" cy="314" r="17"></circle>
            <circle id="Oval" fill="#FF2380" cx="410.5" cy="24.5" r="5.5"></circle>
        </g>
    </g>
</svg>