<?xml version="1.0" encoding="UTF-8"?>
<svg width="545px" height="620px" viewBox="0 0 545 620" version="1.1" xmlns="http://www.w3.org/2000/svg" xmlns:xlink="http://www.w3.org/1999/xlink">
    <!-- Generator: Sketch 54.1 (76490) - https://sketchapp.com -->
    <title>phone_icon</title>
    <desc>Created with Sketch.</desc>
    <g id="Palmspire-Website-Design-" stroke="none" stroke-width="1" fill="none" fill-rule="evenodd">
        <g id="phone_icon">
            <g id="Group-83" transform="translate(15.000000, 66.000000)">
                <circle id="Oval" fill="#D8E7FF" opacity="0.838518415" cx="265" cy="265" r="265"></circle>
                <path d="M349.645397,364.669509 C340.719519,373.58557 319.049638,371.821196 296.145676,362.253435 C271.900791,352.12599 245.105587,333.11948 220.69451,308.735729 C196.283434,284.351504 177.255995,257.585299 167.117398,233.367557 C157.538626,210.488314 155.968926,189.241643 164.894805,180.325109 L181.728325,164.144069 L226.010982,241.410075 L222.953472,244.405729 C217.533273,249.820441 215.680569,255.790051 220.475415,261.743577 C227.412225,270.355131 235.043239,278.830084 243.155256,286.933179 C251.268224,295.036748 259.752509,302.659368 268.373071,309.588548 C274.332203,314.37812 281.23512,310.96689 286.656744,305.551704 L288.186305,303.884094 L366.466097,348.501276 L349.645397,364.669509 Z" id="Path" fill="#FFFFFF"></path>
                <g id="Group-23" transform="translate(155.000000, 155.000000)" fill="#0D51FF" fill-rule="nonzero">
                    <g id="114333" transform="translate(0.004163, 0.000000)">
                        <path d="M211.333741,168.366749 L157.095663,137.17287 C150.452774,133.352311 142.025468,134.464566 136.60337,139.880226 L125.920141,150.551704 C123.077326,153.391866 118.579724,153.64325 115.460557,151.135578 C107.038475,144.36624 98.7460211,136.916269 90.8139646,128.992463 C82.881908,121.069132 75.4237331,112.786274 68.6464662,104.372981 C66.1360332,101.256771 66.3872189,96.7645906 69.2309835,93.9244284 L79.9137377,83.2529505 C85.3353612,77.8377648 86.4502651,69.4206776 82.6245494,62.7836719 L51.3963205,8.60525368 C48.7372653,3.99212448 44.1826837,0.946112176 38.8997108,0.247929348 C33.6162632,-0.451676406 28.4249328,1.30848424 24.6566717,5.07260035 L8.55941642,21.1526236 C-2.67556654,32.3757228 -2.85600243,52.9047644 8.05134695,78.9590313 C18.5394203,104.011083 38.1119657,131.589305 63.1626397,156.613373 C88.2142633,181.636966 115.822853,201.187983 140.902967,211.66452 C153.74193,217.027531 165.239495,219.707377 174.946945,219.706903 C184.960187,219.706903 193.067931,216.854883 198.773029,211.156535 L214.870285,195.076511 C218.638071,191.312395 220.398745,186.126775 219.700268,180.849613 C219.001317,175.572452 215.951475,171.022405 211.333741,168.366749 Z M209.726953,172.291533 C212.409275,173.833986 215.081355,178.61284 215.486861,181.677825 C215.82779,184.250002 214.638954,188.306068 213.122343,190.34702 L135.751149,146.406604 L138.671648,143.176334 C143.07411,138.079877 150.945552,138.241955 154.803556,140.460773 L209.726953,172.291533 Z M38.1828257,3.82928814 C41.2516602,4.25395162 45.7134619,7.23505817 47.2576132,10.0408172 L79.1317259,64.9088185 C82.6245494,70.278979 80.3736261,77.6210364 77.2250199,80.9140409 L73.8230608,84.2440616 L29.4938982,6.75160262 C31.7837413,4.480075 34.5226517,3.82928814 36.6309026,3.82928814 C37.0682222,3.82928814 37.7417074,3.7681962 38.1828257,3.82928814 Z M194.641234,209.669509 C185.715355,218.58557 164.045474,216.821196 141.141513,207.253435 C116.896628,197.12599 90.1014234,178.11948 65.6903472,153.735729 C41.279271,129.351504 22.2518319,102.585299 12.1132344,78.367557 C2.53446291,55.4883144 0.964762993,34.2416434 9.89064143,25.3251088 L26.7241616,9.14406869 L71.0068188,86.4100749 L67.9493092,89.4057293 C62.5291101,94.8204407 60.6764053,100.790051 65.4712516,106.743577 C72.4080618,115.355131 80.0390753,123.830084 88.151093,131.933179 C96.2640602,140.036748 104.748346,147.659368 113.368908,154.588548 C119.32804,159.37812 126.230957,155.96689 131.652581,150.551704 L133.182142,148.884094 L211.461933,193.501276 L194.641234,209.669509 Z" id="Shape"></path>
                    </g>
                </g>
            </g>
            <circle id="Oval" fill="#FF2380" cx="481.5" cy="42.5" r="42.5"></circle>
            <circle id="Oval" fill="#FF2380" cx="42.5" cy="427.5" r="42.5"></circle>
            <circle id="Oval" fill="#0D51FF" cx="503" cy="128" r="21"></circle>
            <circle id="Oval" fill="#FF2380" cx="451" cy="562" r="14"></circle>
            <circle id="Oval" fill="#FFFFFF" cx="465.5" cy="253.5" r="9.5"></circle>
            <circle id="Oval" fill="#0D51FF" cx="153" cy="603" r="17"></circle>
            <circle id="Oval" fill="#FFFFFF" cx="102" cy="314" r="17"></circle>
            <circle id="Oval" fill="#FF2380" cx="410.5" cy="24.5" r="5.5"></circle>
        </g>
    </g>
</svg>