<?xml version="1.0" encoding="UTF-8"?>
<svg width="545px" height="620px" viewBox="0 0 545 620" version="1.1" xmlns="http://www.w3.org/2000/svg" xmlns:xlink="http://www.w3.org/1999/xlink">
    <!-- Generator: Sketch 54.1 (76490) - https://sketchapp.com -->
    <title>projects_icon</title>
    <desc>Created with Sketch.</desc>
    <g id="Palmspire-Website-Design-" stroke="none" stroke-width="1" fill="none" fill-rule="evenodd">
        <g id="projects_icon">
            <g id="Group-83" transform="translate(15.000000, 66.000000)">
                <circle id="Oval" fill="#D8E7FF" opacity="0.838518415" cx="265" cy="265" r="265"></circle>
                <path d="M264.67152,132.45866 C269.636333,140.155131 279.161445,155.676767 288.129004,174.329898 C284.498439,175.560332 276.653173,177.642276 264.844677,177.642276 C251.711274,177.642276 243.595134,175.13279 240.593973,174.008169 C249.66715,154.838842 259.48972,139.829113 264.67152,132.45866 L264.67152,132.45866 Z" id="Rocket-path" fill="#FFFFFF"></path>
                <path d="M282.574305,323.195323 C282.574305,325.625449 280.58838,327.605869 278.141898,327.605869 L251.546738,327.605869 C249.104567,327.605869 247.114331,325.625449 247.114331,323.195323 L247.114331,279.088426 C247.114331,276.65401 249.104567,274.677879 251.546738,274.677879 L278.141898,274.677879 C280.58838,274.677879 282.574305,276.65401 282.574305,279.088426 L282.574305,323.195323 Z" id="Rocket-path" fill="#FFFFFF"></path>
                <path d="M264.843959,239.392075 C255.070247,239.392075 247.113613,231.474683 247.113613,221.749173 C247.113613,212.019374 255.070247,204.106272 264.843959,204.106272 C274.622701,204.106272 282.574305,212.019374 282.574305,221.749173 C282.574305,231.474683 274.622701,239.392075 264.843959,239.392075 L264.843959,239.392075 Z" id="Rocket-path" fill="#FFFFFF"></path>
                <path d="M331.669911,402.469341 C331.590158,402.270584 331.510405,402.046089 331.443585,401.869495 C331.35018,401.600673 331.253183,401.252491 331.120261,400.789201 C326.013904,383.199206 316.95797,372.680098 307.188569,366.434266 L323.389235,289.855622 C336.549942,313.871617 349.209137,352.504832 331.669911,402.469341 L331.669911,402.469341 Z" id="Rocket-path" fill="#FFFFFF"></path>
                <path d="M283.873347,376.847561 C283.514099,378.982411 281.674747,380.534575 279.49842,380.534575 L250.194527,380.534575 C248.0182,380.534575 246.178848,378.981696 245.8196,376.847561 L243.514662,363.068266 C243.789128,363.01536 244.037728,362.936 244.316505,362.891673 L264.843959,362.891673 L285.375724,362.891673 C285.65953,362.936 285.903101,363.01536 286.178285,363.063977 L283.873347,376.847561 Z" id="Rocket-path" fill="#FFFFFF"></path>
                <path d="M198.572686,400.788486 C198.439764,401.251776 198.347078,401.599958 198.249362,401.86878 C198.182542,402.045374 198.103508,402.269869 198.023754,402.468626 C180.48381,352.499827 193.143724,313.865897 206.303712,289.854192 L222.504378,366.432837 C212.739288,372.679383 203.679043,383.199206 198.572686,400.788486 L198.572686,400.788486 Z" id="Rocket-path" fill="#FFFFFF"></path>
                <g id="Rectangle-2" transform="translate(179.000000, 112.000000)" fill="#0D51FF" fill-rule="nonzero">
                    <g id="Completed-Projects">
                        <path d="M158.586841,301.094975 C158.500608,300.880069 158.414375,300.637334 158.342126,300.446392 C158.241132,300.155728 158.136254,299.779256 157.992532,299.278324 C152.471284,280.259141 142.679555,268.885356 132.11639,262.132051 L149.633361,179.331391 C163.863374,205.298686 177.551129,247.070849 158.586841,301.094975 L158.586841,301.094975 Z M120.369268,256.427765 C122.822638,246.885319 133.879896,202.361122 137.728533,160.568859 C140.206763,164.011994 143.077315,168.208845 146.048861,173.116124 L127.750354,259.608064 C125.291546,258.335635 122.818754,257.291254 120.369268,256.427765 L120.369268,256.427765 Z M115.088074,253.532718 L86.3320573,253.532718 L57.5760408,253.532718 L56.5024,253.532718 C52.7065902,238.552686 38.4051041,179.425702 38.4051041,139.074392 C38.4051041,110.192724 47.5116292,81.7354572 58.0794556,58.4104241 C61.5202336,59.7601576 70.8901192,62.7696148 86.3320573,62.7696148 C100.279289,62.7696148 109.418442,60.2371252 113.564623,58.7729814 C124.564391,82.4512953 134.259787,110.126243 134.259787,134.305489 C134.259787,178.733829 119.95364,238.486205 116.162492,253.532718 L115.088074,253.532718 L115.088074,253.532718 Z M106.906807,273.391425 C106.518369,275.699732 104.52957,277.378009 102.176417,277.378009 L70.4915825,277.378009 C68.138429,277.378009 66.1496298,275.698959 65.7611925,273.391425 L63.2689785,258.492563 C63.5657446,258.435358 63.8345433,258.34955 64.1359706,258.301621 L86.3312805,258.301621 L108.531252,258.301621 C108.838117,258.34955 109.101478,258.435358 109.399021,258.487925 L106.906807,273.391425 Z M44.9129834,259.608838 L26.614477,173.116897 C29.4951283,168.357269 32.2841084,164.279466 34.7095112,160.898175 C38.3134329,200.796482 49.7870952,246.71293 52.2940698,256.427765 C49.8492451,257.291254 47.376453,258.335635 44.9129834,259.608838 L44.9129834,259.608838 Z M14.6754668,299.27755 C14.531745,299.778482 14.4315281,300.154955 14.3258732,300.445619 C14.2536238,300.63656 14.1681676,300.879296 14.0819345,301.094202 C-4.88313036,247.065438 8.80540163,205.292502 23.0346384,179.329845 L40.5516089,262.130505 C29.993105,268.884583 20.1967152,280.259141 14.6754668,299.27755 L14.6754668,299.27755 Z M86.1448305,9.14592561 C91.5130346,17.4677359 101.812062,34.2505043 111.508235,54.4192019 C107.582688,55.7496093 99.0999928,58.0007112 86.3320573,58.0007112 C72.1315649,58.0007112 63.3559884,55.2873295 60.1109829,54.0713325 C69.9213564,33.3444976 80.5420103,17.1152282 86.1448305,9.14592561 L86.1448305,9.14592561 Z M138.318181,153.30148 C138.782752,146.800959 139.051551,140.415622 139.051551,134.306262 C139.051551,76.4671677 86.3312805,0.772321429 86.3312805,0.772321429 C86.3312805,0.772321429 33.6110104,68.0641879 33.6110104,139.075938 C33.6110104,143.711105 33.8028985,148.580505 34.1338471,153.592917 C20.7669412,171.510513 -17.6417434,225.363023 9.60480569,302.798762 C10.2853479,304.725186 11.512033,305.99375 14.1293239,305.99375 C17.4559013,305.99375 18.2180153,303.771251 18.8597138,301.997117 C20.1011596,298.55862 26.3697614,267.840975 58.5774322,259.513753 L61.0362406,274.178383 C61.8076772,278.775671 65.8046975,282.147686 70.4923593,282.147686 L102.177193,282.147686 C106.864855,282.147686 110.861876,278.775671 111.633312,274.178383 L114.086682,259.513753 C146.299014,267.836337 152.572278,298.55862 153.813723,301.997117 C154.450761,303.771251 155.212875,305.99375 158.544113,305.99375 C161.155966,305.99375 162.388089,304.725186 163.068631,302.798762 C190.453464,224.96104 151.488537,170.932276 138.318181,153.30148 L138.318181,153.30148 Z M86.3312805,191.534651 C81.0500863,191.534651 76.7454237,187.25663 76.7454237,181.996844 C76.7454237,176.736285 81.0493095,172.458264 86.3312805,172.458264 C91.6179127,172.458264 95.9163604,176.736285 95.9163604,181.996844 C95.9171372,187.25663 91.6179127,191.534651 86.3312805,191.534651 L86.3312805,191.534651 Z M86.3312805,167.68936 C78.423473,167.68936 71.9528837,174.127264 71.9528837,181.996844 C71.9528837,189.866424 78.423473,196.304328 86.3312805,196.304328 C94.2390879,196.304328 100.709677,189.866424 100.709677,181.996844 C100.709677,174.127264 94.2398648,167.68936 86.3312805,167.68936 L86.3312805,167.68936 Z M105.502217,215.379943 C105.502217,218.007517 103.354935,220.148846 100.709677,220.148846 L71.9536606,220.148846 C69.3130636,220.148846 67.1611207,218.007517 67.1611207,215.379943 L67.1611207,167.68936 C67.1611207,165.057148 69.3130636,162.920456 71.9536606,162.920456 L100.709677,162.920456 C103.354935,162.920456 105.502217,165.057148 105.502217,167.68936 L105.502217,215.379943 Z M100.709677,158.151553 L71.9536606,158.151553 C66.681789,158.151553 62.3678038,162.443489 62.3678038,167.690133 L62.3678038,215.380716 C62.3678038,220.626587 66.6810121,224.919296 71.9536606,224.919296 L100.709677,224.919296 C105.981549,224.919296 110.294757,220.62736 110.294757,215.380716 L110.294757,167.690133 C110.294757,162.443489 105.981549,158.151553 100.709677,158.151553 L100.709677,158.151553 Z M88.7279389,91.3838097 C87.4049213,91.3838097 86.3312805,92.4475172 86.3312805,93.768648 C86.3312805,95.0851407 87.4049213,96.1534864 88.7279389,96.1534864 C92.6962148,96.1534864 95.9171372,99.3631618 95.9171372,103.307228 C95.9171372,104.623721 96.990778,105.692067 98.3137956,105.692067 C99.6414745,105.692067 100.710454,104.623721 100.710454,103.307228 C100.709677,96.7301766 95.3368118,91.3838097 88.7279389,91.3838097 L88.7279389,91.3838097 Z M86.3312805,124.767681 C75.7634541,124.767681 67.1603438,116.207001 67.1603438,105.691294 C67.1603438,95.1709485 75.7634541,86.6149061 86.3312805,86.6149061 C96.904545,86.6149061 105.502217,95.1709485 105.502217,105.691294 C105.502217,116.207001 96.904545,124.767681 86.3312805,124.767681 L86.3312805,124.767681 Z M86.3312805,81.8460024 C73.0987739,81.8460024 62.3678038,92.5194102 62.3678038,105.691294 C62.3678038,118.858539 73.0987739,129.536585 86.3312805,129.536585 C99.5692251,129.536585 110.294757,118.858539 110.294757,105.691294 C110.294757,92.5194102 99.5692251,81.8460024 86.3312805,81.8460024 L86.3312805,81.8460024 Z" id="Rocket"></path>
                    </g>
                </g>
            </g>
            <circle id="Oval" fill="#FF2380" cx="481.5" cy="42.5" r="42.5"></circle>
            <circle id="Oval" fill="#FF2380" cx="42.5" cy="427.5" r="42.5"></circle>
            <circle id="Oval" fill="#0D51FF" cx="503" cy="128" r="21"></circle>
            <circle id="Oval" fill="#FF2380" cx="451" cy="562" r="14"></circle>
            <circle id="Oval" fill="#FFFFFF" cx="465.5" cy="253.5" r="9.5"></circle>
            <circle id="Oval" fill="#0D51FF" cx="153" cy="603" r="17"></circle>
            <circle id="Oval" fill="#FFFFFF" cx="102" cy="314" r="17"></circle>
            <circle id="Oval" fill="#FF2380" cx="410.5" cy="24.5" r="5.5"></circle>
        </g>
    </g>
</svg>