<?xml version="1.0" encoding="utf-8"?>
<svg xmlns="http://www.w3.org/2000/svg" width="45" height="66" viewBox="0 0 45 66">
    <defs>
        <linearGradient id="a" x1="64.377%" x2="40.114%" y1="85.691%" y2="-14.553%">
            <stop offset="0%" stop-color="#9C62FF"/>
            <stop offset="100%" stop-color="#5C16FF"/>
        </linearGradient>
    </defs>
    <path fill="url(#a)" fill-rule="nonzero" d="M35.915 40.773c5.565 1.012 9.615 5.828 9.64 11.46a11.48 11.48 0 0 1-1.922 6.387 1.065 1.065 0 0 1-1.882-.212 9.596 9.596 0 0 0-8.275-6.122 29.54 29.54 0 0 1-.944 2.49c-.169.385-.551.635-.974.635H14.222a1.062 1.062 0 0 1-.974-.643 31.84 31.84 0 0 1-.912-2.448 9.605 9.605 0 0 0-7.977 6.088 1.062 1.062 0 0 1-.996.688c-.357 0-.69-.179-.886-.474a11.583 11.583 0 0 1-1.034-10.84 11.668 11.668 0 0 1 8.427-6.94 92.865 92.865 0 0 1-.806-11.905c0-10.685 4.573-20.141 8.418-26.192A6.284 6.284 0 0 1 22.89.004a6.284 6.284 0 0 1 5.408 2.74c3.845 6.052 8.418 15.508 8.418 26.193a91.874 91.874 0 0 1-.801 11.836zM19.279 3.876a60.199 60.199 0 0 0-3.344 6h13.91a60.317 60.317 0 0 0-3.339-6 4.232 4.232 0 0 0-3.616-1.754 4.234 4.234 0 0 0-3.61 1.754zM3.334 55.698a11.83 11.83 0 0 1 8.359-5.461 18.36 18.36 0 0 1-.153-.594c-.048-.2-.104-.398-.154-.603a59.283 59.283 0 0 1-.407-1.74c-.03-.134-.062-.263-.09-.399-.152-.734-.299-1.486-.44-2.256-.032-.18-.063-.366-.093-.549-.066-.382-.135-.761-.196-1.151a9.569 9.569 0 0 0-6.352 4.817 9.493 9.493 0 0 0-.474 7.936zm27.516-2.405c.285-.71.567-1.512.851-2.432.404-1.33.776-2.8 1.108-4.369.095-.445.178-.915.265-1.376.22-1.16.427-2.347.6-3.577.6-4.174.906-8.385.915-12.602a42.943 42.943 0 0 0-3.778-16.943H14.964a42.94 42.94 0 0 0-3.773 16.943 91 91 0 0 0 .908 12.572v.021l.006.049a64.02 64.02 0 0 0 1.986 9.298c.27.872.553 1.682.845 2.416H30.85zm11.928 2.405a9.493 9.493 0 0 0-.547-8.084 9.57 9.57 0 0 0-6.597-4.743c-.061.389-.128.768-.193 1.15-.032.193-.063.387-.096.578a70.426 70.426 0 0 1-.432 2.235c-.034.16-.072.312-.106.47a60.44 60.44 0 0 1-.39 1.681l-.162.635c-.05.191-.096.39-.147.576a11.811 11.811 0 0 1 8.67 5.502zM22.89 21.524c5.284.007 9.565 4.27 9.572 9.53 0 5.265-4.286 9.531-9.572 9.531-5.287 0-9.572-4.266-9.572-9.53 0-5.263 4.285-9.53 9.572-9.53zm0 16.943c4.11-.004 7.44-3.32 7.445-7.412 0-4.094-3.333-7.413-7.445-7.413s-7.445 3.32-7.445 7.413c0 4.094 3.333 7.412 7.445 7.412zM26 33.946v.004a1.067 1.067 0 0 1 1.503-.05c.43.4.452 1.07.05 1.497a6.372 6.372 0 0 1-2.073 1.469c-.349.159-.756.119-1.067-.104a1.056 1.056 0 0 1 .204-1.832A4.26 4.26 0 0 0 26 33.946zM22.89 24.7c3.523.004 6.378 2.847 6.381 6.354 0 .585-.476 1.059-1.063 1.059a1.061 1.061 0 0 1-1.064-1.06c0-2.338-1.905-4.235-4.254-4.235a1.061 1.061 0 0 1-1.063-1.059c0-.585.476-1.059 1.063-1.059zm5.318 24.356c.587 0 1.063.474 1.063 1.059s-.476 1.059-1.063 1.059H17.572a1.061 1.061 0 0 1-1.063-1.06c0-.584.476-1.058 1.063-1.058h10.636zm-8.509-30.71a1.061 1.061 0 0 1-1.063-1.058c0-.585.476-1.06 1.063-1.06h6.382c.587 0 1.063.475 1.063 1.06 0 .585-.476 1.058-1.063 1.058h-6.382zm5.318 38.122c.309 0 .602.134.804.366.202.232.293.54.249.844l-1.064 7.413a1.06 1.06 0 0 1-1.052.908h-2.127c-.53 0-.978-.387-1.054-.908l-1.063-7.413a1.056 1.056 0 0 1 .25-.844c.201-.232.494-.366.803-.366h4.254zm-1.986 7.413l.76-5.295h-1.802l.76 5.295h.282zm-5.459-7.413c.588 0 1.064.475 1.064 1.06v6.353a1.066 1.066 0 0 1-1.948.588l-4.255-6.354a1.055 1.055 0 0 1-.053-1.087c.185-.344.545-.56.938-.56h4.254zm-1.063 3.919v-1.8h-1.204l1.204 1.8zm15.953-3.919c.392 0 .753.216.938.56.185.344.165.763-.053 1.087l-4.254 6.354a1.066 1.066 0 0 1-1.949-.588v-6.354c0-.584.477-1.059 1.064-1.059h4.254zm-3.19 3.919l1.202-1.8h-1.203v1.8zM22.89 8.817a1.061 1.061 0 0 1-1.063-1.059c0-.585.476-1.059 1.063-1.059h3.19c.588 0 1.064.474 1.064 1.059s-.476 1.059-1.063 1.059h-3.19z" transform="translate(-.618)"/>
</svg>
