<?xml version="1.0" encoding="utf-8"?>
<svg xmlns="http://www.w3.org/2000/svg" width="65" height="64" viewBox="0 0 65 64">
    <defs>
        <linearGradient id="a" x1="10.343%" x2="90.335%" y1="0%" y2="100%">
            <stop offset="0%" stop-color="#FF8313"/>
            <stop offset="100%" stop-color="#FFCF00"/>
        </linearGradient>
    </defs>
    <path fill="url(#a)" fill-rule="nonzero" d="M32 0c17.645 0 32 14.355 32 32S49.645 64 32 64 0 49.645 0 32 14.355 0 32 0zm-.125 60.75c15.921 0 28.875-12.954 28.875-28.875S47.796 3 31.875 3 3 15.954 3 31.875 15.954 60.75 31.875 60.75zM20.147 26.535a4.445 4.445 0 1 1 0-8.89 4.445 4.445 0 0 1 0 8.89zm23.706 0a4.445 4.445 0 1 1 0-8.89 4.445 4.445 0 0 1 0 8.89zm4.465 11.112a1.611 1.611 0 0 1 1.085 2.005c-.036.12-3.736 11.928-17.672 11.928S14.094 39.772 14.058 39.653a1.612 1.612 0 0 1 1.085-2.006 1.62 1.62 0 0 1 2.008 1.077c.122.393 3.098 9.633 14.58 9.633 11.558 0 14.55-9.53 14.578-9.627a1.618 1.618 0 0 1 2.009-1.083z" transform="translate(.382)"/>
</svg>
