<?xml version="1.0" encoding="UTF-8"?>
<svg width="545px" height="620px" viewBox="0 0 545 620" version="1.1" xmlns="http://www.w3.org/2000/svg" xmlns:xlink="http://www.w3.org/1999/xlink">
    <!-- Generator: Sketch 54.1 (76490) - https://sketchapp.com -->
    <title>ui_icon</title>
    <desc>Created with Sketch.</desc>
    <g id="Palmspire-Website-Design-" stroke="none" stroke-width="1" fill="none" fill-rule="evenodd">
        <g id="ui_icon">
            <g id="Group-83" transform="translate(15.000000, 66.000000)">
                <circle id="Oval" fill="#D8E7FF" opacity="0.838518415" cx="265" cy="265" r="265"></circle>
                <g id="Ui/UX" transform="translate(140.000000, 140.000000)">
                    <polygon id="Path-13" fill="#FFFFFF" points="78.0399913 145.508671 90.1042226 107.598433 195.753024 2.40852935 201.631489 1 206.730036 1.80823448 222.548662 17.1360926 222.548662 20.1831776 221.106561 26.3220342 114.66459 135.308575"></polygon>
                    <g id="681662" transform="translate(0.450396, 0.000000)" fill="#0D51FF" fill-rule="nonzero">
                        <path d="M246.017124,117.587556 C244.657364,117.017368 243.092283,117.332343 242.051156,118.385036 L231.15225,129.41014 L231.15225,54.4475643 C231.15225,52.4141877 229.522765,50.7663248 227.513148,50.7663248 L199.552347,50.7663248 L209.702126,40.4990223 C209.703579,40.4975527 209.705032,40.4955933 209.706484,40.4941237 L219.4863,30.6010683 C221.581629,28.4814777 222.735585,25.6618883 222.735585,22.6639927 C222.735585,19.6660971 221.581629,16.8474874 219.4863,14.7269172 L208.177238,3.28690841 C206.081909,1.16731784 203.294594,0 200.331014,0 C197.367433,0 194.580602,1.16731784 192.484789,3.28690841 L182.700131,13.1848624 L170.876801,25.1450942 L145.549326,50.765835 L30.9985307,50.7663248 L30.9985307,14.3477716 C30.9985307,12.314395 29.3690457,10.6665321 27.3594283,10.6665321 C14.6728888,10.6665321 0.330011381,23.6549638 0.330011381,39.6202274 L0.330011381,195.974199 C0.330011381,196.246066 0.361003072,196.510587 0.416207021,196.76531 C0.918853505,203.539476 3.81609235,209.833587 8.65805978,214.611606 C13.8336721,219.717826 20.6658872,222.530067 27.8966361,222.530067 L139.097728,222.530067 L118.154609,243.715686 C117.113966,244.768868 116.802596,246.351581 117.365773,247.727576 C117.92895,249.103081 119.256266,250 120.727887,250 L244.624435,250 C246.634052,250 248.263537,248.352137 248.263537,246.318761 L248.263537,120.9886 C248.263537,119.499939 247.3764,118.157254 246.017124,117.587556 Z M195.406345,7.29034442 C196.12353,6.56438362 197.948629,4.69705979 199.916813,4.67108183 C202.031086,4.64317567 204.504167,5.88762085 205.274584,6.66746577 L216.35059,17.5581967 C216.943495,18.1577718 217.744649,20.3115351 218.052829,21.6922758 C218.518377,23.7780746 217.991355,26.1861055 217.09569,27.092141 L206.027318,38.7137791 L185.292991,17.5581967 L195.406345,7.29034442 Z M182.180809,20.3664357 L202.883646,41.460361 L194.744788,49.9230227 L174.020346,28.6166143 L182.180809,20.3664357 Z M243.054523,245.207608 L123.300198,245.207608 L165.749129,202.189435 C167.170389,200.751228 163.46375,198.297498 162.205197,199.570134 L144.734115,216.958717 L27.421772,216.958717 C16.3848561,216.958717 7.1078336,208.00039 6.75820859,196.855763 C6.76809469,196.523651 4.65098783,187.55206 12.560864,180.380421 C20.4707401,173.208781 25.3663736,174.065397 29.0188772,172.413684 C30.1861747,171.885816 30.9985307,171.03011 30.9985307,170.537651 L30.9985307,128.261926 C30.9985307,126.228549 25.3117354,126.228549 25.3117354,128.261926 L25.3122196,169.71518 C19.1671484,170.501393 14.218647,172.692719 9.72097792,177.135678 C9.24787039,177.602997 6.01376537,182.023236 5.57697623,182.517007 L5.57697623,39.6202274 C5.57697623,28.9703502 15.271396,17.5411182 25.3122196,15.7884269 L25.3117354,54.4475643 L25.3117354,129.285717 C25.3117354,130.641301 27.2073338,130.617299 30.9985307,129.213709 L30.9985307,55.571572 L140.899473,55.571572 L104.298486,92.4911418 C102.877226,93.9293479 106.760577,95.9365587 108.181353,94.4993322 L171.436233,30.8117808 L192.466052,52.6649973 L112.88961,133.04918 L91.6630181,111.543426 L110.338342,92.4911418 C110.510056,92.3173809 108.674309,88.0692962 107.425188,89.3328801 L90.3879907,106.566861 C90.2969527,106.658953 90.2117255,106.756434 90.131825,106.856364 C90.1051916,106.889674 90.0814636,106.925433 90.0562828,106.960212 C90.0049528,107.029281 89.9545913,107.09884 89.9076195,107.171339 C89.8809861,107.213466 89.8567738,107.256573 89.831593,107.30017 C89.7914007,107.368749 89.7526611,107.438308 89.7173112,107.509337 C89.6940674,107.555383 89.6732449,107.601919 89.6519381,107.649924 C89.6194937,107.721932 89.5894705,107.79541 89.5618685,107.868888 C89.5521836,107.89485 89.5395932,107.919343 89.5303926,107.945305 L82.440559,128.261926 L77.6068238,142.114457 C77.5429034,142.298641 77.4969001,142.485765 77.4625187,142.674358 L65.3602635,142.674358 C63.350646,142.674358 62.9625527,144.12449 62.9625527,145.043753 C62.9625527,145.963016 63.350646,146.979153 65.3602635,146.979153 L166.138462,146.979153 C168.148564,146.979153 169.469385,146.355597 169.469385,145.043753 C169.469385,143.731908 168.148564,142.674358 166.138462,142.674358 L93.8343636,142.674358 L116.02732,134.749529 C116.045721,134.742671 116.063154,134.733364 116.081555,134.726506 C116.167751,134.694175 116.252494,134.657926 116.336268,134.619228 C116.369681,134.603553 116.403094,134.588857 116.435538,134.572692 C116.522702,134.528605 116.608414,134.48011 116.692673,134.428186 C116.71979,134.411531 116.747876,134.396345 116.77451,134.3792 C116.862158,134.322378 116.947385,134.260166 117.03116,134.194526 C117.051982,134.178361 117.073773,134.164155 117.094112,134.1475 C117.195319,134.065205 117.294589,133.976542 117.388533,133.881511 L195.305517,55.571572 L225.298525,55.571572 L225.298525,134.749529 L161.124104,200.690955 C159.702844,202.129161 163.205334,203.843943 164.019834,203.843943 C164.562834,203.843943 190.907731,177.167434 243.054523,123.814415 L243.054523,245.207608 Z M108.160273,133.724722 L94.7350642,138.51553 L85.7903305,129.473582 L90.5296299,115.902465 L108.160273,133.724722 Z" id="Shape"></path>
                    </g>
                    <polygon id="Path" fill="#FFFFFF" points="243.504919 123.814415 123.750594 245.207608 243.504919 245.207608"></polygon>
                    <path d="M219.768572,177.413446 C218.421635,176.849026 216.871314,177.160814 215.840005,178.202858 L176.445928,218.02549 C175.415099,219.068018 175.106666,220.635205 175.665012,221.996795 C176.222398,223.35887 177.537677,224.246231 178.99542,224.246231 L218.389496,224.246231 C220.380642,224.246231 221.99428,222.615038 221.99428,220.602232 L221.99428,180.779599 C221.993801,179.305998 221.115509,177.977381 219.768572,177.413446 Z M180.736715,220.423298 L218.017561,182.667534 L218.017561,220.423298 L180.736715,220.423298 Z" id="Shape" fill="#0D51FF" fill-rule="nonzero"></path>
                    <polygon id="Path" fill="#DDEAFE" points="180.736715 220.423298 218.017561 182.667534 218.017561 220.423298"></polygon>
                </g>
            </g>
            <circle id="Oval" fill="#FF2380" cx="481.5" cy="42.5" r="42.5"></circle>
            <circle id="Oval" fill="#FF2380" cx="42.5" cy="427.5" r="42.5"></circle>
            <circle id="Oval" fill="#0D51FF" cx="503" cy="128" r="21"></circle>
            <circle id="Oval" fill="#FF2380" cx="451" cy="562" r="14"></circle>
            <circle id="Oval" fill="#FFFFFF" cx="465.5" cy="253.5" r="9.5"></circle>
            <circle id="Oval" fill="#0D51FF" cx="153" cy="603" r="17"></circle>
            <circle id="Oval" fill="#FFFFFF" cx="102" cy="314" r="17"></circle>
            <circle id="Oval" fill="#FF2380" cx="410.5" cy="24.5" r="5.5"></circle>
        </g>
    </g>
</svg>