<?xml version="1.0" encoding="UTF-8"?>
<svg width="179px" height="173px" viewBox="0 0 179 173" version="1.1" xmlns="http://www.w3.org/2000/svg" xmlns:xlink="http://www.w3.org/1999/xlink">
    <!-- Generator: Sketch 54.1 (76490) - https://sketchapp.com -->
    <title>Ui/UX</title>
    <desc>Created with Sketch.</desc>
    <g id="Palmspire-Website-Design-" stroke="none" stroke-width="1" fill="none" fill-rule="evenodd">
        <g id="Ui/UX" transform="translate(0.688326, 0.000000)">
            <path d="M159.311674,30.3315215 L159.311674,148 L14.9851321,148 C10.6718567,147.266559 6.81403807,144.625009 3.41167636,140.07535 C0.00931464618,135.52569 -1.27547537,129.504683 -0.4426937,122.012328 L-0.4426937,19.4281935 C0.328945223,14.4365128 2.46690956,10.1380591 5.9711993,6.53283221 C9.47548904,2.92760533 14.1547135,0.749994592 20.0088727,0 L20.0088727,30.3315215 L159.311674,30.3315215 Z" id="Path-3" fill="#E6BD4E"></path>
            <polygon id="Path-13" fill="#FFFFFF" points="59.311674 100 67.660122 73.7661153 140.769092 0.974702312 144.836991 0 148.365185 0.55929826 159.311674 11.1661761 159.311674 13.2747589 158.31374 17.5228477 84.655896 92.9415337"></polygon>
            <polygon id="Path-4" fill="#93CEDC" points="77.311674 169 171.311674 74 171.311674 169"></polygon>
            <g id="681662" transform="translate(6.311674, 0.000000)" fill="#000000" fill-rule="nonzero">
                <path d="M151.768178,122.770104 C150.836097,122.379526 149.763275,122.595284 149.049609,123.316377 L121.788909,150.873639 C121.075575,151.595069 120.862139,152.679562 121.248514,153.621782 C121.634226,154.564338 122.544398,155.178392 123.553156,155.178392 L150.813857,155.178392 C152.19173,155.178392 153.308368,154.049607 153.308368,152.656744 L153.308368,125.099483 C153.308036,124.07975 152.700258,123.160347 151.768178,122.770104 Z M124.758133,152.532922 L150.556478,126.405933 L150.556478,152.532922 L124.758133,152.532922 Z" id="Shape"></path>
                <path d="M170.24385,81.3705889 C169.302896,80.9760188 168.21986,81.1939815 167.4994,81.9224446 L159.957357,89.5518166 L159.957357,37.6777145 C159.957357,36.2706179 158.829753,35.1302968 157.439098,35.1302968 L138.090224,35.1302968 L145.113871,28.0253234 C145.114877,28.0243065 145.115882,28.0229506 145.116887,28.0219336 L151.884519,21.1759392 C153.334487,19.7091826 154.133025,17.7580267 154.133025,15.683483 C154.133025,13.6089392 153.334487,11.6584613 151.884519,10.1910267 L144.058649,2.27454062 C142.608681,0.807783948 140.679859,0 138.629061,0 C136.578264,0 134.649777,0.807783948 133.199474,2.27454062 L126.428491,9.12392477 L118.246747,17.4004052 L100.720134,35.1299578 L21.4509832,35.1302968 L21.4509832,9.92865792 C21.4509832,8.52156134 20.3233796,7.38124023 18.9327244,7.38124023 C10.153639,7.38124023 0.228367876,16.3692349 0.228367876,27.4171973 L0.228367876,135.614145 C0.228367876,135.802278 0.249814126,135.985326 0.288015258,136.161594 C0.635846626,140.849318 2.6407359,145.204842 5.99137737,148.511231 C9.57290112,152.044735 14.3007939,153.990806 19.3044722,153.990806 L96.2556277,153.990806 L81.7629892,168.651255 C81.0428643,169.380057 80.8273965,170.475294 81.2171151,171.427482 C81.6068337,172.379332 82.5253364,173 83.5436981,173 L169.280109,173 C170.670764,173 171.798368,171.859679 171.798368,170.452582 L171.798368,83.7241113 C171.798368,82.693958 171.184469,81.76482 170.24385,81.3705889 Z M135.221191,5.04491834 C135.717483,4.54255346 136.980451,3.25036538 138.342435,3.23238863 C139.805511,3.21307757 141.516884,4.07423363 142.050012,4.61388631 L149.714608,12.1502721 C150.124898,12.5651781 150.679297,14.0555823 150.892558,15.0110548 C151.214717,16.4544276 150.850018,18.120785 150.230218,18.7477616 L142.570904,26.7899351 L128.22275,12.1502721 L135.221191,5.04491834 Z M126.06912,14.0935735 L140.395483,28.6905698 L134.763393,34.5467317 L120.42208,19.8026971 L126.06912,14.0935735 Z M168.19373,169.683665 L85.3237369,169.683665 L114.698397,139.915089 C115.681909,138.91985 113.116915,137.221868 112.245996,138.102532 L100.156008,150.135432 L18.9758662,150.135432 C11.3383204,150.135432 4.91862085,143.93627 4.67668035,136.224188 C4.68352153,135.994366 3.21848358,129.786026 8.69211788,124.823251 C14.1657522,119.860477 17.5535305,120.453255 20.081063,119.31027 C20.8888329,118.944985 21.4509832,118.352836 21.4509832,118.012055 L21.4509832,88.7572528 C21.4509832,87.3501562 17.5157209,87.3501562 17.5157209,88.7572528 L17.516056,117.442905 C13.2636667,117.986964 9.83930375,119.503361 6.72691672,122.577889 C6.39952631,122.901274 4.16152564,125.960079 3.85926755,126.301769 L3.85926755,27.4171973 C3.85926755,20.0474824 10.5678061,12.1384538 17.516056,10.9255914 L17.5157209,37.6777145 L17.5157209,89.4657162 C17.5157209,90.4037806 18.827475,90.3871707 21.4509832,89.4158865 L21.4509832,38.4555278 L97.5024356,38.4555278 L72.1745522,64.0038701 C71.1910406,64.9991088 73.8783196,66.3880986 74.8614961,65.3935379 L118.633874,21.3217523 L133.186508,36.4441781 L78.1196104,92.0700328 L63.4308086,77.1880509 L76.3541328,64.0038701 C76.4729585,63.8836276 75.2026217,60.943953 74.3382304,61.818353 L62.5484896,73.7442677 C62.4854912,73.8079956 62.426514,73.8754521 62.3712229,73.9446036 C62.3527926,73.9676541 62.3363728,73.9923995 62.3189477,74.0164669 C62.2834273,74.0642627 62.2485772,74.1123976 62.2160727,74.1625663 C62.1976423,74.1917184 62.1808875,74.2215484 62.1634624,74.2517174 C62.1356493,74.2991743 62.1088415,74.3473091 62.0843793,74.3964609 C62.0682947,74.4283248 62.0538855,74.4605277 62.0391412,74.4937475 C62.0166896,74.5435773 61.9959136,74.5944239 61.976813,74.6452706 C61.970111,74.6632364 61.9613985,74.6801853 61.9550316,74.6981511 L57.0488669,88.7572528 L53.7039221,98.3432042 C53.6596892,98.4706598 53.6278549,98.6001493 53.604063,98.7306557 L45.2293023,98.7306557 C43.8386471,98.7306557 43.5700865,99.7341468 43.5700865,100.370277 C43.5700865,101.006407 43.8386471,101.709574 45.2293023,101.709574 L114.967816,101.709574 C116.358806,101.709574 117.272814,101.278073 117.272814,100.370277 C117.272814,99.4624803 116.358806,98.7306557 114.967816,98.7306557 L64.9333796,98.7306557 L80.2909052,93.2466739 C80.3036389,93.2419282 80.3157024,93.2354876 80.3284361,93.2307419 C80.3880835,93.2083694 80.4467256,93.1832851 80.5046975,93.1565058 C80.5278192,93.1456585 80.550941,93.1354892 80.5733925,93.1243029 C80.6337101,93.0937949 80.6930224,93.0602361 80.7513294,93.0243045 C80.7700948,93.0127793 80.7895305,93.002271 80.8079609,92.9904067 C80.8686136,92.9510853 80.9275907,92.9080351 80.9855626,92.8626121 C80.9999718,92.8514259 81.0150512,92.8415955 81.0291253,92.8300703 C81.0991607,92.773122 81.1678558,92.711767 81.2328647,92.6460054 L135.151418,38.4555278 L155.90658,38.4555278 L155.90658,93.2466739 L111.49788,138.878141 C110.514368,139.873379 112.938091,141.060009 113.501725,141.060009 C113.877481,141.060009 132.10815,122.599864 168.19373,85.6795753 L168.19373,169.683665 Z M74.8469087,92.5375079 L65.5566644,95.8527467 L59.3669087,89.5957188 L62.6465039,80.2045055 L74.8469087,92.5375079 Z" id="Shape"></path>
            </g>
        </g>
    </g>
</svg>