<?xml version="1.0" encoding="UTF-8"?>
<svg width="100px" height="89px" viewBox="0 0 100 89" version="1.1" xmlns="http://www.w3.org/2000/svg" xmlns:xlink="http://www.w3.org/1999/xlink">
    <!-- Generator: Sketch 54.1 (76490) - https://sketchapp.com -->
    <title>Years in business</title>
    <desc>Created with Sketch.</desc>
    <g id="Palmspire-Website-Design-" stroke="none" stroke-width="1" fill="none" fill-rule="evenodd">
        <g id="Artboard" transform="translate(-840.000000, -910.000000)">
            <g id="Years-in-business" transform="translate(840.000000, 910.000000)">
                <rect id="Rectangle" fill="#62B08E" x="0" y="11.5942029" width="17.3913043" height="63.4057971" rx="2"></rect>
                <rect id="Rectangle" fill="#62B08E" x="25.8454106" y="29.9516908" width="17.3913043" height="45.2898551" rx="2"></rect>
                <rect id="Rectangle" fill="#62B08E" x="52.294686" y="0" width="17.3913043" height="75.2415459" rx="2"></rect>
                <rect id="Rectangle" fill="#62B08E" x="78.1400966" y="23.0676329" width="17.3913043" height="52.173913" rx="2"></rect>
                <g id="118003" transform="translate(2.415459, 2.415459)" fill="#231F20" fill-rule="nonzero">
                    <path d="M2.07395442,77.4154589 L17.2497171,77.4154589 C18.4063455,77.4154589 19.3236715,76.4986338 19.3236715,75.3867394 L19.3236715,15.6760625 C19.3236715,14.5446612 18.3864036,13.647343 17.2497171,13.647343 L2.07395442,13.647343 C0.917325995,13.647343 0,14.5641682 0,15.6760625 L0,75.3867394 C3.54238762e-16,76.5181407 0.937267864,77.4154589 2.07395442,77.4154589 Z M2.53623188,16.1835749 L16.9082126,16.1835749 L16.9082126,74.8792271 L2.53623188,74.8792271 L2.53623188,16.1835749 Z" id="Shape"></path>
                    <path d="M28.1611898,77.173913 L43.3367071,77.173913 C44.4933169,77.173913 45.410628,76.2578275 45.410628,75.1468301 L45.410628,33.669595 C45.410628,32.5391064 44.4733753,31.6425121 43.3367071,31.6425121 L28.1611898,31.6425121 C27.0045801,31.6425121 26.0872689,32.5585976 26.0872689,33.669595 L26.0872689,75.1468301 C26.0673274,76.2773187 27.0045801,77.173913 28.1611898,77.173913 Z M28.7439614,34.178744 L42.8743961,34.178744 L42.8743961,74.6376812 L28.7439614,74.6376812 L28.7439614,34.178744 L28.7439614,34.178744 Z" id="Shape"></path>
                    <path d="M54.2478675,77.294686 L69.4236301,77.294686 C70.5802585,77.294686 71.4975845,76.3786874 71.4975845,75.2677956 L71.4975845,2.0268904 C71.4975845,0.896509217 70.5603167,0 69.4236301,0 L54.2478675,0 C53.091239,0 52.173913,0.915998548 52.173913,2.0268904 L52.173913,75.2677956 C52.173913,76.3981768 53.091239,77.294686 54.2478675,77.294686 Z M54.589372,2.41545894 L69.0821256,2.41545894 L69.0821256,74.8792271 L54.589372,74.8792271 L54.589372,2.41545894 Z" id="Shape"></path>
                    <path d="M95.5105866,22.705314 L80.334824,22.705314 C79.1781956,22.705314 78.2608696,23.6202619 78.2608696,24.7298795 L78.2608696,75.1493475 C78.2608696,76.2784321 79.1981374,77.173913 80.334824,77.173913 L95.5105866,77.173913 C96.6672151,77.173913 97.5845411,76.2589652 97.5845411,75.1493475 L97.5845411,24.7298795 C97.5845411,23.6202619 96.6472732,22.705314 95.5105866,22.705314 Z M95.0483092,74.7584541 L80.7971014,74.7584541 L80.7971014,25.2415459 L95.0483092,25.2415459 L95.0483092,74.7584541 Z" id="Shape"></path>
                    <path d="M95.5328555,83.3333333 L2.07160487,83.3333333 C0.916286771,83.3333333 0,83.8791342 0,84.5410628 C0,85.2029915 0.936206048,85.7487923 2.07160487,85.7487923 L95.5129362,85.7487923 C96.6682543,85.7487923 97.5845411,85.2029915 97.5845411,84.5410628 C97.5845411,83.8791342 96.6682543,83.3333333 95.5328555,83.3333333 Z" id="Path"></path>
                </g>
            </g>
        </g>
    </g>
</svg>