<?xml version="1.0" encoding="UTF-8"?>
<svg width="58px" height="57px" viewBox="0 0 58 57" version="1.1" xmlns="http://www.w3.org/2000/svg" xmlns:xlink="http://www.w3.org/1999/xlink">
    <!-- Generator: sketchtool 53 (72520) - https://sketchapp.com -->
    <title>8780FD6E-21A9-466C-80AF-75C463350283</title>
    <desc>Created with sketchtool.</desc>
    <defs>
        <linearGradient x1="74.4308514%" y1="5.8772015%" x2="12.295662%" y2="95.506042%" id="linearGradient-1">
            <stop stop-color="#F46E4E" offset="0%"></stop>
            <stop stop-color="#F22875" offset="100%"></stop>
        </linearGradient>
        <path d="M4.91764706,5.70070016 L17.2676471,5.70070016 L17.2676471,7.60067423 L4.91764706,7.60067423 L4.91764706,5.70070016 Z M4.91764706,9.50064829 L17.2676471,9.50064829 L17.2676471,11.4006224 L4.91764706,11.4006224 L4.91764706,9.50064829 Z M4.91764706,13.3005964 L13.4676471,13.3005964 L13.4676471,15.2005705 L4.91764706,15.2005705 L4.91764706,13.3005964 Z M4.91764706,17.1005446 L13.4676471,17.1005446 L13.4676471,19.0005186 L4.91764706,19.0005186 L4.91764706,17.1005446 Z M0.167647059,55.1000259 L57.1676471,55.1000259 L57.1676471,57 L0.167647059,57 L0.167647059,55.1000259 Z M55.1678971,8.12601706 C55.4024283,8.5956669 55.2119533,9.16637161 54.7422971,9.40089966 C54.2727596,9.6354277 53.7019283,9.44483656 53.4673971,8.97530546 L50.6724971,3.38463177 L49.1391971,7.76597197 C42.2923096,27.2766869 24.6487908,40.9656438 4.04839706,42.7501945 L3.88689706,40.8502204 C23.7392846,39.1302689 40.7429783,25.9401739 47.3446471,7.13898053 L48.8465971,2.85073906 L43.3422971,5.60095152 C42.8727596,5.83547957 42.3019283,5.64488842 42.0673971,5.17535733 C41.8328658,4.70582624 42.0234596,4.13500278 42.4929971,3.90047473 L50.0929971,0.100526592 C50.0932346,0.100407844 50.0934721,0.100289095 50.0937096,0.100170347 C50.5632471,-0.134120206 51.1336033,0.0565896916 51.3678971,0.526120783 L55.1678971,8.12601706 Z M11.5676471,45.6001556 C12.0922846,45.6001556 12.5176471,46.0255123 12.5176471,46.5501426 L12.5176471,52.2500648 C12.5176471,52.7746952 12.0922846,53.2000519 11.5676471,53.2000519 L4.91764706,53.2000519 C4.39300956,53.2000519 3.96764706,52.7746952 3.96764706,52.2500648 L3.96764706,46.5501426 C3.96764706,46.0255123 4.39300956,45.6001556 4.91764706,45.6001556 L11.5676471,45.6001556 Z M10.6176471,51.3000778 L10.6176471,47.5001297 L5.86764706,47.5001297 L5.86764706,51.3000778 L10.6176471,51.3000778 Z M22.0176471,42.7501945 C22.5422846,42.7501945 22.9676471,43.1755512 22.9676471,43.7001815 L22.9676471,52.2500648 C22.9676471,52.7746952 22.5422846,53.2000519 22.0176471,53.2000519 L15.3676471,53.2000519 C14.8430096,53.2000519 14.4176471,52.7746952 14.4176471,52.2500648 L14.4176471,43.7001815 C14.4176471,43.1755512 14.8430096,42.7501945 15.3676471,42.7501945 L22.0176471,42.7501945 Z M21.0676471,51.3000778 L21.0676471,44.6501686 L16.3176471,44.6501686 L16.3176471,51.3000778 L21.0676471,51.3000778 Z M32.4676471,38.0002593 C32.9922846,38.0002593 33.4176471,38.425616 33.4176471,38.9502464 L33.4176471,52.2500648 C33.4176471,52.7746952 32.9922846,53.2000519 32.4676471,53.2000519 L25.8176471,53.2000519 C25.2930096,53.2000519 24.8676471,52.7746952 24.8676471,52.2500648 L24.8676471,38.9502464 C24.8676471,38.425616 25.2930096,38.0002593 25.8176471,38.0002593 L32.4676471,38.0002593 Z M31.5176471,51.3000778 L31.5176471,39.9002334 L26.7676471,39.9002334 L26.7676471,51.3000778 L31.5176471,51.3000778 Z M42.9176471,31.3503501 C43.4422846,31.3503501 43.8676471,31.7757068 43.8676471,32.3003371 L43.8676471,52.2500648 C43.8676471,52.7746952 43.4422846,53.2000519 42.9176471,53.2000519 L36.2676471,53.2000519 C35.7430096,53.2000519 35.3176471,52.7746952 35.3176471,52.2500648 L35.3176471,32.3003371 C35.3176471,31.7757068 35.7430096,31.3503501 36.2676471,31.3503501 L42.9176471,31.3503501 Z M41.9676471,51.3000778 L41.9676471,33.2503241 L37.2176471,33.2503241 L37.2176471,51.3000778 L41.9676471,51.3000778 Z M53.3676471,18.0505316 C53.8922846,18.0505316 54.3176471,18.4758883 54.3176471,19.0005186 L54.3176471,52.2500648 C54.3176471,52.7746952 53.8922846,53.2000519 53.3676471,53.2000519 L46.7176471,53.2000519 C46.1930096,53.2000519 45.7676471,52.7746952 45.7676471,52.2500648 L45.7676471,19.0005186 C45.7676471,18.4758883 46.1930096,18.0505316 46.7176471,18.0505316 L53.3676471,18.0505316 Z M52.4176471,51.3000778 L52.4176471,19.9505057 L47.6676471,19.9505057 L47.6676471,51.3000778 L52.4176471,51.3000778 Z" id="path-2"></path>
    </defs>
    <g id="Palmspire-Website-Design-" stroke="none" stroke-width="1" fill="none" fill-rule="evenodd">
        <g id="Artboard" transform="translate(-1214.000000, -544.000000)">
            <g id="Group-2" transform="translate(956.000000, 229.000000)">
                <g id="Rectangle-2" transform="translate(202.000000, 260.000000)">
                    <g id="diagram" transform="translate(56.000000, 55.000000)">
                        <g id="Combined-Shape">
                            <use fill="#000000" xlink:href="#path-2"></use>
                            <use fill="url(#linearGradient-1)" xlink:href="#path-2"></use>
                        </g>
                    </g>
                </g>
            </g>
        </g>
    </g>
</svg>