<?xml version="1.0" encoding="UTF-8"?>
<svg width="55px" height="76px" viewBox="0 0 55 76" version="1.1" xmlns="http://www.w3.org/2000/svg" xmlns:xlink="http://www.w3.org/1999/xlink">
    <!-- Generator: sketchtool 53 (72520) - https://sketchapp.com -->
    <title>E93F354F-775D-4F3E-A813-721D666A7D10</title>
    <desc>Created with sketchtool.</desc>
    <defs>
        <linearGradient x1="74.4308514%" y1="5.8772015%" x2="12.295662%" y2="95.506042%" id="linearGradient-1">
            <stop stop-color="#F46E4E" offset="0%"></stop>
            <stop stop-color="#F22875" offset="100%"></stop>
        </linearGradient>
        <path d="M27.9243156,7 C25.1630851,7 22.9243156,9.2387695 22.9243156,12 C22.9243156,14.7612304 25.1630851,17 27.9243156,17 C30.6855461,17 32.9243156,14.7612304 32.9243156,12 C32.9243156,9.2387695 30.6855461,7 27.9243156,7 Z M27.9243156,14.5 C26.5439445,14.5 25.4243156,13.3803711 25.4243156,12 C25.4243156,10.6191406 26.5439445,9.5 27.9243156,9.5 C29.305175,9.5 30.4243156,10.6191406 30.4243156,12 C30.4243156,13.3803711 29.305175,14.5 27.9243156,14.5 Z" id="path-2"></path>
        <linearGradient x1="62.3338578%" y1="5.8772015%" x2="30.9650538%" y2="95.506042%" id="linearGradient-3">
            <stop stop-color="#F46E4E" offset="0%"></stop>
            <stop stop-color="#F22875" offset="100%"></stop>
        </linearGradient>
        <path d="M46.678087,52.6359374 C46.4244827,52.5612399 35.2879446,50.4663559 35.2879446,50.4663559 L35.2879446,46.6270917 C39.0464663,44.7792842 41.4262241,40.9582157 41.4243065,36.7741935 L41.4243065,25.7419355 L45.1061236,25.7419355 C45.7839999,25.7419355 46.333396,25.1927167 46.333396,24.516129 L46.333396,19.6129032 C46.333396,18.9358366 45.7839999,18.3870968 45.1061236,18.3870968 L43.6775019,18.3870968 C42.6774667,11.7557711 37.9994495,6.26454136 31.6061275,4.21754032 L31.6061275,1.22580645 C31.6061275,0.548739858 31.0567314,0 30.3788551,0 L25.4697656,0 C24.7918893,0 24.2424932,0.548739858 24.2424932,1.22580645 L24.2424932,4.21754032 C17.8491712,6.26454136 13.171154,11.7557711 12.1711189,18.3870968 L10.7424971,18.3870968 C10.0646208,18.3870968 9.51522473,18.9358366 9.51522473,19.6129032 L9.51522473,24.516129 C9.51522473,25.1927167 10.0646208,25.7419355 10.7424971,25.7419355 L14.4243142,25.7419355 L14.4243142,36.7741935 C14.4223966,40.9577369 16.8026338,44.7783266 20.5606761,46.626134 L20.5606761,50.4663559 C20.5606761,50.4663559 9.42413804,52.5612399 9.20984487,52.6249243 C4.33095768,53.8761089 0.920962266,58.2693801 0.924318095,63.3004536 L0.924318095,74.7741935 C0.924318095,75.4507812 1.47371418,76 2.15159047,76 L53.6970303,76 C54.3749065,76 54.9243026,75.4507812 54.9243026,74.7741935 L54.9243026,63.3004536 C54.9319731,58.2832661 51.5401949,53.8962197 46.678087,52.6359374 Z M25.4697656,47.8064516 L30.3788551,47.8064516 C31.1487768,47.8045363 31.9172602,47.7226562 32.6704028,47.5608114 C32.7245753,47.5526713 32.7797067,47.5454888 32.8333999,47.5325605 L32.8333999,50.2580645 L23.0152209,50.2580645 L23.0152209,47.5301662 C23.0679553,47.5430947 23.1221278,47.5502772 23.175821,47.5584173 C23.9299223,47.7207409 24.6984058,47.8040575 25.4697656,47.8064516 L25.4697656,47.8064516 Z M31.6761203,52.7096774 L27.9243104,57.9543094 L24.1725004,52.7096774 L31.6761203,52.7096774 Z M26.697038,3.67741935 L26.697038,2.4516129 L29.1515827,2.4516129 L29.1515827,3.67741935 L26.697038,3.67741935 Z M27.9243104,6.12903226 C34.8032679,6.12903226 40.0834156,12.2403478 41.2033016,18.3870968 L14.6453191,18.3870968 C15.7656846,12.2403478 21.0515851,6.12903226 27.9243104,6.12903226 Z M11.9697695,20.8387097 L43.8788513,20.8387097 L43.8788513,23.2903226 L11.9697695,23.2903226 L11.9697695,20.8387097 Z M16.878859,36.7741935 L16.8788383,25.7419355 L38.9697879,25.7419355 L38.9697617,36.7741935 C38.9783909,40.2720514 36.8546345,43.422757 33.6066773,44.7309223 C32.5797956,45.1417591 31.484359,45.3534022 30.3788551,45.3548387 L25.4697656,45.3548387 C24.3666587,45.353881 23.2736193,45.1431955 22.2496139,44.734753 C18.9983008,43.4275453 16.8711885,40.2749243 16.878859,36.7741935 Z M3.37886285,63.3004536 C3.38365682,59.9950856 5.29455832,56.9885081 8.28795235,55.5778729 L8.28795235,73.5483871 L3.37886285,73.5483871 L3.37886285,63.3004536 Z M10.7424971,54.8045614 L15.6515866,53.8813759 L15.6515866,73.5483871 L10.7424971,73.5483871 L10.7424971,54.8045614 Z M18.1061314,53.4207409 L21.2443051,52.8322581 L26.9252339,60.7765372 C27.1553475,61.0992691 27.5278438,61.2903226 27.9243104,61.2903226 C28.3212563,61.2903226 28.6932732,61.0992691 28.9233868,60.7765372 L34.6043156,52.8322581 L37.7424894,53.4207409 L37.7424894,73.5483871 L18.1061314,73.5483871 L18.1061314,53.4207409 Z M40.1970341,73.5483871 L40.1970341,53.8813759 L45.1061236,54.8045614 L45.1061236,73.5483871 L40.1970341,73.5483871 Z M52.4697579,73.5483871 L47.5606684,73.5483871 L47.5606684,55.5668598 C50.5569388,56.9794103 52.4687991,59.9912549 52.4697579,63.3004536 L52.4697579,73.5483871 Z" id="path-4"></path>
    </defs>
    <g id="Palmspire-Website-Design-" stroke="none" stroke-width="1" fill="none" fill-rule="evenodd">
        <g id="Artboard" transform="translate(-1016.000000, -566.000000)">
            <g id="Group-2" transform="translate(956.000000, 229.000000)">
                <g id="Rectangle-2" transform="translate(0.000000, 301.000000)">
                    <g id="engineer" transform="translate(60.000000, 36.000000)">
                        <g id="Shape">
                            <use fill="#000000" xlink:href="#path-2"></use>
                            <use fill="url(#linearGradient-1)" xlink:href="#path-2"></use>
                        </g>
                        <g id="Shape">
                            <use fill="#000000" xlink:href="#path-4"></use>
                            <use fill="url(#linearGradient-3)" xlink:href="#path-4"></use>
                        </g>
                    </g>
                </g>
            </g>
        </g>
    </g>
</svg>