<?xml version="1.0" encoding="UTF-8"?>
<svg width="214px" height="78px" viewBox="0 0 214 78" version="1.1" xmlns="http://www.w3.org/2000/svg" xmlns:xlink="http://www.w3.org/1999/xlink">
    <!-- Generator: Sketch 53 (72520) - https://sketchapp.com -->
    <title>GJ_SymbolMedNavnetrekkPositivkBREDDE_Farge_RGB</title>
    <desc>Created with Sketch.</desc>
    <g id="Palmspire-Website-Design-" stroke="none" stroke-width="1" fill="none" fill-rule="evenodd">
        <g id="clients-using-template" transform="translate(-304.000000, -1150.000000)">
            <g id="Group-6" transform="translate(229.000000, 197.000000)">
                <g id="Group-4" transform="translate(0.000000, 139.000000)">
                    <g id="Group-2" transform="translate(0.000000, 744.000000)">
                        <g id="GJ_SymbolMedNavnetrekkPositivkBREDDE_Farge_RGB" transform="translate(35.000000, 31.000000)">
                            <g id="Group" transform="translate(112.500000, 63.000000)">
                                <path d="M39.5335443,10.4054054 C38.8196203,9.66216216 37.956962,9.0972973 37.0050633,8.65135135 C36.0234177,8.23513514 35.0120253,8.02702703 33.8816456,8.02702703 C32.7810127,8.02702703 31.7398734,8.23513514 30.7582278,8.65135135 C29.7765823,9.06756757 28.9139241,9.66216216 28.2,10.4054054 C27.4860759,11.1486486 26.8911392,12.0108108 26.4746835,12.9918919 C26.0582278,13.972973 25.85,15.0135135 25.85,16.1135135 C25.85,17.2135135 26.0582278,18.2540541 26.4746835,19.2351351 C26.8911392,20.2162162 27.4563291,21.0486486 28.2,21.7621622 C28.9139241,22.4756757 29.7765823,23.0702703 30.7582278,23.4864865 C31.7398734,23.9027027 32.7810127,24.1108108 33.8816456,24.1108108 C34.9822785,24.1108108 36.0234177,23.9027027 37.0050633,23.4864865 C37.9867089,23.0702703 38.8196203,22.5054054 39.5335443,21.7621622 C40.2474684,21.0486486 40.8424051,20.1864865 41.2588608,19.2351351 C41.6753165,18.2540541 41.8835443,17.2432432 41.8835443,16.1135135 C41.8835443,15.0135135 41.6753165,13.972973 41.2588608,12.9918919 C40.8424051,12.0108108 40.2474684,11.1486486 39.5335443,10.4054054 Z M29.3601266,18.4918919 C29.3006329,18.372973 29.2113924,18.2243243 29.1518987,18.1054054 C28.8841772,17.4810811 28.7651899,16.827027 28.7651899,16.1135135 C28.7651899,15.4 28.8841772,14.7162162 29.1518987,14.0918919 C29.4196203,13.4675676 29.7765823,12.9027027 30.2525316,12.4567568 C30.6987342,12.0108108 31.2639241,11.6243243 31.8886076,11.3567568 C32.5132911,11.0891892 33.1677215,10.9702703 33.8816456,10.9702703 C34.5955696,10.9702703 35.25,11.0891892 35.8746835,11.3567568 C36.0234177,11.4162162 36.1424051,11.4756757 36.2911392,11.5648649 L29.3601266,18.4918919 Z M38.5816456,18.1054054 C38.3139241,18.7297297 37.956962,19.2648649 37.4810127,19.7108108 C37.0348101,20.1864865 36.4696203,20.5432432 35.8449367,20.8108108 C35.2202532,21.0783784 34.5658228,21.1972973 33.8518987,21.1972973 C33.1379747,21.1972973 32.4835443,21.0783784 31.8588608,20.8108108 C31.7101266,20.7513514 31.5613924,20.6621622 31.4126582,20.6027027 L38.3734177,13.6459459 C38.4626582,13.7945946 38.5221519,13.9432432 38.5816456,14.0918919 C38.8493671,14.7162162 38.9683544,15.4 38.9683544,16.1135135 C38.9981013,16.827027 38.8493671,17.4810811 38.5816456,18.1054054 Z" id="Shape" fill="#093024" fill-rule="nonzero"></path>
                                <path d="M104.500633,10.3756757 C103.786709,9.63243243 102.924051,9.06756757 101.972152,8.62162162 C100.990506,8.20540541 99.9791139,7.96756757 98.8487342,7.96756757 C97.7481013,7.96756757 96.706962,8.17567568 95.7253165,8.62162162 C94.7436709,9.03783784 93.8810127,9.63243243 93.1670886,10.3756757 C92.4531646,11.1189189 91.8582278,11.9810811 91.4417722,12.9621622 C91.0253165,13.9432432 90.8170886,14.9837838 90.8170886,16.0837838 C90.8170886,17.1837838 91.0253165,18.2243243 91.4417722,19.2054054 C91.8582278,20.1864865 92.4234177,21.0189189 93.1670886,21.7324324 C93.8810127,22.4459459 94.7436709,23.0405405 95.7253165,23.4567568 C96.706962,23.872973 97.7481013,24.0810811 98.8487342,24.0810811 C99.9493671,24.0810811 100.990506,23.872973 101.972152,23.4567568 C102.953797,23.0405405 103.786709,22.4756757 104.500633,21.7324324 C105.214557,21.0189189 105.809494,20.1567568 106.225949,19.2054054 C106.642405,18.2243243 106.850633,17.2135135 106.850633,16.0837838 C106.850633,14.9837838 106.642405,13.9432432 106.225949,12.9621622 C105.779747,11.9810811 105.214557,11.1189189 104.500633,10.3756757 Z M103.548734,18.0756757 C103.281013,18.7 102.924051,19.2351351 102.448101,19.6810811 C102.001899,20.1567568 101.436709,20.5135135 100.812025,20.7810811 C100.187342,21.0486486 99.5329114,21.1675676 98.8189873,21.1675676 C98.1050633,21.1675676 97.4506329,21.0486486 96.8259494,20.7810811 C96.2012658,20.5135135 95.6658228,20.1567568 95.1898734,19.6810811 C94.7139241,19.2351351 94.356962,18.7 94.0892405,18.0756757 C93.821519,17.4810811 93.7025316,16.7972973 93.7025316,16.0837838 C93.7025316,15.3702703 93.821519,14.6864865 94.0892405,14.0621622 C94.356962,13.4378378 94.7139241,12.872973 95.1898734,12.427027 C95.6360759,11.9810811 96.2012658,11.5945946 96.8259494,11.327027 C97.4506329,11.0594595 98.1050633,10.9405405 98.8189873,10.9405405 C99.5329114,10.9405405 100.187342,11.0594595 100.812025,11.327027 C101.436709,11.5945946 101.972152,11.9513514 102.448101,12.427027 C102.924051,12.9027027 103.281013,13.4378378 103.548734,14.0621622 C103.816456,14.6864865 103.935443,15.3702703 103.935443,16.0837838 C103.96519,16.7972973 103.816456,17.4513514 103.548734,18.0756757 Z" id="Shape" fill="#093024" fill-rule="nonzero"></path>
                                <path d="M121.664557,10.3756757 C120.98038,9.63243243 120.206962,9.06756757 119.28481,8.62162162 C118.392405,8.20540541 117.410759,7.96756757 116.36962,7.96756757 C115.80443,7.96756757 115.120253,8.11621622 114.317089,8.41351351 C113.543671,8.71081081 112.710759,9.0972973 111.818354,9.6027027 L111.818354,1.36756757 C111.818354,1.1 111.610127,0.891891892 111.342405,0.891891892 L109.379114,0.891891892 C109.111392,0.891891892 108.903165,1.1 108.903165,1.36756757 L108.903165,23.3675676 C108.903165,23.6351351 109.111392,23.8432432 109.379114,23.8432432 L111.520886,23.8432432 C111.937342,23.8432432 111.937342,23.3972973 111.937342,23.3972973 L111.937342,22.5945946 C111.937342,22.5945946 113.424684,23.3972973 114.108861,23.6351351 C114.852532,23.9027027 115.655696,24.0513514 116.339873,24.0513514 C117.381013,24.0513514 118.332911,23.8432432 119.255063,23.427027 C120.147468,23.0108108 120.950633,22.4459459 121.63481,21.7027027 C122.318987,20.9891892 122.85443,20.127027 123.241139,19.1756757 C123.627848,18.1945946 123.836076,17.1837838 123.836076,16.0540541 C123.836076,14.9540541 123.627848,13.9135135 123.241139,12.9324324 C122.884177,11.9810811 122.348734,11.1189189 121.664557,10.3756757 Z M120.623418,18.0756757 C120.385443,18.7 120.058228,19.2351351 119.612025,19.6810811 C119.19557,20.1567568 118.689873,20.5135135 118.15443,20.7810811 C117.589241,21.0486486 117.024051,21.1675676 116.399367,21.1675676 C115.774684,21.1675676 115.179747,21.0486486 114.644304,20.7810811 C114.079114,20.5135135 113.603165,20.1567568 113.186709,19.6810811 C112.770253,19.2351351 112.443038,18.7 112.205063,18.0756757 C111.967089,17.4810811 111.848101,16.7972973 111.848101,16.0837838 C111.848101,15.3702703 111.967089,14.6864865 112.205063,14.0621622 C112.443038,13.4378378 112.770253,12.872973 113.186709,12.427027 C113.603165,11.9810811 114.079114,11.5945946 114.644304,11.327027 C115.209494,11.0594595 115.774684,10.9405405 116.399367,10.9405405 C117.024051,10.9405405 117.618987,11.0594595 118.15443,11.327027 C118.689873,11.5945946 119.19557,11.9513514 119.612025,12.427027 C120.028481,12.9027027 120.385443,13.4378378 120.623418,14.0621622 C120.861392,14.6864865 120.98038,15.3702703 120.98038,16.0837838 C120.98038,16.7972973 120.861392,17.4513514 120.623418,18.0756757 Z" id="Shape" fill="#093024" fill-rule="nonzero"></path>
                                <path d="M140.375316,12.9621622 C139.988608,11.9810811 139.453165,11.1189189 138.768987,10.3756757 C138.08481,9.63243243 137.311392,9.06756757 136.389241,8.62162162 C135.496835,8.20540541 134.51519,7.96756757 133.474051,7.96756757 C132.908861,7.96756757 132.224684,8.11621622 131.421519,8.41351351 C130.648101,8.71081081 129.81519,9.0972973 128.922785,9.6027027 L128.922785,1.36756757 C128.922785,1.1 128.714557,0.891891892 128.446835,0.891891892 L126.483544,0.891891892 C126.215823,0.891891892 126.007595,1.1 126.007595,1.36756757 L126.007595,23.3675676 C126.007595,23.6351351 126.215823,23.8432432 126.483544,23.8432432 L128.625316,23.8432432 C129.041772,23.8432432 129.041772,23.3972973 129.041772,23.3972973 L129.041772,22.5945946 C129.041772,22.5945946 130.529114,23.3972973 131.213291,23.6351351 C131.956962,23.9027027 132.760127,24.0513514 133.444304,24.0513514 C134.485443,24.0513514 135.437342,23.8432432 136.359494,23.427027 C137.251899,23.0108108 138.055063,22.4459459 138.739241,21.7027027 C139.423418,20.9891892 139.958861,20.127027 140.34557,19.1756757 C140.732278,18.1945946 140.940506,17.1837838 140.940506,16.0540541 C140.970253,14.9837838 140.762025,13.9432432 140.375316,12.9621622 Z M137.727848,18.0756757 C137.489873,18.7 137.162658,19.2351351 136.716456,19.6810811 C136.3,20.1567568 135.794304,20.5135135 135.258861,20.7810811 C134.693671,21.0486486 134.128481,21.1675676 133.503797,21.1675676 C132.879114,21.1675676 132.284177,21.0486486 131.748734,20.7810811 C131.183544,20.5135135 130.707595,20.1567568 130.291139,19.6810811 C129.874684,19.2351351 129.547468,18.7 129.309494,18.0756757 C129.071519,17.4810811 128.952532,16.7972973 128.952532,16.0837838 C128.952532,15.3702703 129.071519,14.6864865 129.309494,14.0621622 C129.547468,13.4378378 129.874684,12.872973 130.291139,12.427027 C130.707595,11.9810811 131.183544,11.5945946 131.748734,11.327027 C132.313924,11.0594595 132.879114,10.9405405 133.503797,10.9405405 C134.128481,10.9405405 134.723418,11.0594595 135.258861,11.327027 C135.824051,11.5945946 136.3,11.9513514 136.716456,12.427027 C137.132911,12.9027027 137.489873,13.4378378 137.727848,14.0621622 C137.965823,14.6864865 138.08481,15.3702703 138.08481,16.0837838 C138.08481,16.7972973 137.965823,17.4513514 137.727848,18.0756757 Z" id="Shape" fill="#093024" fill-rule="nonzero"></path>
                                <path d="M57.6196203,12.7837838 C57.5601266,12.1891892 57.3221519,11.5945946 56.935443,10.9108108 C56.4,9.9 55.6265823,9.12702703 54.6449367,8.62162162 C53.6632911,8.11621622 52.5329114,7.84864865 51.2240506,7.84864865 C49.9449367,7.84864865 48.3981013,8.11621622 47.4462025,8.62162162 C47.356962,8.68108108 47.2677215,8.74054054 47.178481,8.8 L47.1487342,8.38378378 C47.1487342,8.14594595 46.9405063,7.93783784 46.6727848,7.93783784 L44.8582278,7.93783784 C44.5905063,7.93783784 44.3822785,8.14594595 44.3822785,8.41351351 L44.3822785,23.5459459 C44.3822785,23.8135135 44.5905063,24.0216216 44.8582278,24.0216216 L46.8810127,24.0216216 C47.1487342,24.0216216 47.356962,23.8135135 47.356962,23.5459459 C47.356962,22.5945946 47.356962,20.4837838 47.356962,20.4837838 C47.356962,18.372973 47.356962,16.2918919 47.356962,14.1810811 C47.356962,13.3486486 47.5651899,12.4567568 48.0708861,11.8027027 C48.6360759,11.0891892 49.3797468,10.8513514 50.2721519,10.7621622 C50.5993671,10.7324324 50.8968354,10.7027027 51.2240506,10.7027027 C52.056962,10.7027027 52.7113924,10.8513514 53.1873418,11.0594595 C53.2170886,11.0594595 53.2468354,11.0891892 53.2765823,11.0891892 C54.1392405,11.6243243 54.7341772,12.5756757 54.7639241,13.6756757 C54.7639241,13.6756757 54.7639241,21.4945946 54.7639241,23.5162162 C54.7639241,23.7837838 54.9721519,23.9918919 55.2398734,23.9918919 L57.2626582,23.9918919 C57.5303797,23.9918919 57.7386076,23.7837838 57.7386076,23.5162162 L57.7386076,13.7945946 C57.7088608,13.7054054 57.6791139,13.3783784 57.6196203,12.7837838 Z" id="Path" fill="#093024"></path>
                                <path d="M74.1588608,12.7837838 C74.0993671,12.1891892 73.8613924,11.5945946 73.4746835,10.9108108 C72.9392405,9.9 72.1658228,9.12702703 71.1841772,8.62162162 C70.2025316,8.11621622 69.0721519,7.84864865 67.7632911,7.84864865 C66.4841772,7.84864865 64.9373418,8.11621622 63.985443,8.62162162 C63.8962025,8.68108108 63.806962,8.74054054 63.7177215,8.8 L63.6879747,8.38378378 C63.6879747,8.14594595 63.4797468,7.93783784 63.2120253,7.93783784 L61.3974684,7.93783784 C61.1297468,7.93783784 60.921519,8.14594595 60.921519,8.41351351 L60.921519,23.5459459 C60.921519,23.8135135 61.1297468,24.0216216 61.3974684,24.0216216 L63.4202532,24.0216216 C63.6879747,24.0216216 63.8962025,23.8135135 63.8962025,23.5459459 C63.8962025,22.5945946 63.8962025,20.4837838 63.8962025,20.4837838 C63.8962025,18.372973 63.8962025,16.2918919 63.8962025,14.1810811 C63.8962025,13.3486486 64.1044304,12.4567568 64.6101266,11.8027027 C65.1753165,11.0891892 65.9189873,10.8513514 66.8113924,10.7621622 C67.1386076,10.7324324 67.4360759,10.7027027 67.7632911,10.7027027 C68.5962025,10.7027027 69.2506329,10.8513514 69.7265823,11.0594595 C69.7563291,11.0594595 69.7860759,11.0891892 69.8158228,11.0891892 C70.678481,11.6243243 71.2734177,12.5756757 71.3031646,13.6756757 C71.3031646,13.6756757 71.3031646,21.4945946 71.3031646,23.5162162 C71.3031646,23.7837838 71.5113924,23.9918919 71.7791139,23.9918919 L73.8018987,23.9918919 C74.0696203,23.9918919 74.2778481,23.7837838 74.2778481,23.5162162 L74.2778481,13.7945946 C74.2481013,13.7054054 74.2183544,13.3783784 74.1588608,12.7837838 Z" id="Path" fill="#093024"></path>
                                <path d="M25.9392405,8.32432432 C25.9392405,8.05675676 25.7310127,7.84864865 25.4632911,7.84864865 C24.5411392,7.87837838 22.4886076,7.96756757 21.7151899,8.62162162 C21.6259494,8.68108108 21.5367089,8.74054054 21.4474684,8.8 L21.4177215,8.38378378 C21.4177215,8.14594595 21.2094937,7.93783784 20.9417722,7.93783784 L19.1272152,7.93783784 C18.8594937,7.93783784 18.6512658,8.14594595 18.6512658,8.41351351 L18.6512658,23.5459459 C18.6512658,23.8135135 18.8594937,24.0216216 19.1272152,24.0216216 L21.15,24.0216216 C21.4177215,24.0216216 21.6259494,23.8135135 21.6259494,23.5459459 C21.6259494,22.5945946 21.6259494,20.4837838 21.6259494,20.4837838 C21.6259494,18.372973 21.6259494,16.2918919 21.6259494,14.1810811 C21.6259494,13.3486486 21.8341772,12.4567568 22.3398734,11.8027027 C22.9050633,11.0891892 23.6487342,10.8513514 24.5411392,10.7621622 C24.7196203,10.7324324 25.1360759,10.7324324 25.4632911,10.7324324 C25.7310127,10.7324324 25.9094937,10.5243243 25.9094937,10.2864865 L25.9094937,8.32432432 L25.9392405,8.32432432 Z" id="Path" fill="#093024"></path>
                                <path d="M14.7841772,7.87837838 L12.7316456,7.87837838 C12.4936709,7.87837838 12.285443,8.05675676 12.2556962,8.29459459 L12.1367089,9.42432432 C11.393038,8.97837838 10.6493671,8.62162162 9.9056962,8.35405405 C9.16202532,8.08648649 8.41835443,7.96756757 7.73417722,7.96756757 C6.72278481,7.96756757 5.74113924,8.17567568 4.84873418,8.62162162 C3.92658228,9.03783784 3.15316456,9.63243243 2.46898734,10.3459459 C1.78481013,11.0594595 1.27911392,11.9216216 0.862658228,12.9027027 C0.475949367,13.8837838 0.267721519,14.9243243 0.267721519,16.0540541 C0.267721519,17.1540541 0.475949367,18.1945946 0.862658228,19.1756757 C1.24936709,20.1567568 1.78481013,21.0189189 2.46898734,21.7324324 C3.15316456,22.4459459 3.92658228,23.0405405 4.84873418,23.4567568 C5.77088608,23.872973 6.72278481,24.0810811 7.73417722,24.0810811 C8.35886076,24.0810811 9.07278481,23.9324324 9.84620253,23.6648649 C10.6196203,23.3972973 11.4525316,23.0108108 12.3449367,22.5648649 L12.3449367,24.8243243 C12.3449367,26.1621622 11.928481,27.3513514 11.0955696,28.3621622 C10.6196203,28.8675676 10.1139241,29.2540541 9.54873418,29.5513514 C8.9835443,29.8189189 8.35886076,29.9675676 7.70443038,29.9675676 L7.43670886,29.9675676 C6.81202532,29.9081081 6.21708861,29.6405405 5.59240506,29.3135135 C4.55126582,28.8081081 3.89683544,27.6783784 3.56962025,27.0540541 C3.45063291,26.8162162 3.12341772,26.727027 2.88544304,26.8756757 C2.35,27.2324324 1.78481013,27.5594595 1.24936709,27.9162162 C1.04113924,28.0351351 0.951898734,28.3324324 1.07088608,28.5405405 C1.75506329,29.7594595 2.55822785,30.8594595 3.7778481,31.6621622 C4.64050633,32.2567568 5.59240506,32.672973 6.60379747,32.8216216 C7.37721519,32.9405405 8.18037975,32.9108108 8.95379747,32.7621622 C10.5303797,32.4351351 11.9879747,31.6324324 13.0886076,30.4432432 C14.4867089,28.9567568 15.2303797,26.9054054 15.2303797,24.8837838 C15.2303797,24.8837838 15.2303797,9.00810811 15.2303797,8.44324324 C15.2601266,8.08648649 15.0518987,7.87837838 14.7841772,7.87837838 Z M11.9879747,18.0459459 C11.75,18.6702703 11.4227848,19.2054054 10.9765823,19.6810811 C10.5601266,20.1567568 10.0544304,20.5135135 9.48924051,20.7810811 C8.92405063,21.0486486 8.35886076,21.1675676 7.73417722,21.1675676 C7.10949367,21.1675676 6.51455696,21.0486486 5.97911392,20.7810811 C5.41392405,20.5135135 4.93797468,20.1567568 4.52151899,19.6810811 C4.10506329,19.2054054 3.7778481,18.6702703 3.53987342,18.0459459 C3.30189873,17.4216216 3.18291139,16.7378378 3.18291139,16.0243243 C3.18291139,15.3108108 3.30189873,14.627027 3.53987342,14.0027027 C3.7778481,13.3783784 4.10506329,12.8432432 4.52151899,12.3675676 C4.93797468,11.8918919 5.41392405,11.5351351 5.97911392,11.2675676 C6.5443038,11 7.10949367,10.8810811 7.73417722,10.8810811 C8.35886076,10.8810811 8.95379747,11 9.48924051,11.2675676 C10.0544304,11.5351351 10.5303797,11.8918919 10.9765823,12.3675676 C11.393038,12.8432432 11.75,13.3783784 11.9879747,14.0027027 C12.2259494,14.627027 12.3449367,15.3108108 12.3449367,16.0243243 C12.3449367,16.7378378 12.2259494,17.4216216 11.9879747,18.0459459 Z" id="Shape" fill="#093024" fill-rule="nonzero"></path>
                                <path d="M87.2474684,0.0891891892 C86.593038,0.0891891892 86.0278481,0.297297297 85.5816456,0.743243243 C85.135443,1.18918919 84.8974684,1.69459459 84.8974684,2.31891892 C84.8974684,2.97297297 85.135443,3.53783784 85.5816456,3.98378378 C86.0278481,4.42972973 86.593038,4.66756757 87.2474684,4.66756757 C87.8721519,4.66756757 88.4075949,4.42972973 88.8537975,3.98378378 C89.3,3.53783784 89.5379747,2.97297297 89.5379747,2.31891892 C89.5379747,1.69459459 89.3,1.18918919 88.8537975,0.743243243 C88.3778481,0.297297297 87.8424051,0.0891891892 87.2474684,0.0891891892 Z" id="Path" fill="#008064"></path>
                                <path d="M88.6753165,8.47297297 C88.6753165,8.20540541 88.4670886,7.9972973 88.1993671,7.9972973 L86.1765823,7.9972973 C85.9088608,7.9972973 85.7006329,8.20540541 85.7006329,8.47297297 C85.7006329,9.42432432 85.7303797,24.7054054 85.7303797,24.972973 C85.7303797,25.3 85.7303797,25.6567568 85.7601266,26.0135135 C85.7601266,26.9351351 85.7303797,27.8567568 85.2246835,28.6297297 C84.778481,29.372973 83.9753165,29.7 83.1126582,29.8189189 C82.6962025,29.8783784 82.25,29.8783784 81.8335443,29.8486486 C81.5955696,29.8189189 81.3873418,30.027027 81.3575949,30.2648649 C81.3575949,30.2648649 81.3575949,30.2945946 81.3575949,30.2945946 C81.3575949,30.8594595 81.3575949,31.7513514 81.3575949,32.2864865 C81.3575949,32.5540541 81.5658228,32.7621622 81.8335443,32.7621622 C82.25,32.7621622 82.8151899,32.7621622 82.8449367,32.7621622 C83.0829114,32.7621622 83.2911392,32.7324324 83.4993671,32.7324324 C84.421519,32.6432432 85.2544304,32.4054054 85.9683544,32.0189189 C88.8537975,30.3837838 88.7943038,26.9945946 88.7348101,24.0216216 C88.7050633,23.5756757 88.6753165,8.47297297 88.6753165,8.47297297 Z" id="Path" fill="#093024"></path>
                            </g>
                            <g id="Group" transform="translate(40.500000, 39.000000)">
                                <path d="M37.880315,5.17011494 C37.880315,6.63448276 37.3716535,7.85977011 36.3543307,8.84597701 C35.3370079,9.86206897 34.1700787,10.3701149 32.7937008,10.3701149 C31.3275591,10.3701149 30.1007874,9.86206897 29.1133858,8.84597701 C28.096063,7.82988506 27.5874016,6.6045977 27.5874016,5.17011494 C27.5874016,3.7954023 28.096063,2.62988506 29.1133858,1.67356322 C30.1307087,0.717241379 31.3574803,0.209195402 32.7937008,0.209195402 C34.1700787,0.209195402 35.3669291,0.687356322 36.3543307,1.67356322 C37.3716535,2.62988506 37.880315,3.7954023 37.880315,5.17011494" id="Path" fill="#008064"></path>
                                <path d="M28.6047244,21.7264368 C26.7795276,20.6505747 24.984252,19.783908 23.2188976,19.1563218 C21.423622,18.5287356 19.688189,18.2 18.0125984,18.2 C15.5590551,18.2 13.2551181,18.708046 11.0409449,19.754023 C8.85669291,20.7701149 6.94173228,22.1747126 5.32598425,23.908046 C3.71023622,25.6712644 2.42362205,27.7034483 1.49606299,30.0643678 C0.538582677,32.4252874 0.0897637795,34.9356322 0.0897637795,37.5954023 C0.0897637795,40.2551724 0.568503937,42.7655172 1.49606299,45.1264368 C2.45354331,47.4873563 3.71023622,49.5494253 5.32598425,51.2827586 C6.94173228,53.045977 8.85669291,54.4206897 11.0409449,55.4068966 C13.2251969,56.3931034 15.5590551,56.9011494 18.0125984,56.9011494 C19.5086614,56.9011494 21.2141732,56.5724138 23.0992126,55.9149425 C24.984252,55.2574713 26.9889764,54.3609195 29.1133858,53.2551724 L29.1133858,58.6643678 C29.1133858,61.891954 28.1259843,64.7310345 26.1212598,67.1517241 C25.0141732,68.3770115 23.7574803,69.3333333 22.4110236,69.9908046 C21.0346457,70.6482759 19.5685039,70.9770115 17.9527559,70.9770115 L17.2944882,70.9770115 C15.7984252,70.8574713 14.3622047,70.2298851 12.8362205,69.3931034 C10.3527559,68.1678161 8.73700787,65.4781609 7.98897638,63.954023 C7.68976378,63.3563218 6.91181102,63.1471264 6.34330709,63.5057471 C5.02677165,64.3425287 3.71023622,65.1494253 2.39370079,65.9563218 C1.88503937,66.2850575 1.67559055,66.9425287 1.97480315,67.4505747 C3.62047244,70.4091954 5.56535433,73.0091954 8.46771654,74.9816092 C10.5023622,76.3862069 12.8362205,77.3724138 15.2897638,77.7609195 C17.1748031,78.0597701 19.0897638,77.9701149 20.9748031,77.5816092 C24.7448819,76.8344828 28.2755906,74.862069 30.9385827,72.0528736 C34.319685,68.4666667 36.0850394,63.5655172 36.0850394,58.6643678 C36.0850394,58.6643678 36.1149606,20.5310345 36.1149606,19.1264368 C36.1149606,18.4988506 35.6062992,17.9908046 34.9779528,17.9908046 L30.0409449,17.9908046 C29.4425197,17.9908046 28.9637795,18.4390805 28.903937,19.0068966 L28.6047244,21.7264368 Z M28.215748,42.4367816 C27.6472441,43.9310345 26.8393701,45.245977 25.792126,46.3517241 C24.7748031,47.4574713 23.5779528,48.3241379 22.2614173,48.9816092 C20.9149606,49.6091954 19.5086614,49.937931 18.0125984,49.937931 C16.5165354,49.937931 15.080315,49.6091954 13.7637795,48.9816092 C12.4173228,48.354023 11.2503937,47.4574713 10.2629921,46.3517241 C9.27559055,45.245977 8.4976378,43.9310345 7.92913386,42.4367816 C7.36062992,40.9425287 7.09133858,39.3287356 7.09133858,37.5954023 C7.09133858,35.862069 7.36062992,34.2482759 7.92913386,32.754023 C8.4976378,31.2597701 9.27559055,29.9448276 10.2629921,28.8390805 C11.2503937,27.7333333 12.4173228,26.8666667 13.7637795,26.2091954 C15.1102362,25.5816092 16.5165354,25.2528736 18.0125984,25.2528736 C19.5086614,25.2528736 20.9448819,25.5816092 22.2614173,26.2091954 C23.607874,26.8367816 24.7748031,27.7333333 25.792126,28.8390805 C26.8094488,29.9448276 27.6173228,31.2597701 28.215748,32.754023 C28.8141732,34.2482759 29.0834646,35.862069 29.0834646,37.5954023 C29.1133858,39.3287356 28.8141732,40.9425287 28.215748,42.4367816 Z" id="Shape" fill="#093024" fill-rule="nonzero"></path>
                            </g>
                            <rect id="Rectangle" x="0.5" y="0" width="292" height="156"></rect>
                            <rect id="Rectangle" x="15.5" y="14" width="264" height="128"></rect>
                        </g>
                    </g>
                </g>
            </g>
        </g>
    </g>
</svg>