<?xml version="1.0" encoding="UTF-8"?>
<svg width="64px" height="64px" viewBox="0 0 64 64" version="1.1" xmlns="http://www.w3.org/2000/svg" xmlns:xlink="http://www.w3.org/1999/xlink">
    <!-- Generator: sketchtool 53 (72520) - https://sketchapp.com -->
    <title>541017D4-0C59-46A1-A49F-0BB72762812B</title>
    <desc>Created with sketchtool.</desc>
    <defs>
        <linearGradient x1="74.4308514%" y1="5.8772015%" x2="12.295662%" y2="95.506042%" id="linearGradient-1">
            <stop stop-color="#F46E4E" offset="0%"></stop>
            <stop stop-color="#F22875" offset="100%"></stop>
        </linearGradient>
        <path d="M32,0 C49.645,0 64,14.355 64,32 C64,49.645 49.645,64 32,64 C14.355,64 0,49.645 0,32 C0,14.355 14.355,0 32,0 Z M31.875,60.75 C47.7964688,60.75 60.75,47.7964688 60.75,31.875 C60.75,15.9535313 47.7964688,3 31.875,3 C15.9535313,3 3,15.9535313 3,31.875 C3,47.7964688 15.9535313,60.75 31.875,60.75 Z M20.1469388,26.5346939 C17.6920894,26.5346939 15.7020408,24.5446453 15.7020408,22.0897959 C15.7020408,19.6349466 17.6920894,17.644898 20.1469388,17.644898 C22.6017881,17.644898 24.5918367,19.6349466 24.5918367,22.0897959 C24.5918367,24.5446453 22.6017881,26.5346939 20.1469388,26.5346939 Z M43.8530612,26.5346939 C41.3982119,26.5346939 39.4081633,24.5446453 39.4081633,22.0897959 C39.4081633,19.6349466 41.3982119,17.644898 43.8530612,17.644898 C46.3079106,17.644898 48.2979592,19.6349466 48.2979592,22.0897959 C48.2979592,24.5446453 46.3079106,26.5346939 43.8530612,26.5346939 Z M48.3177887,37.6472954 C49.1729476,37.9027195 49.6582645,38.8011355 49.4030896,39.652012 C49.3667514,39.7720693 45.6667152,51.5795918 31.7306122,51.5795918 C17.7945093,51.5795918 14.0944731,39.7720693 14.0581349,39.6528177 C13.80296,38.8011355 14.2882768,37.9027195 15.1434358,37.6472954 C15.9872895,37.3942886 16.8925144,37.8737124 17.1509194,38.7237831 C17.2728542,39.1169912 20.248549,48.3565749 31.7306122,48.3565749 C43.2893895,48.3565749 46.280427,38.8261139 46.3086901,38.7302291 C46.563865,37.8785469 47.4674748,37.3926771 48.3177887,37.6472954 Z" id="path-2"></path>
    </defs>
    <g id="Palmspire-Website-Design-" stroke="none" stroke-width="1" fill="none" fill-rule="evenodd">
        <g id="Artboard" transform="translate(-1211.000000, -273.000000)">
            <g id="Group-2" transform="translate(956.000000, 229.000000)">
                <g id="Rectangle-2" transform="translate(202.000000, 0.000000)">
                    <g id="smile" transform="translate(53.000000, 44.000000)">
                        <g id="Combined-Shape">
                            <use fill="#000000" xlink:href="#path-2"></use>
                            <use fill="url(#linearGradient-1)" xlink:href="#path-2"></use>
                        </g>
                    </g>
                </g>
            </g>
        </g>
    </g>
</svg>