<?xml version="1.0" encoding="UTF-8"?>
<svg width="420px" height="346px" viewBox="0 0 420 346" version="1.1" xmlns="http://www.w3.org/2000/svg" xmlns:xlink="http://www.w3.org/1999/xlink">
    <!-- Generator: sketchtool 52.6 (67491) - http://www.bohemiancoding.com/sketch -->
    <title>2B6D74CE-8D66-40E3-8C68-5B7A873B5686</title>
    <desc>Created with sketchtool.</desc>
    <defs>
        <filter x="-10.3%" y="-31.7%" width="120.5%" height="163.4%" filterUnits="objectBoundingBox" id="filter-1">
            <feOffset dx="0" dy="0" in="SourceAlpha" result="shadowOffsetOuter1"></feOffset>
            <feGaussianBlur stdDeviation="10" in="shadowOffsetOuter1" result="shadowBlurOuter1"></feGaussianBlur>
            <feColorMatrix values="0 0 0 0 0   0 0 0 0 0   0 0 0 0 0  0 0 0 0.257161458 0" type="matrix" in="shadowBlurOuter1" result="shadowMatrixOuter1"></feColorMatrix>
            <feMerge>
                <feMergeNode in="shadowMatrixOuter1"></feMergeNode>
                <feMergeNode in="SourceGraphic"></feMergeNode>
            </feMerge>
        </filter>
        <rect id="path-2" x="0" y="0" width="380" height="123" rx="3"></rect>
        <filter x="-10.3%" y="-31.7%" width="120.5%" height="163.4%" filterUnits="objectBoundingBox" id="filter-4">
            <feOffset dx="0" dy="0" in="SourceAlpha" result="shadowOffsetOuter1"></feOffset>
            <feGaussianBlur stdDeviation="10" in="shadowOffsetOuter1" result="shadowBlurOuter1"></feGaussianBlur>
            <feColorMatrix values="0 0 0 0 0   0 0 0 0 0   0 0 0 0 0  0 0 0 0.257161458 0" type="matrix" in="shadowBlurOuter1" result="shadowMatrixOuter1"></feColorMatrix>
            <feMerge>
                <feMergeNode in="shadowMatrixOuter1"></feMergeNode>
                <feMergeNode in="SourceGraphic"></feMergeNode>
            </feMerge>
        </filter>
        <rect id="path-5" x="0" y="0" width="380" height="123" rx="3"></rect>
        <path d="M29.8515579,16.8198744 L28.9995378,24.6892551 L36.7285137,24.6892551 C38.1546546,24.6892551 39.3107702,25.8453707 39.3107702,27.2715115 C39.3107702,28.6976524 38.1546546,29.853768 36.7285137,29.853768 L29.9227297,29.853768 C29.5367496,29.914605 29.2145182,30.0659064 28.9560355,30.307672 C28.6357908,30.6072053 28.4266491,30.9860268 28.3286104,31.4441365 L28.3847148,30.3678488 L27.5835053,37.7679347 C27.4271009,39.2125089 26.2132873,40.3107791 24.7603171,40.3223825 C23.5069375,40.332392 22.4827583,39.3244413 22.4727488,38.0710618 C22.4720488,37.9834095 22.4764275,37.8957902 22.4858628,37.8086444 L23.3471396,29.853768 L15.8442303,29.853768 C15.4582502,29.914605 15.1360188,30.0659064 14.8775361,30.307672 C14.5572914,30.6072053 14.3458389,30.9860268 14.2431787,31.4441365 L14.2904626,30.5995545 L13.51434,37.7679347 C13.3579355,39.2125089 12.1441219,40.3107791 10.6911517,40.3223825 C9.43777216,40.332392 8.41359296,39.3244413 8.40358349,38.0710618 C8.4028835,37.9834095 8.40726216,37.8957902 8.41669746,37.8086444 L9.27797425,29.853768 L2.58225647,29.853768 C1.1561156,29.853768 1.74651885e-16,28.6976524 0,27.2715115 C-1.74651885e-16,25.8453707 1.1561156,24.6892551 2.58225647,24.6892551 L8.21420432,24.6892551 L8.07846727,24.6756879 C8.59441715,24.6538754 9.01251446,24.4932024 9.33275922,24.1936691 C9.65300397,23.8941359 9.86445643,23.5153144 9.96711661,23.0572046 L9.917087,23.9508306 L10.8049202,15.750675 L2.58225647,15.750675 C1.1561156,15.750675 1.74651885e-16,14.5945594 0,13.1684185 C-1.74651885e-16,11.7422776 1.1561156,10.586162 2.58225647,10.586162 L9.67160852,10.586162 C10.1424478,10.5526606 10.5276565,10.3958083 10.8272347,10.1156049 C11.1474795,9.81607167 11.3520803,9.43725017 11.4410372,8.97914044 L11.3731982,10.5019781 L12.2322424,2.56772168 C12.3886469,1.12314747 13.6024605,0.0248772963 15.0554307,0.0132738936 C16.3088103,0.00326441913 17.3329895,1.01121505 17.342999,2.26459464 C17.3436989,2.35224693 17.3393203,2.43986617 17.329885,2.52701196 L16.4573185,10.586162 L23.7570402,10.586162 C24.2278794,10.5526606 24.6130881,10.3958083 24.9126664,10.1156049 C25.2329111,9.81607167 25.4375119,9.43725017 25.5264688,8.97914044 L25.4700014,10.2467104 L26.3014078,2.56772168 C26.4578122,1.12314747 27.6716258,0.0248772963 29.124596,0.0132738937 C30.3779756,0.00326441913 31.4021548,1.01121505 31.4121643,2.26459464 C31.4128643,2.35224693 31.4084856,2.43986617 31.3990503,2.52701196 L30.5264838,10.586162 L36.7285137,10.586162 C38.1546546,10.586162 39.3107702,11.7422776 39.3107702,13.1684185 C39.3107702,14.5945594 38.1546546,15.750675 36.7285137,15.750675 L31.6464433,15.750675 C31.1572379,15.7818057 30.7585938,15.94145 30.450511,16.2296078 C30.1302663,16.5291411 29.9211246,16.9079626 29.8230859,17.3660723 L29.8515579,16.8198744 Z M17.5679439,15.750675 C17.0787385,15.7818057 16.6800944,15.94145 16.3720116,16.2296078 C16.0517669,16.5291411 15.8403144,16.9079626 15.7376542,17.3660723 L15.7530717,17.0906864 L14.9303725,24.6892551 L22.4004033,24.6892551 C22.8226867,24.6376385 23.1720522,24.4825459 23.4484999,24.2239772 C23.7687446,23.9244439 23.9778863,23.5456224 24.075925,23.0875127 L24.0723977,23.1551796 L24.8740856,15.750675 L17.5679439,15.750675 Z" id="path-7"></path>
        <linearGradient x1="80.9260247%" y1="85.6911881%" x2="35.4952508%" y2="21.6399258%" id="linearGradient-9">
            <stop stop-color="#9C62FF" offset="0%"></stop>
            <stop stop-color="#5C16FF" offset="100%"></stop>
        </linearGradient>
        <linearGradient x1="50%" y1="0%" x2="50%" y2="100%" id="linearGradient-10">
            <stop stop-color="#13FF76" offset="0%"></stop>
            <stop stop-color="#2FCBFB" offset="100%"></stop>
        </linearGradient>
        <linearGradient x1="50%" y1="0%" x2="50%" y2="100%" id="linearGradient-11">
            <stop stop-color="#FA6848" offset="0%"></stop>
            <stop stop-color="#F71BD0" offset="100%"></stop>
        </linearGradient>
    </defs>
    <g id="Palmspire-Website-Design-" stroke="none" stroke-width="1" fill="none" fill-rule="evenodd">
        <g id="Design-Portfolio" transform="translate(-255.000000, -2279.000000)">
            <g id="Group-7" transform="translate(275.000000, 2257.000000)">
                <g id="Group-4" transform="translate(0.000000, 41.000000)">
                    <g id="Group-9" transform="translate(168.000000, 120.500000)" fill-rule="nonzero" stroke="#D1D1D1" stroke-linecap="square" stroke-width="2">
                        <path d="M14.6407757,64 L28.6184211,50.1728395 L14.6407757,64 Z M14.3592243,64 L0.381578947,50.1728395 L14.3592243,64 Z M14.6407757,0 L14.6407757,64 L14.6407757,0 Z" id="Combined-Shape"></path>
                    </g>
                    <g id="Rectangle-3" filter="url(#filter-1)" transform="translate(0.000000, 0.500000)">
                        <mask id="mask-3" fill="white">
                            <use xlink:href="#path-2"></use>
                        </mask>
                        <use id="Rectangle" fill="#FFFFFF" fill-rule="nonzero" xlink:href="#path-2"></use>
                        <g id="Hashora_Logo_12" mask="url(#mask-3)">
                            <g transform="translate(87.578242, 42.413793)">
                                <path d="M2.44012031,36.1225408 C1.98892992,36.1225408 1.1890964,36.1225408 0.0406197362,36.1225408 L0.0406197362,0.208016692 C1.1890964,0.208016692 1.98892992,0.208016692 2.44012031,0.208016692 C2.91181937,0.208016692 3.71165289,0.208016692 4.83962089,0.208016692 L4.83962089,15.7970355 L26.2505492,15.7970355 L26.2505492,0.208016692 C27.3990258,0.208016692 28.1988593,0.208016692 28.6500498,0.208016692 C29.1012401,0.208016692 29.8856923,0.208016692 31.003406,0.208016692 L31.003406,36.1225408 C29.8856923,36.1225408 29.1012401,36.1225408 28.6500498,36.1225408 C28.1988593,36.1225408 27.3990258,36.1225408 26.2505492,36.1225408 L26.2505492,20.0276837 L4.83962089,20.0276837 L4.83962089,36.1225408 C3.71165289,36.1225408 2.91181937,36.1225408 2.44012031,36.1225408 Z M50.1721298,10.7846371 C52.5408794,10.7846371 54.6865653,11.3441194 56.6092516,12.4631008 C58.531938,13.5820822 60.0546827,15.1149104 61.1775315,17.0616314 C62.3003804,19.0083524 62.8617963,21.1773043 62.8617963,23.5685522 L62.8617963,36.3064821 C61.5865398,36.3064821 60.7233161,36.3064821 60.2721258,36.3064821 C59.8209353,36.3064821 59.1152547,36.3064821 58.1550837,36.3064821 L58.1550837,32.1218192 C57.0783794,33.4400712 55.7709723,34.467066 54.2328232,35.2028346 C52.694674,35.9386033 51.0334979,36.3064821 49.249245,36.3064821 C47.0343103,36.3064821 45.0270559,35.7546639 43.2274215,34.651011 C41.4277871,33.5473581 40.0127111,32.0221941 38.9821511,30.0754731 C37.9515913,28.128752 37.4363191,25.9598001 37.4363191,23.5685522 C37.4363191,21.1773043 37.9900445,19.0083524 39.0975118,17.0616314 C40.2049792,15.1149104 41.7354145,13.5820822 43.6888638,12.4631008 C45.6423132,11.3441194 47.8033803,10.7846371 50.1721298,10.7846371 Z M50.1721298,32.1678045 C51.710279,32.1678045 53.102283,31.7922616 54.3481837,31.0411645 C55.5940845,30.2900673 56.5707945,29.2630725 57.2783432,27.960149 C57.9858917,26.6572254 58.3396606,25.1933745 58.3396606,23.5685522 C58.3396606,21.9437299 57.9858917,20.4722148 57.2783432,19.1539628 C56.5707945,17.8357108 55.5940845,16.8010517 54.3481837,16.0499547 C53.102283,15.2988576 51.710279,14.9233147 50.1721298,14.9233147 C48.6339807,14.9233147 47.2419768,15.2988576 45.9960759,16.0499547 C44.7501752,16.8010517 43.7657745,17.8357108 43.0428444,19.1539628 C42.3199144,20.4722148 41.9584548,21.9437299 41.9584548,23.5685522 C41.9584548,25.1933745 42.3199144,26.6572254 43.0428444,27.960149 C43.7657745,29.2630725 44.7501752,30.2900673 45.9960759,31.0411645 C47.2419768,31.7922616 48.6339807,32.1678045 50.1721298,32.1678045 Z M192.938536,10.7846371 C195.307286,10.7846371 197.452971,11.3441194 199.375659,12.4631008 C201.298345,13.5820822 202.82109,15.1149104 203.943937,17.0616314 C205.066786,19.0083524 205.628203,21.1773043 205.628203,23.5685522 L205.628203,36.3064821 C204.352947,36.3064821 203.489722,36.3064821 203.038532,36.3064821 C202.587343,36.3064821 201.881661,36.3064821 200.92149,36.3064821 L200.92149,32.1218192 C199.844786,33.4400712 198.537379,34.467066 196.99923,35.2028346 C195.461081,35.9386033 193.799905,36.3064821 192.015652,36.3064821 C189.800717,36.3064821 187.793462,35.7546639 185.993827,34.651011 C184.194193,33.5473581 182.779118,32.0221941 181.748558,30.0754731 C180.717998,28.128752 180.202726,25.9598001 180.202726,23.5685522 C180.202726,21.1773043 180.756451,19.0083524 181.863919,17.0616314 C182.971385,15.1149104 184.501821,13.5820822 186.455271,12.4631008 C188.40872,11.3441194 190.569787,10.7846371 192.938536,10.7846371 Z M192.938536,32.1678045 C194.476685,32.1678045 195.868689,31.7922616 197.114591,31.0411645 C198.360491,30.2900673 199.337201,29.2630725 200.04475,27.960149 C200.752298,26.6572254 201.106067,25.1933745 201.106067,23.5685522 C201.106067,21.9437299 200.752298,20.4722148 200.04475,19.1539628 C199.337201,17.8357108 198.360491,16.8010517 197.114591,16.0499547 C195.868689,15.2988576 194.476685,14.9233147 192.938536,14.9233147 C191.400387,14.9233147 190.008383,15.2988576 188.762483,16.0499547 C187.516581,16.8010517 186.53218,17.8357108 185.80925,19.1539628 C185.08632,20.4722148 184.724862,21.9437299 184.724862,23.5685522 C184.724862,25.1933745 185.08632,26.6572254 185.80925,27.960149 C186.53218,29.2630725 187.516581,30.2900673 188.762483,31.0411645 C190.008383,31.7922616 191.400387,32.1678045 192.938536,32.1678045 Z M80.1386062,36.6838788 C78.0467236,36.6838788 76.0779222,36.3619847 74.2321433,35.7181873 C72.3863644,35.0743898 70.940526,34.2313343 69.8945845,33.1889954 C69.4946657,32.7904541 69.2947094,32.3152774 69.2947094,31.7634509 C69.2947094,31.0276823 69.6023347,30.4298793 70.2175942,29.970024 C70.8020909,29.5408257 71.340435,29.3262297 71.8326428,29.3262297 C72.4479023,29.3262297 73.0323902,29.6021387 73.5861239,30.1539653 C74.1706206,30.7977627 75.0473525,31.357245 76.2163457,31.8324289 C77.385339,32.3076128 78.6312211,32.5452011 79.9540293,32.5452011 C81.7075192,32.5452011 83.0687608,32.2539637 84.0377947,31.6714803 C85.0068287,31.0889968 85.4913383,30.3072545 85.4913383,29.3262297 C85.4913383,28.375862 85.0145192,27.5864554 84.0608668,26.9579864 C83.1072143,26.3295175 81.4921821,25.8006917 79.2157214,25.3714934 C73.3092289,24.2371835 70.356027,21.8153149 70.356027,18.105815 C70.356027,16.6036208 70.8020836,15.3313734 71.69421,14.2890346 C72.5863365,13.2466958 73.7553122,12.4649534 75.2011724,11.943784 C76.6470325,11.4226146 78.1851585,11.1620338 79.8155966,11.1620338 C81.8151903,11.1620338 83.6071072,11.4839277 85.1914007,12.1277252 C86.7756943,12.7715227 88.0292671,13.6605631 88.9521564,14.7948729 C89.3520752,15.2853853 89.5520317,15.7758904 89.5520317,16.2664028 C89.5520317,16.7875722 89.2905502,17.2627489 88.7675795,17.6919472 C88.4291867,17.9372035 87.9985114,18.0598297 87.4755407,18.0598297 C86.6757032,18.0598297 85.952784,17.7685924 85.3067613,17.1861088 C84.5376867,16.4809972 83.72248,15.9828281 82.8611165,15.6915864 C81.9997531,15.4003447 80.9538274,15.254726 79.723308,15.254726 C78.3082109,15.254726 77.1469257,15.4923144 76.2394179,15.9674983 C75.3319098,16.4426821 74.8781627,17.1094624 74.8781627,17.967859 C74.8781627,18.5809996 75.0319752,19.0944971 75.3396051,19.5083668 C75.6472349,19.9222367 76.2317228,20.3054438 77.0930864,20.6579995 C77.9544498,21.0105552 79.2003319,21.3554416 80.8307699,21.6926689 C84.1839349,22.3671233 86.5603395,23.3021486 87.9600553,24.4977725 C89.3597709,25.6933964 90.0596183,27.241553 90.0596183,29.1422884 C90.0596183,30.5525116 89.6750867,31.8324231 88.9060123,32.9820616 C88.1369377,34.1316999 87.006415,35.0360686 85.5144104,35.6951946 C84.0224058,36.3543206 82.230489,36.6838788 80.1386062,36.6838788 Z M109.252052,10.7386518 C111.374698,10.7386518 113.281974,11.1985003 114.973938,12.118211 C116.665902,13.0379217 117.98869,14.3791464 118.942343,16.1419253 C119.895995,17.9047042 120.372814,20.0276713 120.372814,22.5108902 L120.372814,33.8232756 C120.372814,34.2729118 120.372814,35.0393337 120.372814,36.1225408 C119.2551,36.1531977 118.470648,36.1685261 118.019458,36.1685261 C117.568267,36.1685261 116.783815,36.1685261 115.666101,36.1685261 C115.666101,35.0546621 115.666101,34.2729118 115.666101,33.8232756 L115.666101,22.5108902 C115.666101,20.0276713 114.997017,18.1499567 113.658827,16.8776901 C112.320637,15.6054237 110.544102,14.9693 108.329167,14.9693 C107.037122,14.9693 105.860455,15.2298808 104.799133,15.7510502 C103.73781,16.2722196 102.907222,16.9773206 102.307344,17.8663743 C101.707465,18.755428 101.407531,19.7517662 101.407531,20.8554191 L101.407531,33.8232756 C101.407531,34.2729118 101.407531,35.0393337 101.407531,36.1225408 C100.310326,36.1531977 99.5258735,36.1685261 99.0541744,36.1685261 C98.602984,36.1685261 97.8185319,36.1685261 96.700818,36.1685261 C96.700818,35.0546621 96.700818,34.2729118 96.700818,33.8232756 L96.700818,0.208016692 L99.0541744,0.208016692 L101.407531,0.208016692 L101.407531,13.8196673 C102.391946,12.8386426 103.560922,12.0798926 104.914493,11.5433947 C106.268064,11.0068967 107.713903,10.7386518 109.252052,10.7386518 Z M171.182897,10.6926665 C172.269857,10.6926665 174.197194,11.0870253 176.964911,11.875743 L176.351053,13.7276967 L175.706432,15.6381772 C174.649311,15.3251057 174.018206,15.1481319 173.813119,15.1072559 C172.582599,14.8926567 171.582818,14.7853587 170.813743,14.7853587 C168.598809,14.7853587 166.814583,15.2911921 165.461012,16.3028739 C164.10744,17.3145557 163.430664,18.6787728 163.430664,20.3955661 L163.430664,33.8232756 C163.430664,34.3137879 163.430664,35.0802097 163.430664,36.1225408 C162.40524,36.1225408 161.636169,36.1225408 161.123453,36.1225408 C160.631245,36.1225408 159.862174,36.1225408 158.816241,36.1225408 C158.816241,35.1006477 158.816241,34.334226 158.816241,33.8232756 L158.816241,13.2678436 C158.816241,12.7773313 158.816241,12.0345989 158.816241,11.0396465 C159.862174,11.0396465 160.631245,11.0396465 161.123453,11.0396465 C161.643705,11.0396465 162.412776,11.0396465 163.430664,11.0396465 C163.430664,12.0216703 163.430664,12.7644027 163.430664,13.2678436 L163.430664,14.1415645 C164.353554,13.0685686 165.491768,12.2255131 166.845338,11.6123726 C168.198911,10.9992321 169.644748,10.6926665 171.182897,10.6926665 Z" id="Hashora" stroke="#000000" fill="#000000" fill-rule="nonzero"></path>
                                <g id="_Group_2" stroke="none" fill="none" fill-rule="evenodd" transform="translate(124.741285, 9.539051)">
                                    <g id="_Group_3" transform="translate(0.517790, 0.000000)" fill="#FF4300" fill-rule="nonzero">
                                        <path d="M20.0314896,0.577184241 C19.603491,0.396956671 19.1754924,0.242475898 18.7345243,0.11374192 L18.630767,0.11374192 L15.3494447,3.38358495 C15.0725061,3.65388309 14.7002641,3.80629333 14.3118724,3.80840708 C13.9226406,3.81050072 13.5488458,3.65745468 13.2743001,3.38358495 L9.96703847,0.0365015334 L9.86328125,0.0365015334 C9.44825234,0.165235511 9.03322342,0.319716284 8.5663159,0.499943854 L8.35880144,0.577184241 L12.1459402,4.43920357 C13.3341916,5.60918096 15.2506442,5.60918096 16.4388956,4.43920357 L20.0314896,0.577184241 Z" id="_Path_"></path>
                                        <path d="M18.0860415,12.317723 C17.5699316,12.8127227 17.2835041,13.4978434 17.2948927,14.2101125 C17.2890588,14.9250936 17.574342,15.6121189 18.0860415,16.1153754 L24.5708683,22.5520743 L25.5306226,23.5047057 L26.490377,22.5520743 L26.6330432,22.4104668 L19.1884621,15.0211366 C18.7451083,14.5750035 18.7451083,13.8580949 19.1884621,13.4119618 L26.5941342,6.09987189 L26.7108611,5.99688471 L26.6200735,5.86815074 C26.3866198,5.53344239 26.1401963,5.21160745 25.8808032,4.8897725 L25.7640764,4.73529172 L18.9031297,11.4938256 L18.0860415,12.317723 Z" id="_Path_2"></path>
                                        <path d="M23.2998423,14.2101125 C23.2952774,15.0068285 23.6129962,15.7720421 24.1817787,16.3342231 L27.9818872,20.1061287 L28.0856444,19.8615341 C28.2628388,19.4418485 28.4144254,19.0119581 28.5395823,18.5741944 L28.5395823,18.4712072 L25.2452903,15.2013641 C24.6852356,14.6273052 24.6852356,13.7156794 25.2452903,13.1416205 L28.5395823,9.87177745 L28.5395823,9.78166365 C28.4161803,9.34335048 28.2645559,8.91335291 28.0856444,8.49432388 L27.9818872,8.24972932 L24.1817787,12.0216349 C23.5979556,12.6002639 23.2791121,13.3914569 23.2998423,14.2101125 Z" id="_Path_3"></path>
                                        <path d="M12.379394,10.4510803 C12.8864134,10.9589823 13.5785757,11.2421482 14.2989027,11.2363576 C15.0164976,11.2476617 15.7067409,10.96336 16.2054418,10.4510803 L22.6902685,4.01438144 L23.8186284,2.84290225 L23.6759622,2.72704167 C23.3600678,2.46611315 23.0310833,2.22120591 22.6902685,1.993258 L22.5967819,1.93808335 L21.6397266,2.89439584 L15.1548999,9.33109474 C14.9405761,9.54571796 14.6487455,9.66645219 14.3442965,9.66645219 C14.0398475,9.66645219 13.7480169,9.54571796 13.5336932,9.33109474 L6.02426382,1.86452403 L5.90753695,1.9546378 C5.5667222,2.18258571 5.23773761,2.42749295 4.92184328,2.68842147 L4.76620743,2.80428206 L11.5623059,9.58856269 L12.379394,10.4510803 Z" id="_Path_4"></path>
                                        <path d="M14.2989027,24.7019317 C14.6884207,24.6983763 15.0627646,24.8516473 15.336475,25.1267538 L18.6177973,28.3837234 L18.7215545,28.3837234 C19.1365834,28.2549894 19.564582,28.1005087 20.0185199,27.9202811 L20.2649433,27.8301673 L16.4648349,24.0582618 C15.2765835,22.8882844 13.3601309,22.8882844 12.1718796,24.0582618 L8.35880144,27.8044205 L8.60522486,27.8945344 C9.04619309,28.0747619 9.46122198,28.2292427 9.90219021,28.3579767 L10.0059474,28.3579767 L13.3002394,25.101007 C13.5662779,24.8412484 13.9257475,24.697601 14.2989027,24.7019317 Z" id="_Path_5"></path>
                                        <path d="M14.2989027,18.7286752 C14.6001598,18.734272 14.8878527,18.8540222 15.1030212,19.0633835 L21.5878481,25.5000824 L22.5735417,26.5299541 L22.7032382,26.4527138 C23.0274796,26.2209927 23.3646905,25.9763981 23.6889319,25.7189301 L23.8315981,25.6030695 L22.7162078,24.4315903 L16.2313811,17.9948915 C15.7258811,17.4926088 15.0401074,17.2101481 14.324842,17.2096143 C13.605925,17.2109505 12.9164114,17.4930328 12.4053333,17.9948915 L4.74026813,25.5901961 L4.89590396,25.7060567 C5.2109959,25.9679914 5.5400344,26.2129389 5.88159763,26.4398404 L5.99832452,26.5299541 L13.5466628,19.0633835 C13.7493847,18.8666516 14.0160573,18.7479961 14.2989027,18.7286752 Z" id="_Path_6"></path>
                                        <path d="M5.29796323,14.2101125 C5.31349811,13.4212729 5.0152752,12.6581231 4.4679054,12.0860019 L0.577009366,8.30122291 L0.47325214,8.54581746 C0.304646643,8.97063959 0.149010802,9.39546172 0.0193142678,9.83315725 L0.0193142678,9.92327103 L3.31360625,13.1931141 C3.87366081,13.767173 3.87366081,14.6787987 3.31360625,15.2528577 L0.0193142678,18.5227007 L0.0193142678,18.6256879 C0.149010802,19.0247633 0.304646643,19.4495853 0.47325214,19.9130278 L0.577009366,20.1576222 L4.4679054,16.3342231 C5.0177095,15.763636 5.31633789,14.9994485 5.29796323,14.2101125 Z" id="_Path_7"></path>
                                        <path d="M10.5117639,16.1153754 C11.0173751,15.6080903 11.3015665,14.923694 11.3029128,14.2101125 C11.3052546,13.4995879 11.0202407,12.8178485 10.5117639,12.317723 L2.85966838,4.69667153 L2.72997185,4.8511523 C2.48354843,5.16011385 2.23712501,5.48194879 1.99070159,5.82953054 L1.91288367,5.95826452 L9.40934337,13.450582 C9.83921143,13.9021224 9.83921143,14.6082164 9.40934337,15.0597568 L1.87397471,22.4619605 L1.9647623,22.5906945 C2.19336043,22.9297228 2.4401393,23.2563192 2.70403253,23.5690726 L2.82075942,23.7235534 L9.65576679,16.9263994 L10.5117639,16.1153754 Z" id="_Path_8"></path>
                                    </g>
                                </g>
                            </g>
                        </g>
                    </g>
                    <g id="Rectangle-3" filter="url(#filter-4)" transform="translate(0.000000, 184.500000)">
                        <mask id="mask-6" fill="white">
                            <use xlink:href="#path-5"></use>
                        </mask>
                        <use id="Rectangle" fill="#FFFFFF" fill-rule="nonzero" xlink:href="#path-5"></use>
                        <g id="Group-21" mask="url(#mask-6)">
                            <g transform="translate(67.405765, 40.717241)">
                                <g id="Group-8" transform="translate(47.123605, 0.208017)">
                                    <path d="M53.3016876,36.6674236 C53.2782685,36.4989004 53.1908748,36.3874945 53.0395064,36.3332059 C52.8879839,36.2788621 52.7299432,36.3150127 52.5653842,36.4416579 C51.5160413,37.5226351 50.2998448,38.3933381 48.9167717,39.0537849 C47.1971881,39.8749225 45.3400658,40.2854852 43.345349,40.2854852 C40.8691488,40.2854852 38.6251261,39.6696412 36.6132135,38.4379348 C34.6013008,37.2062283 33.0193077,35.5041041 31.8671867,33.3315109 C30.7150659,31.1589176 30.139014,28.7383087 30.139014,26.0696115 C30.139014,23.4009143 30.7580548,20.9803054 31.9961549,18.8077122 C33.2342551,16.635119 34.9452148,14.9244413 37.1290858,13.6756279 C39.3129569,12.4268145 41.7289355,11.8024171 44.3770939,11.8024171 C47.0252525,11.8024171 49.4240355,12.4268145 51.5735149,13.6756279 C53.7229942,14.9244413 55.4253563,16.635119 56.6806522,18.8077122 C57.9359482,20.9803054 58.5635867,23.4009143 58.5635867,26.0696115 L58.5635867,37.6628464 C58.5635867,39.4070601 57.711471,40.2791669 56.0072396,40.2791669 C54.3030082,40.2791669 53.4011575,39.3970319 53.3016876,37.6327618 L53.3016876,36.6674236 Z M192.018478,36.6635902 C191.995257,36.4945329 191.907819,36.3828087 191.756165,36.3284176 C191.604511,36.2740266 191.446327,36.3102873 191.281614,36.4371997 L192.065539,35.4581612 L192.018478,36.6635902 Z M154.704737,14.6201727 C154.722766,14.801317 154.807607,14.9190846 154.959261,14.9734757 C155.110916,15.0278667 155.269099,14.991606 155.433812,14.8646936 L154.649887,15.8437321 L154.704737,14.6201727 Z M5.29162957,14.3577887 C5.30965813,14.5389329 5.39449945,14.6567006 5.54615356,14.7110916 C5.69780766,14.7654826 5.8559913,14.7292219 6.02070446,14.6023095 L5.23677919,15.581348 L5.29162957,14.3577887 Z M44.3770939,35.6666093 C46.0966775,35.6666093 47.6528771,35.2474932 49.0457397,34.4092487 C50.4386024,33.5710039 51.5305215,32.42485 52.32153,30.9707521 C53.1125383,29.5166542 53.5080365,27.882957 53.5080365,26.0696115 C53.5080365,24.256266 53.1125383,22.6140154 52.32153,21.1428106 C51.5305215,19.6716058 50.4386024,18.5168983 49.0457397,17.6786537 C47.6528771,16.840409 46.0966775,16.421293 44.3770939,16.421293 C42.6575105,16.421293 41.1013109,16.840409 39.7084482,17.6786537 C38.3155856,18.5168983 37.2150687,19.6716058 36.4068644,21.1428106 C35.5986602,22.6140154 35.1945642,24.256266 35.1945642,26.0696115 C35.1945642,27.882957 35.5986602,29.5166542 36.4068644,30.9707521 C37.2150687,32.42485 38.3155856,33.5710039 39.7084482,34.4092487 C41.1013109,35.2474932 42.6575105,35.6666093 44.3770939,35.6666093 Z M183.092382,11.8024171 C185.739745,11.8024171 188.137807,12.4268145 190.286642,13.6756279 C192.435474,14.9244413 194.137326,16.635119 195.392243,18.8077122 C196.647162,20.9803054 197.274612,23.4009143 197.274612,26.0696115 C197.274612,31.2086393 197.274612,35.0629102 197.274612,37.6324241 C197.274612,38.5167778 196.849503,40.2854852 194.651115,40.2854852 C192.452727,40.2854852 192.014294,38.5370593 192.014294,37.6628464 C192.014294,37.2078335 192.014294,36.5253142 192.014294,35.6152885 C190.810948,37.0864933 189.349763,38.2326472 187.630697,39.0537849 C185.91163,39.8749225 184.055065,40.2854852 182.060947,40.2854852 C179.585491,40.2854852 177.342142,39.6696412 175.330834,38.4379348 C173.319526,37.2062283 171.738009,35.5041041 170.586234,33.3315109 C169.43446,31.1589176 168.858582,28.7383087 168.858582,26.0696115 C168.858582,23.4009143 169.477435,20.9803054 170.715164,18.8077122 C171.952891,16.635119 173.663337,14.9244413 175.846552,13.6756279 C178.029767,12.4268145 180.445019,11.8024171 183.092382,11.8024171 Z M132.408445,40.3016958 C129.857281,40.3016958 127.548513,39.6814172 125.48207,38.4408416 C123.415627,37.2002657 121.782907,35.5039938 120.583859,33.3519746 C119.384813,31.1999554 118.785298,28.7821349 118.785298,26.0984404 C118.785298,23.414746 119.384813,20.9842667 120.583859,18.8069297 C121.782907,16.6295928 123.415627,14.920662 125.48207,13.6800863 C127.548513,12.4395106 129.857281,11.819232 132.408445,11.819232 C134.95961,11.819232 137.268378,12.4395106 139.334821,13.6800863 C141.401264,14.920662 143.021229,16.6295928 144.194764,18.8069297 C145.368299,20.9842667 145.955058,23.414746 145.955058,26.0984404 C145.955058,28.7821349 145.368299,31.1999554 144.194764,33.3519746 C143.021229,35.5039938 141.401264,37.2002657 139.334821,38.4408416 C137.268378,39.6814172 134.95961,40.3016958 132.408445,40.3016958 Z M132.395669,35.5537566 C134.095045,35.5537566 135.632956,35.1423044 137.009451,34.3193877 C138.385945,33.4964708 139.465033,32.3712751 140.246746,30.9437664 C141.028458,29.5162576 141.419309,27.9124337 141.419309,26.1322464 C141.419309,24.3520591 141.028458,22.7398382 140.246746,21.2955354 C139.465033,19.8512325 138.385945,18.7176396 137.009451,17.8947229 C135.632956,17.0718062 134.095045,16.6603539 132.395669,16.6603539 C130.696293,16.6603539 129.158381,17.0718062 127.781886,17.8947229 C126.405392,18.7176396 125.317808,19.8512325 124.519101,21.2955354 C123.720395,22.7398382 123.321047,24.3520591 123.321047,26.1322464 C123.321047,27.9124337 123.720395,29.5162576 124.519101,30.9437664 C125.317808,32.3712751 126.405392,33.4964708 127.781886,34.3193877 C129.158381,35.1423044 130.696293,35.5537566 132.395669,35.5537566 Z M183.092382,35.6666093 C184.811449,35.6666093 186.367181,35.2474932 187.759626,34.4092487 C189.15207,33.5710039 190.243661,32.42485 191.034432,30.9707521 C191.825201,29.5166542 192.220581,27.882957 192.220581,26.0696115 C192.220581,24.256266 191.825201,22.6140154 191.034432,21.1428106 C190.243661,19.6716058 189.15207,18.5168983 187.759626,17.6786537 C186.367181,16.840409 184.811449,16.421293 183.092382,16.421293 C181.373315,16.421293 179.817584,16.840409 178.42514,17.6786537 C177.032694,18.5168983 175.932508,19.6716058 175.124547,21.1428106 C174.316586,22.6140154 173.912612,24.256266 173.912612,26.0696115 C173.912612,27.882957 174.316586,29.5166542 175.124547,30.9707521 C175.932508,32.42485 177.032694,33.5710039 178.42514,34.4092487 C179.817584,35.2474932 181.373315,35.6666093 183.092382,35.6666093 Z M73.7987154,40.3016958 C71.4587365,40.3016958 69.7563098,39.9770366 67.7481928,39.0745598 C66.7411089,38.6219617 66.0238015,38.2104484 65.3519589,37.8149581 C64.96582,37.5876515 65.087294,37.6644332 64.2525802,37.0543998 C63.4178664,36.4443664 63.1476598,34.7698646 63.9777355,33.768788 C64.8078112,32.7677114 66.0285863,32.8561038 66.8788739,33.4645647 C67.3587586,33.8079674 68.6813326,34.6315655 70.1888326,35.1297789 C71.3524081,35.5143287 72.9092179,35.7382397 73.5538025,35.7382397 C75.5152555,35.7382397 77.0763848,35.3506465 78.1603456,34.6996399 C79.2443066,34.0486331 79.7862787,33.1749268 79.7862787,32.0784944 C79.7862787,31.0163257 79.2529092,30.1340535 78.1861541,29.4316515 C77.1193989,28.7292496 75.3128246,28.1382129 72.7663769,27.6585238 C66.1593773,26.3907739 62.8559272,23.6839972 62.8559272,19.5381125 C62.8559272,17.8592004 63.3548859,16.4372862 64.352818,15.2723268 C65.3507503,14.1073675 66.6583659,13.2336611 68.2757045,12.6511814 C69.8930429,12.0687017 71.6135897,11.7774663 73.437397,11.7774663 C75.6741415,11.7774663 77.7298262,12.082693 79.4507688,12.8567614 C80.1860182,13.1874717 81.2211436,13.8127091 82.5954179,14.8477515 C82.7394874,14.9562583 82.909854,15.0928707 83.1065175,15.2575886 C83.6107352,15.6799022 84.3874495,17.1482446 83.3806256,18.2956962 C82.3738018,19.4431477 80.9542335,19.1275169 80.3690082,18.6979975 C80.1682682,18.5506667 79.9740251,18.4165662 79.7862787,18.2956962 C78.683643,17.5858252 77.8076348,17.1653779 76.844114,16.8398746 C75.8805933,16.5143712 74.7106214,16.351622 73.334163,16.351622 C71.7512361,16.351622 70.4522231,16.6171602 69.4370853,17.1482446 C68.4219472,17.679329 67.914386,18.4245491 67.914386,19.3839274 C67.914386,20.0691977 68.0864405,20.6431029 68.4305551,21.1056602 C68.7746697,21.5682177 69.4284776,21.9965051 70.3919984,22.3905354 C71.3555191,22.7845657 72.7491622,23.1700245 74.5729694,23.5469232 C78.323818,24.3007203 80.982063,25.3457416 82.5477844,26.6820185 C84.1135056,28.0182954 84.8963545,29.7485768 84.8963545,31.8729143 C84.8963545,33.4490359 84.4662176,34.8795159 83.6059314,36.1643976 C82.7456449,37.4492792 81.4810428,38.4600376 79.8120873,39.1967031 C78.1431317,39.9333685 76.1386944,40.3016958 73.7987154,40.3016958 Z M14.1054992,11.8114492 C16.4904327,11.8114492 18.6333842,12.3272279 20.5344183,13.3588007 C22.4354523,14.3903735 23.9216928,15.8947278 24.9931847,17.871909 C26.0646765,19.8490902 26.6004144,22.2302683 26.6004144,25.0155148 L26.6004144,37.7037966 C26.6004144,38.0400128 26.5998956,38.0400128 26.5988581,37.7037966 C26.5233311,39.4574614 25.6415975,40.3342939 23.9536573,40.3342939 C22.2657171,40.3342939 21.3852014,39.4574614 21.3121101,37.7037966 L21.3121101,25.0155148 C21.3121101,22.2302683 20.5603488,20.1241721 19.0568038,18.6971631 C17.5532588,17.2701541 15.5572031,16.5566603 13.0685769,16.5566603 C11.6168783,16.5566603 10.4244306,17.123763 9.23196399,17.7083209 C8.03949714,18.2928788 7.05805732,19.16996 6.38405451,20.1671469 C5.71005151,21.1643339 5.29165871,22.1696632 5.29165871,23.4075506 L5.29165871,37.7037966 C5.22338049,39.4357294 4.34846664,40.3016958 2.66691716,40.3016958 C0.985367672,40.3016958 0.0975134204,39.4357294 0.00335440102,37.7037966 L0.00335440102,2.60937389 C0.0399408755,0.869791298 0.921324958,3.20581298e-16 2.64750665,0 C4.37368834,0 5.25507236,0.869791298 5.29165871,2.60937389 L5.29165871,15.2672008 C6.39771492,14.1668565 7.71113671,13.3158217 9.23196399,12.7140709 C10.7527911,12.1123201 12.3772866,11.8114492 14.1054992,11.8114492 Z M93.9748486,14.3577887 C93.9928772,14.5389329 94.0777185,14.6567006 94.2293726,14.7110916 C94.3810267,14.7654826 94.5392103,14.7292219 94.7039235,14.6023095 L93.9199982,15.581348 L93.9748486,14.3577887 Z M102.788718,11.8114492 C105.173652,11.8114492 107.316603,12.3272279 109.217637,13.3588007 C111.118671,14.3903735 112.604912,15.8947278 113.676404,17.871909 C114.747896,19.8490902 115.283633,22.2302683 115.283633,25.0155148 L115.283633,37.7037966 C115.283633,38.0400128 115.283115,38.0400128 115.282077,37.7037966 C115.20655,39.4574614 114.324817,40.3342939 112.636876,40.3342939 C110.948936,40.3342939 110.06842,39.4574614 109.995329,37.7037966 L109.995329,25.0155148 C109.995329,22.2302683 109.243568,20.1241721 107.740023,18.6971631 C106.236478,17.2701541 104.240422,16.5566603 101.751796,16.5566603 C100.300097,16.5566603 99.1076497,17.123763 97.915183,17.7083209 C96.7227162,18.2928788 95.7412764,19.16996 95.0672735,20.1671469 C94.3932705,21.1643339 93.9748778,22.1696632 93.9748778,23.4075506 L93.9748778,37.7037966 C93.9065995,39.4357294 93.0316857,40.3016958 91.3501362,40.3016958 C89.6685867,40.3016958 88.7807325,39.4357294 88.6865734,37.7037966 L88.6865734,2.60937389 C88.7231599,0.869791298 89.604544,3.20581298e-16 91.3307257,0 C93.0569074,0 93.9382914,0.869791298 93.9748778,2.60937389 L93.9748778,15.2672008 C95.080934,14.1668565 96.3943557,13.3158217 97.915183,12.7140709 C99.4360101,12.1123201 101.060506,11.8114492 102.788718,11.8114492 Z M163.418279,11.7598709 C164.608992,11.7598709 165.766636,11.9698421 167.388614,12.3897845 C168.120792,12.5793508 169.434665,13.1044735 168.968406,15.0894764 C168.502147,17.0744794 166.603937,16.7572431 166.373508,16.7113954 C164.990938,16.4706951 163.867617,16.3503468 163.00351,16.3503468 C160.514884,16.3503468 158.772857,17.2859945 157.252031,18.4207246 C155.731202,19.5554547 155.066314,20.9650236 154.708131,23.1022347 L154.708131,37.7037966 C154.707391,39.4548425 153.828182,40.3303655 152.070504,40.3303655 C150.312827,40.3303655 149.463832,39.4548425 149.523519,37.7037966 L149.523519,14.5114521 C149.515551,12.7166387 150.367953,11.819232 152.080727,11.819232 C153.7935,11.819232 154.669302,12.6730468 154.708131,14.3806763 C154.708131,14.5125679 154.708131,14.6017625 154.708131,14.6482602 L154.708131,15.6282494 C155.745059,14.4247479 157.023917,13.4791537 158.544744,12.7914385 C160.065572,12.1037233 161.690066,11.7598709 163.418279,11.7598709 Z" id="Hashora" fill="#35385B" fill-rule="nonzero"></path>
                                </g>
                                <g id="Group-17" transform="translate(0.782142, 0.208017)">
                                    <g id="Group-15" transform="translate(0.015154, 0.000000)">
                                        <mask id="mask-8" fill="white">
                                            <use xlink:href="#path-7"></use>
                                        </mask>
                                        <g id="Combined-Shape" fill-rule="nonzero"></g>
                                        <rect id="Rectangle" fill="url(#linearGradient-9)" fill-rule="nonzero" mask="url(#mask-8)" x="-3.54615275" y="-2.33371968" width="46.2818397" height="45.1286831"></rect>
                                        <path d="M-41.705181,-2.33371968 L-0.532035444,29.7810241 C8.56947528,31.7490063 13.9650196,30.8234885 15.6545974,27.0044706 C17.0077902,23.9457968 11.6836415,17.3987241 14.2603835,6.95887441 C15.9782115,-0.00102542007 22.767427,-2.90660581 34.62803,-1.75786677 L-41.705181,-2.33371968 Z" id="Path-5" fill="url(#linearGradient-10)" fill-rule="nonzero" mask="url(#mask-8)"></path>
                                        <path d="M3.53099825,1.93196257 C18.0164318,7.21506767 26.2200672,11.3423236 28.1419045,14.3137304 C34.2717161,23.791205 21.0041355,31.9530142 30.9000233,39.3784859 C37.4972818,44.3288004 42.9377469,39.7498598 47.2214186,25.6416641 L47.2214186,3.88688724 C39.2437252,2.68175158 32.6111062,1.96088835 27.3235616,1.72429756 C22.0360169,1.48770676 14.1051625,1.55692843 3.53099825,1.93196257 Z" id="Path-5" fill="url(#linearGradient-11)" fill-rule="nonzero" mask="url(#mask-8)" transform="translate(25.376208, 21.447110) scale(1, -1) translate(-25.376208, -21.447110) "></path>
                                    </g>
                                    <g id="Group-19" transform="translate(29.778590, 15.578337)"></g>
                                </g>
                            </g>
                        </g>
                    </g>
                </g>
            </g>
        </g>
    </g>
</svg>