<?xml version="1.0" encoding="UTF-8"?>
<svg width="223px" height="69px" viewBox="0 0 223 69" version="1.1" xmlns="http://www.w3.org/2000/svg" xmlns:xlink="http://www.w3.org/1999/xlink">
    <!-- Generator: sketchtool 52.6 (67491) - http://www.bohemiancoding.com/sketch -->
    <title>5576158D-2640-484B-AF49-04AA0C9414D0</title>
    <desc>Created with sketchtool.</desc>
    <g id="Palmspire-Website-Design-" stroke="none" stroke-width="1" fill="none" fill-rule="evenodd">
        <g id="clients-using-template" transform="translate(-299.000000, -1406.000000)">
            <g id="Group-6" transform="translate(229.000000, 197.000000)">
                <g id="Group-4" transform="translate(0.000000, 139.000000)">
                    <g id="Group-2" transform="translate(0.000000, 994.000000)">
                        <g id="Artboard-1" transform="translate(70.000000, 76.000000)">
                            <path d="M68.21,20.64 L68.21,15.27 L61.05,15.27 L61.05,20.64 L68.21,20.64 Z M59.26,23.32 L68.21,23.32 L68.21,46.57 L62,46.57 L62,26.9 L59.26,26.9 L59.26,23.32 Z" id="Shape" fill="#666666" fill-rule="nonzero"></path>
                            <path d="M94.14,46.57 L94.14,31.65 C94.2756046,29.3810267 93.5627554,27.1426803 92.14,25.37 C90.6824485,23.7994812 88.598899,22.9631268 86.46,23.09 C85.0465329,23.0586804 83.6552009,23.444775 82.46,24.2 C81.9300594,24.5404014 81.440285,24.939601 81,25.39 C80.5672606,25.8268916 80.1630917,26.2911848 79.79,26.78 L79.79,23.32 L73.57,23.32 L73.57,46.57 L79.83,46.57 L79.83,33.71 C79.7373481,32.4427315 80.1306549,31.1877253 80.93,30.2 C81.7137754,29.3935459 82.8068384,28.9636078 83.93,29.02 C85.0339263,28.9557363 86.1087327,29.3885934 86.86,30.2 C87.6064587,31.2107545 87.9616877,32.4576084 87.86,33.71 L87.86,46.57 L94.14,46.57 Z" id="Path" fill="#666666"></path>
                            <path d="M112.92,45.64 L112.92,40.33 C111.927091,40.873868 110.812088,41.1560599 109.68,41.15 C108.26,41.15 107.56,40.41 107.56,38.9 L107.56,28.69 L112.92,28.69 L112.92,24.21 L107.56,24.21 L107.56,16.06 L97.85,28.69 L101.3,28.69 L101.3,40.05 C101.26644,41.1793936 101.428842,42.3060612 101.78,43.38 C102.053496,44.1875966 102.516402,44.917961 103.13,45.51 C103.707503,46.0604239 104.416909,46.4530077 105.19,46.65 C106.065105,46.875496 106.966405,46.9831139 107.87,46.97 C109.628656,47.0063446 111.361827,46.5453209 112.87,45.64 L112.92,45.64 Z" id="Path" fill="#666666"></path>
                            <path d="M140.65,36 L140.65,35.92 C140.660729,34.3236415 140.441822,32.7340368 140,31.2 C139.600056,29.7491938 138.920679,28.3904388 138,27.2 C137.064196,26.0270805 135.87881,25.0774048 134.53,24.42 C132.986768,23.707895 131.298732,23.3654942 129.6,23.42 C126.515916,23.3811064 123.563157,24.6663396 121.49,26.95 C120.475256,28.0638709 119.687244,29.3647713 119.17,30.78 C118.614415,32.2635832 118.333175,33.8358133 118.34,35.42 L118.34,35.51 C118.318777,37.1658864 118.621101,38.8099831 119.23,40.35 C119.802057,41.75626 120.64853,43.0344683 121.72,44.11 C122.795108,45.1816447 124.082752,46.0162287 125.5,46.56 C127.010797,47.145974 128.619644,47.4378746 130.24,47.42 C132.104124,47.4647096 133.953019,47.0743874 135.64,46.28 C137.160436,45.5279241 138.49567,44.4488089 139.55,43.12 L135.85,39.81 C135.076586,40.551101 134.188466,41.1623166 133.22,41.62 C132.305514,42.003708 131.32162,42.1943589 130.33,42.18 C129.000536,42.2253408 127.696476,41.8083245 126.64,41 C125.610444,40.1426658 124.925086,38.9424013 124.71,37.62 L140.56,37.62 C140.56,37.3 140.61,37.03 140.63,36.8 C140.65,36.57 140.63,36.3 140.63,35.98 L140.65,36 Z M134.18,33.17 L124.33,33.17 C124.513621,31.8357724 125.095668,30.58803 126,29.59 C126.869059,28.6902897 128.079987,28.2030093 129.33,28.25 C130.581254,28.2019589 131.792039,28.6979428 132.65,29.61 C133.52074,30.6039335 134.05916,31.8450961 134.19,33.16 L134.18,33.17 Z" id="Shape" fill="#666666" fill-rule="nonzero"></path>
                            <polygon id="Path" fill="#00C18B" points="154.47 14.37 143.43 46.56 144.41 46.56 147.92 46.56 148.89 46.56 159.94 14.37 158.96 14.37 155.45 14.37 154.47 14.37"></polygon>
                            <path d="M182.68,29.58 L182.68,22.42 L175.53,22.42 L175.53,29.58 L182.68,29.58 Z M182.68,46.58 L182.68,39.42 L175.53,39.42 L175.53,46.57 L182.68,46.58 Z" id="Shape" fill="#00C18B" fill-rule="nonzero"></path>
                            <path d="M206.51,39.37 L206.51,39.28 C206.537453,38.3146893 206.309795,37.3592155 205.85,36.51 C205.418383,35.7682797 204.852002,35.1137188 204.18,34.58 C203.48094,34.0395979 202.714499,33.5925072 201.9,33.25 C201.05,32.88 200.22,32.57 199.4,32.25 C198.76,32.05 198.15,31.84 197.58,31.64 C197.063698,31.4586602 196.559362,31.2449017 196.07,31 C195.68352,30.8212189 195.326178,30.5852379 195.01,30.3 C194.765462,30.0847047 194.623723,29.7757868 194.62,29.45 L194.62,29.36 C194.618614,28.8961566 194.847057,28.4617393 195.23,28.2 C195.781955,27.8535913 196.430084,27.6924348 197.08,27.74 C198.086338,27.7687776 199.080477,27.9682817 200.02,28.33 C201.206065,28.75875 202.350762,29.2942807 203.44,29.93 L205.98,25.33 C204.670323,24.4690559 203.246484,23.7958461 201.75,23.33 C200.282407,22.8579941 198.751583,22.6118485 197.21,22.6 C196.071787,22.5942312 194.93916,22.759406 193.85,23.09 C192.855185,23.3858316 191.930131,23.8789672 191.13,24.54 C190.355993,25.1790595 189.728473,25.9771016 189.29,26.88 C188.822093,27.8737005 188.589409,28.9618408 188.61,30.06 L188.61,30.15 C188.578633,31.1516646 188.798662,32.145232 189.25,33.04 C189.654856,33.8113322 190.212917,34.491894 190.89,35.04 C191.575474,35.5870657 192.336749,36.0317041 193.15,36.36 C193.961289,36.6863579 194.789086,36.9700784 195.63,37.21 C196.27,37.42 196.89,37.61 197.47,37.78 C198.05,37.95 198.57,38.14 199.03,38.33 C199.426809,38.4862756 199.790018,38.7170997 200.1,39.01 C200.35697,39.2466335 200.502208,39.5806805 200.5,39.93 L200.5,40.02 C200.504752,40.5315982 200.24842,41.0103363 199.82,41.29 C199.17289,41.6565983 198.431804,41.8236037 197.69,41.77 C196.467893,41.7503347 195.259041,41.5133049 194.12,41.07 C192.749155,40.5507092 191.456869,39.8439901 190.28,38.97 L187.43,43.35 C190.290848,45.6602065 193.843248,46.9452671 197.52,47 C198.711903,47.0045801 199.899074,46.8498779 201.05,46.54 C202.084872,46.2594145 203.05823,45.7879973 203.92,45.15 C204.738408,44.5378919 205.394226,43.7344289 205.83,42.81 C206.30565,41.7410066 206.537911,40.5797056 206.51,39.41 L206.51,39.37 Z" id="Path" fill="#666666"></path>
                            <polygon id="Path" fill="#00C18B" points="166.26 14.37 155.22 46.56 156.19 46.56 159.7 46.56 160.68 46.56 171.72 14.37 170.75 14.37 167.24 14.37 166.26 14.37"></polygon>
                            <polygon id="Bracket_Right" fill="#00C18B" points="54.79 54.62 54.79 50.15 49.43 50.15 49.43 17.95 54.79 17.95 54.79 12.59 43.17 12.59 43.17 54.62 54.79 54.62"></polygon>
                            <polygon id="Bracket_left" fill="#00C18B" points="222.03 54.62 222.03 12.59 210.41 12.59 210.41 17.95 215.77 17.95 215.77 50.15 210.41 50.15 210.41 54.62 222.03 54.62"></polygon>
                            <path d="M25.16,24.31 L25.16,15.58 L32.87,11 L32.87,19.93 L25.16,24.31 Z M20.81,41 L13.13,45.44 L12,44.83 L5,40.76 L12.77,36.37 L20.81,41 Z M16.15,47.18 L23.84,42.75 L32.26,47.61 L24.57,52.05 L16.15,47.18 Z M14.33,20.77 L22,25.2 L22,15.58 L14.34,11 L14.34,20.74 L14.33,20.77 Z M22,28.69 L14.32,24.25 L14.32,33.65 C16.8933333,35.1166667 19.4633333,36.5966667 22.03,38.09 L22.03,28.69 L22,28.69 Z M22.88,63.81 L15,59.41 L15.06,50.23 L22.84,54.79 L22.84,63.79 L22.88,63.81 Z M11.93,61.25 L24.42,68.25 L37,61.16 L37,46.73 L25.16,39.91 L25.16,27.91 L36.07,21.75 L36.07,7.35 L23.58,0 L11.11,7.36 L11.11,21 L0,27.24 L0,41.65 L11.88,48.43 L11.93,61.25 Z M33.84,50.36 L33.84,59.36 L26.08,63.81 L26.08,54.81 L33.82,50.36 L33.84,50.36 Z M3.21,29.06 L3.21,38.06 L11.04,33.65 L11.04,24.56 L3.21,29.06 Z M23.58,12.86 L15.84,8.26 L23.58,3.66 L31.32,8.26 L23.58,12.86 Z" id="Shape" fill="#00C18B"></path>
                        </g>
                    </g>
                </g>
            </g>
        </g>
    </g>
</svg>