<?xml version="1.0" encoding="UTF-8"?>
<svg width="632px" height="497px" viewBox="0 0 632 497" version="1.1" xmlns="http://www.w3.org/2000/svg" xmlns:xlink="http://www.w3.org/1999/xlink">
    <!-- Generator: Sketch 53 (72520) - https://sketchapp.com -->
    <title>palmspire-icon</title>
    <desc>Created with Sketch.</desc>
    <defs>
        <linearGradient x1="50%" y1="-1.11022302e-14%" x2="50%" y2="100%" id="linearGradient-1">
            <stop stop-color="#FF2380" offset="0%"></stop>
            <stop stop-color="#FF7C5C" offset="100%"></stop>
        </linearGradient>
        <linearGradient x1="50%" y1="-1.11022302e-14%" x2="50%" y2="100%" id="linearGradient-2">
            <stop stop-color="#FF2380" offset="0%"></stop>
            <stop stop-color="#FF7C5C" offset="100%"></stop>
        </linearGradient>
        <path d="M79.6360296,318.253146 L76.5760893,547.60523 L0.080360526,542.223142 L0.425672143,8.61993002 L90.9231998,0.640657116 C137.195623,2.55509975 173.57429,3.75786952 197.605158,9.99238793 C221.878762,16.2269063 243.239213,28.0030422 261.687152,45.3211489 C293.971047,75.3392007 310.112752,113.207559 310.112752,158.927362 C310.112752,207.879877 292.878751,246.671854 258.410234,275.304457 C223.941716,303.93706 177.45846,318.253146 118.959074,318.253146 L79.6360296,318.253146 Z M79.6360296,243.439299 L111.312925,243.439299 C189.231196,243.439299 228.189746,214.922578 228.189746,157.88828 C228.189746,102.701246 188.017533,75.1081436 107.671904,75.1081436 L79.6360296,75.1081436 L79.6360296,243.439299 Z" id="path-3"></path>
        <path d="M79.6360296,318.253146 L76.5760893,547.60523 L0.080360526,542.223142 L0.425672143,8.61993002 L90.9231998,0.640657116 C137.195623,2.55509975 173.57429,3.75786952 197.605158,9.99238793 C221.878762,16.2269063 243.239213,28.0030422 261.687152,45.3211489 C293.971047,75.3392007 310.112752,113.207559 310.112752,158.927362 C310.112752,207.879877 292.878751,246.671854 258.410234,275.304457 C223.941716,303.93706 177.45846,318.253146 118.959074,318.253146 L79.6360296,318.253146 Z M79.6360296,243.439299 L111.312925,243.439299 C189.231196,243.439299 228.189746,214.922578 228.189746,157.88828 C228.189746,102.701246 188.017533,75.1081436 107.671904,75.1081436 L79.6360296,75.1081436 L79.6360296,243.439299 Z" id="path-5"></path>
        <linearGradient x1="50%" y1="-1.11022302e-14%" x2="50%" y2="100%" id="linearGradient-7">
            <stop stop-color="#FF2380" offset="0%"></stop>
            <stop stop-color="#FF7C5C" offset="100%"></stop>
        </linearGradient>
    </defs>
    <g id="Palmspire-Website-Design-" stroke="none" stroke-width="1" fill="none" fill-rule="evenodd" opacity="0.0324590774">
        <g id="Template-Marketplace" transform="translate(-681.000000, -352.000000)">
            <g id="palmspire-icon" transform="translate(995.037667, 597.457107) rotate(3.000000) translate(-995.037667, -597.457107) translate(623.037667, 223.957107)">
                <g id="Path-13" transform="translate(0.802601, 0.387364)">
                    <g id="Mask" transform="translate(274.676058, 315.789316) rotate(-149.000000) translate(-274.676058, -315.789316) translate(119.176058, 41.789316)" fill="url(#linearGradient-2)" fill-rule="nonzero">
                        <path d="M79.6360296,318.253146 L76.5760893,547.60523 L0.080360526,542.223142 L0.425672143,8.61993002 L90.9231998,0.640657116 C137.195623,2.55509975 173.57429,3.75786952 197.605158,9.99238793 C221.878762,16.2269063 243.239213,28.0030422 261.687152,45.3211489 C293.971047,75.3392007 310.112752,113.207559 310.112752,158.927362 C310.112752,207.879877 292.878751,246.671854 258.410234,275.304457 C223.941716,303.93706 177.45846,318.253146 118.959074,318.253146 L79.6360296,318.253146 Z M79.6360296,243.439299 L111.312925,243.439299 C189.231196,243.439299 228.189746,214.922578 228.189746,157.88828 C228.189746,102.701246 188.017533,75.1081436 107.671904,75.1081436 L79.6360296,75.1081436 L79.6360296,243.439299 Z" id="path-2"></path>
                    </g>
                    <g id="Clipped" transform="translate(119.996174, 41.770437)">
                        <mask id="mask-4" fill="white">
                            <use xlink:href="#path-3"></use>
                        </mask>
                        <g id="path-2"></g>
                    </g>
                    <g id="Path-13-Copy-Clipped" transform="translate(119.996174, 41.770437)">
                        <mask id="mask-6" fill="white">
                            <use xlink:href="#path-5"></use>
                        </mask>
                        <g id="path-2"></g>
                    </g>
                </g>
                <path d="M401.584719,470.866846 L399.860774,706.33922 L317.325702,706.33922 L319.049649,162.115151 L412.56578,162.115151 C458.379468,162.115151 492.975367,165.145399 516.354517,171.205986 C539.969819,177.266573 560.750974,188.714177 578.698603,205.549142 C610.106957,234.729746 625.810898,271.541647 625.810898,315.985952 C625.810898,363.572785 609.044285,401.282538 575.510555,429.116345 C541.976825,456.950153 496.754197,470.866846 439.841319,470.866846 L401.584719,470.866846 Z M401.584719,398.140167 L432.402535,398.140167 C508.207657,398.140167 546.10965,370.419008 546.10965,314.975859 C546.10965,261.328442 507.02691,234.505135 428.860257,234.505135 L401.584719,234.505135 L401.584719,398.140167 Z" id="P-Copy-6" fill="url(#linearGradient-7)" fill-rule="nonzero" transform="translate(471.568300, 434.227186) rotate(31.000000) translate(-471.568300, -434.227186) "></path>
            </g>
        </g>
    </g>
</svg>