<?xml version="1.0" encoding="UTF-8"?>
<svg width="474px" height="307px" viewBox="0 0 474 307" version="1.1" xmlns="http://www.w3.org/2000/svg" xmlns:xlink="http://www.w3.org/1999/xlink">
    <!-- Generator: sketchtool 52.6 (67491) - http://www.bohemiancoding.com/sketch -->
    <title>902CA672-8B4A-4BE7-8BFB-ACA723B54F5F</title>
    <desc>Created with sketchtool.</desc>
    <defs>
        <filter x="-9.0%" y="-14.6%" width="118.0%" height="129.2%" filterUnits="objectBoundingBox" id="filter-1">
            <feOffset dx="0" dy="0" in="SourceAlpha" result="shadowOffsetOuter1"></feOffset>
            <feGaussianBlur stdDeviation="10" in="shadowOffsetOuter1" result="shadowBlurOuter1"></feGaussianBlur>
            <feColorMatrix values="0 0 0 0 0   0 0 0 0 0   0 0 0 0 0  0 0 0 0.204059103 0" type="matrix" in="shadowBlurOuter1" result="shadowMatrixOuter1"></feColorMatrix>
            <feMerge>
                <feMergeNode in="shadowMatrixOuter1"></feMergeNode>
                <feMergeNode in="SourceGraphic"></feMergeNode>
            </feMerge>
        </filter>
        <rect id="path-2" x="0" y="0" width="434" height="267" rx="3"></rect>
        <path d="M240.033485,155.066871 C238.060095,156.079158 236.303249,156.754839 234.652778,156.754839 C233.217585,156.754839 232.212966,156.393313 231.638889,155.670251 C231.064812,154.947189 230.777778,154.043375 230.777778,152.958781 C230.777778,151.946494 231.082752,150.590773 231.692708,148.891577 C232.302665,147.192381 233.217586,145.366676 234.4375,143.414409 C233.504625,144.643614 232.428247,145.945107 231.208333,147.318925 C229.98842,148.692743 228.732645,149.940006 227.440972,151.060753 C226.149299,152.181499 224.857645,153.121466 223.565972,153.880681 C222.274299,154.639896 221.126162,155.019498 220.121528,155.019498 C218.614576,155.019498 217.861111,154.260294 217.861111,152.741864 C217.861111,151.078821 218.506938,148.981972 219.798611,146.451254 C221.090284,143.920537 222.830429,141.480239 225.019097,139.130287 C227.207766,136.780335 229.701375,134.755791 232.5,133.056595 C235.298625,131.357399 238.204846,130.507814 241.21875,130.507814 C241.577548,129.784751 241.900462,129.278616 242.1875,128.989391 C242.474538,128.700166 242.761573,128.48325 243.048611,128.338638 L246.0625,127.470968 L246.277778,127.579427 C245.91898,127.940958 245.578127,128.392865 245.255208,128.935161 C244.93229,129.477458 244.591437,130.037823 244.232639,130.616272 C244.591437,130.616272 245.129626,130.652425 245.847222,130.724731 C246.564818,130.797037 247.103007,130.869343 247.461806,130.941649 C247.820604,131.086261 248,131.267024 248,131.483943 C248,131.700861 247.892362,131.809319 247.677083,131.809319 C247.246526,131.664707 246.600699,131.556249 245.739583,131.483943 C244.878468,131.411636 244.232641,131.375484 243.802083,131.375484 C240.501141,137.232287 238.07929,141.877892 236.536458,145.312437 C234.993627,148.746983 234.222222,151.295738 234.222222,152.958781 C234.222222,153.609537 234.383679,154.151826 234.706597,154.585663 C235.029516,155.0195 235.693282,155.236416 236.697917,155.236416 C237.846071,155.236416 238.850687,154.712202 240.429398,153.880681 C241.292095,153.426291 242.320216,152.73369 243.299769,151.897588 C243.79196,151.477475 244.716603,150.614961 245.675247,149.810385 C245.739923,149.756104 245.805908,149.756104 245.873204,149.810385 C244.869835,150.969945 244.111002,151.806566 243.596703,152.320247 C242.804877,153.111124 240.646069,154.752635 240.033485,155.066871 Z M241.002235,130.054839 C238.534364,130.054839 236.175405,130.91612 233.925287,132.63871 C231.67517,134.361299 229.679127,136.3889 227.937101,138.721573 C226.195074,141.054246 224.797845,143.36894 223.74537,145.665726 C222.692896,147.962511 222.166667,149.649188 222.166667,150.725806 C222.166667,151.300003 222.384417,151.587097 222.819923,151.587097 C223.25543,151.587097 223.926826,151.300003 224.834132,150.725806 C225.741437,150.15161 226.77575,149.380045 227.937101,148.411089 C229.098452,147.442132 230.277931,146.3117 231.475575,145.019758 C232.673218,143.727816 233.780114,142.328233 234.796296,140.820968 C235.957647,139.098378 237.082689,137.268155 238.171456,135.330242 C239.260223,133.392329 240.240098,131.669766 241.111111,130.1625 L241.002235,130.054839 Z M270.172374,155.066871 C268.198984,156.079158 266.442138,156.754839 264.791667,156.754839 C263.356474,156.754839 262.351855,156.393313 261.777778,155.670251 C261.203701,154.947189 260.916667,154.043375 260.916667,152.958781 C260.916667,151.946494 261.22164,150.590773 261.831597,148.891577 C262.441554,147.192381 263.356475,145.366676 264.576389,143.414409 C263.643514,144.643614 262.567136,145.945107 261.347222,147.318925 C260.127309,148.692743 258.871534,149.940006 257.579861,151.060753 C256.288188,152.181499 254.996534,153.121466 253.704861,153.880681 C252.413188,154.639896 251.265051,155.019498 250.260417,155.019498 C248.753465,155.019498 248,154.260294 248,152.741864 C248,151.078821 248.645827,148.981972 249.9375,146.451254 C251.229173,143.920537 252.969318,141.480239 255.157986,139.130287 C257.346654,136.780335 259.840264,134.755791 262.638889,133.056595 C265.437514,131.357399 268.343735,130.507814 271.357639,130.507814 C271.716437,129.784751 272.03935,129.278616 272.326389,128.989391 C272.613427,128.700166 272.900462,128.48325 273.1875,128.338638 L276.201389,127.470968 L276.416667,127.579427 C276.057869,127.940958 275.717016,128.392865 275.394097,128.935161 C275.071179,129.477458 274.730326,130.037823 274.371528,130.616272 C274.730326,130.616272 275.268515,130.652425 275.986111,130.724731 C276.703707,130.797037 277.241896,130.869343 277.600694,130.941649 C277.959493,131.086261 278.138889,131.267024 278.138889,131.483943 C278.138889,131.700861 278.031251,131.809319 277.815972,131.809319 C277.385415,131.664707 276.739588,131.556249 275.878472,131.483943 C275.017357,131.411636 274.37153,131.375484 273.940972,131.375484 C270.64003,137.232287 268.218179,141.877892 266.675347,145.312437 C265.132515,148.746983 264.361111,151.295738 264.361111,152.958781 C264.361111,153.609537 264.522568,154.151826 264.845486,154.585663 C265.168404,155.0195 265.832171,155.236416 266.836806,155.236416 C267.984959,155.236416 268.989575,154.712202 270.568287,153.880681 C271.430984,153.426291 272.459105,152.73369 273.438657,151.897588 C273.930849,151.477475 274.855492,150.614961 275.814136,149.810385 C275.878811,149.756104 275.944797,149.756104 276.012093,149.810385 C275.008724,150.969945 274.249891,151.806566 273.735592,152.320247 C272.943766,153.111124 270.784958,154.752635 270.172374,155.066871 Z M270.280013,130.054839 C267.812142,130.054839 265.453183,130.91612 263.203065,132.63871 C260.952947,134.361299 258.956905,136.3889 257.214879,138.721573 C255.472852,141.054246 254.075623,143.36894 253.023148,145.665726 C251.970674,147.962511 251.444444,149.649188 251.444444,150.725806 C251.444444,151.300003 251.662195,151.587097 252.097701,151.587097 C252.533208,151.587097 253.204604,151.300003 254.111909,150.725806 C255.019215,150.15161 256.053528,149.380045 257.214879,148.411089 C258.37623,147.442132 259.555709,146.3117 260.753352,145.019758 C261.950996,143.727816 263.057892,142.328233 264.074074,140.820968 C265.235425,139.098378 266.360467,137.268155 267.449234,135.330242 C268.538,133.392329 269.517876,131.669766 270.388889,130.1625 L270.280013,130.054839 Z M318.394596,155.066871 C316.421207,156.079158 314.66436,156.754839 313.013889,156.754839 C311.578697,156.754839 310.574077,156.393313 310,155.670251 C309.425923,154.947189 309.138889,154.043375 309.138889,152.958781 C309.138889,151.946494 309.443863,150.590773 310.053819,148.891577 C310.663776,147.192381 311.578698,145.366676 312.798611,143.414409 C311.865736,144.643614 310.789358,145.945107 309.569444,147.318925 C308.349531,148.692743 307.093756,149.940006 305.802083,151.060753 C304.51041,152.181499 303.218756,153.121466 301.927083,153.880681 C300.63541,154.639896 299.487274,155.019498 298.482639,155.019498 C296.975687,155.019498 296.222222,154.260294 296.222222,152.741864 C296.222222,151.078821 296.868049,148.981972 298.159722,146.451254 C299.451395,143.920537 301.19154,141.480239 303.380208,139.130287 C305.568877,136.780335 308.062486,134.755791 310.861111,133.056595 C313.659736,131.357399 316.565957,130.507814 319.579861,130.507814 C319.938659,129.784751 320.261573,129.278616 320.548611,128.989391 C320.83565,128.700166 321.122684,128.48325 321.409722,128.338638 L324.423611,127.470968 L324.638889,127.579427 C324.280091,127.940958 323.939238,128.392865 323.616319,128.935161 C323.293401,129.477458 322.952548,130.037823 322.59375,130.616272 C322.952548,130.616272 323.490737,130.652425 324.208333,130.724731 C324.92593,130.797037 325.464119,130.869343 325.822917,130.941649 C326.181715,131.086261 326.361111,131.267024 326.361111,131.483943 C326.361111,131.700861 326.253473,131.809319 326.038194,131.809319 C325.607637,131.664707 324.96181,131.556249 324.100694,131.483943 C323.239579,131.411636 322.593752,131.375484 322.163194,131.375484 C318.862252,137.232287 316.440401,141.877892 314.897569,145.312437 C313.354738,148.746983 312.583333,151.295738 312.583333,152.958781 C312.583333,153.609537 312.74479,154.151826 313.067708,154.585663 C313.390627,155.0195 314.054393,155.236416 315.059028,155.236416 C316.207182,155.236416 317.211798,154.712202 318.790509,153.880681 C319.653207,153.426291 320.681327,152.73369 321.66088,151.897588 C322.153071,151.477475 323.077715,150.614961 324.036359,149.810385 C324.101034,149.756104 324.167019,149.756104 324.234315,149.810385 C323.230947,150.969945 322.472113,151.806566 321.957814,152.320247 C321.165988,153.111124 319.00718,154.752635 318.394596,155.066871 Z M319.363346,130.054839 C316.895475,130.054839 314.536516,130.91612 312.286398,132.63871 C310.036281,134.361299 308.040239,136.3889 306.298212,138.721573 C304.556185,141.054246 303.158956,143.36894 302.106481,145.665726 C301.054007,147.962511 300.527778,149.649188 300.527778,150.725806 C300.527778,151.300003 300.745528,151.587097 301.181034,151.587097 C301.616541,151.587097 302.287937,151.300003 303.195243,150.725806 C304.102548,150.15161 305.136861,149.380045 306.298212,148.411089 C307.459563,147.442132 308.639043,146.3117 309.836686,145.019758 C311.034329,143.727816 312.141225,142.328233 313.157407,140.820968 C314.318758,139.098378 315.4438,137.268155 316.532567,135.330242 C317.621334,133.392329 318.601209,131.669766 319.472222,130.1625 L319.363346,130.054839 Z M305.694444,124.282093 C305.694444,124.937517 305.512065,125.592931 305.147301,126.248356 C301.499663,133.021072 298.216837,139.010832 295.298727,144.217813 C292.380616,149.424794 289.608452,154.231166 286.982152,158.637073 C284.355853,163.04298 281.766068,167.303174 279.212721,171.417781 C276.659374,175.532389 273.960162,179.920024 271.115004,184.580818 C268.780515,188.294889 266.245445,191.772226 263.509716,195.012935 C260.773987,198.253643 257.746492,201.05736 254.427141,203.42417 C251.10779,205.79098 247.496682,207.647987 243.593709,208.995248 C239.690736,210.342509 235.404825,211.016129 230.735847,211.016129 C227.307067,211.016129 224.480189,210.56098 222.25513,209.650669 C220.03007,208.740357 218.27923,207.520558 217.002557,205.991235 C215.725883,204.461912 214.832225,202.71414 214.321556,200.747868 C213.810886,198.781595 213.555556,196.742528 213.555556,194.630606 C213.555556,193.756707 213.628507,192.828203 213.774413,191.845067 C213.920318,190.861931 214.102698,190.079075 214.321556,189.496475 C214.394509,189.205176 214.540412,189.059528 214.75927,189.059528 C214.978129,189.059528 215.087556,189.241587 215.087556,189.605712 C214.941651,190.115486 214.795747,190.716283 214.649842,191.40812 C214.503936,192.099956 214.430984,192.8464 214.430984,193.647474 C214.430984,196.196346 214.978122,198.399267 216.072414,200.256302 C217.166705,202.113337 218.680452,203.642638 220.613701,204.844249 C222.546949,206.04586 224.826689,206.956157 227.452989,207.575169 C230.079289,208.194181 232.887928,208.503682 235.878992,208.503682 C239.015961,208.503682 242.171121,207.993915 245.344567,206.974367 C248.518012,205.954818 251.673172,204.261664 254.810141,201.894854 C257.94711,199.528045 261.029319,196.451238 264.056859,192.664343 C267.084399,188.877448 270.057179,184.216723 272.97529,178.68203 C274.872062,175.186434 276.878233,171.472419 278.993864,167.539874 C281.109494,163.607329 283.152141,159.838696 285.121866,156.233863 C287.091591,152.62903 288.860669,149.38837 290.429153,146.511786 C291.997638,143.635202 293.146627,141.541517 293.876155,140.230669 C292.417099,142.196941 290.994542,144.053949 289.608439,145.801747 C288.222336,147.549545 286.927444,149.078845 285.723723,150.389693 C284.520003,151.700542 283.371014,152.738281 282.276722,153.502943 C281.182431,154.267604 280.197583,154.649929 279.32215,154.649929 C278.665575,154.649929 278.118437,154.431458 277.680721,153.994508 C277.243004,153.557559 277.024149,152.865733 277.024149,151.919009 C277.024149,150.826635 277.480097,149.279129 278.392006,147.276444 C279.303916,145.273759 280.507619,143.180074 282.003151,140.995327 C283.498682,138.810579 285.194809,136.7351 287.091581,134.768828 C288.988353,132.802555 290.921572,131.346079 292.891297,130.399355 C294.642164,129.525456 296.393004,129.088513 298.14387,129.088513 C298.65454,129.088513 299.055774,129.124925 299.347585,129.19775 C299.931207,128.178201 300.533059,127.158668 301.153157,126.139119 C301.773256,125.11957 302.411583,124.027213 303.068158,122.862014 C303.578827,121.91529 304.053013,121.441935 304.49073,121.441935 C304.782541,121.441935 305.05611,121.769643 305.311444,122.425067 C305.566779,123.080491 305.694444,123.699494 305.694444,124.282093 Z M298.805556,130.16414 C298.588923,130.091272 298.300083,130.054839 297.939029,130.054839 L297.180818,130.054839 C296.169865,130.054839 295.213084,130.145922 294.310447,130.328091 C293.407811,130.51026 292.631555,130.892809 291.981656,131.475749 C290.176383,133.005968 288.623871,134.71833 287.324074,136.612887 C286.024277,138.507444 284.941129,140.365539 284.074598,142.187228 C283.208067,144.008917 282.576231,145.666629 282.179071,147.160414 C281.78191,148.654199 281.583333,149.72898 281.583333,150.384788 C281.583333,151.186331 281.799963,151.587097 282.233229,151.587097 C282.666494,151.587097 283.533012,150.967732 284.832809,149.728983 C286.132606,148.490235 287.594856,146.850739 289.219602,144.810447 C290.844348,142.770155 292.523227,140.474861 294.256289,137.924496 C295.989352,135.374132 297.505759,132.787372 298.805556,130.16414 Z M258.333333,72.6853766 L258.064358,73.4909471 C252.505504,71.0742236 246.453617,69.86588 239.908514,69.86588 C232.108187,69.86588 225.204552,71.5217583 219.197404,74.8335645 C219.735357,75.2811059 220.945735,76.2209287 222.828572,77.6530612 C229.911628,83.113066 233.453103,89.1547841 233.453103,95.7783966 C233.453103,103.744633 229.8668,110.144379 222.694085,114.977826 C217.045572,118.737174 209.783307,121.198614 200.907072,122.362222 C202.700251,124.152387 208.550929,129.771659 209.673716,137.668061 C210.796503,145.564462 210.218598,145.959275 211.242316,153.212382 C212.266034,160.465488 214.099263,165.507985 225.508318,168.987889 C236.529009,172.349337 246.051622,162.633792 246.643137,163.201888 C247.847011,164.358099 237.082934,170.883587 229.768305,170.520932 C222.453677,170.158277 215.898581,169.185701 210.796503,162.493061 C205.694426,155.800422 204.052724,140.010599 201.814206,133.563056 C199.575688,127.115513 195.059697,124.108748 191.114704,121.513008 C189.3975,126.705573 189.10665,128.362736 184.675418,137.167539 C181.937397,142.607954 179.342805,146.383101 177.440755,148.591206 C173.762962,152.860787 170.019925,155.674764 162.578069,159.418463 C153.403374,164.033884 142.853251,165.460241 132.990768,165.460241 C120.976471,165.460241 111.293451,162.103731 103.941419,155.390611 C96.2307503,148.229949 92.3754739,138.831721 92.3754739,127.195645 C92.3754739,114.306453 97.0376686,102.939072 106.362198,93.0931617 C115.686727,83.2472513 126.804268,78.3243699 139.715155,78.3243699 C144.108443,78.3243699 148.949953,79.1299323 154.23983,80.7410813 C161.950498,71.7007453 173.964615,67.1806452 190.282542,67.1806452 C200.593319,67.1806452 209.334934,69.3288116 216.507649,73.6252089 C216.776626,73.356684 217.807688,72.9091494 219.600867,72.2825914 C225.518357,69.865868 232.287505,68.6575243 239.908514,68.6575243 C245.826004,68.6575243 251.967549,70.0001284 258.333333,72.6853766 Z M227.185211,95.3029181 C227.185211,86.8907062 221.267039,79.449898 216.516025,76.0492166 C210.061817,79.7183728 202.771877,88.7091847 199.155842,97.1656478 C198.033054,99.7124773 196.009293,104.074726 194.978413,107.699137 C193.947532,111.323547 192.79425,114.674098 191.80819,119.23817 C192.525324,119.327662 193.664817,119.815122 197.075383,119.815122 C200.485949,119.815122 209.987436,117.688643 217.632296,113.040061 C225.277156,108.391479 227.185211,102.372756 227.185211,95.3029181 Z M173.732548,117.518405 C174.180843,115.549067 174.404988,113.669272 174.404988,111.878964 C174.404988,105.523373 172.522174,99.7049609 168.756489,94.4235539 C165.080463,89.5002083 160.283769,85.6063479 154.366264,82.741856 C150.421261,88.8289014 148.448789,94.4682854 148.448789,99.660177 C148.448789,112.997968 153.424798,119.666763 163.376966,119.666763 C167.052991,119.666763 170.504818,118.950651 173.732548,117.518405 Z M82.9308519,120.441527 C82.7547281,120.275797 82.6666667,120.061501 82.6666667,119.798638 C82.7538689,120.014372 82.8419306,120.228668 82.9308519,120.441527 Z M105.417471,130.685843 C111.872556,145.455184 122.317086,152.839743 136.751375,152.839743 C146.434003,152.839743 154.592391,149.52788 161.226784,142.904055 C167.2336,136.906807 171.402447,128.985189 173.73345,119.138963 C170.864523,120.571141 167.412897,121.287219 163.378469,121.287219 C152.440685,121.287219 146.971875,114.08168 146.971875,99.6703842 C146.971875,92.509492 149.033886,86.6018446 153.157968,81.9472647 C147.958038,80.1570416 143.475407,79.2619435 139.709941,79.2619435 C127.337694,79.2619435 116.534553,84.1402282 107.300195,93.8969438 C98.0658363,103.653659 93.4487264,114.752876 93.4487264,127.194926 C93.4487264,138.741865 97.1693101,147.82711 104.610589,154.450936 C111.782906,160.537694 121.241258,163.581027 132.985927,163.581027 C150.737412,163.581027 168.545361,157.269591 176.891886,139.496012 C185.238412,121.722432 185.228412,113.568516 188.904224,105.154468 C194.46277,92.6229064 200.629436,82.6186339 214.346492,74.8311636 C208.608639,70.4451172 200.584729,68.2521268 190.274523,68.2521268 C174.674734,68.2521268 163.06472,72.5933526 155.444133,81.2759344 C159.299253,83.5137132 162.212963,85.482929 164.18535,87.1836409 C172.074899,93.8969773 176.019614,102.310899 176.019614,112.42566 C176.019614,114.126372 175.885136,115.558529 175.616174,116.722174 C178.664408,114.394884 180.367808,111.888609 180.726424,109.203274 L181.398825,111.082999 C180.681594,114.215889 178.66441,116.722164 175.347213,118.601898 C173.374826,128.627147 169.026674,136.906805 162.302627,143.441119 C155.219963,150.5125 146.702965,154.048137 136.751375,154.048137 C121.182618,154.048137 110.196205,146.118459 103.791816,130.258868 C104.084232,130.543519 104.626115,130.685843 105.417471,130.685843 Z" id="path-4"></path>
        <filter x="-1.6%" y="-5.6%" width="104.7%" height="113.9%" filterUnits="objectBoundingBox" id="filter-5">
            <feOffset dx="-2" dy="2" in="SourceAlpha" result="shadowOffsetOuter1"></feOffset>
            <feGaussianBlur stdDeviation="3" in="shadowOffsetOuter1" result="shadowBlurOuter1"></feGaussianBlur>
            <feColorMatrix values="0 0 0 0 0   0 0 0 0 0   0 0 0 0 0  0 0 0 0.172752491 0" type="matrix" in="shadowBlurOuter1"></feColorMatrix>
        </filter>
    </defs>
    <g id="Palmspire-Website-Design-" stroke="none" stroke-width="1" fill="none" fill-rule="evenodd">
        <g id="Design-Portfolio" transform="translate(-847.000000, -3972.000000)">
            <g id="Group-6" transform="translate(229.000000, 3929.000000)">
                <g id="Group-4" transform="translate(638.000000, 62.500000)">
                    <g transform="translate(0.000000, 0.500000)" id="Rectangle-3">
                        <g filter="url(#filter-1)">
                            <mask id="mask-3" fill="white">
                                <use xlink:href="#path-2"></use>
                            </mask>
                            <use id="Rectangle" fill="#FFFFFF" fill-rule="nonzero" xlink:href="#path-2"></use>
                            <g id="Raaga" mask="url(#mask-3)">
                                <use fill="black" fill-opacity="1" filter="url(#filter-5)" xlink:href="#path-4"></use>
                                <use fill="#CA8E1A" fill-rule="evenodd" xlink:href="#path-4"></use>
                            </g>
                        </g>
                    </g>
                </g>
            </g>
        </g>
    </g>
</svg>