<?xml version="1.0" encoding="UTF-8"?>
<svg width="51px" height="73px" viewBox="0 0 51 73" version="1.1" xmlns="http://www.w3.org/2000/svg" xmlns:xlink="http://www.w3.org/1999/xlink">
    <!-- Generator: sketchtool 53 (72520) - https://sketchapp.com -->
    <title>F369873C-2F56-466A-BDFF-8F601A929178</title>
    <desc>Created with sketchtool.</desc>
    <defs>
        <linearGradient x1="61.4612739%" y1="5.8772015%" x2="32.3117198%" y2="95.506042%" id="linearGradient-1">
            <stop stop-color="#F46E4E" offset="0%"></stop>
            <stop stop-color="#F22875" offset="100%"></stop>
        </linearGradient>
        <path d="M39.5316953,45.0974154 C45.7150606,46.2172017 50.2158304,51.543908 50.2429503,57.7736493 C50.2492976,60.285448 49.5066707,62.7434879 48.1073928,64.8377973 C47.8887015,65.1649259 47.5188306,65.3622325 47.1229937,65.3622325 C47.0785631,65.3622325 47.0335553,65.3599449 46.9897016,65.3553696 C46.54828,65.3056142 46.1726388,65.0150872 46.016843,64.6033169 C44.5385132,60.7681343 40.953477,58.1276574 36.8220011,57.8314114 C36.475211,58.8677 36.1278439,59.7781699 35.7735526,60.5851253 C35.5854434,61.011765 35.1607554,61.2874224 34.6910596,61.2874224 L15.428919,61.2874224 C14.9569151,61.2862785 14.5316501,61.0066179 14.3464261,60.5765467 C13.9961739,59.7661599 13.6597701,58.8419644 13.3331759,57.8685851 C9.33556907,58.2814993 5.91036785,60.8842307 4.47012152,64.6033169 C4.31432571,65.0162311 3.93810737,65.3073298 3.49668575,65.3565135 C3.45225512,65.3610887 3.40782448,65.3633764 3.3628167,65.3633764 C2.96697984,65.3633764 2.59710893,65.1660696 2.37899462,64.8389412 C0.0149364736,61.2782719 -0.414944855,56.7882601 1.23014425,52.8501349 C2.87523335,48.9120095 6.3817946,46.0376242 10.5928995,45.1746224 C10.0112616,40.8087134 9.71178727,36.4102061 9.69736176,32.0059798 C9.69736176,20.1881725 14.7786154,9.72863538 19.0508846,3.03622433 C20.3947682,1.06887741 22.664195,-0.0760726769 25.0599893,0.00399373848 C27.4552067,-0.0766446899 29.7246333,1.06830554 31.069094,3.0350806 C35.3407862,9.72863538 40.4226169,20.1881725 40.4226169,32.0059798 C40.4093454,36.3844705 40.1116022,40.7572421 39.5316953,45.0974154 Z M21.047957,4.28697662 C19.6833004,6.42761024 18.4427037,8.64316307 17.3325138,10.9233411 L32.7874649,10.9233411 C31.6790061,8.64373494 30.4401403,6.42761024 29.0777918,4.28697662 C28.1551341,3.009345 26.6439141,2.2795964 25.0599893,2.34650918 C23.4777956,2.28188416 21.9694607,3.01163246 21.047957,4.28697662 Z M3.33108062,61.6048287 C5.37373753,58.330111 8.77412693,56.1185615 12.6182459,55.5649593 C12.5593897,55.3527832 12.5016876,55.1280251 12.4486016,54.9078424 C12.3949384,54.6876597 12.3337742,54.467477 12.2772261,54.2415752 C12.1202762,53.6164851 11.9696734,52.9753817 11.825418,52.3171211 C11.7925278,52.1684263 11.7567524,52.0254504 11.7250162,51.8756118 C11.5565258,51.0635093 11.3932286,50.231962 11.2357017,49.3803983 C11.2005034,49.1802321 11.1670361,48.9754908 11.1329919,48.773037 C11.0597101,48.3498288 10.9829663,47.9306237 10.9154548,47.4994087 C7.89243767,48.1719669 5.31545837,50.1175814 3.85790146,52.8278306 C2.40092138,55.5375079 2.20819618,58.7430252 3.33108062,61.6048287 Z M33.904002,58.944907 C34.220787,58.1591121 34.5341097,57.2726621 34.8503177,56.2558183 C35.2986636,54.7848832 35.7118112,53.1578187 36.080528,51.4232364 C36.186123,50.9302559 36.2790235,50.4103958 36.3759631,49.9008302 C36.6206204,48.6180514 36.8502751,47.3049617 37.0424233,45.944404 C37.7094605,41.3274297 38.0493264,36.6698502 38.0591358,32.0059798 C37.9564258,25.5417581 36.5282969,19.1661815 33.8613024,13.2658565 L16.253483,13.2658565 C13.5882196,19.1661815 12.1618218,25.5423301 12.0608429,32.0059798 C12.0741145,36.658984 12.4110952,41.3051254 13.070054,45.9112337 L13.070054,45.9346817 L13.0769782,45.9884405 C13.5553292,49.4661838 14.2927631,52.9038937 15.2835095,56.2735472 C15.5835608,57.237204 15.8980376,58.1333763 16.2217468,58.944907 L33.904002,58.944907 Z M47.158192,61.6048287 C48.3076194,58.6835473 48.0843119,55.4059701 46.550011,52.6636944 C45.0157102,49.9214186 42.3285199,47.9986802 39.2195264,47.4176266 C39.1520149,47.8476977 39.0775791,48.2669027 39.0054515,48.6895392 C38.970253,48.9028591 38.9356319,49.1184667 38.8992795,49.328927 C38.7492538,50.1713404 38.5894188,50.9971686 38.4191973,51.8006925 C38.3805368,51.9774105 38.3389913,52.146122 38.3014849,52.3205524 C38.1624225,52.9559369 38.0181672,53.57588 37.8675645,54.1803816 C37.8058232,54.4205809 37.748121,54.6487703 37.6881107,54.8832507 C37.6321396,55.0942829 37.5813617,55.3144656 37.5248135,55.5203508 C41.5051098,55.9835923 45.0537936,58.2248808 47.158192,61.6048287 Z M25.0599893,23.8071758 C30.9306087,23.8146105 35.6881532,28.5299523 35.6956546,34.3484952 C35.6956546,40.1704695 30.9334938,44.8898145 25.0599893,44.8898145 C19.1859077,44.8898145 14.4243241,40.1704695 14.4243241,34.3484952 C14.4243241,28.5270927 19.1859077,23.8071758 25.0599893,23.8071758 Z M25.0599893,42.5472991 C29.6265396,42.542152 33.3269803,38.874537 33.3321734,34.3484952 C33.3321734,29.8207378 29.6282707,26.1496912 25.0599893,26.1496912 C20.4911309,26.1496912 16.7878053,29.8207378 16.7878053,34.3484952 C16.7878053,38.8768244 20.4911309,42.5472991 25.0599893,42.5472991 Z M28.5151957,37.5460059 L28.5151957,37.551153 C28.9612335,37.078189 29.7090537,37.0535973 30.1856736,37.4951064 C30.6622937,37.9371876 30.6876826,38.6783742 30.2416448,39.1507661 C29.5919182,39.8404814 28.8077458,40.3929398 27.9375968,40.775543 C27.5504153,40.9516893 27.0974531,40.9076527 26.7523942,40.6605905 C26.4067581,40.4135283 26.2226882,40.001758 26.269427,39.5819812 C26.3161657,39.1627762 26.587366,38.8001895 26.9791637,38.6343375 C27.5596476,38.377553 28.0818523,38.0075316 28.5151957,37.5460059 Z M25.0599893,27.3209489 C28.973928,27.3249523 32.1463937,30.4692759 32.1504328,34.3484952 C32.1504328,34.9958896 31.6213038,35.5197529 30.9686923,35.5197529 C30.3160806,35.5197529 29.7869517,34.9958896 29.7869517,34.3484952 C29.7869517,31.7612052 27.6704358,29.6634644 25.0599893,29.6634644 C24.4073777,29.6634644 23.8782488,29.139601 23.8782488,28.4922066 C23.8782488,27.8453841 24.4073777,27.3209489 25.0599893,27.3209489 Z M30.9686923,54.2598762 C31.6213038,54.2598762 32.1504328,54.7843113 32.1504328,55.4311339 C32.1504328,56.0785283 31.6213038,56.6023916 30.9686923,56.6023916 L19.1512864,56.6023916 C18.4986748,56.6023916 17.9695458,56.0785283 17.9695458,55.4311339 C17.9695458,54.7843113 18.4986748,54.2598762 19.1512864,54.2598762 L30.9686923,54.2598762 Z M21.5147676,20.2934027 C20.8621559,20.2934027 20.333027,19.7695394 20.333027,19.122145 C20.333027,18.4753225 20.8621559,17.9508873 21.5147676,17.9508873 L28.6052111,17.9508873 C29.2578226,17.9508873 29.7869517,18.4753225 29.7869517,19.122145 C29.7869517,19.7695394 29.2578226,20.2934027 28.6052111,20.2934027 L21.5147676,20.2934027 Z M27.4234705,62.4586801 C27.7662214,62.4586801 28.0916616,62.6062312 28.3167002,62.8630157 C28.5411616,63.1198002 28.6421405,63.4600826 28.5930935,63.7963617 L27.4113529,71.9951656 C27.3282618,72.5722159 26.829715,73.0005713 26.2417299,72.9999994 L23.8782488,72.9999994 C23.2902635,73.0005713 22.7917167,72.5722159 22.7080486,71.9951656 L21.526308,63.7963617 C21.4778382,63.4600826 21.578817,63.1198002 21.8032785,62.8630157 C22.0277399,62.6062312 22.3537572,62.4586801 22.6965082,62.4586801 L27.4234705,62.4586801 Z M25.2169393,70.657484 L26.060545,64.8011955 L24.0588565,64.8011955 L24.9024624,70.657484 L25.2169393,70.657484 Z M19.1512864,62.4586801 C19.8038979,62.4586801 20.333027,62.9831153 20.333027,63.6299378 L20.333027,70.657484 C20.333027,71.1739126 19.9920071,71.6291476 19.4940373,71.7789861 C18.9954905,71.9288248 18.4571292,71.7372372 18.1680413,71.3077379 L13.441079,64.2801917 C13.1993068,63.9210365 13.176226,63.4583668 13.3822227,63.0774794 C13.5876425,62.6965918 13.9880956,62.4586801 14.4243241,62.4586801 L19.1512864,62.4586801 Z M17.9695458,66.7925624 L17.9695458,64.8011955 L16.6325863,64.8011955 L17.9695458,66.7925624 Z M35.6956546,62.4586801 C36.1313059,62.4586801 36.5317591,62.6965918 36.7377558,63.0774794 C36.9431756,63.4583668 36.9206717,63.9210365 36.6788997,64.2801917 L31.9519374,71.3077379 C31.6628493,71.7372372 31.1244881,71.9288248 30.6259413,71.7789861 C30.1273944,71.6291476 29.7869517,71.1739126 29.7869517,70.657484 L29.7869517,63.6299378 C29.7869517,62.9831153 30.3160806,62.4586801 30.9686923,62.4586801 L35.6956546,62.4586801 Z M32.1504328,66.7925624 L33.4868153,64.8011955 L32.1504328,64.8011955 L32.1504328,66.7925624 Z M25.0599893,9.75208337 C24.4073777,9.75208337 23.8782488,9.22822006 23.8782488,8.58082566 C23.8782488,7.93400314 24.4073777,7.40956796 25.0599893,7.40956796 L28.6052111,7.40956796 C29.2578226,7.40956796 29.7869517,7.93400314 29.7869517,8.58082566 C29.7869517,9.22822006 29.2578226,9.75208337 28.6052111,9.75208337 L25.0599893,9.75208337 Z" id="path-2"></path>
    </defs>
    <g id="Palmspire-Website-Design-" stroke="none" stroke-width="1" fill="none" fill-rule="evenodd">
        <g id="Artboard" transform="translate(-1016.000000, -309.000000)">
            <g id="Group-2" transform="translate(956.000000, 229.000000)">
                <g id="Rectangle-2" transform="translate(0.000000, 41.000000)">
                    <g id="rocket" transform="translate(60.000000, 39.000000)">
                        <g id="Combined-Shape">
                            <use fill="#000000" xlink:href="#path-2"></use>
                            <use fill="url(#linearGradient-1)" xlink:href="#path-2"></use>
                        </g>
                    </g>
                </g>
            </g>
        </g>
    </g>
</svg>