<?xml version="1.0" encoding="UTF-8"?>
<svg width="482px" height="312px" viewBox="0 0 482 312" version="1.1" xmlns="http://www.w3.org/2000/svg" xmlns:xlink="http://www.w3.org/1999/xlink">
    <!-- Generator: sketchtool 52.6 (67491) - http://www.bohemiancoding.com/sketch -->
    <title>E95950F4-DFB6-4930-BF89-C6113EB9DA01</title>
    <desc>Created with sketchtool.</desc>
    <defs>
        <filter x="-8.8%" y="-14.3%" width="117.6%" height="128.7%" filterUnits="objectBoundingBox" id="filter-1">
            <feOffset dx="0" dy="0" in="SourceAlpha" result="shadowOffsetOuter1"></feOffset>
            <feGaussianBlur stdDeviation="10" in="shadowOffsetOuter1" result="shadowBlurOuter1"></feGaussianBlur>
            <feColorMatrix values="0 0 0 0 0   0 0 0 0 0   0 0 0 0 0  0 0 0 0.204059103 0" type="matrix" in="shadowBlurOuter1" result="shadowMatrixOuter1"></feColorMatrix>
            <feMerge>
                <feMergeNode in="shadowMatrixOuter1"></feMergeNode>
                <feMergeNode in="SourceGraphic"></feMergeNode>
            </feMerge>
        </filter>
        <rect id="path-2" x="0" y="0" width="442" height="272" rx="3"></rect>
    </defs>
    <g id="Palmspire-Website-Design-" stroke="none" stroke-width="1" fill="none" fill-rule="evenodd">
        <g id="Design-Portfolio" transform="translate(-254.000000, -3414.000000)">
            <g id="Group-7" transform="translate(274.000000, 3390.000000)">
                <g id="Group-4" transform="translate(0.000000, 44.000000)">
                    <g id="Rectangle-3" filter="url(#filter-1)">
                        <mask id="mask-3" fill="white">
                            <use xlink:href="#path-2"></use>
                        </mask>
                        <use id="Rectangle" fill="#FFFFFF" fill-rule="nonzero" xlink:href="#path-2"></use>
                        <g id="Sanfield-1" mask="url(#mask-3)">
                            <g transform="translate(73.666667, 107.922581)" id="Group">
                                <g>
                                    <path d="M83.147428,46.5133185 C78.5659369,46.5133185 74.874812,45.3047094 72.0739425,42.887455 C69.2730729,40.4702006 67.8726592,37.2311282 67.8726592,33.1701408 L73.1567474,33.1701408 C73.1567474,35.7034235 74.0807318,37.7097145 75.9287282,39.1890742 C77.7767246,40.6684339 80.1636841,41.4081027 83.0896784,41.4081027 C85.7461732,41.4081027 87.9598857,40.7554538 89.7308822,39.4501364 C91.5018788,38.144819 92.3873638,36.4092564 92.3873638,34.2433964 C92.3873638,33.7212695 92.3199899,33.2233225 92.1852402,32.7495407 C92.0504904,32.2757588 91.896493,31.8599973 91.7232434,31.5022436 C91.5499937,31.14449 91.2756859,30.801245 90.9003116,30.4724984 C90.5249373,30.1437518 90.188068,29.8633545 89.8896936,29.6312981 C89.5913192,29.3992417 89.1533891,29.1623543 88.5758903,28.9206288 C87.9983914,28.6789034 87.5315868,28.4855259 87.1754625,28.3404907 C86.8193382,28.1954554 86.2755349,28.0262501 85.5440363,27.8328698 L83.8981728,27.3977662 C83.5324235,27.301076 82.9356836,27.1560429 82.1079352,26.9626625 C78.5851921,26.111789 76.0634848,25.3286103 74.5427378,24.613103 C71.2124943,23.0080461 69.2971518,20.6004968 68.7966528,17.3903829 C68.7004029,16.7715658 68.6522788,16.1237514 68.6522788,15.4469201 C68.6522788,11.8693836 69.9227572,9.04607279 72.4637523,6.97690301 C75.0047473,4.90773324 78.4311892,3.87316387 82.7431808,3.87316387 C87.0166725,3.87316387 90.3901778,4.98024978 92.8637979,7.19445482 C95.3374181,9.40865986 96.5742096,12.4108448 96.5742096,16.2010997 L91.4344954,16.2010997 C91.4344954,13.9385496 90.6115718,12.1498082 88.9657,10.8348218 C87.3198283,9.51983536 85.2071766,8.86235202 82.6276816,8.86235202 C80.0674366,8.86235202 77.9644097,9.43764994 76.318538,10.588263 C74.6726662,11.7388761 73.8497426,13.2810613 73.8497426,15.2148649 C73.8497426,15.85302 73.9508034,16.4379868 74.152928,16.9697828 C74.3550526,17.5015788 74.600486,17.9656846 74.8892354,18.3621144 C75.1779848,18.7585441 75.6014777,19.1356301 76.1597266,19.4933838 C76.7179755,19.8511374 77.2280918,20.1412036 77.6900909,20.363591 C78.15209,20.5859784 78.7921417,20.8228658 79.6102651,21.0742602 C80.4283885,21.3256547 81.1069395,21.5190322 81.6459384,21.6543984 C82.1849374,21.7897647 82.9356746,21.9734732 83.8981728,22.2055297 C87.4209159,23.0757412 89.9426231,23.8685888 91.4633702,24.5840961 C94.8898635,26.169815 96.9110792,28.5580265 97.527078,31.7488024 C97.6810777,32.5223238 97.7580764,33.3345091 97.7580764,34.1853826 C97.7580764,36.7380033 97.1083999,38.9570095 95.8090275,40.842468 C94.509655,42.7279264 92.7675595,44.1444163 90.5826888,45.09198 C88.3978181,46.0395437 85.9194226,46.5133185 83.147428,46.5133185 Z M132.391644,13.07006 L136.301886,13.07006 L136.301886,46.5133185 L132.250201,46.5133185 L131.550629,40.9491021 C130.034883,42.7072487 128.193668,44.0741389 126.026929,45.0498137 C123.86019,46.0254884 121.484586,46.5133185 118.900045,46.5133185 C115.77139,46.5133185 112.934267,45.7888184 110.388591,44.3397965 C107.842916,42.8907746 105.846242,40.8863243 104.39851,38.3263856 C102.950779,35.7664469 102.226924,32.9215765 102.226924,29.7916892 C102.226924,25.0002568 103.815518,21.0155063 106.992755,17.8373182 C110.169991,14.6591302 114.139048,13.07006 118.900045,13.07006 C121.484586,13.07006 123.874764,13.56272 126.070652,14.5480549 C128.266541,15.5333898 130.12233,16.91477 131.638076,18.6922369 L132.391644,13.07006 Z M110.921045,38.665941 C113.179299,40.9248032 116.011808,42.0542173 119.418657,42.0542173 C122.825506,42.0542173 125.653148,40.9296297 127.901669,38.6804208 C130.150189,36.4312119 131.274432,33.6076765 131.274432,30.2097299 C131.274432,26.8117834 130.150189,23.988248 127.901669,21.7390391 C125.653148,19.4898302 122.825506,18.3652426 119.418657,18.3652426 C116.011808,18.3652426 113.179299,19.4946567 110.921045,21.7535189 C108.66279,24.0123811 107.53368,26.8310899 107.53368,30.2097299 C107.53368,33.58837 108.66279,36.4070788 110.921045,38.665941 Z M158.29194,13.07006 C162.121533,13.07006 165.186147,14.3623971 167.485877,16.9471103 C169.785606,19.5318234 170.935453,22.8563855 170.935453,26.9208962 L170.935453,46.5133185 L165.783296,46.5133185 L165.783296,28.1343242 C165.783296,24.8195776 165.023311,22.2644987 163.503318,20.469011 C161.983325,18.6735232 159.80207,17.7757928 156.959486,17.7757928 C154.156382,17.7757928 151.807338,18.8215007 149.912282,20.912948 C148.017226,23.0043953 147.069712,25.5890697 147.069712,28.6670487 L147.069712,46.5133185 L141.887945,46.5133185 L141.887945,13.07006 L145.518883,13.07006 L146.566341,18.9004333 C147.809971,17.0654843 149.44838,15.6350348 151.481617,14.6090418 C153.514854,13.5830488 155.784939,13.07006 158.29194,13.07006 Z M195.234811,16.051053 L195.234811,20.0645334 L185.390814,20.0645334 L185.390814,46.5133185 L180.338144,46.5133185 L180.338144,20.0645334 L174.007786,20.0645334 L174.007786,16.051053 L180.338144,16.051053 L180.338144,13.5769897 C180.338144,10.2965487 181.170568,7.85916263 182.835441,6.26475834 C184.500314,4.67035405 187.104059,3.87316387 190.646754,3.87316387 L195.176734,3.87316387 L195.176734,7.74919629 L191.546942,7.74919629 C189.262581,7.74919629 187.636451,8.20277002 186.668501,9.10993108 C185.700552,10.0170921 185.216584,11.5427492 185.216584,13.6869481 L185.216584,16.051053 L195.234811,16.051053 Z M201.100173,46.5133185 L201.100173,23.939119 L206.40693,23.939119 L206.40693,46.5133185 L201.100173,46.5133185 Z M203.753552,21.4308746 C202.133877,21.4308746 200.82087,20.1207321 200.82087,18.5045895 C200.82087,16.8884468 202.133877,15.5783043 203.753552,15.5783043 C205.373227,15.5783043 206.686233,16.8884468 206.686233,18.5045895 C206.686233,20.1207321 205.373227,21.4308746 203.753552,21.4308746 Z M244.671436,30.0449468 C244.671436,30.6305114 244.642285,31.2355858 244.583982,31.8601881 L217.094442,31.8601881 C217.483126,34.8660867 218.71232,37.2766251 220.782063,39.0918755 C222.851805,40.907126 225.402506,41.8147376 228.434242,41.8147376 C230.649741,41.8147376 232.622282,41.3218947 234.351926,40.3361942 C236.08157,39.3504937 237.451661,37.979317 238.46224,36.222623 L243.826052,36.222623 C242.446224,39.5603416 240.410522,42.156306 237.718885,44.0105941 C235.027248,45.8648822 231.932398,46.7920123 228.434242,46.7920123 C225.363638,46.7920123 222.570013,46.0600674 220.053284,44.5961558 C217.536555,43.1322441 215.564013,41.1120764 214.135599,38.5355919 C212.707185,35.9591074 211.992989,33.0801243 211.992989,29.8985563 C211.992989,26.7365072 212.707185,23.8624037 214.135599,21.2761598 C215.564013,18.6899159 217.536555,16.6648685 220.053284,15.2009568 C222.570013,13.7370452 225.363638,13.0051003 228.434242,13.0051003 C231.621451,13.0051003 234.458802,13.766323 236.946379,15.2887911 C239.433957,16.8112592 241.343339,18.8655844 242.674582,21.4518283 C244.005825,24.0380722 244.671436,26.9024164 244.671436,30.0449468 Z M228.221655,18.0731371 C225.312235,18.0731371 222.848962,18.915588 220.831764,20.600515 C218.814566,22.285442 217.544138,24.5400938 217.020442,27.3645379 L239.36468,27.3645379 C238.821588,24.5011359 237.546311,22.2367449 235.538811,20.5712968 C233.531311,18.9058487 231.092283,18.0731371 228.221655,18.0731371 Z M250.257495,46.5133185 L250.257495,3.59447005 L255.564252,3.59447005 L255.564252,46.5133185 L250.257495,46.5133185 Z M289.613074,3.73381696 L294.666667,3.73381696 L294.666667,46.5111971 L290.756425,46.5111971 L290.077772,41.4926158 C288.567496,43.1712544 286.747446,44.4741316 284.617569,45.4012867 C282.487691,46.3284417 280.183586,46.7920123 277.705183,46.7920123 C272.903278,46.7920123 268.943702,45.1865942 265.826336,41.9757099 C262.70897,38.7648256 261.150311,34.7390813 261.150311,29.898356 C261.150311,26.6972312 261.852192,23.8133343 263.255974,21.2465788 C264.659757,18.6798233 266.625024,16.6645113 269.151833,15.2005822 C271.678642,13.7366532 274.52973,13.0046997 277.705183,13.0046997 C280.067411,13.0046997 282.265024,13.4243531 284.298089,14.2636724 C286.331153,15.1029917 288.102797,16.2838767 289.613074,17.8063629 L289.613074,3.73381696 Z M269.535927,38.6332675 C271.794181,40.8898701 274.626691,42.0181545 278.03354,42.0181545 C281.440389,42.0181545 284.272898,40.8752802 286.531152,38.5894974 C288.789406,36.3037146 289.918516,33.4684138 289.918516,30.0835099 C289.918516,26.6791525 288.789406,23.8389884 286.531152,21.5629323 C284.272898,19.2868762 281.440389,18.1488653 278.03354,18.1488653 C274.626691,18.1488653 271.799048,19.282013 269.550528,21.5483423 C267.302008,23.8146716 266.177764,26.659699 266.177764,30.0835099 C266.177764,33.5073207 267.297141,36.3572114 269.535927,38.6332675 Z" id="Sanfield" fill="#1C49AB"></path>
                                    <path d="M180.457594,50.260163 L181.33173,50.260163 L181.33173,56.615413 L180.457594,56.615413 L180.457594,50.260163 Z M194.922623,55.1718634 L194.922623,50.260163 L195.76886,50.260163 L195.76886,56.615413 L194.829629,56.615413 L191.900346,51.7037127 L191.900346,56.615413 L191.054108,56.615413 L191.054108,50.260163 L191.993339,50.260163 L194.922623,55.1718634 Z M206.894502,51.0046352 L206.894502,53.2743673 L209.702895,53.2743673 L209.702895,54.0188394 L206.894502,54.0188394 L206.894502,56.615413 L206.048264,56.615413 L206.048264,50.260163 L209.702895,50.260163 L209.702895,51.0046352 L206.894502,51.0046352 Z M219.880006,50.260163 L222.167637,50.260163 C222.508614,50.260163 222.815488,50.3176623 223.088269,50.4326627 C223.361051,50.547663 223.595081,50.7050295 223.790368,50.9047669 C223.985654,51.1045044 224.135992,51.3345016 224.241384,51.5947655 C224.346777,51.8550294 224.399473,52.1304208 224.399473,52.420948 C224.399473,52.6509487 224.366925,52.8733802 224.30183,53.0882493 C224.236734,53.3031183 224.140642,53.4983133 224.013551,53.6738402 C223.88646,53.849367 223.734573,54.0052204 223.557885,54.141405 C223.381197,54.2775896 223.181264,54.3819962 222.958079,54.454628 L224.325078,56.615413 L223.35795,56.615413 L222.065345,54.5908119 L220.726244,54.5908119 L220.726244,56.615413 L219.880006,56.615413 L219.880006,50.260163 Z M222.167637,53.8372609 C222.378423,53.8372609 222.569057,53.7994324 222.739545,53.7237743 C222.910033,53.6481162 223.055721,53.5467358 223.176613,53.4196302 C223.297505,53.2925245 223.390497,53.1427237 223.455592,52.9702232 C223.520688,52.7977227 223.553235,52.6146328 223.553235,52.420948 C223.553235,52.2333159 223.520688,52.0532523 223.455592,51.8807518 C223.390497,51.7082513 223.297505,51.5569373 223.176613,51.4268053 C223.055721,51.2966734 222.910033,51.1937799 222.739545,51.1181218 C222.569057,51.0424636 222.378423,51.0046352 222.167637,51.0046352 L220.726244,51.0046352 L220.726244,53.8372609 L222.167637,53.8372609 Z M237.877841,56.615413 L237.533766,55.6439677 L234.892761,55.6439677 L234.557986,56.615413 L233.665252,56.615413 L235.906386,50.260163 L236.520141,50.260163 L238.770575,56.615413 L237.877841,56.615413 Z M236.222563,51.6129234 L235.153142,54.8904166 L237.273385,54.8904166 L236.222563,51.6129234 Z M248.929088,51.0046352 L247.245912,51.0046352 L247.245912,50.260163 L251.467801,50.260163 L251.467801,51.0046352 L249.775326,51.0046352 L249.775326,56.615413 L248.929088,56.615413 L248.929088,51.0046352 Z M261.979688,51.0046352 L261.979688,53.0837098 L264.78808,53.0837098 L264.78808,53.8281819 L261.979688,53.8281819 L261.979688,55.8709409 L264.78808,55.8709409 L264.78808,56.615413 L261.13345,56.615413 L261.13345,50.260163 L264.78808,50.260163 L264.78808,51.0046352 L261.979688,51.0046352 Z M280.861423,54.6543644 C280.780829,54.9509443 280.64909,55.2278488 280.466202,55.4850864 C280.283315,55.742324 280.060134,55.9647555 279.796652,56.1523877 C279.53317,56.3400198 279.234045,56.4883075 278.899268,56.5972552 C278.564491,56.7062029 278.201822,56.7606759 277.811248,56.7606759 C277.278085,56.7606759 276.800725,56.6698875 276.379154,56.488308 C275.957583,56.3067285 275.599563,56.0646262 275.305084,55.7619937 C275.010604,55.4593613 274.785873,55.1067997 274.630883,54.7042986 C274.475894,54.3017974 274.398401,53.8766051 274.398401,53.4287091 C274.398401,52.998971 274.474344,52.5843707 274.626234,52.1848959 C274.778123,51.785421 274.996655,51.4328595 275.281835,51.1272007 C275.567016,50.8215419 275.912637,50.5764133 276.318709,50.3918075 C276.724781,50.2072017 277.181992,50.1149002 277.690357,50.1149002 C278.161525,50.1149002 278.57999,50.1769389 278.945765,50.3010182 C279.31154,50.4250975 279.626163,50.593056 279.889645,50.8048987 C280.153127,51.0167415 280.365459,51.2664095 280.526648,51.5539103 C280.687837,51.8414112 280.799427,52.1516048 280.861423,52.4845005 L279.968689,52.4845005 C279.919093,52.2544998 279.8354,52.039634 279.717608,51.8398966 C279.599816,51.6401592 279.447929,51.4676612 279.261941,51.3223977 C279.075954,51.1771341 278.860522,51.0636486 278.615639,50.9819378 C278.370756,50.9002271 278.096429,50.8593723 277.79265,50.8593723 C277.389678,50.8593723 277.031658,50.9304899 276.718579,51.0727271 C276.405501,51.2149644 276.142023,51.40562 275.928138,51.6446996 C275.714252,51.8837793 275.549966,52.1576575 275.435274,52.4663427 C275.320582,52.7750278 275.263237,53.0958134 275.263237,53.4287091 C275.263237,53.7797628 275.322132,54.1111403 275.439924,54.4228518 C275.557716,54.7345632 275.729751,55.0084415 275.956036,55.2444948 C276.18232,55.4805481 276.459747,55.6681774 276.788324,55.8073884 C277.116901,55.9465993 277.49197,56.0162037 277.913541,56.0162037 C278.136726,56.0162037 278.355257,55.9829147 278.569143,55.9163355 C278.783028,55.8497564 278.979861,55.7559417 279.159649,55.6348887 C279.339437,55.5138358 279.495973,55.3700875 279.629264,55.2036396 C279.762555,55.0371918 279.863297,54.8541019 279.931492,54.6543644 L280.861423,54.6543644 Z M293.820429,53.8281819 L290.788853,53.8281819 L290.788853,56.615413 L289.942616,56.615413 L289.942616,50.260163 L290.788853,50.260163 L290.788853,53.0837098 L293.820429,53.0837098 L293.820429,50.260163 L294.666667,50.260163 L294.666667,56.615413 L293.820429,56.615413 L293.820429,53.8281819 Z" id="INFRATECH" fill="#000000"></path>
                                    <path d="M55.1756834,37.5959311 L6.09080659,37.582384 L30.6331133,0.271582181 L49.4758203,28.8829742 L22.8493315,28.8829742 L30.6331133,16.9937809 L35.4394923,24.243289 L40.7618311,24.243289 L30.6331133,8.87433182 L14.8103437,32.9426988 L46.4850575,32.9426988 L48.8602228,32.9426988 L52.1330526,32.9426988 L55.1756834,37.5959311 Z M3.23076981,41.8329817 L57.9765152,41.8329817 L61.2509363,46.7920123 L0,46.7920123 L3.23076981,41.8329817 Z" id="Combined-Shape" fill="#1C49AB" fill-rule="nonzero"></path>
                                </g>
                            </g>
                        </g>
                    </g>
                </g>
            </g>
        </g>
    </g>
</svg>