<?xml version="1.0" encoding="UTF-8"?>
<svg width="1152px" height="361px" viewBox="0 0 1152 361" version="1.1" xmlns="http://www.w3.org/2000/svg" xmlns:xlink="http://www.w3.org/1999/xlink">
    <!-- Generator: sketchtool 52.6 (67491) - http://www.bohemiancoding.com/sketch -->
    <title>CFDDC4BE-52D3-4B1B-BB66-3ECAD92B49B3</title>
    <desc>Created with sketchtool.</desc>
    <defs>
        <linearGradient x1="74.4308514%" y1="5.8772015%" x2="12.295662%" y2="95.506042%" id="linearGradient-1">
            <stop stop-color="#F46E4E" offset="0%"></stop>
            <stop stop-color="#F22875" offset="100%"></stop>
        </linearGradient>
        <path d="M252.321534,193.132689 L252.321534,137.149507 L275.159457,137.149507 L275.159457,193.2663 C275.159457,204.356047 280.635217,210.769395 291.453181,210.769395 C302.271145,210.769395 308.014015,204.356047 308.014015,193.2663 L308.014015,137.149507 L330.851938,137.149507 L330.851938,193.132689 C330.851938,219.053303 312.688443,231.879998 291.052516,231.879998 C269.283033,231.879998 252.321534,219.053303 252.321534,193.132689 Z M406.551873,230.944718 L387.453492,202.218265 L370.625548,230.944718 L344.715857,230.944718 L374.765757,183.245444 L344.048081,137.149507 L370.625548,137.149507 L389.456819,165.475126 L406.017652,137.149507 L431.927344,137.149507 L402.144554,184.447947 L433.12934,230.944718 L406.551873,230.944718 Z" id="path-2"></path>
        <path d="M757.114577,193.132689 L757.114577,137.149507 L779.952501,137.149507 L779.952501,193.2663 C779.952501,204.356047 785.42826,210.769395 796.246224,210.769395 C807.064188,210.769395 812.807058,204.356047 812.807058,193.2663 L812.807058,137.149507 L835.644982,137.149507 L835.644982,193.132689 C835.644982,219.053303 817.481487,231.879998 795.845559,231.879998 C774.076076,231.879998 757.114577,219.053303 757.114577,193.132689 Z M853.916219,230.944718 L853.916219,137.149507 L876.754143,137.149507 L876.754143,230.944718 L853.916219,230.944718 Z" id="path-3"></path>
    </defs>
    <g id="Palmspire-Website-Design-" stroke="none" stroke-width="1" fill="none" fill-rule="evenodd">
        <g id="Design-Portfolio" transform="translate(-239.000000, -460.000000)">
            <g id="Group-13" transform="translate(239.000000, 460.000000)">
                <g id="Group-12" transform="translate(0.500000, 0.000000)">
                    <g id="UX">
                        <use fill="#000000" xlink:href="#path-2"></use>
                        <use fill="url(#linearGradient-1)" xlink:href="#path-2"></use>
                    </g>
                    <path d="M603.06668,170.588594 L598.122877,170.588594 C598.231532,167.490621 596.167087,165.805758 593.50504,165.805758 C590.571355,165.805758 588.669892,167.653672 588.669892,170.15379 C588.669892,172.382157 589.919425,174.230071 592.581472,177.056292 L603.881593,188.415526 C604.207558,187.926373 604.533523,187.437219 604.859488,186.893715 L608.553758,180.697769 L613.877853,180.697769 L609.422998,188.415526 C608.71674,189.665586 608.010483,190.752594 607.249898,191.839602 L615.779316,200.372615 L609.314343,200.372615 L604.37054,195.372378 C600.730598,199.176907 596.656035,201.02482 591.33194,201.02482 C583.454452,201.02482 578.076029,196.513737 578.076029,189.502535 C578.076029,184.284896 581.064042,180.099914 586.985739,177.762847 C584.649657,175.045327 583.726089,172.925661 583.726089,170.15379 C583.726089,165.316604 587.583342,161.729478 593.72235,161.729478 C599.698375,161.729478 603.338318,165.534006 603.06668,170.588594 Z M591.33194,196.785489 C595.24352,196.785489 598.28586,195.263677 601.11089,192.111354 L589.973752,180.915171 C585.247259,182.708734 583.019832,185.534955 583.019832,189.339483 C583.019832,193.578815 586.388137,196.785489 591.33194,196.785489 Z" id="&amp;" fill="#808080"></path>
                    <path d="M540.852635,15.8280805 L536.839191,1.64262488 L539.304302,1.64262488 L542.237987,13.1784983 L545.416146,1.64262488 L548.023866,1.64262488 L550.977924,13.1173541 L553.931982,1.64262488 L556.417465,1.64262488 L552.220665,15.8076991 L549.592572,15.8076991 L546.618142,5.08708179 L543.460355,15.8076991 L540.852635,15.8280805 Z M558.332509,15.8076991 L558.332509,4.57754674 L560.65501,4.57754674 L560.65501,15.8076991 L558.332509,15.8076991 Z M559.514132,3.08970441 C558.678847,3.08970441 558.026917,2.43749955 558.026917,1.60186208 C558.026917,0.766224606 558.678847,0.114019748 559.514132,0.114019748 C560.329045,0.114019748 560.980975,0.766224606 560.980975,1.60186208 C560.980975,2.43749955 560.329045,3.08970441 559.514132,3.08970441 Z M566.033433,9.89709261 L566.033433,15.8076991 L563.710932,15.8076991 L563.710932,4.57754674 L566.033433,4.57754674 L566.033433,6.20805889 C566.685363,5.08708179 567.805867,4.39411413 569.394947,4.39411413 L569.394947,6.79911954 L568.804135,6.79911954 C567.092819,6.79911954 566.033433,7.5124686 566.033433,9.89709261 Z M576.260585,6.3507287 C574.691878,6.3507287 573.428764,7.41056159 573.18429,9.18374355 L579.397998,9.18374355 C579.357253,7.4513244 577.992274,6.3507287 576.260585,6.3507287 Z M581.516771,12.4651492 C580.885214,14.4217638 579.112779,15.9911318 576.362449,15.9911318 C573.143545,15.9911318 570.759925,13.7084148 570.759925,10.1824322 C570.759925,6.65644973 573.041681,4.39411413 576.362449,4.39411413 C579.560981,4.39411413 581.822363,6.61568692 581.822363,9.91747402 C581.822363,10.3047207 581.80199,10.6715859 581.740872,11.0588325 L573.163917,11.0588325 C573.3269,12.9135401 574.651133,14.0345172 576.362449,14.0345172 C577.788546,14.0345172 578.583086,13.3415495 579.010915,12.4651492 L581.516771,12.4651492 Z M584.389338,15.8076991 L584.389338,6.47301711 L583.065105,6.47301711 L583.065105,4.57754674 L584.389338,4.57754674 L584.389338,3.78267207 C584.389338,1.19423404 585.71357,0.0732569447 588.647256,0.0732569447 L588.647256,2.00949012 C587.221159,2.00949012 586.732211,2.49864376 586.732211,3.78267207 L586.732211,4.57754674 L588.810238,4.57754674 L588.810238,6.47301711 L586.732211,6.47301711 L586.732211,15.8076991 L584.389338,15.8076991 Z M593.190393,9.89709261 L593.190393,15.8076991 L590.867892,15.8076991 L590.867892,4.57754674 L593.190393,4.57754674 L593.190393,6.20805889 C593.842323,5.08708179 594.962828,4.39411413 596.551907,4.39411413 L596.551907,6.79911954 L595.961096,6.79911954 C594.249779,6.79911954 593.190393,7.5124686 593.190393,9.89709261 Z M597.916886,10.1416694 C597.916886,6.67683113 600.259759,4.39411413 603.213817,4.39411413 C605.108489,4.39411413 606.412349,5.29089581 607.105025,6.20805889 L607.105025,4.57754674 L609.447898,4.57754674 L609.447898,15.8076991 L607.105025,15.8076991 L607.105025,14.1364242 C606.391976,15.0943501 605.04737,15.9911318 603.173072,15.9911318 C600.259759,15.9911318 597.916886,13.6065077 597.916886,10.1416694 Z M607.105025,10.1824322 C607.105025,7.77742683 605.454827,6.41187291 603.702765,6.41187291 C601.971076,6.41187291 600.300505,7.71628262 600.300505,10.1416694 C600.300505,12.5670563 601.971076,13.973373 603.702765,13.973373 C605.454827,13.973373 607.105025,12.6078191 607.105025,10.1824322 Z M628.414987,15.8076991 L628.414987,9.53022738 C628.414987,7.4717058 627.294483,6.41187291 625.603539,6.41187291 C623.892223,6.41187291 622.771718,7.4717058 622.771718,9.53022738 L622.771718,15.8076991 L620.46959,15.8076991 L620.46959,9.53022738 C620.46959,7.4717058 619.349085,6.41187291 617.658142,6.41187291 C615.946826,6.41187291 614.826321,7.4717058 614.826321,9.53022738 L614.826321,15.8076991 L612.50382,15.8076991 L612.50382,4.57754674 L614.826321,4.57754674 L614.826321,5.86157506 C615.580115,4.94441198 616.802484,4.39411413 618.147089,4.39411413 C619.919524,4.39411413 621.40674,5.14822599 622.180906,6.61568692 C622.873582,5.250133 624.462662,4.39411413 626.092487,4.39411413 C628.72058,4.39411413 630.717115,6.04500767 630.717115,9.18374355 L630.717115,15.8076991 L628.414987,15.8076991 Z M638.397666,6.3507287 C636.828959,6.3507287 635.565845,7.41056159 635.321371,9.18374355 L641.535079,9.18374355 C641.494334,7.4513244 640.129355,6.3507287 638.397666,6.3507287 Z M643.653852,12.4651492 C643.022295,14.4217638 641.24986,15.9911318 638.49953,15.9911318 C635.280625,15.9911318 632.897006,13.7084148 632.897006,10.1824322 C632.897006,6.65644973 635.178761,4.39411413 638.49953,4.39411413 C641.698062,4.39411413 643.959444,6.61568692 643.959444,9.91747402 C643.959444,10.3047207 643.939071,10.6715859 643.877953,11.0588325 L635.300998,11.0588325 C635.463981,12.9135401 636.788214,14.0345172 638.49953,14.0345172 C639.925627,14.0345172 640.720167,13.3415495 641.147996,12.4651492 L643.653852,12.4651492 Z M654.614425,12.6689633 C654.614425,14.5644336 652.964228,15.9911318 650.315762,15.9911318 C647.62655,15.9911318 645.731879,14.4013824 645.630015,12.3632422 L648.034007,12.3632422 C648.115498,13.2804053 648.991529,14.0345172 650.275016,14.0345172 C651.619622,14.0345172 652.33267,13.4638379 652.33267,12.6893447 C652.33267,10.4881533 645.81337,11.7518002 645.81337,7.63475701 C645.81337,5.84119366 647.483941,4.39411413 650.132406,4.39411413 C652.679008,4.39411413 654.349579,5.75966805 654.471816,8.00162225 L652.149315,8.00162225 C652.067824,7.02331496 651.31403,6.3507287 650.050915,6.3507287 C648.808174,6.3507287 648.156244,6.86026375 648.156244,7.61437561 C648.156244,9.87671121 654.492189,8.6130643 654.614425,12.6689633 Z" id="Wireframes" fill="#878585"></path>
                    <path d="M858.168259,20.2168757 L862.385431,8.43642548 L864.830169,8.43642548 L859.512864,22.6014997 L856.823653,22.6014997 L851.485976,8.43642548 L853.971459,8.43642548 L858.168259,20.2168757 Z M866.765586,22.6014997 L866.765586,11.3713473 L869.088087,11.3713473 L869.088087,22.6014997 L866.765586,22.6014997 Z M867.947209,9.88350501 C867.111924,9.88350501 866.459994,9.23130016 866.459994,8.39566268 C866.459994,7.56002521 867.111924,6.90782035 867.947209,6.90782035 C868.762122,6.90782035 869.414052,7.56002521 869.414052,8.39566268 C869.414052,9.23130016 868.762122,9.88350501 867.947209,9.88350501 Z M880.517235,19.4627639 C880.517235,21.3582342 878.867037,22.7849324 876.218571,22.7849324 C873.52936,22.7849324 871.634688,21.195183 871.532824,19.1570428 L873.936816,19.1570428 C874.018308,20.0742059 874.894339,20.8283178 876.177826,20.8283178 C877.522432,20.8283178 878.23548,20.2576385 878.23548,19.4831453 C878.23548,17.2819539 871.71618,18.5456008 871.71618,14.4285576 C871.71618,12.6349943 873.38675,11.1879147 876.035216,11.1879147 C878.581818,11.1879147 880.252389,12.5534686 880.374625,14.7954228 L878.052125,14.7954228 C877.970633,13.8171156 877.216839,13.1445293 875.953725,13.1445293 C874.710983,13.1445293 874.059053,13.6540643 874.059053,14.4081762 C874.059053,16.6705118 880.394998,15.4068649 880.517235,19.4627639 Z M893.189125,11.3713473 L893.189125,22.6014997 L890.866624,22.6014997 L890.866624,21.2563272 C890.133203,22.2142531 888.870089,22.764551 887.545856,22.764551 C884.917763,22.764551 882.921227,21.1136574 882.921227,17.9749215 L882.921227,11.3713473 L885.223355,11.3713473 L885.223355,17.6284377 C885.223355,19.6869593 886.34386,20.7467922 888.034803,20.7467922 C889.74612,20.7467922 890.866624,19.6869593 890.866624,17.6284377 L890.866624,11.3713473 L893.189125,11.3713473 Z M895.47088,16.93547 C895.47088,13.4706317 897.813754,11.1879147 900.767812,11.1879147 C902.662483,11.1879147 903.966343,12.0846964 904.659019,13.0018595 L904.659019,11.3713473 L907.001893,11.3713473 L907.001893,22.6014997 L904.659019,22.6014997 L904.659019,20.9302248 C903.945971,21.8881507 902.601365,22.7849324 900.727066,22.7849324 C897.813754,22.7849324 895.47088,20.4003083 895.47088,16.93547 Z M904.659019,16.9762328 C904.659019,14.5712274 903.008821,13.2056735 901.256759,13.2056735 C899.52507,13.2056735 897.854499,14.5100832 897.854499,16.93547 C897.854499,19.3608569 899.52507,20.7671736 901.256759,20.7671736 C903.008821,20.7671736 904.659019,19.4016197 904.659019,16.9762328 Z M910.057815,22.6014997 L910.057815,7.5192624 L912.380315,7.5192624 L912.380315,22.6014997 L910.057815,22.6014997 Z M925.357797,8.43642548 C929.900935,8.43642548 932.875366,11.1879147 932.875366,15.5699161 C932.875366,19.9315361 929.900935,22.6014997 925.357797,22.6014997 L920.733169,22.6014997 L920.733169,8.43642548 L925.357797,8.43642548 Z M923.055669,20.7060294 L925.357797,20.7060294 C928.698939,20.7060294 930.491746,18.7901776 930.491746,15.5699161 C930.491746,12.3292732 928.698939,10.3318959 925.357797,10.3318959 L923.055669,10.3318959 L923.055669,20.7060294 Z M939.903986,13.1445293 C938.33528,13.1445293 937.072165,14.2043622 936.827691,15.9775442 L943.041399,15.9775442 C943.000654,14.245125 941.635675,13.1445293 939.903986,13.1445293 Z M945.160172,19.2589498 C944.528615,21.2155644 942.75618,22.7849324 940.00585,22.7849324 C936.786946,22.7849324 934.403327,20.5022154 934.403327,16.9762328 C934.403327,13.4502503 936.685082,11.1879147 940.00585,11.1879147 C943.204382,11.1879147 945.465764,13.4094875 945.465764,16.7112746 C945.465764,17.0985213 945.445391,17.4653865 945.384273,17.8526331 L936.807319,17.8526331 C936.970301,19.7073407 938.294534,20.8283178 940.00585,20.8283178 C941.431947,20.8283178 942.226487,20.1353501 942.654316,19.2589498 L945.160172,19.2589498 Z M956.120746,19.4627639 C956.120746,21.3582342 954.470548,22.7849324 951.822082,22.7849324 C949.132871,22.7849324 947.238199,21.195183 947.136335,19.1570428 L949.540327,19.1570428 C949.621818,20.0742059 950.497849,20.8283178 951.781336,20.8283178 C953.125942,20.8283178 953.838991,20.2576385 953.838991,19.4831453 C953.838991,17.2819539 947.31969,18.5456008 947.31969,14.4285576 C947.31969,12.6349943 948.990261,11.1879147 951.638727,11.1879147 C954.185328,11.1879147 955.855899,12.5534686 955.978136,14.7954228 L953.655635,14.7954228 C953.574144,13.8171156 952.82035,13.1445293 951.557235,13.1445293 C950.314494,13.1445293 949.662564,13.6540643 949.662564,14.4081762 C949.662564,16.6705118 955.998509,15.4068649 956.120746,19.4627639 Z M958.626602,22.6014997 L958.626602,11.3713473 L960.949102,11.3713473 L960.949102,22.6014997 L958.626602,22.6014997 Z M959.808225,9.88350501 C958.97294,9.88350501 958.32101,9.23130016 958.32101,8.39566268 C958.32101,7.56002521 958.97294,6.90782035 959.808225,6.90782035 C960.623137,6.90782035 961.275067,7.56002521 961.275067,8.39566268 C961.275067,9.23130016 960.623137,9.88350501 959.808225,9.88350501 Z M963.230858,16.93547 C963.230858,13.4706317 965.573731,11.1879147 968.527789,11.1879147 C970.361342,11.1879147 971.726321,12.0439336 972.418996,13.0018595 L972.418996,11.3713473 L974.76187,11.3713473 L974.76187,22.7849324 C974.76187,25.8421426 972.785707,28.145241 969.281583,28.145241 C966.28678,28.145241 964.066143,26.6573987 963.780924,24.1708677 L966.083051,24.1708677 C966.429389,25.3326076 967.672131,26.1274823 969.281583,26.1274823 C971.074391,26.1274823 972.418996,25.0268866 972.418996,22.7849324 L972.418996,20.9098434 C971.705948,21.8677693 970.361342,22.7849324 968.527789,22.7849324 C965.573731,22.7849324 963.230858,20.4003083 963.230858,16.93547 Z M972.418996,16.9762328 C972.418996,14.5712274 970.768799,13.2056735 969.016737,13.2056735 C967.285047,13.2056735 965.614477,14.5100832 965.614477,16.93547 C965.614477,19.3608569 967.285047,20.7671736 969.016737,20.7671736 C970.768799,20.7671736 972.418996,19.4016197 972.418996,16.9762328 Z M985.783562,22.6014997 L985.783562,16.324028 C985.783562,14.2655064 984.663057,13.2056735 982.972114,13.2056735 C981.260797,13.2056735 980.140293,14.2655064 980.140293,16.324028 L980.140293,22.6014997 L977.817792,22.6014997 L977.817792,11.3713473 L980.140293,11.3713473 L980.140293,12.6553757 C980.894087,11.7382126 982.136828,11.1879147 983.481434,11.1879147 C986.109527,11.1879147 988.08569,12.8388083 988.08569,15.9775442 L988.08569,22.6014997 L985.783562,22.6014997 Z" id="Visual-Design" fill="#878585"></path>
                    <path d="M965.80915,78.6390317 L968.131651,78.6390317 L968.131651,90.929017 L972.919262,90.929017 L972.919262,92.804106 L965.80915,92.804106 L965.80915,78.6390317 Z M974.080513,87.1380763 C974.080513,83.6732379 976.423386,81.3905209 979.377444,81.3905209 C981.272116,81.3905209 982.575976,82.2873026 983.268651,83.2044657 L983.268651,81.5739536 L985.611525,81.5739536 L985.611525,92.804106 L983.268651,92.804106 L983.268651,91.132831 C982.555603,92.0907569 981.210997,92.9875386 979.336698,92.9875386 C976.423386,92.9875386 974.080513,90.6029146 974.080513,87.1380763 Z M983.268651,87.1788391 C983.268651,84.7738336 981.618453,83.4082797 979.866392,83.4082797 C978.134702,83.4082797 976.464132,84.7126894 976.464132,87.1380763 C976.464132,89.5634631 978.134702,90.9697798 979.866392,90.9697798 C981.618453,90.9697798 983.268651,89.6042259 983.268651,87.1788391 Z M993.088347,90.1341423 L996.36837,81.5739536 L998.772362,81.5739536 L991.886351,98.082889 L989.482359,98.082889 L991.764115,92.6206733 L987.343214,81.5739536 L989.930561,81.5739536 L993.088347,90.1341423 Z M1011.22015,87.1788391 C1011.22015,90.7048216 1008.61243,92.9875386 1005.39353,92.9875386 C1002.195,92.9875386 999.77063,90.7048216 999.77063,87.1788391 C999.77063,83.6528565 1002.29686,81.3905209 1005.49539,81.3905209 C1008.69392,81.3905209 1011.22015,83.6528565 1011.22015,87.1788391 Z M1002.13388,87.1788391 C1002.13388,89.7265143 1003.64146,90.9697798 1005.39353,90.9697798 C1007.12522,90.9697798 1008.83653,89.7265143 1008.83653,87.1788391 C1008.83653,84.6311638 1007.18633,83.4082797 1005.45465,83.4082797 C1003.70258,83.4082797 1002.13388,84.6311638 1002.13388,87.1788391 Z M1023.68831,81.5739536 L1023.68831,92.804106 L1021.36581,92.804106 L1021.36581,91.4589334 C1020.63239,92.4168593 1019.36928,92.9671572 1018.04504,92.9671572 C1015.41695,92.9671572 1013.42042,91.3162636 1013.42042,88.1775277 L1013.42042,81.5739536 L1015.72254,81.5739536 L1015.72254,87.8310439 C1015.72254,89.8895655 1016.84305,90.9493984 1018.53399,90.9493984 C1020.24531,90.9493984 1021.36581,89.8895655 1021.36581,87.8310439 L1021.36581,81.5739536 L1023.68831,81.5739536 Z M1027.11095,89.6857515 L1027.11095,83.4694239 L1025.78671,83.4694239 L1025.78671,81.5739536 L1027.11095,81.5739536 L1027.11095,78.7817015 L1029.45382,78.7817015 L1029.45382,81.5739536 L1032.18378,81.5739536 L1032.18378,83.4694239 L1029.45382,83.4694239 L1029.45382,89.6857515 C1029.45382,90.5213889 1029.77978,90.8678728 1030.75768,90.8678728 L1032.18378,90.8678728 L1032.18378,92.804106 L1030.35022,92.804106 C1028.35369,92.804106 1027.11095,91.9684685 1027.11095,89.6857515 Z M1048.62464,81.798149 L1046.30214,81.798149 C1046.34288,80.7586975 1045.75207,80.2083996 1044.87604,80.2083996 C1043.95926,80.2083996 1043.36845,80.8198417 1043.36845,81.5739536 C1043.36845,82.3484468 1043.79628,82.9802703 1044.79455,84.0604846 L1048.54315,87.7902811 L1049.98962,85.4056571 L1052.49547,85.4056571 L1050.66192,88.544393 C1050.49894,88.8297326 1050.31558,89.1150722 1050.1526,89.3800304 L1053.5956,92.804106 L1050.56005,92.804106 L1048.80799,91.0513054 C1047.44301,92.4168593 1045.87431,93.0690642 1043.89814,93.0690642 C1040.84222,93.0690642 1038.80494,91.3774078 1038.80494,88.7278256 C1038.80494,86.8119738 1039.8847,85.2018431 1042.12571,84.28468 C1041.33117,83.3267541 1041.04595,82.5726422 1041.04595,81.5739536 C1041.04595,79.719246 1042.55354,78.3129293 1044.9779,78.3129293 C1047.44301,78.3129293 1048.76725,79.8619158 1048.62464,81.798149 Z M1043.89814,91.0920682 C1045.22238,91.0920682 1046.30214,90.5621518 1047.28003,89.5227003 L1043.53143,85.7521409 C1041.88124,86.4043458 1041.12744,87.3826531 1041.12744,88.6463 C1041.12744,90.0118539 1042.22757,91.0920682 1043.89814,91.0920682 Z M1066.87868,78.4555991 C1069.83274,78.4555991 1072.37934,79.9434414 1073.4591,82.7153121 L1070.66802,82.7153121 C1069.91423,81.2886139 1068.56962,80.5752649 1066.87868,80.5752649 C1064.06723,80.5752649 1062.02995,82.5726422 1062.02995,85.6909967 C1062.02995,88.8093512 1064.06723,90.82711 1066.87868,90.82711 C1069.44565,90.82711 1071.0551,89.2781234 1071.40144,86.8934994 L1066.08414,86.8934994 L1066.08414,85.0387919 L1073.88693,85.0387919 L1073.88693,86.8527366 C1073.4591,90.1341423 1070.68839,92.9263944 1066.87868,92.9263944 C1062.88561,92.9263944 1059.64633,89.9507097 1059.64633,85.6909967 C1059.64633,81.4516651 1062.88561,78.4555991 1066.87868,78.4555991 Z M1078.49118,86.8934994 L1078.49118,92.804106 L1076.16868,92.804106 L1076.16868,81.5739536 L1078.49118,81.5739536 L1078.49118,83.2044657 C1079.14311,82.0834886 1080.26362,81.3905209 1081.8527,81.3905209 L1081.8527,83.7955264 L1081.26188,83.7955264 C1079.55057,83.7955264 1078.49118,84.5088754 1078.49118,86.8934994 Z M1083.21767,87.1380763 C1083.21767,83.6732379 1085.56055,81.3905209 1088.51461,81.3905209 C1090.40928,81.3905209 1091.71314,82.2873026 1092.40581,83.2044657 L1092.40581,81.5739536 L1094.74869,81.5739536 L1094.74869,92.804106 L1092.40581,92.804106 L1092.40581,91.132831 C1091.69276,92.0907569 1090.34816,92.9875386 1088.47386,92.9875386 C1085.56055,92.9875386 1083.21767,90.6029146 1083.21767,87.1380763 Z M1092.40581,87.1788391 C1092.40581,84.7738336 1090.75561,83.4082797 1089.00355,83.4082797 C1087.27186,83.4082797 1085.60129,84.7126894 1085.60129,87.1380763 C1085.60129,89.5634631 1087.27186,90.9697798 1089.00355,90.9697798 C1090.75561,90.9697798 1092.40581,89.6042259 1092.40581,87.1788391 Z M1100.12711,83.2248471 C1100.84016,82.2873026 1102.20514,81.3905209 1104.03869,81.3905209 C1106.99275,81.3905209 1109.31525,83.6732379 1109.31525,87.1380763 C1109.31525,90.6029146 1106.99275,92.9875386 1104.03869,92.9875386 C1102.18476,92.9875386 1100.86053,92.0499941 1100.12711,91.1735938 L1100.12711,98.1440332 L1097.80461,98.1440332 L1097.80461,81.5739536 L1100.12711,81.5739536 L1100.12711,83.2248471 Z M1106.952,87.1380763 C1106.952,84.7126894 1105.28143,83.4082797 1103.52937,83.4082797 C1101.79768,83.4082797 1100.12711,84.7738336 1100.12711,87.1788391 C1100.12711,89.6042259 1101.79768,90.9697798 1103.52937,90.9697798 C1105.28143,90.9697798 1106.952,89.5634631 1106.952,87.1380763 Z M1111.61738,92.804106 L1111.61738,77.7218686 L1113.93988,77.7218686 L1113.93988,82.8783633 C1114.71404,81.9408188 1115.97716,81.3905209 1117.42363,81.3905209 C1119.92948,81.3905209 1121.88527,83.0414145 1121.88527,86.1801504 L1121.88527,92.804106 L1119.58315,92.804106 L1119.58315,86.5266342 C1119.58315,84.4681126 1118.46264,83.4082797 1116.7717,83.4082797 C1115.06038,83.4082797 1113.93988,84.4681126 1113.93988,86.5266342 L1113.93988,92.804106 L1111.61738,92.804106 Z M1124.83933,92.804106 L1124.83933,81.5739536 L1127.16183,81.5739536 L1127.16183,92.804106 L1124.83933,92.804106 Z M1126.02095,80.0861112 C1125.18567,80.0861112 1124.53374,79.4339064 1124.53374,78.5982689 C1124.53374,77.7626314 1125.18567,77.1104266 1126.02095,77.1104266 C1126.83587,77.1104266 1127.4878,77.7626314 1127.4878,78.5982689 C1127.4878,79.4339064 1126.83587,80.0861112 1126.02095,80.0861112 Z M1129.44359,87.1788391 C1129.44359,83.6732379 1131.72534,81.3905209 1134.94425,81.3905209 C1137.69458,81.3905209 1139.48738,82.7560749 1140.11894,85.1203175 L1137.61309,85.1203175 C1137.226,84.0401032 1136.3296,83.3471355 1134.94425,83.3471355 C1133.06995,83.3471355 1131.82721,84.7330708 1131.82721,87.1788391 C1131.82721,89.6449887 1133.06995,91.030924 1134.94425,91.030924 C1136.3296,91.030924 1137.18526,90.4194819 1137.61309,89.257742 L1140.11894,89.257742 C1139.48738,91.4589334 1137.69458,92.9875386 1134.94425,92.9875386 C1131.72534,92.9875386 1129.44359,90.7048216 1129.44359,87.1788391 Z M1150.81467,89.6653701 C1150.81467,91.5608404 1149.16447,92.9875386 1146.51601,92.9875386 C1143.82679,92.9875386 1141.93212,91.3977892 1141.83026,89.359649 L1144.23425,89.359649 C1144.31574,90.2768121 1145.19177,91.030924 1146.47526,91.030924 C1147.81987,91.030924 1148.53291,90.4602447 1148.53291,89.6857515 C1148.53291,87.4845601 1142.01361,88.748207 1142.01361,84.6311638 C1142.01361,82.8376005 1143.68418,81.3905209 1146.33265,81.3905209 C1148.87925,81.3905209 1150.54982,82.7560749 1150.67206,84.9980291 L1148.34956,84.9980291 C1148.26807,84.0197218 1147.51427,83.3471355 1146.25116,83.3471355 C1145.00842,83.3471355 1144.35649,83.8566706 1144.35649,84.6107824 C1144.35649,86.873118 1150.69243,85.6094711 1150.81467,89.6653701 Z" id="Layout-&amp;-Graphics" fill="#878585"></path>
                    <path d="M971.825921,278.182014 C971.825921,273.942682 975.065198,270.946616 979.05827,270.946616 C982.012328,270.946616 984.55893,272.434458 985.638689,275.206329 L982.847613,275.206329 C982.093819,273.698105 980.749213,272.984756 979.05827,272.984756 C976.246822,272.984756 974.20954,274.982134 974.20954,278.182014 C974.20954,281.381894 976.246822,283.399653 979.05827,283.399653 C980.749213,283.399653 982.093819,282.686304 982.847613,281.17808 L985.638689,281.17808 C984.55893,283.94995 982.012328,285.417411 979.05827,285.417411 C975.065198,285.417411 971.825921,282.441727 971.825921,278.182014 Z M999.044,279.669856 C999.044,283.195839 996.43628,285.478556 993.217375,285.478556 C990.018844,285.478556 987.594479,283.195839 987.594479,279.669856 C987.594479,276.143874 990.120708,273.881538 993.319239,273.881538 C996.517771,273.881538 999.044,276.143874 999.044,279.669856 Z M989.957725,279.669856 C989.957725,282.217531 991.465313,283.460797 993.217375,283.460797 C994.949064,283.460797 996.660381,282.217531 996.660381,279.669856 C996.660381,277.122181 995.010183,275.899297 993.278494,275.899297 C991.526432,275.899297 989.957725,277.122181 989.957725,279.669856 Z M1001.34613,285.295123 L1001.34613,270.212886 L1003.66863,270.212886 L1003.66863,285.295123 L1001.34613,285.295123 Z M1017.42028,279.669856 C1017.42028,283.195839 1014.81256,285.478556 1011.59365,285.478556 C1008.39512,285.478556 1005.97076,283.195839 1005.97076,279.669856 C1005.97076,276.143874 1008.49699,273.881538 1011.69552,273.881538 C1014.89405,273.881538 1017.42028,276.143874 1017.42028,279.669856 Z M1008.334,279.669856 C1008.334,282.217531 1009.84159,283.460797 1011.59365,283.460797 C1013.32534,283.460797 1015.03666,282.217531 1015.03666,279.669856 C1015.03666,277.122181 1013.38646,275.899297 1011.65477,275.899297 C1009.90271,275.899297 1008.334,277.122181 1008.334,279.669856 Z M1022.04491,279.384516 L1022.04491,285.295123 L1019.72241,285.295123 L1019.72241,274.064971 L1022.04491,274.064971 L1022.04491,275.695483 C1022.69684,274.574506 1023.81734,273.881538 1025.40642,273.881538 L1025.40642,276.286543 L1024.81561,276.286543 C1023.10429,276.286543 1022.04491,276.999892 1022.04491,279.384516 Z M1042.39735,281.279987 C1042.39735,283.399653 1040.66566,285.437793 1037.50787,285.437793 C1034.67605,285.437793 1032.49616,283.888806 1032.49616,281.381894 L1034.98164,281.381894 C1035.08351,282.543634 1035.89842,283.481178 1037.50787,283.481178 C1039.1377,283.481178 1040.05447,282.604778 1040.05447,281.402275 C1040.05447,277.9782 1032.53691,280.199773 1032.53691,274.982134 C1032.53691,272.495603 1034.51307,270.946616 1037.40601,270.946616 C1040.11559,270.946616 1042.03064,272.373314 1042.23436,274.798701 L1039.66739,274.798701 C1039.5859,273.840775 1038.75061,272.964375 1037.28377,272.923612 C1035.93916,272.882849 1034.90015,273.535054 1034.90015,274.900608 C1034.90015,278.100488 1042.39735,276.103111 1042.39735,281.279987 Z M1045.51439,282.176769 L1045.51439,275.960441 L1044.19015,275.960441 L1044.19015,274.064971 L1045.51439,274.064971 L1045.51439,271.272719 L1047.85726,271.272719 L1047.85726,274.064971 L1050.58722,274.064971 L1050.58722,275.960441 L1047.85726,275.960441 L1047.85726,282.176769 C1047.85726,283.012406 1048.18323,283.35889 1049.16112,283.35889 L1050.58722,283.35889 L1050.58722,285.295123 L1048.75366,285.295123 C1046.75713,285.295123 1045.51439,284.459486 1045.51439,282.176769 Z M1062.8924,274.064971 L1062.8924,285.295123 L1060.5699,285.295123 L1060.5699,283.94995 C1059.83648,284.907876 1058.57336,285.458174 1057.24913,285.458174 C1054.62103,285.458174 1052.6245,283.807281 1052.6245,280.668545 L1052.6245,274.064971 L1054.92663,274.064971 L1054.92663,280.322061 C1054.92663,282.380583 1056.04713,283.440415 1057.73808,283.440415 C1059.44939,283.440415 1060.5699,282.380583 1060.5699,280.322061 L1060.5699,274.064971 L1062.8924,274.064971 Z M1065.17415,279.629093 C1065.17415,276.164255 1067.51703,273.881538 1070.49146,273.881538 C1071.9583,273.881538 1073.50663,274.574506 1074.36229,275.634339 L1074.36229,270.212886 L1076.70516,270.212886 L1076.70516,285.295123 L1074.36229,285.295123 L1074.36229,283.603467 C1073.64924,284.622537 1072.30464,285.478556 1070.47108,285.478556 C1067.51703,285.478556 1065.17415,283.093932 1065.17415,279.629093 Z M1074.36229,279.669856 C1074.36229,277.264851 1072.71209,275.899297 1070.96003,275.899297 C1069.22834,275.899297 1067.55777,277.203706 1067.55777,279.629093 C1067.55777,282.05448 1069.22834,283.460797 1070.96003,283.460797 C1072.71209,283.460797 1074.36229,282.095243 1074.36229,279.669856 Z M1084.18199,282.625159 L1087.46201,274.064971 L1089.866,274.064971 L1082.97999,290.573906 L1080.576,290.573906 L1082.85775,285.11169 L1078.43685,274.064971 L1081.0242,274.064971 L1084.18199,282.625159 Z" id="Color-Study" fill="#878585"></path>
                    <path d="M860.612996,346.91263 C860.612996,345.506313 859.55361,344.650294 858.005276,344.650294 L854.949354,344.650294 L854.949354,349.073058 L858.086768,349.073058 C859.655474,349.073058 860.612996,348.278184 860.612996,346.91263 Z M860.246286,340.737065 C860.246286,339.453037 859.329509,338.698925 857.821921,338.698925 L854.949354,338.698925 L854.949354,342.754824 L857.821921,342.754824 C859.329509,342.754824 860.246286,342.041475 860.246286,340.737065 Z M862.935497,347.157207 C862.935497,349.317635 861.183435,350.968529 858.290496,350.968529 L852.626854,350.968529 L852.626854,336.803455 L858.025649,336.803455 C861.020453,336.803455 862.609532,338.454348 862.609532,340.451725 C862.609532,342.163763 861.570519,343.203215 860.20554,343.692368 C861.713128,343.957327 862.935497,345.46555 862.935497,347.157207 Z M868.697294,345.057922 L868.697294,350.968529 L866.374793,350.968529 L866.374793,339.738376 L868.697294,339.738376 L868.697294,341.368889 C869.349224,340.247911 870.469729,339.554944 872.058808,339.554944 L872.058808,341.959949 L871.467997,341.959949 C869.756681,341.959949 868.697294,342.673298 868.697294,345.057922 Z M874.336854,345.302499 C874.336854,341.837661 876.679728,339.554944 879.633786,339.554944 C881.528458,339.554944 882.832318,340.451725 883.524993,341.368889 L883.524993,339.738376 L885.867867,339.738376 L885.867867,350.968529 L883.524993,350.968529 L883.524993,349.297254 C882.811945,350.25518 881.467339,351.151961 879.59304,351.151961 C876.679728,351.151961 874.336854,348.767337 874.336854,345.302499 Z M883.524993,345.343262 C883.524993,342.938256 881.874795,341.572703 880.122733,341.572703 C878.391044,341.572703 876.720474,342.877112 876.720474,345.302499 C876.720474,347.727886 878.391044,349.134203 880.122733,349.134203 C881.874795,349.134203 883.524993,347.768649 883.524993,345.343262 Z M897.802626,350.968529 L897.802626,344.691057 C897.802626,342.632535 896.682122,341.572703 894.991178,341.572703 C893.279862,341.572703 892.159357,342.632535 892.159357,344.691057 L892.159357,350.968529 L889.836856,350.968529 L889.836856,339.738376 L892.159357,339.738376 L892.159357,341.022405 C892.913151,340.105242 894.155893,339.554944 895.500498,339.554944 C898.128591,339.554944 900.104754,341.205837 900.104754,344.344573 L900.104754,350.968529 L897.802626,350.968529 Z M903.197713,345.302499 C903.197713,341.837661 905.540586,339.554944 908.515017,339.554944 C909.98186,339.554944 911.530194,340.247911 912.385852,341.307744 L912.385852,335.886291 L914.728725,335.886291 L914.728725,350.968529 L912.385852,350.968529 L912.385852,349.276872 C911.672803,350.295943 910.328198,351.151961 908.494644,351.151961 C905.540586,351.151961 903.197713,348.767337 903.197713,345.302499 Z M912.385852,345.343262 C912.385852,342.938256 910.735654,341.572703 908.983592,341.572703 C907.251903,341.572703 905.581332,342.877112 905.581332,345.302499 C905.581332,347.727886 907.251903,349.134203 908.983592,349.134203 C910.735654,349.134203 912.385852,347.768649 912.385852,345.343262 Z M918.697715,350.968529 L918.697715,339.738376 L921.020215,339.738376 L921.020215,350.968529 L918.697715,350.968529 Z M919.879338,338.250534 C919.044053,338.250534 918.392123,337.598329 918.392123,336.762692 C918.392123,335.927054 919.044053,335.274849 919.879338,335.274849 C920.69425,335.274849 921.34618,335.927054 921.34618,336.762692 C921.34618,337.598329 920.69425,338.250534 919.879338,338.250534 Z M932.954975,350.968529 L932.954975,344.691057 C932.954975,342.632535 931.83447,341.572703 930.143527,341.572703 C928.43221,341.572703 927.311706,342.632535 927.311706,344.691057 L927.311706,350.968529 L924.989205,350.968529 L924.989205,339.738376 L927.311706,339.738376 L927.311706,341.022405 C928.0655,340.105242 929.308241,339.554944 930.652847,339.554944 C933.28094,339.554944 935.257103,341.205837 935.257103,344.344573 L935.257103,350.968529 L932.954975,350.968529 Z M938.350062,345.302499 C938.350062,341.837661 940.692935,339.554944 943.646993,339.554944 C945.480546,339.554944 946.845525,340.410963 947.5382,341.368889 L947.5382,339.738376 L949.881074,339.738376 L949.881074,351.151961 C949.881074,354.209172 947.904911,356.51227 944.400787,356.51227 C941.405984,356.51227 939.185347,355.024428 938.900127,352.537897 L941.202255,352.537897 C941.548593,353.699637 942.791335,354.494511 944.400787,354.494511 C946.193595,354.494511 947.5382,353.393916 947.5382,351.151961 L947.5382,349.276872 C946.825152,350.234798 945.480546,351.151961 943.646993,351.151961 C940.692935,351.151961 938.350062,348.767337 938.350062,345.302499 Z M947.5382,345.343262 C947.5382,342.938256 945.888002,341.572703 944.135941,341.572703 C942.404251,341.572703 940.733681,342.877112 940.733681,345.302499 C940.733681,347.727886 942.404251,349.134203 944.135941,349.134203 C945.888002,349.134203 947.5382,347.768649 947.5382,345.343262 Z" id="Branding" fill="#878585"></path>
                    <path d="M158.799002,17.4246237 L158.799002,8.43642548 L161.121503,8.43642548 L161.121503,17.4653865 C161.121503,19.6665779 162.364244,20.7060294 164.320034,20.7060294 C166.296197,20.7060294 167.538939,19.6665779 167.538939,17.4653865 L167.538939,8.43642548 L169.861439,8.43642548 L169.861439,17.4246237 C169.861439,21.0321318 167.253719,22.7441696 164.299661,22.7441696 C161.325231,22.7441696 158.799002,21.0321318 158.799002,17.4246237 Z M181.249842,19.4627639 C181.249842,21.3582342 179.599644,22.7849324 176.951179,22.7849324 C174.261967,22.7849324 172.367296,21.195183 172.265431,19.1570428 L174.669423,19.1570428 C174.750915,20.0742059 175.626946,20.8283178 176.910433,20.8283178 C178.255039,20.8283178 178.968087,20.2576385 178.968087,19.4831453 C178.968087,17.2819539 172.448787,18.5456008 172.448787,14.4285576 C172.448787,12.6349943 174.119357,11.1879147 176.767823,11.1879147 C179.314425,11.1879147 180.984996,12.5534686 181.107232,14.7954228 L178.784732,14.7954228 C178.70324,13.8171156 177.949446,13.1445293 176.686332,13.1445293 C175.44359,13.1445293 174.79166,13.6540643 174.79166,14.4081762 C174.79166,16.6705118 181.127605,15.4068649 181.249842,19.4627639 Z M188.482191,13.1445293 C186.913484,13.1445293 185.65037,14.2043622 185.405896,15.9775442 L191.619604,15.9775442 C191.578859,14.245125 190.21388,13.1445293 188.482191,13.1445293 Z M193.738377,19.2589498 C193.10682,21.2155644 191.334385,22.7849324 188.584055,22.7849324 C185.36515,22.7849324 182.981531,20.5022154 182.981531,16.9762328 C182.981531,13.4502503 185.263286,11.1879147 188.584055,11.1879147 C191.782587,11.1879147 194.043969,13.4094875 194.043969,16.7112746 C194.043969,17.0985213 194.023596,17.4653865 193.962478,17.8526331 L185.385523,17.8526331 C185.548506,19.7073407 186.872739,20.8283178 188.584055,20.8283178 C190.010152,20.8283178 190.804692,20.1353501 191.232521,19.2589498 L193.738377,19.2589498 Z M198.648225,16.6908932 L198.648225,22.6014997 L196.325724,22.6014997 L196.325724,11.3713473 L198.648225,11.3713473 L198.648225,13.0018595 C199.300155,11.8808824 200.42066,11.1879147 202.009739,11.1879147 L202.009739,13.5929201 L201.418927,13.5929201 C199.707611,13.5929201 198.648225,14.3062692 198.648225,16.6908932 Z M216.963384,12.6757571 C216.963384,11.2490589 216.148472,10.3318959 214.335291,10.3318959 L211.768317,10.3318959 L211.768317,15.0807625 L214.335291,15.0807625 C216.148472,15.0807625 216.963384,14.0820738 216.963384,12.6757571 Z M209.445816,8.43642548 L214.335291,8.43642548 C217.696805,8.43642548 219.347003,10.3726587 219.347003,12.6757571 C219.347003,14.347032 218.450599,16.1405954 216.06698,16.731656 L219.571104,22.6014997 L216.800402,22.6014997 L213.540751,16.93547 L211.768317,16.93547 L211.768317,22.6014997 L209.445816,22.6014997 L209.445816,8.43642548 Z M227.047927,13.1445293 C225.47922,13.1445293 224.216106,14.2043622 223.971632,15.9775442 L230.18534,15.9775442 C230.144594,14.245125 228.779616,13.1445293 227.047927,13.1445293 Z M232.304113,19.2589498 C231.672555,21.2155644 229.900121,22.7849324 227.149791,22.7849324 C223.930886,22.7849324 221.547267,20.5022154 221.547267,16.9762328 C221.547267,13.4502503 223.829022,11.1879147 227.149791,11.1879147 C230.348322,11.1879147 232.609705,13.4094875 232.609705,16.7112746 C232.609705,17.0985213 232.589332,17.4653865 232.528214,17.8526331 L223.951259,17.8526331 C224.114242,19.7073407 225.438474,20.8283178 227.149791,20.8283178 C228.575888,20.8283178 229.370427,20.1353501 229.798257,19.2589498 L232.304113,19.2589498 Z M243.264686,19.4627639 C243.264686,21.3582342 241.614488,22.7849324 238.966023,22.7849324 C236.276811,22.7849324 234.38214,21.195183 234.280275,19.1570428 L236.684267,19.1570428 C236.765759,20.0742059 237.64179,20.8283178 238.925277,20.8283178 C240.269883,20.8283178 240.982931,20.2576385 240.982931,19.4831453 C240.982931,17.2819539 234.463631,18.5456008 234.463631,14.4285576 C234.463631,12.6349943 236.134201,11.1879147 238.782667,11.1879147 C241.329269,11.1879147 242.99984,12.5534686 243.122076,14.7954228 L240.799576,14.7954228 C240.718085,13.8171156 239.96429,13.1445293 238.701176,13.1445293 C237.458434,13.1445293 236.806504,13.6540643 236.806504,14.4081762 C236.806504,16.6705118 243.142449,15.4068649 243.264686,19.4627639 Z M250.497035,13.1445293 C248.928328,13.1445293 247.665214,14.2043622 247.42074,15.9775442 L253.634448,15.9775442 C253.593703,14.245125 252.228724,13.1445293 250.497035,13.1445293 Z M255.753221,19.2589498 C255.121664,21.2155644 253.349229,22.7849324 250.598899,22.7849324 C247.379994,22.7849324 244.996375,20.5022154 244.996375,16.9762328 C244.996375,13.4502503 247.27813,11.1879147 250.598899,11.1879147 C253.797431,11.1879147 256.058813,13.4094875 256.058813,16.7112746 C256.058813,17.0985213 256.03844,17.4653865 255.977322,17.8526331 L247.400367,17.8526331 C247.56335,19.7073407 248.887583,20.8283178 250.598899,20.8283178 C252.024996,20.8283178 252.819536,20.1353501 253.247365,19.2589498 L255.753221,19.2589498 Z M257.566401,16.93547 C257.566401,13.4706317 259.909275,11.1879147 262.863333,11.1879147 C264.758004,11.1879147 266.061864,12.0846964 266.75454,13.0018595 L266.75454,11.3713473 L269.097414,11.3713473 L269.097414,22.6014997 L266.75454,22.6014997 L266.75454,20.9302248 C266.041492,21.8881507 264.696886,22.7849324 262.822587,22.7849324 C259.909275,22.7849324 257.566401,20.4003083 257.566401,16.93547 Z M266.75454,16.9762328 C266.75454,14.5712274 265.104342,13.2056735 263.35228,13.2056735 C261.620591,13.2056735 259.95002,14.5100832 259.95002,16.93547 C259.95002,19.3608569 261.620591,20.7671736 263.35228,20.7671736 C265.104342,20.7671736 266.75454,19.4016197 266.75454,16.9762328 Z M274.475836,16.6908932 L274.475836,22.6014997 L272.153336,22.6014997 L272.153336,11.3713473 L274.475836,11.3713473 L274.475836,13.0018595 C275.127766,11.8808824 276.248271,11.1879147 277.837351,11.1879147 L277.837351,13.5929201 L277.246539,13.5929201 C275.535223,13.5929201 274.475836,14.3062692 274.475836,16.6908932 Z M279.202329,16.9762328 C279.202329,13.4706317 281.484084,11.1879147 284.702989,11.1879147 C287.453318,11.1879147 289.246126,12.5534686 289.877683,14.9177113 L287.371827,14.9177113 C286.984744,13.837497 286.08834,13.1445293 284.702989,13.1445293 C282.82869,13.1445293 281.585948,14.5304646 281.585948,16.9762328 C281.585948,19.4423825 282.82869,20.8283178 284.702989,20.8283178 C286.08834,20.8283178 286.943998,20.2168757 287.371827,19.0551358 L289.877683,19.0551358 C289.246126,21.2563272 287.453318,22.7849324 284.702989,22.7849324 C281.484084,22.7849324 279.202329,20.5022154 279.202329,16.9762328 Z M292.200184,22.6014997 L292.200184,7.5192624 L294.522685,7.5192624 L294.522685,12.6757571 C295.296852,11.7382126 296.559966,11.1879147 298.006436,11.1879147 C300.512292,11.1879147 302.468082,12.8388083 302.468082,15.9775442 L302.468082,22.6014997 L300.165954,22.6014997 L300.165954,16.324028 C300.165954,14.2655064 299.045449,13.2056735 297.354506,13.2056735 C295.643189,13.2056735 294.522685,14.2655064 294.522685,16.324028 L294.522685,22.6014997 L292.200184,22.6014997 Z" id="User-Research" fill="#878585"></path>
                    <path d="M0.343786372,87.6272299 L0.343786372,78.6390317 L2.6662871,78.6390317 L2.6662871,87.6679927 C2.6662871,89.8691841 3.90902872,90.9086356 5.86481881,90.9086356 C7.84098171,90.9086356 9.08372333,89.8691841 9.08372333,87.6679927 L9.08372333,78.6390317 L11.4062241,78.6390317 L11.4062241,87.6272299 C11.4062241,91.234738 8.79850394,92.9467758 5.84444599,92.9467758 C2.87001524,92.9467758 0.343786372,91.234738 0.343786372,87.6272299 Z M22.7946268,89.6653701 C22.7946268,91.5608404 21.1444289,92.9875386 18.4959631,92.9875386 C15.8067518,92.9875386 13.9120801,91.3977892 13.810216,89.359649 L16.214208,89.359649 C16.2956993,90.2768121 17.1717302,91.030924 18.4552175,91.030924 C19.7998232,91.030924 20.5128716,90.4602447 20.5128716,89.6857515 C20.5128716,87.4845601 13.9935714,88.748207 13.9935714,84.6311638 C13.9935714,82.8376005 15.6641421,81.3905209 18.3126078,81.3905209 C20.8592095,81.3905209 22.5297802,82.7560749 22.6520171,84.9980291 L20.3295163,84.9980291 C20.2480251,84.0197218 19.494231,83.3471355 18.2311165,83.3471355 C16.9883749,83.3471355 16.3364449,83.8566706 16.3364449,84.6107824 C16.3364449,86.873118 22.6723899,85.6094711 22.7946268,89.6653701 Z M24.5263159,87.1380763 C24.5263159,83.6732379 26.8691894,81.3905209 29.8232474,81.3905209 C31.717919,81.3905209 33.0217791,82.2873026 33.7144547,83.2044657 L33.7144547,81.5739536 L36.0573283,81.5739536 L36.0573283,92.804106 L33.7144547,92.804106 L33.7144547,91.132831 C33.0014063,92.0907569 31.6568006,92.9875386 29.7825018,92.9875386 C26.8691894,92.9875386 24.5263159,90.6029146 24.5263159,87.1380763 Z M33.7144547,87.1788391 C33.7144547,84.7738336 32.0642569,83.4082797 30.3121949,83.4082797 C28.5805058,83.4082797 26.9099351,84.7126894 26.9099351,87.1380763 C26.9099351,89.5634631 28.5805058,90.9697798 30.3121949,90.9697798 C32.0642569,90.9697798 33.7144547,89.6042259 33.7144547,87.1788391 Z M41.435751,83.2452285 C42.1691723,82.2261584 43.5748964,81.3905209 45.3473312,81.3905209 C48.321762,81.3905209 50.6238899,83.6732379 50.6238899,87.1380763 C50.6238899,90.6029146 48.3013891,92.9875386 45.3473312,92.9875386 C43.4934052,92.9875386 42.1691723,92.1519011 41.435751,91.1735938 L41.435751,92.804106 L39.1132503,92.804106 L39.1132503,77.7218686 L41.435751,77.7218686 L41.435751,83.2452285 Z M48.2606435,87.1380763 C48.2606435,84.7126894 46.5900728,83.4082797 44.8380109,83.4082797 C43.1063217,83.4082797 41.435751,84.7738336 41.435751,87.1788391 C41.435751,89.6042259 43.1063217,90.9697798 44.8380109,90.9697798 C46.5900728,90.9697798 48.2606435,89.5634631 48.2606435,87.1380763 Z M52.9260178,92.804106 L52.9260178,81.5739536 L55.2485185,81.5739536 L55.2485185,92.804106 L52.9260178,92.804106 Z M54.107641,80.0861112 C53.2723556,80.0861112 52.6204256,79.4339064 52.6204256,78.5982689 C52.6204256,77.7626314 53.2723556,77.1104266 54.107641,77.1104266 C54.9225535,77.1104266 55.5744835,77.7626314 55.5744835,78.5982689 C55.5744835,79.4339064 54.9225535,80.0861112 54.107641,80.0861112 Z M58.3044405,92.804106 L58.3044405,77.7218686 L60.6269413,77.7218686 L60.6269413,92.804106 L58.3044405,92.804106 Z M63.6828633,92.804106 L63.6828633,81.5739536 L66.005364,81.5739536 L66.005364,92.804106 L63.6828633,92.804106 Z M64.8644864,80.0861112 C64.0292011,80.0861112 63.3772711,79.4339064 63.3772711,78.5982689 C63.3772711,77.7626314 64.0292011,77.1104266 64.8644864,77.1104266 C65.679399,77.1104266 66.331329,77.7626314 66.331329,78.5982689 C66.331329,79.4339064 65.679399,80.0861112 64.8644864,80.0861112 Z M69.4279966,89.6857515 L69.4279966,83.4694239 L68.1037638,83.4694239 L68.1037638,81.5739536 L69.4279966,81.5739536 L69.4279966,78.7817015 L71.7708702,78.7817015 L71.7708702,81.5739536 L74.5008272,81.5739536 L74.5008272,83.4694239 L71.7708702,83.4694239 L71.7708702,89.6857515 C71.7708702,90.5213889 72.0968352,90.8678728 73.0747302,90.8678728 L74.5008272,90.8678728 L74.5008272,92.804106 L72.667274,92.804106 C70.6707383,92.804106 69.4279966,91.9684685 69.4279966,89.6857515 Z M81.0608731,90.1341423 L84.3408961,81.5739536 L86.744888,81.5739536 L79.8588771,98.082889 L77.4548851,98.082889 L79.7366402,92.6206733 L75.3157397,81.5739536 L77.903087,81.5739536 L81.0608731,90.1341423 Z M93.0604602,80.5345021 L93.0604602,78.6390317 L102.941275,78.6390317 L102.941275,80.5345021 L99.1723042,80.5345021 L99.1723042,92.804106 L96.8498035,92.804106 L96.8498035,80.5345021 L93.0604602,80.5345021 Z M110.010641,83.3471355 C108.441934,83.3471355 107.17882,84.4069684 106.934346,86.1801504 L113.148054,86.1801504 C113.107309,84.4477312 111.74233,83.3471355 110.010641,83.3471355 Z M115.266827,89.4615561 C114.63527,91.4181706 112.862835,92.9875386 110.112505,92.9875386 C106.893601,92.9875386 104.509981,90.7048216 104.509981,87.1788391 C104.509981,83.6528565 106.791736,81.3905209 110.112505,81.3905209 C113.311037,81.3905209 115.572419,83.6120937 115.572419,86.9138808 C115.572419,87.3011275 115.552046,87.6679927 115.490928,88.0552393 L106.913973,88.0552393 C107.076956,89.9099469 108.401189,91.030924 110.112505,91.030924 C111.538602,91.030924 112.333142,90.3379563 112.760971,89.4615561 L115.266827,89.4615561 Z M126.2274,89.6653701 C126.2274,91.5608404 124.577203,92.9875386 121.928737,92.9875386 C119.239525,92.9875386 117.344854,91.3977892 117.24299,89.359649 L119.646982,89.359649 C119.728473,90.2768121 120.604504,91.030924 121.887991,91.030924 C123.232597,91.030924 123.945645,90.4602447 123.945645,89.6857515 C123.945645,87.4845601 117.426345,88.748207 117.426345,84.6311638 C117.426345,82.8376005 119.096916,81.3905209 121.745381,81.3905209 C124.291983,81.3905209 125.962554,82.7560749 126.084791,84.9980291 L123.76229,84.9980291 C123.680799,84.0197218 122.927005,83.3471355 121.66389,83.3471355 C120.421149,83.3471355 119.769219,83.8566706 119.769219,84.6107824 C119.769219,86.873118 126.105164,85.6094711 126.2274,89.6653701 Z M129.099967,89.6857515 L129.099967,83.4694239 L127.775734,83.4694239 L127.775734,81.5739536 L129.099967,81.5739536 L129.099967,78.7817015 L131.442841,78.7817015 L131.442841,81.5739536 L134.172798,81.5739536 L134.172798,83.4694239 L131.442841,83.4694239 L131.442841,89.6857515 C131.442841,90.5213889 131.768806,90.8678728 132.746701,90.8678728 L134.172798,90.8678728 L134.172798,92.804106 L132.339244,92.804106 C130.342709,92.804106 129.099967,91.9684685 129.099967,89.6857515 Z M136.311943,92.804106 L136.311943,81.5739536 L138.634444,81.5739536 L138.634444,92.804106 L136.311943,92.804106 Z M137.493566,80.0861112 C136.658281,80.0861112 136.006351,79.4339064 136.006351,78.5982689 C136.006351,77.7626314 136.658281,77.1104266 137.493566,77.1104266 C138.308479,77.1104266 138.960409,77.7626314 138.960409,78.5982689 C138.960409,79.4339064 138.308479,80.0861112 137.493566,80.0861112 Z M149.656136,92.804106 L149.656136,86.5266342 C149.656136,84.4681126 148.535631,83.4082797 146.844688,83.4082797 C145.133371,83.4082797 144.012867,84.4681126 144.012867,86.5266342 L144.012867,92.804106 L141.690366,92.804106 L141.690366,81.5739536 L144.012867,81.5739536 L144.012867,82.8579819 C144.766661,81.9408188 146.009402,81.3905209 147.354008,81.3905209 C149.982101,81.3905209 151.958264,83.0414145 151.958264,86.1801504 L151.958264,92.804106 L149.656136,92.804106 Z M154.138155,87.1380763 C154.138155,83.6732379 156.481028,81.3905209 159.435086,81.3905209 C161.26864,81.3905209 162.633618,82.2465398 163.326294,83.2044657 L163.326294,81.5739536 L165.669167,81.5739536 L165.669167,92.9875386 C165.669167,96.0447488 163.693004,98.3478472 160.18888,98.3478472 C157.194077,98.3478472 154.97344,96.8600049 154.688221,94.3734739 L156.990349,94.3734739 C157.336687,95.5352138 158.579428,96.3300885 160.18888,96.3300885 C161.981688,96.3300885 163.326294,95.2294928 163.326294,92.9875386 L163.326294,91.1124496 C162.613245,92.0703755 161.26864,92.9875386 159.435086,92.9875386 C156.481028,92.9875386 154.138155,90.6029146 154.138155,87.1380763 Z M163.326294,87.1788391 C163.326294,84.7738336 161.676096,83.4082797 159.924034,83.4082797 C158.192345,83.4082797 156.521774,84.7126894 156.521774,87.1380763 C156.521774,89.5634631 158.192345,90.9697798 159.924034,90.9697798 C161.676096,90.9697798 163.326294,89.6042259 163.326294,87.1788391 Z" id="Usability-Testing" fill="#878585"></path>
                    <path d="M45.6167051,280.118247 L45.6167051,271.130049 L47.9392058,271.130049 L47.9392058,280.15901 C47.9392058,282.360201 49.1819474,283.399653 51.1377375,283.399653 C53.1139004,283.399653 54.356642,282.360201 54.356642,280.15901 L54.356642,271.130049 L56.6791427,271.130049 L56.6791427,280.118247 C56.6791427,283.725755 54.0714226,285.437793 51.1173647,285.437793 C48.1429339,285.437793 45.6167051,283.725755 45.6167051,280.118247 Z M68.0675454,282.156387 C68.0675454,284.051857 66.4173476,285.478556 63.7688818,285.478556 C61.0796704,285.478556 59.1849988,283.888806 59.0831347,281.850666 L61.4871267,281.850666 C61.568618,282.767829 62.4446489,283.521941 63.7281362,283.521941 C65.0727419,283.521941 65.7857903,282.951262 65.7857903,282.176769 C65.7857903,279.975577 59.26649,281.239224 59.26649,277.122181 C59.26649,275.328618 60.9370607,273.881538 63.5855265,273.881538 C66.1321282,273.881538 67.8026989,275.247092 67.9249357,277.489046 L65.602435,277.489046 C65.5209438,276.510739 64.7671497,275.838153 63.5040352,275.838153 C62.2612936,275.838153 61.6093636,276.347688 61.6093636,277.101799 C61.6093636,279.364135 67.9453086,278.100488 68.0675454,282.156387 Z M75.2998942,275.838153 C73.7311876,275.838153 72.4680731,276.897985 72.2235994,278.671167 L78.4373075,278.671167 C78.3965618,276.938748 77.0315833,275.838153 75.2998942,275.838153 Z M80.5560801,281.952573 C79.9245228,283.909188 78.1520881,285.478556 75.4017583,285.478556 C72.1828538,285.478556 69.7992346,283.195839 69.7992346,279.669856 C69.7992346,276.143874 72.0809897,273.881538 75.4017583,273.881538 C78.60029,273.881538 80.8616723,276.103111 80.8616723,279.404898 C80.8616723,279.792145 80.8412994,280.15901 80.780181,280.546256 L72.2032266,280.546256 C72.3662091,282.400964 73.6904419,283.521941 75.4017583,283.521941 C76.8278552,283.521941 77.6223949,282.828973 78.050224,281.952573 L80.5560801,281.952573 Z M85.4659281,279.384516 L85.4659281,285.295123 L83.1434274,285.295123 L83.1434274,274.064971 L85.4659281,274.064971 L85.4659281,275.695483 C86.1178581,274.574506 87.2383629,273.881538 88.8274423,273.881538 L88.8274423,276.286543 L88.2366307,276.286543 C86.5253144,276.286543 85.4659281,276.999892 85.4659281,279.384516 Z M105.818369,281.279987 C105.818369,283.399653 104.08668,285.437793 100.928893,285.437793 C98.0970724,285.437793 95.9171814,283.888806 95.9171814,281.381894 L98.4026646,281.381894 C98.5045287,282.543634 99.3194412,283.481178 100.928893,283.481178 C102.558719,283.481178 103.475495,282.604778 103.475495,281.402275 C103.475495,277.9782 95.957927,280.199773 95.957927,274.982134 C95.957927,272.495603 97.9340899,270.946616 100.827029,270.946616 C103.536614,270.946616 105.451658,272.373314 105.655386,274.798701 L103.088412,274.798701 C103.00692,273.840775 102.171635,272.964375 100.704793,272.923612 C99.3601868,272.882849 98.3211734,273.535054 98.3211734,274.900608 C98.3211734,278.100488 105.818369,276.103111 105.818369,281.279987 Z M108.935409,282.176769 L108.935409,275.960441 L107.611176,275.960441 L107.611176,274.064971 L108.935409,274.064971 L108.935409,271.272719 L111.278283,271.272719 L111.278283,274.064971 L114.00824,274.064971 L114.00824,275.960441 L111.278283,275.960441 L111.278283,282.176769 C111.278283,283.012406 111.604248,283.35889 112.582143,283.35889 L114.00824,283.35889 L114.00824,285.295123 L112.174686,285.295123 C110.178151,285.295123 108.935409,284.459486 108.935409,282.176769 Z M126.843112,279.669856 C126.843112,283.195839 124.235392,285.478556 121.016487,285.478556 C117.817956,285.478556 115.393591,283.195839 115.393591,279.669856 C115.393591,276.143874 117.91982,273.881538 121.118352,273.881538 C124.316883,273.881538 126.843112,276.143874 126.843112,279.669856 Z M117.756837,279.669856 C117.756837,282.217531 119.264426,283.460797 121.016487,283.460797 C122.748177,283.460797 124.459493,282.217531 124.459493,279.669856 C124.459493,277.122181 122.809295,275.899297 121.077606,275.899297 C119.325544,275.899297 117.756837,277.122181 117.756837,279.669856 Z M131.467741,279.384516 L131.467741,285.295123 L129.14524,285.295123 L129.14524,274.064971 L131.467741,274.064971 L131.467741,275.695483 C132.119671,274.574506 133.240176,273.881538 134.829255,273.881538 L134.829255,276.286543 L134.238443,276.286543 C132.527127,276.286543 131.467741,276.999892 131.467741,279.384516 Z M136.9684,285.295123 L136.9684,274.064971 L139.290901,274.064971 L139.290901,285.295123 L136.9684,285.295123 Z M138.150024,272.577128 C137.314738,272.577128 136.662808,271.924923 136.662808,271.089286 C136.662808,270.253648 137.314738,269.601444 138.150024,269.601444 C138.964936,269.601444 139.616866,270.253648 139.616866,271.089286 C139.616866,271.924923 138.964936,272.577128 138.150024,272.577128 Z M147.073316,275.838153 C145.504609,275.838153 144.241495,276.897985 143.997021,278.671167 L150.210729,278.671167 C150.169983,276.938748 148.805005,275.838153 147.073316,275.838153 Z M152.329502,281.952573 C151.697944,283.909188 149.92551,285.478556 147.17518,285.478556 C143.956275,285.478556 141.572656,283.195839 141.572656,279.669856 C141.572656,276.143874 143.854411,273.881538 147.17518,273.881538 C150.373712,273.881538 152.635094,276.103111 152.635094,279.404898 C152.635094,279.792145 152.614721,280.15901 152.553603,280.546256 L143.976648,280.546256 C144.139631,282.400964 145.463864,283.521941 147.17518,283.521941 C148.601277,283.521941 149.395817,282.828973 149.823646,281.952573 L152.329502,281.952573 Z M163.290075,282.156387 C163.290075,284.051857 161.639877,285.478556 158.991412,285.478556 C156.3022,285.478556 154.407529,283.888806 154.305665,281.850666 L156.709657,281.850666 C156.791148,282.767829 157.667179,283.521941 158.950666,283.521941 C160.295272,283.521941 161.00832,282.951262 161.00832,282.176769 C161.00832,279.975577 154.48902,281.239224 154.48902,277.122181 C154.48902,275.328618 156.159591,273.881538 158.808056,273.881538 C161.354658,273.881538 163.025229,275.247092 163.147466,277.489046 L160.824965,277.489046 C160.743474,276.510739 159.98968,275.838153 158.726565,275.838153 C157.483824,275.838153 156.831893,276.347688 156.831893,277.101799 C156.831893,279.364135 163.167838,278.100488 163.290075,282.156387 Z" id="User-Stories" fill="#878585"></path>
                    <path d="M171.328282,352.383904 L173.895257,352.383904 C175.708437,352.383904 176.523349,351.507504 176.523349,350.080806 C176.523349,348.613345 175.708437,347.757326 173.895257,347.757326 L171.328282,347.757326 L171.328282,352.383904 Z M178.906969,350.080806 C178.906969,352.098564 177.582736,354.279374 173.895257,354.279374 L171.328282,354.279374 L171.328282,360.02693 L169.005781,360.02693 L169.005781,345.861855 L173.895257,345.861855 C177.256771,345.861855 178.906969,347.777707 178.906969,350.080806 Z M185.854098,350.569959 C184.285391,350.569959 183.022277,351.629792 182.777803,353.402974 L188.991511,353.402974 C188.950766,351.670555 187.585787,350.569959 185.854098,350.569959 Z M191.110284,356.68438 C190.478727,358.640994 188.706292,360.210362 185.955962,360.210362 C182.737058,360.210362 180.353438,357.927645 180.353438,354.401663 C180.353438,350.87568 182.635193,348.613345 185.955962,348.613345 C189.154494,348.613345 191.415876,350.834917 191.415876,354.136704 C191.415876,354.523951 191.395503,354.890816 191.334385,355.278063 L182.75743,355.278063 C182.920413,357.132771 184.244646,358.253748 185.955962,358.253748 C187.382059,358.253748 188.176599,357.56078 188.604428,356.68438 L191.110284,356.68438 Z M196.020132,354.116323 L196.020132,360.02693 L193.697631,360.02693 L193.697631,348.796777 L196.020132,348.796777 L196.020132,350.427289 C196.672062,349.306312 197.792567,348.613345 199.381646,348.613345 L199.381646,351.01835 L198.790835,351.01835 C197.079518,351.01835 196.020132,351.731699 196.020132,354.116323 Z M209.894018,356.888194 C209.894018,358.783664 208.24382,360.210362 205.595354,360.210362 C202.906143,360.210362 201.011471,358.620613 200.909607,356.582473 L203.313599,356.582473 C203.39509,357.499636 204.271121,358.253748 205.554609,358.253748 C206.899214,358.253748 207.612263,357.683068 207.612263,356.908575 C207.612263,354.707384 201.092962,355.971031 201.092962,351.853987 C201.092962,350.060424 202.763533,348.613345 205.411999,348.613345 C207.958601,348.613345 209.629171,349.978899 209.751408,352.220853 L207.428907,352.220853 C207.347416,351.242545 206.593622,350.569959 205.330508,350.569959 C204.087766,350.569959 203.435836,351.079494 203.435836,351.833606 C203.435836,354.095942 209.771781,352.832295 209.894018,356.888194 Z M223.095601,354.401663 C223.095601,357.927645 220.487881,360.210362 217.268976,360.210362 C214.070445,360.210362 211.64608,357.927645 211.64608,354.401663 C211.64608,350.87568 214.172309,348.613345 217.37084,348.613345 C220.569372,348.613345 223.095601,350.87568 223.095601,354.401663 Z M214.009326,354.401663 C214.009326,356.949338 215.516914,358.192603 217.268976,358.192603 C219.000665,358.192603 220.711982,356.949338 220.711982,354.401663 C220.711982,351.853987 219.061784,350.631103 217.330095,350.631103 C215.578033,350.631103 214.009326,351.853987 214.009326,354.401663 Z M233.363499,360.02693 L233.363499,353.749458 C233.363499,351.690936 232.242994,350.631103 230.552051,350.631103 C228.840734,350.631103 227.72023,351.690936 227.72023,353.749458 L227.72023,360.02693 L225.397729,360.02693 L225.397729,348.796777 L227.72023,348.796777 L227.72023,350.080806 C228.474024,349.163642 229.716765,348.613345 231.061371,348.613345 C233.689464,348.613345 235.665627,350.264238 235.665627,353.402974 L235.665627,360.02693 L233.363499,360.02693 Z M237.845518,354.3609 C237.845518,350.896062 240.188391,348.613345 243.142449,348.613345 C245.037121,348.613345 246.340981,349.510126 247.033657,350.427289 L247.033657,348.796777 L249.37653,348.796777 L249.37653,360.02693 L247.033657,360.02693 L247.033657,358.355655 C246.320608,359.313581 244.976003,360.210362 243.101704,360.210362 C240.188391,360.210362 237.845518,357.825738 237.845518,354.3609 Z M247.033657,354.401663 C247.033657,351.996657 245.383459,350.631103 243.631397,350.631103 C241.899708,350.631103 240.229137,351.935513 240.229137,354.3609 C240.229137,356.786287 241.899708,358.192603 243.631397,358.192603 C245.383459,358.192603 247.033657,356.82705 247.033657,354.401663 Z M260.805679,356.888194 C260.805679,358.783664 259.155481,360.210362 256.507015,360.210362 C253.817804,360.210362 251.923132,358.620613 251.821268,356.582473 L254.22526,356.582473 C254.306751,357.499636 255.182782,358.253748 256.466269,358.253748 C257.810875,358.253748 258.523923,357.683068 258.523923,356.908575 C258.523923,354.707384 252.004623,355.971031 252.004623,351.853987 C252.004623,350.060424 253.675194,348.613345 256.32366,348.613345 C258.870261,348.613345 260.540832,349.978899 260.663069,352.220853 L258.340568,352.220853 C258.259077,351.242545 257.505283,350.569959 256.242168,350.569959 C254.999427,350.569959 254.347497,351.079494 254.347497,351.833606 C254.347497,354.095942 260.683442,352.832295 260.805679,356.888194 Z" id="Personas" fill="#878585"></path>
                    <g id="UI">
                        <use fill="#000000" xlink:href="#path-3"></use>
                        <use fill="url(#linearGradient-1)" xlink:href="#path-3"></use>
                    </g>
                    <path id="Line-3" d="M249.591459,43.9890617 L308.835368,120.694368 L309.141001,121.090081 L308.349574,121.701345 L308.043942,121.305632 L248.800032,44.6003259 L245.634326,47.0453827 L243.694368,37.1718543 L252.757165,41.544005 L249.591459,43.9890617 Z" fill="#979797" fill-rule="nonzero"></path>
                    <path id="Line-3" d="M116.461854,113.75842 L226.647465,165.978173 L227.099292,166.192305 L226.671028,167.095959 L226.219201,166.881827 L116.033589,114.662073 L114.320532,118.276687 L108.11484,110.355868 L118.174911,110.143806 L116.461854,113.75842 Z" fill="#979797" fill-rule="nonzero"></path>
                    <path id="Line-3" d="M115.360848,252.144584 L226.207822,196.129215 L226.654079,195.903704 L227.105101,196.796217 L226.658844,197.021728 L115.81187,253.037097 L117.615958,256.607148 L107.553744,256.650039 L113.556759,248.574533 L115.360848,252.144584 Z" fill="#979797" fill-rule="nonzero"></path>
                    <path id="Line-3" d="M231.990174,326.534681 L289.050275,256.683682 L289.366593,256.296457 L290.141043,256.929093 L289.824725,257.316318 L232.764624,327.167316 L235.862424,329.697857 L226.683682,333.821049 L228.892374,324.00414 L231.990174,326.534681 Z" fill="#979797" fill-rule="nonzero"></path>
                    <path id="Line-3" d="M884.163369,316.742002 L835.16243,246.285484 L834.876947,245.874998 L835.697919,245.30403 L835.983403,245.714516 L884.984342,316.171034 L888.268231,313.887162 L889.712567,323.845269 L880.87948,319.025874 L884.163369,316.742002 Z" fill="#979797" fill-rule="nonzero"></path>
                    <path id="Line-3" d="M1001.71648,259.846021 L888.892292,198.999403 L888.452212,198.762065 L888.926887,197.881904 L889.366967,198.119241 L1002.19115,258.965859 L1004.08985,255.445215 L1009.87527,263.678015 L999.817778,263.366665 L1001.71648,259.846021 Z" fill="#979797" fill-rule="nonzero"></path>
                    <path id="Line-3" d="M1035.67253,112.08203 L887.315492,168.891465 L886.848555,169.070267 L886.490952,168.136393 L886.957889,167.957591 L1035.31493,111.148156 L1033.88452,107.412661 L1043.89859,108.39667 L1037.10294,115.817526 L1035.67253,112.08203 Z" fill="#979797" fill-rule="nonzero"></path>
                    <path id="Line-3" d="M901.571948,43.3148402 L811.481553,127.796822 L811.11683,128.138841 L810.432793,127.409394 L810.797516,127.067375 L900.887912,42.5853929 L898.151764,39.6676034 L907.794956,36.793784 L904.308096,46.2326297 L901.571948,43.3148402 Z" fill="#979797" fill-rule="nonzero"></path>
                    <path id="Line-3" d="M504.506672,16.6303655 C472.854461,17.9549336 446.416863,29.3723872 425.168538,50.8898775 C402.0107,74.3410679 387.453294,98.0851359 381.485264,122.120492 L381.364772,122.605757 L380.394243,122.364772 L380.514736,121.879508 C386.529685,97.6551878 401.180789,73.7582933 424.456994,50.1872351 C445.892185,28.4805132 472.579927,16.9590448 504.494855,15.629988 L504.447437,11.6160704 L513.499965,16.0094439 L504.553749,20.6154425 L504.506672,16.6303655 Z" fill="#979797" fill-rule="nonzero"></path>
                    <path id="Line-3" d="M780.507624,112.857211 C774.759049,92.0564561 764.116102,73.0181244 748.57419,55.7380113 C731.020628,36.2212664 706.637035,23.4714955 675.405964,17.4910776 L674.914886,17.3970415 L675.102959,16.4148863 L675.594036,16.5089224 C707.029632,22.5285045 731.610002,35.381167 749.317702,55.0692888 C764.969366,72.4714292 775.691788,91.6573889 781.480366,112.622956 L785.384855,111.682679 L783.117063,121.486103 L776.634999,113.789815 L780.507624,112.857211 Z" fill="#979797" fill-rule="nonzero"></path>
                </g>
            </g>
        </g>
    </g>
</svg>