<?xml version="1.0" encoding="utf-8"?>
<!-- Generator: Adobe Illustrator 16.0.3, SVG Export Plug-In . SVG Version: 6.00 Build 0)  -->
<!DOCTYPE svg PUBLIC "-//W3C//DTD SVG 1.1//EN" "http://www.w3.org/Graphics/SVG/1.1/DTD/svg11.dtd">
<svg version="1.1" id="wmt_logo" xmlns="http://www.w3.org/2000/svg" xmlns:xlink="http://www.w3.org/1999/xlink" x="0px" y="0px"
	width="120px" height="84.4px" viewBox="0 0 120 84.4" enable-background="new 0 0 120 84.4" xml:space="preserve">
<g>
	<g id="bubbles">
		<path id="bubble_1" class="bubble" fill="#2156A6" d="M119.4,62.9c-0.4,7.6-7.8,14.1-16.1,14.3c-27.9,0.6-51.9,0.6-79.8,0
			C15.2,77,7.8,70.6,7.4,62.9c-0.8-16-0.8-32.1,0-48.1C7.8,7.2,15.2,0.7,23.5,0.5c27.9-0.6,51.9-0.6,79.8,0
			c8.3,0.2,15.7,6.7,16.1,14.3C120.2,30.8,120.2,46.9,119.4,62.9z"/>
		<path id="bubble_2" class="bubble" fill="#2156A6" d="M44.9,72.1c0,5.3-4.3,9.6-9.6,9.6H12.4c-5.3,0-9.6-4.3-9.6-9.6V60.6
			c0-5.3,4.3-9.6,9.6-9.6h22.9c5.3,0,9.6,4.3,9.6,9.6V72.1z"/>
		<path id="bubble_3" class="bubble" fill="#2156A6" d="M20.8,80c0,2.4-2,4.4-4.4,4.4h-12C2,84.4,0,82.4,0,80v-6.4c0-2.4,2-4.4,4.4-4.4h12
		c2.4,0,4.4,2,4.4,4.4V80z"/>
	</g>
	<g id="workmark">
		<path class="letter" fill="#FFFFFF" d="M41.5,25.1c-0.3,1.3-0.8,1.7-2.1,1.7c-1.3,0-1.8-0.6-2.1-1.8l-2.2-9.8h0L32.8,25c-0.3,1.2-0.8,1.8-2.1,1.8
			c-1.3,0-1.8-0.5-2.1-1.7l-3-12.2c-0.1-0.3-0.2-0.7-0.2-1c0-1.1,0.9-1.7,1.7-1.7c0.9,0,1.4,0.4,1.6,1.5l2,10.7h0l2.4-10.8
			c0.2-0.9,0.5-1.4,1.8-1.4c1.4,0,1.7,0.7,2,1.7l2.3,10.4h0l2.1-10.7c0.2-1.1,0.7-1.5,1.6-1.5c0.8,0,1.7,0.5,1.7,1.7
			c0,0.4-0.1,0.7-0.2,1L41.5,25.1z"/>
		<path class="letter" fill="#FFFFFF" d="M49.4,11.3c0.3-0.8,0.8-1.1,1.7-1.1h0.8c0.8,0,1.5,0.2,1.8,1.3l4.2,12.3c0.1,0.4,0.3,1,0.3,1.4
			c0,0.9-0.7,1.6-1.6,1.6c-0.8,0-1.3-0.3-1.6-1l-0.9-2.7h-5.5l-0.9,2.7c-0.2,0.7-0.7,1-1.5,1c-0.9,0-1.6-0.6-1.6-1.6
			c0-0.4,0.2-1.1,0.3-1.4L49.4,11.3z M51.5,14.1L51.5,14.1l-2.1,6.5h4L51.5,14.1z"/>
		<path class="letter" fill="#FFFFFF" d="M62.2,13.5h-3.3c-1,0-1.8-0.5-1.8-1.5c0-1,0.8-1.5,1.8-1.5h9.9c1,0,1.8,0.5,1.8,1.5c0,1-0.8,1.5-1.8,1.5
			h-3.3V25c0,1.1-0.7,1.8-1.7,1.8c-1.1,0-1.7-0.7-1.7-1.8V13.5z"/>
		<path class="letter" fill="#FFFFFF" d="M78.4,10c3.9,0,6.1,2.6,6.1,4.2c0,1-0.5,1.7-1.6,1.7c-2,0-1.4-2.9-4.6-2.9c-2.2,0-3.9,2-3.9,5.5
			c0,2.9,1.1,5.5,4.1,5.5c2.7,0,2.6-3.1,4.3-3.1c0.8,0,1.7,0.5,1.7,1.4c0,2.3-2.6,4.6-6,4.6c-4.7,0-7.5-2.9-7.5-8.4
			C71,13.9,73.5,10,78.4,10z"/>
		<path class="letter" fill="#FFFFFF" d="M86.6,12c0-1.1,0.7-1.8,1.7-1.8c1,0,1.7,0.7,1.7,1.8v4.6h6.3V12c0-1.1,0.7-1.8,1.7-1.8
			c1.1,0,1.7,0.7,1.7,1.8v13c0,1.1-0.7,1.8-1.7,1.8c-1,0-1.7-0.7-1.7-1.8v-5.4h-6.3V25c0,1.1-0.7,1.8-1.7,1.8
			c-1.1,0-1.7-0.7-1.7-1.8V12z"/>
		<path class="letter" fill="#FFFFFF" d="M27.4,32.4c0-1.5,0.9-1.8,1.9-1.8h1c1.1,0,1.6,0.4,1.9,1.7l3,10.3h0l3-10.3c0.4-1.2,0.9-1.7,1.9-1.7h1
			c0.9,0,1.9,0.3,1.9,1.8v13.1c0,0.9-0.4,1.8-1.5,1.8c-1.1,0-1.5-0.9-1.5-1.8v-10h0l-3.2,10.7c-0.2,0.8-0.8,1.1-1.5,1.1
			c-0.7,0-1.2-0.3-1.5-1.1l-3.2-10.7h0v10c0,0.9-0.4,1.8-1.5,1.8c-1.1,0-1.5-0.9-1.5-1.8V32.4z"/>
		<path class="letter" fill="#FFFFFF" d="M46.1,33c0-1.6,0.8-2.1,2-2.1h8.1c1,0,1.7,0.3,1.7,1.5c0,1.2-0.7,1.5-1.7,1.5h-6.7v3.5h5.8
			c0.9,0,1.6,0.3,1.6,1.4c0,1.1-0.7,1.4-1.6,1.4h-5.8V44h6.8c1,0,1.7,0.3,1.7,1.5c0,1.2-0.7,1.5-1.7,1.5h-8.2c-1.2,0-2-0.5-2-2.1V33
			z"/>
		<path class="letter" fill="#FFFFFF" d="M31.6,54.4h-3.3c-1,0-1.8-0.5-1.8-1.5c0-1,0.8-1.5,1.8-1.5h9.9c1,0,1.8,0.5,1.8,1.5c0,1-0.8,1.5-1.8,1.5
			H35v11.5c0,1.1-0.7,1.8-1.7,1.8c-1,0-1.7-0.7-1.7-1.8V54.4z"/>
		<path class="letter" fill="#FFFFFF" d="M41.9,52.9c0-1.1,0.7-1.8,1.7-1.8c1.1,0,1.7,0.7,1.7,1.8v4.6h6.3v-4.6c0-1.1,0.7-1.8,1.7-1.8
			c1.1,0,1.7,0.7,1.7,1.8v13c0,1.1-0.7,1.8-1.7,1.8c-1,0-1.7-0.7-1.7-1.8v-5.4h-6.3v5.4c0,1.1-0.7,1.8-1.7,1.8
			c-1.1,0-1.7-0.7-1.7-1.8V52.9z"/>
		<path class="letter" fill="#FFFFFF" d="M58.2,52.9c0-1.1,0.7-1.8,1.7-1.8c1.1,0,1.7,0.7,1.7,1.8v13c0,1.1-0.7,1.8-1.7,1.8c-1,0-1.7-0.7-1.7-1.8
			V52.9z"/>
		<path class="letter" fill="#FFFFFF" d="M64.8,53.2c0-1.5,0.7-2.1,2.2-2.1c0.7,0,1.3,0.3,1.7,1l6,10.3h0v-9.5c0-1.2,0.6-1.8,1.7-1.8
			c1,0,1.7,0.6,1.7,1.8v12.6c0,1.4-0.6,2.3-2,2.3c-1.1,0-1.4-0.2-1.9-1l-6-10h0v9.3c0,1.2-0.6,1.8-1.7,1.8c-1,0-1.7-0.6-1.7-1.8
			V53.2z"/>
		<path class="letter" fill="#FFFFFF" d="M80.8,52.9c0-1.1,0.7-1.8,1.7-1.8c1,0,1.7,0.7,1.7,1.8v5.3l5.4-6.3C90,51.4,90.4,51,91,51
			c0.8,0,1.6,0.5,1.6,1.5c0,0.6-0.3,0.9-0.6,1.3l-3.5,4l4.2,6.8c0.3,0.5,0.7,1,0.7,1.5c0,1.4-0.9,1.8-1.8,1.8c-0.7,0-1.1-0.2-1.5-1
			l-4-6.5l-1.9,2v3.6c0,1.1-0.7,1.8-1.7,1.8c-1.1,0-1.7-0.7-1.7-1.8V52.9z"/>
	</g>
</g>
</svg>
