<svg xmlns="http://www.w3.org/2000/svg" xmlns:xlink="http://www.w3.org/1999/xlink" version="1.1" id="Layer_1" x="0px" y="0px" viewBox="0 0 489.4 489.4" style="enable-background:new 0 0 489.4 489.4;" xml:space="preserve" width="512" height="512" class=""><g><g>
	<g>
		<rect id="XMLID_860_" x="105.5" y="9.1" style="fill:#BCE8FC" width="374.8" height="374.8" data-original="#A7A9AC" class="active-path" data-old_color="#bce8fc"></rect>
		<path d="M393,480.3c0-5-4.1-9.1-9.1-9.1H18.2V105.5c0-5-4.1-9.1-9.1-9.1S0,100.5,0,105.5v374.8c0,5,4.1,9.1,9.1,9.1h374.8    C388.9,489.4,393,485.3,393,480.3z" data-original="#000000" class="" style="fill:#3D89FF" data-old_color="#3d89ff"></path>
		<path d="M373.9,187.5H302v-71.9c0-5-4.1-9.1-9.1-9.1s-9.1,4.1-9.1,9.1v71.9h-71.9c-5,0-9.1,4.1-9.1,9.1s4.1,9.1,9.1,9.1h71.9v71.9    c0,5,4.1,9.1,9.1,9.1s9.1-4.1,9.1-9.1v-71.9h71.9c5,0,9.1-4.1,9.1-9.1C382.9,191.5,378.9,187.5,373.9,187.5z" data-original="#000000" class="" style="fill:#3D89FF" data-old_color="#3d89ff"></path>
		<path d="M105.5,393h374.8c5,0,9.1-4.1,9.1-9.1V9.1c0-5-4.1-9.1-9.1-9.1H105.5c-5,0-9.1,4.1-9.1,9.1v374.8    C96.4,388.9,100.5,393,105.5,393z M114.5,18.2h356.7v356.7H114.5V18.2z" data-original="#000000" class="" style="fill:#3D89FF" data-old_color="#3d89ff"></path>
	</g>
</g></g> </svg>