<?xml version="1.0" encoding="utf-8"?>
<!-- Generator: Adobe Illustrator 21.1.0, SVG Export Plug-In . SVG Version: 6.00 Build 0)  -->
<svg version="1.1" id="Layer_1" xmlns="http://www.w3.org/2000/svg" xmlns:xlink="http://www.w3.org/1999/xlink" x="0px" y="0px"
	 viewBox="0 0 1146.5 528.9" style="enable-background:new 0 0 1146.5 528.9;" xml:space="preserve">
<style type="text/css">
	.st0{fill:#ED8032;}
	.st1{fill:#FFFFFF;}
</style>
<g>
	<g>
		<g>
			<polygon class="st0" points="28.3,0 0,27.5 0,502.8 26.9,528.9 144.4,528.9 175.7,498.4 175.7,31.9 143,0 			"/>
			<polygon class="st1" points="169.5,349.7 169.5,495.9 141.8,522.8 29.4,522.8 6.2,500.2 6.2,349.7 6.2,348.7 6.2,180.2 
				6.2,179.2 6.2,30.1 30.8,6.1 140.5,6.1 169.5,34.4 169.5,179.2 169.5,180.2 169.5,348.7 			"/>
			<polygon class="st0" points="164.2,180.9 164.2,348 11.5,348 11.5,180.9 			"/>
			<polygon class="st0" points="164.2,354.4 164.2,493.2 139.3,517.6 32.1,517.6 11.5,497.5 11.5,354.4 			"/>
			<polygon class="st0" points="164.2,37.1 164.2,174.5 11.5,174.5 11.5,32.8 33.5,11.4 137.9,11.4 			"/>
			<path class="st1" d="M88.7,391.3H74.2H59.7v-11.4v-2.2h29.1c8.5,0,15.6,2.5,20.6,7.3c5,4.7,7.8,11.6,7.8,19.7v61.6
				c0,8.1-2.7,14.9-7.8,19.7c-5,4.7-12.2,7.2-20.6,7.2H59.7V401h14.6v78.6h14.5c8.6-0.3,12.8-3.5,13-12.7v-61.1
				C101.6,396.4,96.9,391.4,88.7,391.3"/>
			<path class="st1" d="M74.7,223.1v100.8h-15V208.4h28.7c8.3,0,15.4,2.5,20.4,7.3c4.9,4.8,7.6,11.6,7.6,19.7v14.3
				c0.1,10.9-5.3,18.8-16.2,24.1l22.8,50.1h-15.5H106l-21.4-48v-15h3.8c7.2,0,12.8-5.9,12.8-13.4v-10.1c-0.2-9.3-4.9-14.1-12.8-14.3
				L74.7,223.1L74.7,223.1z"/>
			<path class="st1" d="M110.3,54.6l11.1-10.3c-6.2-7.4-16.7-10.8-27.8-10.8c-16.9,0-33.9,9.9-33.9,26.5v67.1
				c0,16.6,17.2,26.5,33.9,26.5c10.9,0,21.4-3.3,27.6-10.4l-11.1-11c-3.1,5.6-10.9,7.9-16.7,7.9c-7.6,0-18.5-5-18.5-13.2V59.8
				c0-8.1,11-13,18.5-13C100,46.8,107.7,48.8,110.3,54.6"/>
		</g>
	</g>
	<g>
		<path class="st0" d="M804.9,94v37.7c0,1.3,1,2.3,2.3,2.3h6.9c5.1,0,8.4-3.5,8.4-9.3v-24.6c0-5.4-2.8-8.4-6.5-8.4h-8.8
			C806,91.7,804.9,92.7,804.9,94z M804.9,54.8V81c0,1.3,1,2.3,2.3,2.3h8c3.6,0,6.5-3.2,6.5-8.8V61.7c0-5.7-3.3-9.2-8.4-9.2h-6.1
			C806,52.5,804.9,53.5,804.9,54.8z M813.3,44.9c11,0,18.2,6.6,18.2,17.2V73c0,6.3-0.8,9.9-3.4,12.2c-1,0.9-1.1,2.5,0,3.4
			c3.1,2.7,4.3,6.7,4.3,13v22.7c0,10.6-7.2,17.3-18.2,17.3h-16.6c-1.3,0-2.3-1-2.3-2.3v-92c0-1.3,1-2.3,2.3-2.3L813.3,44.9
			L813.3,44.9z"/>
		<path class="st0" d="M908.8,44.9h5.2c1.3,0,2.3,1,2.3,2.3v77.9c0,10.6-7.2,17.3-18.2,17.3c-11.1,0-18.4-6.6-18.4-17.3V47.2
			c0-1.3,1-2.3,2.3-2.3h5.2c1.3,0,2.3,1,2.3,2.3v77.6c0,5.9,3.4,9.3,8.4,9.3c5.1,0,8.5-3.6,8.5-9.3V47.2
			C906.6,45.9,907.6,44.9,908.8,44.9z"/>
		<path class="st0" d="M988.6,141.5h-24.5c-1.3,0-2.3-1-2.3-2.3v-4c0-1.3,1-2.3,2.3-2.3h5c1.3,0,2.3-1,2.3-2.3V55.7
			c0-1.3-1-2.3-2.3-2.3h-5c-1.3,0-2.3-1-2.3-2.3v-4c0-1.3,1-2.3,2.3-2.3h24.5c1.3,0,2.3,1,2.3,2.3v4c0,1.3-1,2.3-2.3,2.3h-5
			c-1.3,0-2.3,1-2.3,2.3v74.9c0,1.3,1,2.3,2.3,2.3h5c1.3,0,2.3,1,2.3,2.3v4C990.8,140.5,989.8,141.5,988.6,141.5z"/>
		<path class="st0" d="M1065.4,141.5h-26.8c-1.3,0-2.3-1-2.3-2.3v-92c0-1.3,1-2.3,2.3-2.3h5.2c1.3,0,2.3,1,2.3,2.3v83.5
			c0,1.3,1,2.3,2.3,2.3h17c1.3,0,2.3,1,2.3,2.3v4C1067.7,140.5,1066.6,141.5,1065.4,141.5z"/>
		<path class="st0" d="M1118.9,54.7v77c0,1.3,1,2.3,2.3,2.3h7c5.1,0,8.4-3.5,8.4-9.3v-63c0-5.9-3.3-9.3-8.4-9.3h-7
			C1120,52.4,1118.9,53.4,1118.9,54.7z M1109.7,139.2v-92c0-1.3,1-2.3,2.3-2.3h16.3c11,0,18.2,6.6,18.2,17.3v62.1
			c0,10.6-7.2,17.3-18.2,17.3H1112C1110.7,141.5,1109.7,140.5,1109.7,139.2z"/>
		<path class="st0" d="M279.1,54.9v77c0,1.3,1,2.3,2.3,2.3h7.1c5.1,0,8.4-3.5,8.4-9.3v-63c0-5.9-3.3-9.3-8.4-9.3h-7.1
			C280.2,52.6,279.1,53.6,279.1,54.9z M269.9,139.4v-92c0-1.3,1-2.3,2.3-2.3h16.3c11,0,18.2,6.6,18.2,17.3v62.1
			c0,10.6-7.2,17.3-18.2,17.3h-16.3C270.9,141.7,269.9,140.7,269.9,139.4z"/>
		<path class="st0" d="M386.3,141.7h-28.5c-1.3,0-2.3-1-2.3-2.3v-92c0-1.3,1-2.3,2.3-2.3h28.5c1.3,0,2.3,1,2.3,2.3v3.7
			c0,1.3-1,2.3-2.3,2.3h-18.9c-1.3,0-2.3,1-2.3,2.3v25.5c0,1.3,1,2.3,2.3,2.3h12.2c1.3,0,2.3,1,2.3,2.3v3.8c0,1.3-1,2.3-2.3,2.3
			h-12.2c-1.3,0-2.3,1-2.3,2.3v36.9c0,1.3,1,2.3,2.3,2.3h18.9c1.3,0,2.3,1,2.3,2.3v3.7C388.6,140.7,387.6,141.7,386.3,141.7z"/>
		<path class="st0" d="M447.5,44.2c11.3,0,16.1,4.9,17.6,14.8c0.2,1.4-0.9,2.7-2.3,2.7h-5.2c-1.1,0-2.1-0.8-2.3-2
			c-0.7-4.4-2.2-7-7.9-7c-5.1,0-8.5,3.6-8.5,9.5v9.6c0,3,2.2,6.8,8.5,12.5l5,4.6c8.9,8.2,13.2,15.1,13.2,22.3v13.6
			c0,11.4-6.6,17.7-18.3,17.7c-11.9,0-16.4-4.4-17.9-14.8c-0.2-1.4,0.9-2.6,2.3-2.6h5.1c1.1,0,2.1,0.8,2.3,1.9
			c0.8,4.5,2.4,7.2,8,7.2c5.4,0,8.8-3.5,8.8-9.5v-12.9c0-4-2.9-9.4-8.5-14.3l-4.9-4.3c-9.4-8.3-13.2-14-13.2-20.8V61.9
			C429.3,50.9,436.3,44.2,447.5,44.2"/>
		<path class="st0" d="M533.8,141.7h-24.5c-1.3,0-2.3-1-2.3-2.3v-4c0-1.3,1-2.3,2.3-2.3h5.1c1.3,0,2.3-1,2.3-2.3V55.9
			c0-1.3-1-2.3-2.3-2.3h-5.1c-1.3,0-2.3-1-2.3-2.3v-4c0-1.3,1-2.3,2.3-2.3h24.5c1.3,0,2.3,1,2.3,2.3v4c0,1.3-1,2.3-2.3,2.3h-5
			c-1.3,0-2.3,1-2.3,2.3v74.9c0,1.3,1,2.3,2.3,2.3h5c1.3,0,2.3,1,2.3,2.3v4C536.1,140.7,535.1,141.7,533.8,141.7z"/>
		<path class="st0" d="M599.9,44.2c11.2,0,16.2,4.8,17.7,14.6c0.2,1.4-0.9,2.6-2.3,2.6h-5.5c-1.1,0-2-0.8-2.2-1.9
			c-0.8-4.2-2.5-6.9-7.8-6.9c-5.1,0-8.5,3.5-8.5,9.2v62.4c0,5.7,3.4,9.2,8.4,9.2c5.3,0,8.3-3.1,8.3-9.1l0.1-23.9
			c0-1.3-1-2.3-2.3-2.3h-3.4c-1.3,0-2.3-1-2.3-2.3v-3.9c0-1.3,1-2.3,2.3-2.3h12.8c1.3,0,2.3,1,2.3,2.3v46.4c0,2.2-2.8,3.1-4.1,1.4
			l0,0c-0.8-1-2.2-1.3-3.2-0.5c-2.8,2.2-6.1,3.1-10.5,3.1c-11,0-18.1-6.8-18.1-17.7v-63C581.5,50.9,588.6,44.2,599.9,44.2"/>
		<path class="st0" d="M705.7,141.7h-6.8c-1,0-1.9-0.7-2.2-1.6L680.2,84c-0.8-2.6-4.5-2-4.5,0.7l0.4,54.7c0,1.3-1,2.3-2.3,2.3h-5
			c-1.3,0-2.3-1-2.3-2.3v-92c0-1.3,1-2.3,2.3-2.3h7.1c1,0,1.9,0.7,2.2,1.6l16.3,55.5c0.8,2.6,4.5,2,4.5-0.7l-0.4-54.2
			c0-1.3,1-2.3,2.3-2.3h4.8c1.3,0,2.3,1,2.3,2.3v92C708,140.7,707,141.7,705.7,141.7z"/>
	</g>
</g>
</svg>
