<svg xmlns="http://www.w3.org/2000/svg" viewBox="0 0 643.04 637.43"><defs><style>.cls-1{isolation:isolate;}.cls-2{fill:#757679;}.cls-3{fill:#8b9092;}.cls-4{fill:#aeb0b1;}.cls-5{fill:#a0a7ad;}.cls-6{fill:#cacacc;}.cls-7{fill:#e5f4f7;}.cls-8{fill:#f37c54;}.cls-9{fill:#68c8cb;}.cls-10{fill:#cf3b53;}.cls-11{fill:#e3526f;}.cls-12{fill:#509cd0;}.cls-13{fill:#f1bf6b;}.cls-14{fill:#8f959b;}.cls-15{fill:#b5b6b8;}.cls-16{fill:#c86847;}.cls-17{fill:#4caeaf;}.cls-18{fill:#a4dbdf;}.cls-19{fill:#22aae0;}.cls-20{fill:#f1678a;}.cls-21{fill:#4382ad;}.cls-22{fill:#97c5e3;}.cls-23{fill:#d2d3d4;}.cls-24{fill:#c69f59;}.cls-25{fill:#f8b29c;}.cls-26{fill:#f7daa9;}.cls-27{fill:#909193;}.cls-28{fill:#768183;}.cls-29{fill:#aeb5b6;}.cls-30{fill:#e5e5e5;}.cls-31{fill:#e94724;}.cls-32{fill:#fff;}.cls-33{fill:#c49e78;}.cls-34{fill:#495755;}.cls-35{fill:#6e8583;}.cls-36{fill:#5c6f6c;}.cls-37{fill:#3c4947;}.cls-38{fill:#262729;}.cls-39{fill:#7f56c5;}.cls-40{fill:#c2a9e3;}.cls-40,.cls-41{mix-blend-mode:overlay;}.cls-41{fill:#e8dbf3;opacity:0.8;}.cls-42{fill:#00a19b;}.cls-43{fill:#7c98ab;}.cls-44{fill:#a7bac9;}.cls-45{fill:#5d7e95;}.cls-46{fill:#21adad;}.cls-47{fill:#e7e7e7;}.cls-48{fill:#d4d2d3;}.cls-49{mix-blend-mode:multiply;}.cls-50{fill:#a4dae7;}.cls-51{fill:#d3ecf3;}.cls-52{fill:#c8858f;}.cls-53,.cls-54{fill:#446ca9;}.cls-54,.cls-73{opacity:0.5;}.cls-54,.cls-56{mix-blend-mode:screen;}.cls-55{fill:#1e428a;}.cls-56{fill:#959bc4;opacity:0.25;}.cls-57{fill:#e7e9ea;}.cls-58{fill:#afb6bb;}.cls-59{fill:#553f37;}.cls-60{fill:#735a4c;}.cls-61{fill:#fffffe;}.cls-62{fill:#d3d0cb;}.cls-63{fill:#b19381;}.cls-64{fill:#a08172;}.cls-65{fill:#008fbe;}.cls-66{fill:#00c1de;}.cls-67{fill:#55565a;}.cls-68{fill:#342e1f;}.cls-69{fill:#6fd1e6;}.cls-70{fill:#f0d0b5;}.cls-71{fill:#222;}.cls-72{fill:#77bc1f;}.cls-73,.cls-75{fill:#bde087;}.cls-74{fill:#a4d55d;}.cls-76{fill:#fd5373;}.cls-77{fill:#cf0a2c;}.cls-78{fill:#f3f4f4;}.cls-79{fill:#e4615b;}.cls-80{fill:#768ebe;}.cls-81{fill:#1ccfc9;}.cls-82{fill:#8ae1db;}.cls-83{fill:#00c4bc;}.cls-84{fill:#eee;}.cls-85{fill:#f18b81;}.cls-86{fill:#5e6ca6;}</style></defs><title>implementation</title><g class="cls-1"><g id="Layer_1" data-name="Layer 1"><polyline class="cls-2" points="453.4 493.76 384.96 533.27 384.96 540.43 453.4 500.95 453.4 493.76"/><polyline class="cls-3" points="381.61 531.35 381.63 538.46 384.96 540.43 384.96 533.27 381.61 531.35"/><polyline class="cls-4" points="450.06 491.83 450.06 491.83 381.61 531.35 384.96 533.27 453.4 493.76 450.06 491.83"/><polyline class="cls-2" points="440.95 486.5 372.51 526.02 372.51 533.18 440.95 493.69 440.95 486.5"/><polyline class="cls-3" points="369.16 524.1 369.18 531.21 372.51 533.18 372.51 526.02 369.16 524.1"/><polyline class="cls-4" points="437.61 484.57 437.61 484.57 369.16 524.1 369.16 524.1 372.51 526.02 440.95 486.5 437.61 484.57"/><polyline class="cls-2" points="428.62 479.42 360.18 518.94 360.18 526.09 428.62 486.61 428.62 479.42"/><polyline class="cls-3" points="356.83 517.01 356.84 524.12 360.18 526.09 360.18 518.94 356.83 517.01"/><polyline class="cls-4" points="425.27 477.49 356.83 517.01 360.18 518.94 428.62 479.42 425.27 477.49"/><path class="cls-5" d="M727,678.81l-377.59-218a28,28,0,0,1-14-24.25V196.69a14,14,0,0,1,21-12.13L734,402.09a28,28,0,0,1,14,24.26V666.69a14,14,0,0,1-21,12.12" transform="translate(-178.07 -182.67)"/><path class="cls-5" d="M487.66,550.44l0.12,36.24a24,24,0,0,1-12,20.86l-31.52,18.19L531.38,676,563,657.87a24,24,0,0,0,12-20.81v-36.4l-87.37-50.22" transform="translate(-178.07 -182.67)"/><polygon class="cls-5" points="554.24 500.61 562.47 496.39 555.38 486.5 554.24 500.61"/><polygon class="cls-5" points="164.15 2 155.77 6.31 159.95 6.28 164.15 2"/><path class="cls-6" d="M718.16,683.38l-377.59-218a28,28,0,0,1-14-24.25V201.26a14,14,0,0,1,21-12.13L725.13,406.66a28,28,0,0,1,14,24.26V671.26a14,14,0,0,1-21,12.12" transform="translate(-178.07 -182.67)"/><polyline class="cls-7" points="167.16 27.11 167.16 256.56 540.88 472.33 540.88 242.01 167.16 27.11"/><polyline class="cls-8" points="185.91 59.05 185.9 87.78 515.63 278.14 515.65 249.45 185.91 59.05"/><polyline class="cls-9" points="186.01 102.25 185.98 188.54 254.32 227.91 254.39 141.77 186.01 102.25"/><polyline class="cls-10" points="266.72 156.05 266.61 242.08 335.17 281.78 335.19 195.56 266.72 156.05"/><path class="cls-11" d="M459.77,418.49h0l6.15,3.55h0l-6.15-3.55m-15-79.77-0.11,86,15.06,8.72,0-15-0.29-.17-1.63.76-0.35-.72,1-.6,6.2-3.61,1.24,0.72,4.41,2.55h0l0.83,0.48,1,0.6,8.21,4.75,4.13,2.38h0l5.11,5.35a2,2,0,0,0,2.44.35l4.81-2.77,6.29,3.55L492,438.63a2,2,0,0,1-2.26-.18l-5.16-4.19h0l5.16,4.19a2,2,0,0,0,2.26.18l11.24-6.51v4.15L492,442.77a2,2,0,0,1-2.26-.17l-5.16-4.15v9.39l28.69,16.62,0-86.23L444.8,338.72" transform="translate(-178.07 -182.67)"/><polyline class="cls-12" points="360.04 202.69 360.01 288.98 428.52 328.44 428.76 242.33 360.04 202.69"/><polyline class="cls-13" points="447.2 253.03 447.2 403.93 515.65 443.45 515.93 292.66 447.2 253.03"/><polyline class="cls-14" points="390.73 414.47 390.73 421.62 396.89 418.02 390.73 414.47"/><polyline class="cls-15" points="390.73 414.4 390.73 414.47 396.89 418.02 396.96 417.99 390.73 414.4"/><path class="cls-5" d="M529.78,561.76c0,3.57-2.89,4.79-6.46,2.74s-6.46-6.61-6.46-10.18,2.89-4.79,6.46-2.74S529.78,558.2,529.78,561.76Z" transform="translate(-178.07 -182.67)"/><polyline class="cls-8" points="185.85 59.03 189.06 57.18 518.77 247.66 518.71 276.43 515.66 278.2 515.64 249.45 185.85 59.03"/><polyline class="cls-16" points="518.77 247.66 515.64 249.45 515.66 278.2 518.71 276.35 518.77 247.66"/><polygon class="cls-5" points="171.14 29.39 171.14 258.85 167.16 256.56 167.16 27.11 171.14 29.39"/><polyline class="cls-5" points="171.14 254.31 540.88 467.75 540.88 472.32 167.16 256.6 171.14 254.31"/><polyline class="cls-9" points="185.84 102.14 189.08 100.3 257.52 139.84 257.56 226.01 254.32 227.91 254.39 141.77 185.84 102.14"/><polyline class="cls-17" points="257.52 139.84 254.39 141.77 254.32 227.89 257.56 226.01 257.52 139.84"/><polyline class="cls-18" points="189.08 100.3 185.84 102.14 254.39 141.77 257.52 139.84 189.08 100.3"/><polyline class="cls-19" points="266.72 156.05 276.17 150.6 344.58 190.14 344.52 276.41 335.17 281.78 335.19 195.56 266.72 156.05"/><polyline class="cls-10" points="266.72 156.05 276.17 150.6 344.58 190.14 335.19 195.56 266.72 156.05"/><polyline class="cls-20" points="276.17 150.6 266.72 156.05 335.19 195.56 344.58 190.14 276.17 150.6"/><polygon class="cls-10" points="344.58 190.14 344.52 276.41 335.17 281.78 335.19 195.56 344.58 190.14"/><polyline class="cls-12" points="360.04 202.69 363.28 200.85 431.72 240.4 431.76 326.56 428.52 328.44 428.76 242.33 360.04 202.69"/><polyline class="cls-21" points="431.72 240.4 428.76 242.33 428.52 328.44 431.76 326.56 431.72 240.4"/><polyline class="cls-22" points="363.28 200.85 360.04 202.69 428.76 242.33 431.72 240.4 363.28 200.85"/><polyline class="cls-13" points="447.2 253.02 450.44 251.19 518.88 290.73 518.9 441.58 515.66 443.46 515.59 292.47 447.2 253.02"/><polyline class="cls-7" points="518.88 290.73 518.88 290.73 518.9 441.58 518.9 441.57 518.88 290.73"/><polyline class="cls-23" points="518.88 290.73 518.88 290.73 518.9 441.58 518.9 441.57 518.88 290.73"/><polyline class="cls-24" points="518.88 290.73 515.59 292.47 515.66 443.45 518.9 441.57 518.88 290.73"/><polyline class="cls-25" points="189.05 57.18 185.85 59.03 515.64 249.45 518.77 247.66 189.05 57.18"/><polyline class="cls-26" points="450.44 251.19 447.2 253.02 515.59 292.47 518.88 290.73 450.44 251.19"/><polyline class="cls-7" points="185.83 202.74 185.83 209.93 254.28 249.45 254.28 242.26 185.83 202.74"/><polyline class="cls-27" points="185.83 202.74 185.83 209.93 254.28 249.45 254.28 242.26 185.83 202.74"/><polyline class="cls-7" points="257.61 240.33 254.28 242.26 254.28 249.45 257.54 247.54 257.61 240.33"/><polyline class="cls-28" points="257.61 240.33 254.28 242.26 254.28 249.45 257.54 247.54 257.61 240.33"/><polyline class="cls-7" points="189.16 200.81 185.83 202.74 254.28 242.26 257.61 240.33 189.16 200.81"/><polyline class="cls-29" points="189.16 200.81 185.83 202.74 254.28 242.26 257.61 240.33 189.16 200.81"/><polyline class="cls-7" points="185.83 217.12 185.83 224.31 254.28 263.82 254.28 256.64 185.83 217.12"/><polyline class="cls-27" points="185.83 217.12 185.83 224.31 254.28 263.82 254.28 256.64 185.83 217.12"/><polyline class="cls-7" points="257.61 254.7 254.28 256.64 254.28 263.82 257.54 261.92 257.61 254.7"/><polyline class="cls-28" points="257.61 254.7 254.28 256.64 254.28 263.82 257.54 261.92 257.61 254.7"/><polyline class="cls-7" points="189.16 215.18 185.83 217.12 254.28 256.64 257.61 254.7 189.16 215.18"/><polyline class="cls-29" points="189.16 215.18 185.83 217.12 254.28 256.64 257.61 254.7 189.16 215.18"/><polyline class="cls-7" points="185.83 231.48 185.83 238.67 254.28 278.18 254.28 271 185.83 231.48"/><polyline class="cls-27" points="185.83 231.48 185.83 238.67 254.28 278.18 254.28 271 185.83 231.48"/><polyline class="cls-7" points="257.61 269.06 254.28 271 254.28 278.18 257.54 276.28 257.61 269.06"/><polyline class="cls-28" points="257.61 269.06 254.28 271 254.28 278.18 257.54 276.28 257.61 269.06"/><polyline class="cls-7" points="189.16 229.55 185.83 231.48 254.28 271 257.61 269.06 189.16 229.55"/><polyline class="cls-29" points="189.16 229.55 185.83 231.48 254.28 271 257.61 269.06 189.16 229.55"/><polyline class="cls-7" points="185.83 245.85 185.83 253.04 254.28 292.55 254.28 285.37 185.83 245.85"/><polyline class="cls-27" points="185.83 245.85 185.83 253.04 254.28 292.55 254.28 285.37 185.83 245.85"/><polyline class="cls-7" points="257.61 283.44 254.28 285.37 254.28 292.55 257.54 290.65 257.61 283.44"/><polyline class="cls-28" points="257.61 283.44 254.28 285.37 254.28 292.55 257.54 290.65 257.61 283.44"/><polyline class="cls-7" points="189.16 243.92 185.83 245.85 254.28 285.37 257.61 283.44 189.16 243.92"/><polyline class="cls-29" points="189.16 243.92 185.83 245.85 254.28 285.37 257.61 283.44 189.16 243.92"/><path class="cls-7" d="M484.55,455.07v7.19l16,9.23,2.42-1.42,6.25,3.63-0.55,2.48,10.81,6.24v-7.18l-34.92-20.16M451,435.71v7.19l8.71,5v-7.18l-8.72-5" transform="translate(-178.07 -182.67)"/><path class="cls-27" d="M484.55,455.07v7.19l16,9.23,2.42-1.42,6.25,3.63-0.55,2.48,10.81,6.24v-7.18l-34.92-20.16M451,435.71v7.19l8.71,5v-7.18l-8.72-5" transform="translate(-178.07 -182.67)"/><polyline class="cls-7" points="344.71 290.63 341.39 292.56 341.39 299.74 344.65 297.84 344.71 290.63"/><polyline class="cls-28" points="344.71 290.63 341.39 292.56 341.39 299.74 344.65 297.84 344.71 290.63"/><path class="cls-7" d="M484.55,451.22v3.85l34.92,20.16,3.32-1.93-38.24-22.08m-30.21-17.44L451,435.71l8.72,5V436.9l-5.41-3.12" transform="translate(-178.07 -182.67)"/><path class="cls-29" d="M484.55,451.22v3.85l34.92,20.16,3.32-1.93-38.24-22.08m-30.21-17.44L451,435.71l8.72,5V436.9l-5.41-3.12" transform="translate(-178.07 -182.67)"/><path class="cls-7" d="M507.24,482.55l-1.41,6.37,13.64,7.88v-7.18l-12.23-7.06m-28.86-16.66v6.47l-9.75-5.62-0.14.63,32.58,18.81,1.42-6.37-24.1-13.91M451,450.09v7.19l6.46,3.73,1.42-6.37L451,450.09" transform="translate(-178.07 -182.67)"/><path class="cls-27" d="M507.24,482.55l-1.41,6.37,13.64,7.88v-7.18l-12.23-7.06m-28.86-16.66v6.47l-9.75-5.62-0.14.63,32.58,18.81,1.42-6.37-24.1-13.91M451,450.09v7.19l6.46,3.73,1.42-6.37L451,450.09" transform="translate(-178.07 -182.67)"/><polyline class="cls-7" points="344.71 305 341.39 306.93 341.39 314.12 344.65 312.21 344.71 305"/><polyline class="cls-28" points="344.71 305 341.39 306.93 341.39 314.12 344.65 312.21 344.71 305"/><path class="cls-7" d="M508,479.13l-0.76,3.41,12.23,7.06,3.32-1.93L508,479.13m-29.62-14v0.7l24.1,13.91,0.55-2.47-6.25-3.63,0.89-.53-13.13-7.58v3.14h0l-6.16-3.55m-24-17L451,450.09l7.88,4.55,0.56-2.53,0.27-.16v-0.69l-5.38-3.11" transform="translate(-178.07 -182.67)"/><path class="cls-29" d="M508,479.13l-0.76,3.41,12.23,7.06,3.32-1.93L508,479.13m-29.62-14v0.7l24.1,13.91,0.55-2.47-6.25-3.63,0.89-.53-13.13-7.58v3.14h0l-6.16-3.55m-24-17L451,450.09l7.88,4.55,0.56-2.53,0.27-.16v-0.69l-5.38-3.11" transform="translate(-178.07 -182.67)"/><path class="cls-7" d="M498.36,498.32l-0.56.32,0.43,0.25,0.13-.57m6-3L503,501.65l16.47,9.51V504l-15.06-8.69M451,464.45v7.19l3.64,2.1,1.42-6.37-5-2.91" transform="translate(-178.07 -182.67)"/><path class="cls-27" d="M498.36,498.32l-0.56.32,0.43,0.25,0.13-.57m6-3L503,501.65l16.47,9.51V504l-15.06-8.69M451,464.45v7.19l3.64,2.1,1.42-6.37-5-2.91" transform="translate(-178.07 -182.67)"/><polyline class="cls-7" points="344.71 319.36 341.39 321.3 341.39 328.48 344.65 326.58 344.71 319.36"/><polyline class="cls-28" points="344.71 319.36 341.39 321.3 341.39 328.48 344.65 326.58 344.71 319.36"/><path class="cls-7" d="M505.17,491.86l-0.76,3.41L519.47,504l3.32-1.93-17.62-10.17m-37.33-21.56-0.2.89h0l32.57,18.74,0.18-.83-32.58-18.81m-13.5-7.79L451,464.45l5,2.91,0.76-3.41-2.49-1.43" transform="translate(-178.07 -182.67)"/><path class="cls-29" d="M505.17,491.86l-0.76,3.41L519.47,504l3.32-1.93-17.62-10.17m-37.33-21.56-0.2.89h0l32.57,18.74,0.18-.83-32.58-18.81m-13.5-7.79L451,464.45l5,2.91,0.76-3.41-2.49-1.43" transform="translate(-178.07 -182.67)"/><path class="cls-7" d="M501.58,508l-1.41,6.37,19.3,11.14v-7.18L501.58,508m-37.33-21.56-1.42,6.37,32.57,18.8,1.42-6.37-32.57-18.8M451,478.82V486l0.8,0.46,1.42-6.37L451,478.82" transform="translate(-178.07 -182.67)"/><path class="cls-27" d="M501.58,508l-1.41,6.37,19.3,11.14v-7.18L501.58,508m-37.33-21.56-1.42,6.37,32.57,18.8,1.42-6.37-32.57-18.8M451,478.82V486l0.8,0.46,1.42-6.37L451,478.82" transform="translate(-178.07 -182.67)"/><polyline class="cls-7" points="344.71 333.73 341.39 335.67 341.39 342.85 344.65 340.95 344.71 333.73"/><polyline class="cls-28" points="344.71 333.73 341.39 335.67 341.39 342.85 344.65 340.95 344.71 333.73"/><path class="cls-7" d="M502.34,504.6L501.58,508l17.88,10.33,3.32-1.93L502.34,504.6m-37.52-20.72-0.57,2.58,32.57,18.8,0.76-3.41-2.66-1.54-0.81.47v0l-29.29-16.91m-10.93-6.73L451,478.82l2.22,1.28,0.66-3" transform="translate(-178.07 -182.67)"/><path class="cls-29" d="M502.34,504.6L501.58,508l17.88,10.33,3.32-1.93L502.34,504.6m-37.52-20.72-0.57,2.58,32.57,18.8,0.76-3.41-2.66-1.54-0.81.47v0l-29.29-16.91m-10.93-6.73L451,478.82l2.22,1.28,0.66-3" transform="translate(-178.07 -182.67)"/><polyline class="cls-7" points="360.08 303.38 360.08 310.57 428.53 350.09 428.53 342.9 360.08 303.38"/><polyline class="cls-27" points="360.08 303.38 360.08 310.57 428.53 350.09 428.53 342.9 360.08 303.38"/><polyline class="cls-7" points="431.85 340.97 428.53 342.9 428.53 350.09 431.79 348.18 431.85 340.97"/><polyline class="cls-28" points="431.85 340.97 428.53 342.9 428.53 350.09 431.79 348.18 431.85 340.97"/><polyline class="cls-7" points="363.4 301.45 360.08 303.38 428.53 342.9 431.85 340.97 363.4 301.45"/><polyline class="cls-29" points="363.4 301.45 360.08 303.38 428.53 342.9 431.85 340.97 363.4 301.45"/><polyline class="cls-7" points="360.08 317.76 360.08 324.94 428.53 364.46 428.53 357.28 360.08 317.76"/><polyline class="cls-27" points="360.08 317.76 360.08 324.94 428.53 364.46 428.53 357.28 360.08 317.76"/><polyline class="cls-7" points="431.85 355.34 428.53 357.28 428.53 364.46 431.79 362.56 431.85 355.34"/><polyline class="cls-28" points="431.85 355.34 428.53 357.28 428.53 364.46 431.79 362.56 431.85 355.34"/><polyline class="cls-7" points="363.4 315.82 360.08 317.76 428.53 357.28 431.85 355.34 363.4 315.82"/><polyline class="cls-29" points="363.4 315.82 360.08 317.76 428.53 357.28 431.85 355.34 363.4 315.82"/><polyline class="cls-7" points="360.08 332.12 360.08 339.31 428.53 378.82 428.53 371.64 360.08 332.12"/><polyline class="cls-27" points="360.08 332.12 360.08 339.31 428.53 378.82 428.53 371.64 360.08 332.12"/><polyline class="cls-7" points="431.85 369.7 428.53 371.64 428.53 378.82 431.79 376.92 431.85 369.7"/><polyline class="cls-28" points="431.85 369.7 428.53 371.64 428.53 378.82 431.79 376.92 431.85 369.7"/><polyline class="cls-7" points="363.4 330.19 360.08 332.12 428.53 371.64 431.85 369.7 363.4 330.19"/><polyline class="cls-29" points="363.4 330.19 360.08 332.12 428.53 371.64 431.85 369.7 363.4 330.19"/><polyline class="cls-7" points="360.08 346.49 360.08 353.68 428.53 393.19 428.53 386.01 360.08 346.49"/><polyline class="cls-27" points="360.08 346.49 360.08 353.68 428.53 393.19 428.53 386.01 360.08 346.49"/><polyline class="cls-7" points="431.85 384.08 428.53 386.01 428.53 393.19 431.79 391.29 431.85 384.08"/><polyline class="cls-28" points="431.85 384.08 428.53 386.01 428.53 393.19 431.79 391.29 431.85 384.08"/><polyline class="cls-7" points="363.4 344.56 360.08 346.49 428.53 386.01 431.85 384.08 363.4 344.56"/><polyline class="cls-29" points="363.4 344.56 360.08 346.49 428.53 386.01 431.85 384.08 363.4 344.56"/><path class="cls-6" d="M481.43,546.84l0.12,38.56a20,20,0,0,1-10,17.39l-27.3,15.76,87.12,50.3,27.39-15.73a20,20,0,0,0,10-17.34V597.06l-87.37-50.22" transform="translate(-178.07 -182.67)"/><polyline class="cls-5" points="266.18 435.88 266.18 443.07 272.4 439.48 266.18 435.88"/><polyline class="cls-30" points="303.37 368.07 303.38 371.19 303.38 371.19 303.37 368.07 303.37 368.07"/><path class="cls-15" d="M491.65,552.72l-0.85,3.81-2.35,1.37,80.35,46.4v-7.23l-77.15-44.35m-8.86-5.09,0,3.91-1.37-.79v3.11l4,2.33,1.38-6.21-0.67-.39-3.38,2,0-3.91" transform="translate(-178.07 -182.67)"/><polyline class="cls-31" points="151.81 458.11 0 370.53 0 341.76 151.81 429.34 151.81 458.11"/><polyline class="cls-8" points="151.81 458.11 0 370.53 0 341.76 151.81 429.34 151.81 458.11"/><polyline class="cls-32" points="3.79 354.06 2.3 353.2 2.3 343.08 3.79 343.94 3.79 354.06"/><polyline class="cls-32" points="7.52 356.21 6.04 355.35 6.04 345.24 7.52 346.1 7.52 356.21"/><polyline class="cls-32" points="11.26 358.37 9.77 357.51 9.77 347.4 11.26 348.26 11.26 358.37"/><polyline class="cls-32" points="15 360.52 13.51 359.67 13.51 349.56 15 350.41 15 360.52"/><polyline class="cls-32" points="22.48 364.84 20.99 363.98 20.99 353.87 22.48 354.73 22.48 364.84"/><polyline class="cls-32" points="26.21 366.99 24.72 366.13 24.72 356.02 26.21 356.88 26.21 366.99"/><polyline class="cls-32" points="29.95 369.15 28.46 368.29 28.46 358.18 29.95 359.04 29.95 369.15"/><polyline class="cls-32" points="33.69 371.31 32.2 370.45 32.2 360.34 33.69 361.2 33.69 371.31"/><polyline class="cls-32" points="41.16 375.62 39.68 374.76 39.68 364.65 41.16 365.51 41.16 375.62"/><polyline class="cls-32" points="44.9 377.78 43.41 376.92 43.41 366.81 44.9 367.67 44.9 377.78"/><polyline class="cls-32" points="48.64 379.93 47.15 379.07 47.15 368.96 48.64 369.82 48.64 379.93"/><polyline class="cls-32" points="52.38 382.09 50.89 381.23 50.89 371.12 52.38 371.98 52.38 382.09"/><polyline class="cls-32" points="59.85 386.4 58.37 385.54 58.37 375.43 59.85 376.29 59.85 386.4"/><polyline class="cls-32" points="63.59 388.56 62.1 387.7 62.1 377.59 63.59 378.45 63.59 388.56"/><polyline class="cls-32" points="67.33 390.71 65.84 389.86 65.84 379.75 67.33 380.6 67.33 390.71"/><polyline class="cls-32" points="71.07 392.87 69.58 392.01 69.58 381.9 71.07 382.76 71.07 392.87"/><polyline class="cls-32" points="78.54 397.18 77.06 396.32 77.06 386.21 78.54 387.07 78.54 397.18"/><polyline class="cls-32" points="82.28 399.34 80.79 398.48 80.79 388.37 82.28 389.23 82.28 399.34"/><polyline class="cls-32" points="86.02 401.5 84.53 400.64 84.53 390.53 86.02 391.39 86.02 401.5"/><polyline class="cls-32" points="89.76 403.65 88.27 402.79 88.27 392.68 89.76 393.54 89.76 403.65"/><polyline class="cls-32" points="97.23 407.97 95.74 407.11 95.74 397 97.23 397.86 97.23 407.97"/><polyline class="cls-32" points="100.97 410.12 99.48 409.26 99.48 399.15 100.97 400.01 100.97 410.12"/><polyline class="cls-32" points="104.71 412.28 103.22 411.42 103.22 401.31 104.71 402.17 104.71 412.28"/><polyline class="cls-32" points="108.45 414.44 106.96 413.58 106.96 403.47 108.45 404.32 108.45 414.44"/><polyline class="cls-32" points="115.92 418.75 114.43 417.89 114.43 407.78 115.92 408.64 115.92 418.75"/><polyline class="cls-32" points="119.66 420.9 118.17 420.05 118.17 409.94 119.66 410.79 119.66 420.9"/><polyline class="cls-32" points="123.4 423.06 121.91 422.2 121.91 412.09 123.4 412.95 123.4 423.06"/><polyline class="cls-32" points="127.14 425.22 125.65 424.36 125.65 414.25 127.14 415.11 127.14 425.22"/><polyline class="cls-32" points="134.61 429.53 133.12 428.67 133.12 418.56 134.61 419.42 134.61 429.53"/><polyline class="cls-32" points="138.35 431.69 136.86 430.83 136.86 420.72 138.35 421.58 138.35 431.69"/><polyline class="cls-32" points="142.09 433.84 140.6 432.99 140.6 422.87 142.09 423.73 142.09 433.84"/><polyline class="cls-32" points="145.82 436 144.34 435.14 144.34 425.03 145.82 425.89 145.82 436"/><polyline class="cls-32" points="18.74 366.95 17.25 366.1 17.25 351.71 18.74 352.57 18.74 366.95"/><polyline class="cls-32" points="37.43 377.74 35.94 376.88 35.94 362.49 37.43 363.35 37.43 377.74"/><polyline class="cls-32" points="56.12 388.52 54.63 387.66 54.63 373.28 56.12 374.13 56.12 388.52"/><polyline class="cls-32" points="74.81 399.3 73.32 398.44 73.32 384.06 74.81 384.92 74.81 399.3"/><polyline class="cls-32" points="93.5 410.08 92.01 409.22 92.01 394.84 93.5 395.7 93.5 410.08"/><polyline class="cls-32" points="112.19 420.87 110.7 420.01 110.7 405.62 112.19 406.48 112.19 420.87"/><polyline class="cls-32" points="130.87 431.65 129.38 430.79 129.38 416.4 130.87 417.26 130.87 431.65"/><polyline class="cls-32" points="149.56 442.43 148.07 441.57 148.07 427.19 149.56 428.05 149.56 442.43"/><polyline class="cls-8" points="158.25 426.03 158.25 454.69 151.81 458.11 151.81 429.34 158.25 426.03"/><polyline class="cls-16" points="158.25 426.03 151.81 429.34 151.81 458.11 158.25 454.69 158.25 426.03"/><polyline class="cls-8" points="0 341.76 6.42 338.03 158.25 426.03 151.81 429.34 0 341.76"/><polyline class="cls-25" points="6.42 338.03 0 341.76 151.81 429.34 158.25 426.03 6.42 338.03"/><path class="cls-33" d="M721.09,729.23a4.56,4.56,0,0,1-1.59,3.84l-0.72.4,0,0c-1.43.6-3.42,0.33-5.61-.95a17,17,0,0,1-5.16-4.9h0a14.18,14.18,0,0,1-2.78-7.65,4.53,4.53,0,0,1,1.66-3.91l0.06,0,0.34-.19,0,0c1.45-.75,3.54-0.53,5.86.82a16.79,16.79,0,0,1,5.22,5l0,0.07a14,14,0,0,1,2.69,7.51" transform="translate(-178.07 -182.67)"/><path class="cls-34" d="M718.39,721.72l-0.51.2-0.05,0-4.32,2.5L708,727.65l-68.12,39.46-54.06,31.34h0l-0.79.45-10.5-6.31,0.27-.15,132.09-76.36,0.06,0,0.34-.19,0,0c1.45-.75,3.54-0.53,5.86.82a16.79,16.79,0,0,1,5.22,5l0,0.07" transform="translate(-178.07 -182.67)"/><path class="cls-35" d="M709.15,715.42a4.06,4.06,0,0,0-1.87.42l0,0-0.34.19-0.06,0-132,76.32a4.14,4.14,0,0,1,1.69-.34,8.07,8.07,0,0,1,4,1.24,16.84,16.84,0,0,1,5.3,5.14l54.06-31.34L708,727.64l5.55-3.2,4.32-2.5,0.05,0,0.47-.27a16.79,16.79,0,0,0-5.22-5,8.1,8.1,0,0,0-4-1.25" transform="translate(-178.07 -182.67)"/><path class="cls-34" d="M721.09,729.23a4.56,4.56,0,0,1-1.59,3.84l-0.72.4,0,0L586.42,809.89l-0.12.08v0l-0.5-11.48h0l54-31.35L708,727.64l5.55-3.2,4.37-2.52,0.47-.27,0,0.07a14,14,0,0,1,2.69,7.51" transform="translate(-178.07 -182.67)"/><path class="cls-34" d="M566.16,808.31l1.53-3.14,0.07-.14L573,794.27l0.19-.39h0c1.21-2.12,4-2.47,7.27-.57a16.85,16.85,0,0,1,5.31,5.14h0a13.91,13.91,0,0,1,2.6,7.36c0,2.94-1.61,4.56-4,4.54h0l-13-.27h-0.44L567.2,810a1.19,1.19,0,0,1-.83-0.36l-0.14-.18-0.1-.18a1.17,1.17,0,0,1,0-1" transform="translate(-178.07 -182.67)"/><path class="cls-36" d="M584.63,810.35h0m1.73-.43-0.06,0a3.83,3.83,0,0,1-1.08.35,3.77,3.77,0,0,0,1.14-.37m1.11-8.37c0.05,0.14.11,0.27,0.15,0.4l0.08,0.19a12.37,12.37,0,0,1,.55,2.05c0,0.25.08,0.5,0.1,0.73v0a7,7,0,0,1,0,.83h0a5.32,5.32,0,0,1-.76,2.94,5.29,5.29,0,0,0,.76-2.94,11.45,11.45,0,0,0-.93-4.26m-1.66-3.1h0l0.09,0.14q0.24,0.36.44,0.71l0.06,0.08c0.17,0.29.34,0.6,0.48,0.89s0.3,0.61.44,0.91v0a17.71,17.71,0,0,0-1.52-2.75h0m-9.28-6.39a3.61,3.61,0,0,0-3.3,1.81h0l-0.19.39L567.76,805l-0.07.14-1.53,3.14a1.19,1.19,0,0,0-.12.52,1.18,1.18,0,0,0,.09.45l0.1,0.18h0l2.19-1.24,2.84-1.59,0.35-.2,3.8-2.13,9.6-5.4,0.79-.45h0a16.85,16.85,0,0,0-5.31-5.14,8.07,8.07,0,0,0-4-1.24" transform="translate(-178.07 -182.67)"/><path class="cls-34" d="M566.23,809.46l0.14,0.18a1.13,1.13,0,0,0,.83.37l1,0,3,0.07h0.17l13,0.27h0a4.05,4.05,0,0,0,1.88-.41l0.12-.06c1.23-.68,2-2.07,2-4.08a7,7,0,0,0,0-.83v0c0-.24-0.06-0.48-0.1-0.73a12.37,12.37,0,0,0-.55-2.05l-0.08-.19c-0.08-.24-0.18-0.48-0.28-0.72l0,0q-0.2-.46-0.44-0.91c-0.15-.29-0.32-0.6-0.48-0.89l-0.06-.08q-0.2-.36-0.44-0.71l-0.09-.14h0l-0.79.45-9.6,5.4-3.8,2.13-0.35.2-2.84,1.59-2.19,1.24" transform="translate(-178.07 -182.67)"/><path class="cls-37" d="M585.8,798.45h0l-0.79.45-9.6,5.4-3.8,2.13-0.35.2-2.84,1.59-2.19,1.24h0l0.14,0.18a1.13,1.13,0,0,0,.83.37l1,0,3,0.07h0.17l13,0.27h0.08a4,4,0,0,0,1.81-.41l0.12-.06c1.23-.68,2-2.07,2-4.08a7,7,0,0,0,0-.83v0c0-.24-0.06-0.48-0.1-0.73a12.37,12.37,0,0,0-.55-2.05l-0.08-.19c-0.08-.24-0.18-0.48-0.28-0.72l0,0q-0.2-.46-0.44-0.91c-0.15-.29-0.32-0.6-0.48-0.89l-0.06-.08q-0.2-.36-0.44-0.71l-0.09-.14h0" transform="translate(-178.07 -182.67)"/><path class="cls-38" d="M566.13,809.28l0.09,0.18h0l0.14,0.18a1.14,1.14,0,0,0,.83.37l1,0,3,0.07h0v-3.53l-3.56-1.4-1.53,3.14A1.17,1.17,0,0,0,566.13,809.28Z" transform="translate(-178.07 -182.67)"/><path class="cls-38" d="M567.56,805.88a5.06,5.06,0,0,0,2.43,3.84c1.34,0.78,2.43.33,2.43-1a5.06,5.06,0,0,0-2.43-3.84C568.65,804.08,567.56,804.54,567.56,805.88Z" transform="translate(-178.07 -182.67)"/><polyline class="cls-39" points="167.12 522.48 167.12 500.93 185.79 511.7 185.79 533.26 167.12 522.48"/><polyline class="cls-40" points="167.12 500.93 167.12 522.48 185.79 533.26 185.79 511.7 167.12 500.93"/><polyline class="cls-39" points="167.12 500.93 185.79 490.15 204.46 500.93 185.79 511.7 167.12 500.93"/><polyline class="cls-41" points="185.79 490.15 167.12 500.93 185.79 511.7 204.46 500.93 185.79 490.15"/><polygon class="cls-42" points="185.79 511.7 204.46 500.93 204.46 522.48 185.79 533.26 185.79 511.7"/><polygon class="cls-39" points="185.79 511.7 204.46 500.93 204.46 522.48 185.79 533.26 185.79 511.7"/><polygon class="cls-43" points="105.04 314.07 105.04 292.51 123.71 303.29 123.71 324.85 105.04 314.07"/><polygon class="cls-44" points="105.04 292.51 123.71 281.73 142.38 292.51 123.71 303.29 105.04 292.51"/><polygon class="cls-42" points="123.71 303.29 142.38 292.51 142.38 314.07 123.71 324.85 123.71 303.29"/><polygon class="cls-45" points="123.71 303.29 142.38 292.51 142.38 314.07 123.71 324.85 123.71 303.29"/><polyline class="cls-10" points="92.54 357.32 92.54 335.76 111.21 346.54 111.21 368.1 92.54 357.32"/><polyline class="cls-11" points="92.54 335.76 92.54 357.32 111.21 368.1 111.21 346.54 92.54 335.76"/><polyline class="cls-10" points="92.54 335.76 111.21 324.98 129.88 335.76 111.21 346.54 92.54 335.76"/><polyline class="cls-20" points="111.21 324.98 92.54 335.76 111.21 346.54 129.88 335.76 111.21 324.98"/><polygon class="cls-10" points="111.21 346.54 129.88 335.76 129.88 357.32 111.21 368.1 111.21 346.54"/><polyline class="cls-9" points="61.51 238.55 11.83 267.35 11.86 324.84 61.51 296.06 61.51 238.55"/><polyline class="cls-46" points="61.51 238.55 11.83 267.35 11.86 324.84 61.51 296.06 61.51 238.55"/><path class="cls-32" d="M229.45,466.46c0-3.28-2.66-4.41-5.95-2.52s-5.95,6.09-5.95,9.37,2.66,4.41,5.95,2.52S229.45,469.75,229.45,466.46Z" transform="translate(-178.07 -182.67)"/><path class="cls-32" d="M229.45,443.25c0-3.29-2.66-4.42-5.95-2.52s-5.95,6.09-5.95,9.37,2.66,4.42,5.95,2.52S229.45,446.53,229.45,443.25Z" transform="translate(-178.07 -182.67)"/><path class="cls-32" d="M210.23,465.92c0-3.28-2.66-4.41-5.95-2.52s-5.95,6.09-5.95,9.37,2.66,4.41,5.95,2.52S210.23,469.2,210.23,465.92Z" transform="translate(-178.07 -182.67)"/><polygon class="cls-32" points="27.44 284.59 25.56 288.77 44.2 289.3 46.08 285.12 27.44 284.59"/><polygon class="cls-32" points="44.2 263.33 25.56 285.32 27.44 287.34 46.08 265.35 44.2 263.33"/><polygon class="cls-32" points="92.52 579.9 142.36 551.19 192.08 579.9 142.31 608.63 92.52 579.9"/><polygon class="cls-47" points="92.52 579.9 92.52 587.08 142.33 615.85 192.08 587.08 192.08 579.9 142.31 608.63 92.52 579.9"/><polygon class="cls-48" points="142.31 608.63 142.33 615.85 192.08 587.08 192.08 579.9 142.31 608.63"/><polyline class="cls-9" points="11.86 324.84 5.46 321.1 5.46 263.85 11.83 267.35 11.86 324.84"/><polyline class="cls-3" points="369.16 524.1 369.18 531.21 369.16 524.1 369.16 524.1"/><g class="cls-49"><polyline class="cls-50" points="437.61 484.57 369.16 524.1 369.18 531.21 372.51 533.18 440.95 493.69 440.95 486.5 437.61 484.57"/><polyline class="cls-51" points="369.16 524.1 369.18 531.21 372.51 533.18 372.51 526.02 369.16 524.1"/><polyline class="cls-51" points="437.61 484.57 437.61 484.57 369.16 524.1 369.16 524.1 372.51 526.02 440.95 486.5 437.61 484.57"/></g><g class="cls-49"><polyline class="cls-50" points="425.27 477.49 356.83 517.01 356.84 524.12 360.18 526.09 428.62 486.61 428.62 479.42 425.27 477.49"/><polyline class="cls-51" points="356.83 517.01 356.84 524.12 360.18 526.09 360.18 518.94 356.83 517.01"/><polyline class="cls-51" points="425.27 477.49 356.83 517.01 360.18 518.94 428.62 479.42 425.27 477.49"/></g><polyline class="cls-2" points="453.4 493.76 453.4 493.76 453.4 500.95 384.96 540.43 453.4 500.95 453.4 493.76"/><g class="cls-49"><polyline class="cls-50" points="450.06 491.83 381.61 531.35 381.63 538.46 384.96 540.43 453.4 500.95 453.4 493.76 450.06 491.83"/><polyline class="cls-51" points="381.61 531.35 381.63 538.46 384.96 540.43 384.96 533.27 381.61 531.35"/><polyline class="cls-51" points="450.06 491.83 450.06 491.83 381.61 531.35 384.96 533.27 453.4 493.76 450.06 491.83"/></g><path class="cls-52" d="M721.12,729.23a4.57,4.57,0,0,1-1.54,3.8l0,0-0.75.43,0,0-8.33,4.81a4.55,4.55,0,0,0,1.57-3.82,14,14,0,0,0-2.7-7.51l0-.07a16.81,16.81,0,0,0-5.22-5c-2.31-1.35-4.39-1.57-5.84-.83l9.35-5.36c1.43-.61,3.41-0.34,5.59.93a16.71,16.71,0,0,1,5.22,5l0.05,0.07A14.05,14.05,0,0,1,721.12,729.23Z" transform="translate(-178.07 -182.67)"/><polygon class="cls-44" points="532.35 555.66 532.38 555.64 531.88 555.92 532.35 555.66"/><polygon class="cls-44" points="520.1 538.45 519.77 538.64 519.71 538.67 520.15 538.42 520.13 538.43 520.1 538.45"/><polygon class="cls-44" points="531.6 556.09 531.88 555.92 531.63 556.07 531.6 556.09"/><polygon class="cls-52" points="527.56 534.13 528.71 533.48 528.58 533.59 527.8 534.03 527.56 534.13"/><polygon class="cls-52" points="539.81 551.33 541.06 550.61 539.79 551.35 539.81 551.33"/><polygon class="cls-44" points="539.76 551.37 539.78 551.35 539.29 551.63 539.76 551.37"/><polygon class="cls-44" points="527.51 534.16 527.18 534.35 527.12 534.38 527.55 534.13 527.53 534.14 527.51 534.16"/><polygon class="cls-44" points="539.01 551.8 539.29 551.63 539.04 551.78 539.01 551.8"/><polyline class="cls-10" points="241.29 565.26 291.14 536.56 340.86 565.26 291.08 594 241.29 565.26"/><polyline class="cls-20" points="291.14 536.56 241.29 565.26 291.08 594 340.86 565.26 291.14 536.56"/><polyline class="cls-10" points="241.29 565.26 241.29 572.45 291.11 601.21 340.86 572.45 340.86 565.26 291.08 594 241.29 565.26"/><polygon class="cls-32" points="304.94 558.02 301.27 565.49 309.96 572.43 296.4 571.61 289.18 577.82 284.46 569.84 271.31 566.74 281.95 562.64 281.06 554.5 292.34 559.95 304.94 558.02"/><polyline class="cls-11" points="241.29 565.26 241.29 572.45 291.11 601.21 291.08 594 241.29 565.26"/><polyline class="cls-53" points="36.24 481.16 86.08 452.45 135.8 481.16 86.03 509.89 36.24 481.16"/><polyline class="cls-54" points="86.08 452.45 36.24 481.16 86.03 509.89 135.8 481.16 86.08 452.45"/><polyline class="cls-55" points="36.24 481.16 36.24 488.35 86.05 517.11 135.8 488.35 135.8 481.16 86.03 509.89 36.24 481.16"/><path class="cls-32" d="M262.09,651.77L283,663.84a2,2,0,0,1,0,3.46l-14.67,8.47a2,2,0,0,1-2,0l-11.18-6.44-9.74-5.61a2,2,0,0,1,0-3.46l14.69-8.48A2,2,0,0,1,262.09,651.77Z" transform="translate(-178.07 -182.67)"/><polygon class="cls-32" points="76.79 493.67 83.01 490.08 77.06 486.66 76.79 493.67"/><polyline class="cls-56" points="36.24 481.16 36.24 488.35 86.05 517.11 86.03 509.89 36.24 481.16"/><polyline class="cls-57" points="272.4 439.48 266.18 443.07 353.3 493.37 266.18 443.07 272.4 439.48 272.4 439.48"/><polyline class="cls-58" points="272.4 439.48 266.18 443.07 353.3 493.37 353.3 486.18 272.4 439.48"/><polyline class="cls-58" points="266.18 435.88 266.18 443.07 272.4 439.48 266.18 435.88"/><polyline class="cls-59" points="281.38 269.44 287.55 265.8 293.8 269.44 275.4 352.27 269.2 355.88 287.63 273.07 281.38 269.44"/><polyline class="cls-60" points="278.69 289.37 278.69 296.55 316.03 318.11 316 310.91 278.69 289.37"/><polyline class="cls-59" points="278.69 289.37 284.85 285.81 322.25 307.33 322.25 314.52 316.03 318.11 316 310.91 278.69 289.37"/><polyline class="cls-61" points="289.58 288.53 289.58 288.54 322.15 307.27 289.58 288.53"/><polyline class="cls-62" points="289.58 288.53 289.58 288.54 322.15 307.27 289.58 288.53"/><polyline class="cls-63" points="283.4 292.09 283.4 292.09 316 310.91 283.4 292.09"/><polyline class="cls-64" points="289.58 288.54 283.4 292.09 316 310.91 316.03 318.11 320.29 315.65 322.15 307.27 289.58 288.54"/><polyline class="cls-60" points="273.02 314.72 273.02 321.91 310.37 343.46 310.33 336.26 273.02 314.72"/><polyline class="cls-59" points="273.02 314.72 279.18 311.17 316.59 332.69 316.59 339.87 310.37 343.46 310.33 336.26 273.02 314.72"/><polyline class="cls-61" points="283.93 313.89 283.93 313.9 316.51 332.64 316.51 332.64 283.93 313.89"/><polyline class="cls-32" points="283.93 313.89 283.93 313.9 316.51 332.64 316.51 332.64 283.93 313.89"/><polyline class="cls-64" points="283.92 313.89 283.92 313.89 283.93 313.9 283.93 313.89 283.92 313.89"/><polyline class="cls-64" points="283.92 313.89 277.76 317.43 310.33 336.26 310.37 343.46 314.65 340.99 316.51 332.64 283.93 313.9 283.92 313.89"/><polyline class="cls-59" points="318.71 291.03 324.88 287.39 331.13 291.03 312.73 373.86 306.53 377.47 324.96 294.66 318.71 291.03"/><polyline class="cls-60" points="262.97 352.26 269.2 355.88 287.63 273.07 281.38 269.44 262.97 352.26"/><polyline class="cls-64" points="281.65 269.28 281.39 269.44 281.65 269.59 281.65 269.28"/><polyline class="cls-64" points="324.88 287.39 319.6 290.5 318.71 291.03 324.96 294.66 331.13 291.03 324.88 287.39"/><polyline class="cls-59" points="270.09 320.19 276.26 316.56 282.51 320.19 249.99 466.63 243.79 470.25 276.34 323.82 270.09 320.19"/><polyline class="cls-60" points="267.39 340.12 267.39 347.31 304.74 368.87 304.7 361.66 267.39 340.12"/><polyline class="cls-60" points="260.79 393.76 257.73 399.19 295.07 420.75 295.04 413.54 260.79 393.76"/><polyline class="cls-60" points="255.13 419.26 251.51 424.39 288.86 445.95 288.82 438.74 255.13 419.26"/><polyline class="cls-60" points="266.47 368.19 265.08 374.6 299.07 394.22 299.04 387.01 266.47 368.19"/><polyline class="cls-60" points="249.46 444.68 245.27 449.48 282.62 471.03 282.58 463.83 249.46 444.68"/><polyline class="cls-59" points="249.46 444.68 255.58 441.1 288.84 460.25 288.84 467.44 282.62 471.03 282.58 463.83 249.46 444.68"/><polyline class="cls-59" points="267.39 340.12 273.55 336.57 310.96 358.08 310.96 365.27 304.74 368.87 304.7 361.66 267.39 340.12"/><polyline class="cls-59" points="266.47 368.19 272.63 364.64 305.29 383.44 305.29 390.63 299.07 394.22 299.04 387.01 266.47 368.19"/><polyline class="cls-59" points="260.79 393.76 266.98 390.2 301.29 409.97 301.29 417.15 295.07 420.75 295.04 413.54 260.79 393.76"/><polyline class="cls-59" points="255.13 419.26 261.29 415.72 295.07 435.17 295.07 442.35 288.86 445.95 288.82 438.74 255.13 419.26"/><polyline class="cls-64" points="278.27 339.28 272.08 342.83 304.7 361.66 304.74 368.87 310.96 365.27 310.96 358.08 278.27 339.28"/><polyline class="cls-64" points="272.63 364.64 266.47 368.19 299.04 387.01 299.07 394.22 305.29 390.63 305.29 383.44 303.42 382.36 272.63 364.64"/><polyline class="cls-64" points="266.98 390.2 266.96 390.21 260.79 393.76 295.04 413.54 295.07 420.75 301.29 417.15 301.29 411.89 301.29 409.97 266.98 390.2"/><polyline class="cls-64" points="261.29 415.72 255.13 419.26 288.82 438.74 288.86 445.95 295.07 442.35 295.07 435.17 281.23 427.19 261.29 415.72"/><polyline class="cls-64" points="255.58 441.1 249.46 444.68 282.58 463.83 282.62 471.03 288.84 467.44 288.84 460.25 255.58 441.1"/><polygon class="cls-59" points="307.42 341.78 313.59 338.15 319.83 341.78 287.32 488.23 281.12 491.84 313.66 345.41 307.42 341.78"/><polygon class="cls-60" points="237.56 466.63 243.82 470.25 280.01 307.26 270.09 320.19 237.56 466.63"/><polygon class="cls-60" points="274.12 315.33 274.12 322.52 311.47 344.07 311.44 336.87 274.12 315.33"/><polygon class="cls-60" points="274.89 488.22 281.12 491.84 319.29 319.92 307.42 341.78 274.89 488.22"/><polygon class="cls-59" points="276.83 340.09 278.27 339.28 278.56 338.08 273.54 336.41 273.21 337.94 276.83 340.09"/><polygon class="cls-60" points="300.3 373.85 306.53 377.47 324.96 294.66 318.71 291.03 300.3 373.85"/><polyline class="cls-65" points="279.43 235.69 280.42 235.09 286.62 231.48 287.86 232.2 294.13 235.82 287.86 239.38 281.7 235.82 281.7 235.82 281.41 235.66 279.77 236.41 279.43 235.69"/><path class="cls-65" d="M471.17,417.9l1,0.6h0l-1-.6m-6.48-3.74-6.2,3.61-1,.6,0.35,0.72,1.63-.76,0.29,0.17h0l6.15,3.55v-7.17l4.41,2.54h0l-4.41-2.55-1.24-.72" transform="translate(-178.07 -182.67)"/><polyline class="cls-66" points="300.31 246.57 300.31 289.68 281.63 278.92 281.7 235.82 300.31 246.57"/><polyline class="cls-66" points="306.47 242.95 306.47 286.06 287.8 275.3 287.86 232.2 306.47 242.95"/><polygon class="cls-67" points="300.31 289.68 300.31 332.79 290.7 327.27 290.7 284.15 300.31 289.68"/><polygon class="cls-67" points="290.7 284.15 290.7 327.27 281.63 321.99 281.63 278.87 290.7 284.15"/><polyline class="cls-65" points="306.47 242.95 306.47 286.06 300.31 282.5 300.31 246.57 306.47 242.95"/><polygon class="cls-65" points="300.27 282.51 300.31 282.53 306.47 286.06 300.31 289.68 300.27 282.51"/><polygon class="cls-68" points="288.99 326.28 292.41 328.26 292.41 285.15 288.99 283.16 288.99 326.28"/><path class="cls-66" d="M478.38,429.24l11.32,9.21a2,2,0,0,0,2.26.18l11.24-6.51v4.15L492,442.77a2,2,0,0,1-2.26-.17l-11.32-9.11v-4.25" transform="translate(-178.07 -182.67)"/><polyline class="cls-65" points="294.13 235.82 306.47 242.95 300.31 246.57 287.86 239.38 294.13 235.82"/><path class="cls-65" d="M496.91,428.56l6.29,3.55L492,438.63a2,2,0,0,1-2.26-.18l-11.32-9.21,6.16-3.62,5.11,5.35a2,2,0,0,0,2.44.35l4.81-2.77" transform="translate(-178.07 -182.67)"/><polyline class="cls-65" points="292.27 234.74 292.26 234.75 294.13 235.82 294.13 235.82 293.1 235.22 292.27 234.74"/><polyline class="cls-69" points="292.26 234.75 287.86 239.38 294.13 235.82 292.26 234.75"/><polyline class="cls-61" points="292.26 234.75 287.86 239.38 294.13 235.82 292.26 234.75"/><polyline class="cls-65" points="294.13 235.82 294.13 235.82 287.86 239.38 300.31 246.57 300.31 246.57 300.31 246.57 306.47 242.95 294.13 235.82"/><path class="cls-65" d="M484.55,425.62h0l-6.16,3.62,11.32,9.21a2,2,0,0,0,2.26.18l11.24-6.51-6.29-3.55-4.81,2.77a2,2,0,0,1-2.44-.35l-5.11-5.35" transform="translate(-178.07 -182.67)"/><polygon class="cls-70" points="322.14 244.06 318.92 245.87 325.16 249.47 328.43 247.61 322.14 244.06"/><polygon class="cls-70" points="325.16 249.47 328.43 247.61 328.43 251.77 325.16 253.62 325.16 249.47"/><polygon class="cls-70" points="281.64 278.92 278.45 277.13 278.45 273.91 281.63 275.67 281.64 278.92"/><polygon class="cls-68" points="304.87 324.79 311.12 321.23 304.87 317.54 304.87 324.79"/><path class="cls-68" d="M486,503.89l-7.57,4.39v7.18l12.41-7.2v-1.58A3.23,3.23,0,0,0,486,503.89Z" transform="translate(-178.07 -182.67)"/><polygon class="cls-68" points="306.47 286.06 306.47 329.24 300.31 332.79 300.31 289.68 306.47 286.06"/><path class="cls-71" d="M483.33,406.84l-9.95-5.69-7.62,4.22a4,4,0,0,0-2.06,3.47l-0.09,11.83,10.3,6,5.91-3.4a7,7,0,0,0,3.51-6.07V406.84Z" transform="translate(-178.07 -182.67)"/><path class="cls-70" d="M483.33,409.27l-5.26,3.07a4,4,0,0,0-2,3.46v9.64l3.75-2.16a7,7,0,0,0,3.5-6.06v-7.93Z" transform="translate(-178.07 -182.67)"/><path class="cls-71" d="M475.32,400l9.93,5.73v0.17a3.89,3.89,0,0,1-1.92,3.36v-2.42l-9.95-5.69Z" transform="translate(-178.07 -182.67)"/><path class="cls-66" d="M456.52,456.62l3.25,1.82V418.49l-0.24-.14a2,2,0,0,0-3,1.73v36.54Z" transform="translate(-178.07 -182.67)"/><polyline class="cls-9" points="5.46 263.85 55.46 235.09 61.51 238.55 11.83 267.35 5.46 263.85"/><polyline class="cls-18" points="55.46 235.09 5.46 263.85 11.83 267.35 61.51 238.55 55.46 235.09"/><polygon class="cls-10" points="160.96 317.7 179.63 306.93 198.29 317.7 179.63 328.48 160.96 317.7"/><polygon class="cls-32" points="160.96 317.7 179.63 306.93 198.29 317.7 179.63 328.48 160.96 317.7"/><polygon class="cls-48" points="179.63 328.48 198.29 317.7 198.29 339.26 179.63 350.04 179.63 328.48"/><polygon class="cls-47" points="160.96 339.26 160.96 317.7 179.63 328.48 179.63 350.04 160.96 339.26"/><polyline class="cls-72" points="434.79 547.48 434.79 525.93 453.46 536.71 453.46 558.26 434.79 547.48"/><polyline class="cls-73" points="434.79 525.93 434.79 547.48 453.46 558.26 453.46 536.71 434.79 525.93"/><polyline class="cls-74" points="434.79 525.93 453.46 515.15 472.13 525.93 453.46 536.71 434.79 525.93"/><polyline class="cls-75" points="453.46 515.15 434.79 525.93 453.46 536.71 472.13 525.93 453.46 515.15"/><polygon class="cls-42" points="453.46 536.71 472.13 525.93 472.13 547.48 453.46 558.26 453.46 536.71"/><polygon class="cls-72" points="453.46 536.71 472.13 525.93 472.13 547.48 453.46 558.26 453.46 536.71"/><polygon class="cls-72" points="453.46 536.71 472.13 525.93 472.13 547.48 453.46 558.26 453.46 536.71"/><polyline class="cls-76" points="540.47 601.48 590.32 572.77 640.04 601.48 590.26 630.21 540.47 601.48"/><polyline class="cls-77" points="540.47 601.48 540.47 608.67 590.29 637.43 640.04 608.67 640.04 601.48 590.26 630.21 540.47 601.48"/><polyline class="cls-13" points="123.79 385.76 173.64 357.06 223.36 385.76 173.58 414.5 123.79 385.76"/><polyline class="cls-26" points="173.64 357.06 123.79 385.76 173.58 414.5 223.36 385.76 173.64 357.06"/><polyline class="cls-13" points="123.79 385.76 123.79 392.95 173.61 421.71 223.36 392.95 223.36 385.76 173.58 414.5 123.79 385.76"/><path class="cls-32" d="M349.88,567.54l-17.36,2.76,0.26-.19,21.88-13.56,0.3-.16-3.82,10.37A1.54,1.54,0,0,1,349.88,567.54Z" transform="translate(-178.07 -182.67)"/><path class="cls-32" d="M358,556.83l11.4,6.6c1.07,0.62,1,1.73-.22,2.46L348.06,579a4.42,4.42,0,0,1-4.1.22l-11.4-6.6a1.45,1.45,0,0,1-.53-0.47l17.51-2.67a6.53,6.53,0,0,0,2.42-.85,3.1,3.1,0,0,0,1.34-1.48l3.86-10.58A2.6,2.6,0,0,1,358,556.83Z" transform="translate(-178.07 -182.67)"/><polyline class="cls-24" points="223.36 385.76 223.36 385.76 173.58 414.5 173.61 421.71 223.36 392.95 223.36 385.76"/><polyline class="cls-78" points="540.44 605.24 540.44 608.67 590.26 637.43 590.26 637.41 540.47 608.67 540.47 605.26 540.44 605.24"/><polyline class="cls-79" points="540.47 605.26 540.47 608.67 590.26 637.41 590.23 630.28 587.04 632.13 587.01 632.11 587.01 632.13 540.47 605.26"/><polyline class="cls-53" points="537.22 596.18 587.07 567.47 636.79 596.18 587.01 624.91 537.22 596.18"/><polyline class="cls-80" points="543.54 592.54 537.22 596.18 587.01 624.91 636.79 596.18 636.73 596.15 593.29 621.26 543.54 592.54"/><polyline class="cls-55" points="537.22 596.18 537.22 603.37 587.04 632.13 636.79 603.37 636.79 596.18 587.01 624.91 537.22 596.18"/><polyline class="cls-81" points="543.47 585.31 593.32 556.61 643.04 585.31 593.26 614.05 543.47 585.31"/><polyline class="cls-82" points="593.32 556.61 543.47 585.31 593.26 614.05 643.04 585.31 593.32 556.61"/><polyline class="cls-42" points="543.47 585.31 543.47 592.5 593.29 621.26 643.04 592.5 643.04 585.31 593.26 614.05 543.47 585.31"/><path class="cls-32" d="M790,771.26c-0.14-1.6-1.36-3.11-3.21-4.25a15.08,15.08,0,0,0-7-2.08l-2.85-.15-0.15-1.71c-0.14-1.6-1.36-3.11-3.21-4.25a15.08,15.08,0,0,0-7-2.08c-5.34-.27-9.44,2.1-9.15,5.3l0.16,1.73,0.13,1.46,0.19,2.12,0.73,8.05,13.39,0.7,3.54,0.18,2.42,0.13,2.85,0.15C786.21,776.85,790.31,774.48,790,771.26Z" transform="translate(-178.07 -182.67)"/><polyline class="cls-83" points="543.47 585.31 543.47 592.5 593.29 621.26 593.26 614.05 543.47 585.31"/><polyline class="cls-78" points="537.19 596.18 537.19 603.37 540.44 605.24 540.44 605.22 537.22 603.37 537.22 596.2 537.19 596.18"/><polyline class="cls-84" points="540.44 605.22 540.44 605.24 540.47 605.26 540.47 605.24 540.44 605.22"/><polyline class="cls-85" points="540.47 605.24 540.47 605.26 587.01 632.13 587.01 632.11 540.47 605.24"/><polyline class="cls-32" points="540.47 605.24 540.47 605.26 587.01 632.13 587.01 632.11 540.47 605.24"/><polyline class="cls-86" points="537.22 596.2 537.22 603.37 540.44 605.22 540.47 605.24 587.01 632.11 586.98 624.91 537.22 596.2"/><polygon class="cls-60" points="306.53 377.47 300.3 373.85 318.71 291.03 324.96 294.66 306.53 377.47"/></g></g></svg>