<svg xmlns="http://www.w3.org/2000/svg" width="106" height="44" viewBox="0 0 106 44">
    <g fill="#0084C2" fill-rule="evenodd">
        <path fill-rule="nonzero" d="M.001 0c.17.017.31.029.448.045.606.071 1.211.147 1.817.217.606.068 1.212.13 1.818.198.606.067 1.211.143 1.817.21.492.055.985.1 1.477.156.491.056.98.125 1.471.18.492.056.985.1 1.477.156.485.055.968.12 1.454.175.485.055.972.096 1.457.155.451.054.9.125 1.352.184.265.035.531.063.798.094.285.033.57.068.857.1.273.032.545.056.818.088.272.031.544.069.816.101.258.031.517.058.777.088.292.034.583.072.875.105.259.03.518.057.777.085.267.028.533.055.798.087.266.03.53.068.796.1l1.138.13c.493.056.987.111 1.48.168.386.044.771.094 1.158.138.379.044.759.083 1.138.127.386.045.77.094 1.157.14l1.098.125 1.158.129c.494.056.987.112 1.48.17l1.14.132c.386.043.772.085 1.158.13.386.045.771.095 1.157.14l1.137.126 1.118.128 1.137.134 1.14.127 1.18.134c.378.044.758.091 1.137.136l.798.088.837.1c.267.032.533.06.799.09.267.03.533.058.798.089.273.032.544.069.817.1.386.044.773.085 1.16.129l1.158.132c.386.045.772.09 1.158.137.305.04.617.057.914.127 1.415.33 2.432 1.554 2.479 2.843.014.39.011.782.012 1.173l.036 17.424.022 8.585c.001.757-.278 1.415-.787 1.978a3.175 3.175 0 0 1-1.951 1.05c-.372.053-.746.086-1.119.127l-1.179.135c-.386.043-.772.083-1.158.127-.28.031-.558.068-.837.1-.266.031-.532.06-.798.089-.273.03-.546.058-.82.089l-.897.102-1.117.13-1.16.132-1.16.13-1.178.13c-.386.044-.772.091-1.157.136-.267.032-.532.06-.8.09l-.877.103-.798.088-1.16.129c-.386.043-.772.09-1.158.133-.5.058-1 .113-1.5.169-.393.043-.787.085-1.18.13-.385.043-.77.09-1.157.136-.272.031-.546.06-.819.09l-.819.093c-.272.032-.545.066-.818.096-.386.044-.773.084-1.16.127l-1.52.173c-.5.057-.999.117-1.499.172-.393.044-.787.083-1.18.128-.386.044-.771.094-1.157.138-.386.045-.773.084-1.16.127l-1.118.127c-.386.044-.773.092-1.159.136-.5.057-1 .11-1.501.167-.507.055-1.013.112-1.52.17-.386.044-.771.097-1.157.137-.259.027-.52.036-.78.06-.266.024-.532.057-.799.087l-.879.098c-.372.041-.745.082-1.118.125-.386.044-.772.092-1.158.136-.506.057-1.013.114-1.52.165-.668.067-1.331.184-2.007.156-1.018-.045-1.983-.268-2.837-.832C.674 42.706.19 42.1.027 41.287a1.324 1.324 0 0 1-.024-.213C-.002 40.95 0 40.826 0 40.703V.3 0zm36.724 34.722a14.754 14.754 0 0 0 2.633-.26c3.813-.743 7.204-3.312 8.93-6.781 1.111-2.237 1.452-4.606 1.19-7.072-.214-2.008-.944-3.822-2.128-5.454a13.965 13.965 0 0 0-2.31-2.465c-2.025-1.708-4.355-2.696-6.996-2.946-.97-.091-1.943-.08-2.914.023a12.92 12.92 0 0 0-3.269.769c-2.134.813-3.908 2.131-5.39 3.852-1.144 1.33-1.967 2.835-2.418 4.532-.378 1.42-.47 2.863-.346 4.323.104 1.203.358 2.371.82 3.487 1.218 2.93 3.28 5.099 6.065 6.585 1.875 1 3.904 1.404 6.133 1.407zm-16.969-.481V18.083h-4.262V34.24h4.262zM1.266 1.568v6.168c.193.066 6.615.452 6.793.402l.037-5.797c-2.275-.258-4.54-.515-6.83-.773zm.007 13.428c.343.038 6.587.023 6.738-.016.003-.048.008-.1.01-.15l.041-5.356c.001-.187-.01-.2-.194-.21L6.656 9.2 1.433 8.94c-.05-.003-.1 0-.16 0v6.057zM15.181 3.182c-.768-.145-5.734-.68-5.905-.637-.058.344-.102 5.538-.042 5.727.058.005.121.01.185.013l.587.035c.515.03 1.03.062 1.544.093l1.602.1 1.78.1c.054.003.11-.008.18-.014.015-1.816.118-3.61.069-5.417zm2.439 9.568c-1.265-.001-2.291 1.007-2.294 2.253-.003 1.245 1.025 2.267 2.282 2.27 1.26.004 2.288-1.01 2.29-2.258a2.265 2.265 0 0 0-2.278-2.265z"/>
        <path d="M59.997 28.518l.144.315c.331.753.729 1.467 1.276 2.09.708.807 1.576 1.35 2.649 1.545.819.148 1.637.152 2.425-.144.963-.362 1.67-.996 1.98-1.992a2.82 2.82 0 0 0-.158-2.15 4.811 4.811 0 0 0-1.758-1.962c-.617-.392-1.282-.694-1.952-.983-.789-.34-1.584-.667-2.367-1.022-.796-.361-1.557-.787-2.238-1.342-1.045-.852-1.873-1.87-2.38-3.122-.352-.868-.458-1.775-.38-2.704.156-1.835 1.063-3.26 2.49-4.392a7.475 7.475 0 0 1 3.683-1.565c1.726-.241 3.39.014 5.01.62 1.722.642 3.1 1.715 4.164 3.194.01.016.019.035.04.075l-3.376 2.693c-.055-.053-.106-.103-.159-.152-.412-.394-.824-.79-1.239-1.181-.094-.088-.203-.16-.302-.243-.556-.466-1.213-.655-1.925-.71-.666-.053-1.326-.034-1.976.129-.58.145-1.103.402-1.518.838a1.783 1.783 0 0 0-.152 2.308 2.3 2.3 0 0 0 .386.417c.248.202.506.392.776.563.687.433 1.424.776 2.17 1.095 1.086.465 2.16.95 3.18 1.547 1.037.607 1.974 1.332 2.739 2.262.908 1.104 1.506 2.35 1.692 3.763.353 2.695-.474 4.97-2.539 6.784-1.188 1.045-2.577 1.679-4.159 1.847-3.657.39-7.04-1.1-9.055-4.3a13.686 13.686 0 0 1-1.136-2.264c-.04-.102-.048-.188.01-.287.083-.139.155-.285.224-.432a.274.274 0 0 1 .19-.163c1.145-.319 2.288-.64 3.43-.96.033-.01.067-.01.111-.015zM76 18.01c.075-.003.125-.01.173-.01 1.418.005 2.835.013 4.251.01.17 0 .271.059.363.21.577.963 1.161 1.919 1.745 2.876.94 1.544 1.883 3.085 2.825 4.628.031.052.066.1.112.17.037-.077.066-.137.092-.198.568-1.338 1.174-2.659 1.692-4.02.444-1.166.966-2.291 1.43-3.447.029-.075.065-.148.1-.226H93c-.013.056-.019.102-.035.142-.24.606-.48 1.212-.724 1.815-.242.597-.485 1.194-.737 1.787-.636 1.495-1.281 2.984-1.915 4.48-1.882 4.444-3.762 8.889-5.64 13.337-.31.738-.602 1.488-.903 2.232-.028.07-.058.139-.085.204h-4.352c.036-.093.057-.156.084-.217 1.658-3.723 3.207-7.5 4.817-11.247.056-.129.047-.22-.026-.338a5321.348 5321.348 0 0 1-4.958-8.052c-.804-1.306-1.603-2.616-2.404-3.924-.04-.06-.073-.125-.122-.211zM103.554 22.264c-.244-.19-.48-.384-.723-.565a10.745 10.745 0 0 0-.624-.429c-.585-.377-1.21-.398-1.847-.239-.108.028-.21.093-.308.153-.233.143-.368.697-.143.963.143.169.296.332.464.466.365.292.773.497 1.187.685.618.28 1.226.581 1.805.954.53.34 1.03.726 1.459 1.218.926 1.06 1.283 2.344 1.149 3.814a4.978 4.978 0 0 1-1.08 2.691c-1.064 1.346-2.388 2.043-3.995 2.025-1.447-.018-2.701-.583-3.77-1.683a8.549 8.549 0 0 1-1.066-1.379.332.332 0 0 1-.045-.297c.046-.16.078-.324.115-.487.016-.074.042-.131.11-.168.797-.435 1.592-.872 2.388-1.309.005-.002.012 0 .038 0l.229.254c.29.322.604.608.967.816.564.325 1.15.412 1.761.207.302-.1.566-.278.787-.532.322-.37.346-.8.044-1.19a3.025 3.025 0 0 0-.507-.501c-.365-.294-.772-.5-1.187-.686-.69-.31-1.37-.642-2.018-1.057-.482-.308-.94-.653-1.333-1.103-.66-.755-.998-1.672-1.04-2.73-.039-1.053.166-2.034.711-2.9.7-1.11 1.652-1.797 2.822-2.1 1.215-.313 2.38-.149 3.502.462.798.434 1.517 1 2.199 1.632.06.057.09.117.089.206 0 .188.005.377.011.565a.22.22 0 0 1-.065.176l-2.057 2.055c-.004.004-.011.005-.03.013zM46 22.5c.006 2.465-.92 4.5-2.63 6.17-.972.95-2.083 1.65-3.374 2.022-1.004.29-2.025.356-3.06.277-.879-.067-1.738-.235-2.558-.573-2.108-.869-3.704-2.334-4.695-4.476-.439-.95-.637-1.965-.676-3.016-.045-1.214.115-2.393.559-3.522.527-1.345 1.368-2.445 2.426-3.374 1.14-1.002 2.445-1.64 3.92-1.888a9.324 9.324 0 0 1 2.561-.06c.961.106 1.892.339 2.762.78 1.935.98 3.384 2.462 4.215 4.554.372.937.551 2.009.55 3.106z"/>
    </g>
</svg>

