<?xml version="1.0" encoding="UTF-8"?>
<svg width="849px" height="179px" viewBox="0 0 849 179" version="1.1" xmlns="http://www.w3.org/2000/svg" xmlns:xlink="http://www.w3.org/1999/xlink">
    <!-- Generator: Sketch 51.1 (57501) - http://www.bohemiancoding.com/sketch -->
    <title>Group</title>
    <desc>Created with Sketch.</desc>
    <defs></defs>
    <g id="Page-1" stroke="none" stroke-width="1" fill="none" fill-rule="evenodd">
        <g id="Artboard" transform="translate(-130.000000, -1710.000000)" fill-rule="nonzero">
            <g id="Group" transform="translate(554.783882, 1799.655313) rotate(32.000000) translate(-554.783882, -1799.655313) translate(147.783882, 1499.155313)">
                <path d="M109.375644,476.651572 L109.377308,476.651572 L109.377308,517.19357 L109.375644,517.19357 L109.375644,534.957157 L109.375532,534.968492 L129.254334,534.968492 L129.678408,476.628171 L139.089184,476.628171 C153.089235,476.628171 164.21359,473.180189 172.462582,466.284122 C180.711575,459.388055 184.836009,450.045137 184.836009,438.255087 C184.836009,427.243625 180.972983,418.123158 173.246813,410.89341 C168.83186,406.722402 163.719885,403.886158 157.910735,402.384595 C152.159677,400.883033 143.6494,400.132262 132.37965,400.132262 L109.375532,400.132262 L109.375532,458.472584 L109.375644,476.651572 Z M109.375532,517.19357 L101.796406,517.19357 C83.1490353,517.19357 73.8254898,510.325412 73.8254898,496.588892 C73.8254898,483.297279 83.4394882,476.651572 102.667774,476.651572 L109.375532,476.651572 L109.375532,458.472584 L99.9648687,458.472584 C85.9648183,458.472584 74.8404631,461.920565 66.5914704,468.816632 C58.3424778,475.712699 54.2180435,485.055617 54.2180435,496.845668 C54.2180435,507.85713 58.0810703,516.977597 65.8072395,524.207345 C70.2221932,528.378353 75.3341683,531.214596 81.1433178,532.716159 C86.894355,534.217717 98.1058119,534.957151 109.375521,534.957157 L109.375532,517.19357 Z M0.155509544,449.69358 L719.360999,0.284111405 L813.538995,151.000411 L94.3335057,600.409879 L0.155509544,449.69358 Z M131.155318,458.609506 L131.155318,418.067508 L137.864852,418.067508 C157.093138,418.067508 166.707136,424.713215 166.707136,438.004828 C166.707136,451.741348 157.383591,458.609506 138.73622,458.609506 L131.155318,458.609506 Z M109.375644,476.651572 L109.375532,476.651572 L109.375532,517.19357 L109.375644,517.19357 L109.375644,476.651572 Z" id="Combined-Shape" fill="#FFFFFF"></path>
                <path d="M197.016572,182.810946 C209.686551,182.810946 219.591535,185.990283 226.731819,192.349051 C233.872104,198.707819 237.442193,207.599183 237.442193,219.02341 C237.442193,225.597729 236.126897,231.740853 233.496266,237.452967 C230.865635,243.165081 226.624477,247.799368 220.772664,251.355966 C214.920852,254.912566 207.539089,256.690839 198.627155,256.690839 L181.393922,256.690839 L181.393922,299.693139 L165.771271,299.693139 L165.771271,182.810946 L197.016572,182.810946 Z M198.627155,241.494537 C204.210535,241.494537 208.746964,240.309021 212.236577,237.937956 C215.72619,235.56689 218.222568,232.683932 219.725786,229.288997 C221.229004,225.894061 221.980601,222.580007 221.980601,219.346735 C221.980601,213.742398 220.155293,208.757845 216.504621,204.392928 C212.853949,200.028011 207.163281,197.845585 199.432446,197.845585 L181.393922,197.845585 L181.393922,241.494537 L198.627155,241.494537 Z M320.071351,232.764746 L320.071351,299.693139 L305.092933,299.693139 L305.092933,288.70007 C302.730734,291.825566 299.294859,294.708523 294.785206,297.349028 C290.275552,299.989534 285.175425,301.309767 279.484672,301.309767 C273.149682,301.309767 267.432172,299.935647 262.331968,297.187366 C257.231764,294.439085 253.205349,290.424499 250.252599,285.143488 C247.29985,279.862478 245.823497,273.557692 245.823497,266.228943 C245.823497,258.900193 247.353535,252.514577 250.413657,247.071903 C253.473779,241.629229 257.607566,237.426038 262.815143,234.462206 C268.022719,231.498373 273.793915,230.016479 280.128905,230.016479 C285.819658,230.016479 290.758728,231.255881 294.946263,233.734723 C299.133799,236.213565 302.515989,239.446788 305.092933,243.43449 L306.220341,232.764746 L320.071351,232.764746 Z M283.511128,288.861732 C288.987136,288.861732 293.684621,287.325951 297.603725,284.254343 C301.522828,281.182735 304.019207,277.006488 305.092933,271.725477 L305.092933,258.469129 C303.804461,253.726997 301.120184,249.874073 297.040021,246.91024 C292.959858,243.946408 288.289215,242.464513 283.027953,242.464513 C279.055163,242.464513 275.377703,243.43448 271.995463,245.374444 C268.613223,247.314407 265.928945,250.035703 263.94255,253.538414 C261.956156,257.041125 260.962973,261.001824 260.962973,265.420629 C260.962973,269.731658 261.982998,273.665413 264.02308,277.222012 C266.063161,280.778611 268.801124,283.607681 272.23705,285.709308 C275.672977,287.810935 279.430965,288.861732 283.511128,288.861732 Z M354.866208,174.404482 L354.866208,299.693139 L339.887791,299.693139 L339.887791,174.404482 L354.866208,174.404482 Z M460.204579,230.016479 C466.646941,230.016479 471.773913,231.848639 475.585643,235.513014 C479.397374,239.177389 481.410583,244.027224 481.625326,250.062664 L481.625326,299.693139 L466.646911,299.693139 L466.646911,255.559199 C466.324793,247.691571 462.781545,243.542268 456.017064,243.111165 C452.151647,243.111165 448.688929,244.269736 445.628808,246.586914 C442.568685,248.904093 440.179678,251.948711 438.461715,255.720862 C436.743752,259.493012 435.831097,263.534541 435.723725,267.84557 L435.723725,299.693139 L420.58425,299.693139 L420.58425,255.559199 C420.262131,247.691571 416.611514,243.542268 409.632288,243.111165 C405.874243,243.111165 402.465212,244.269736 399.405089,246.586914 C396.344967,248.904093 393.955961,251.975655 392.237997,255.801693 C390.520034,259.627732 389.661065,263.696204 389.661065,268.007233 L389.661065,299.693139 L374.682648,299.693139 L374.682648,232.764746 L388.211541,232.764746 L389.338949,245.374444 C391.915894,240.524536 395.432297,236.752442 399.888264,234.058049 C404.344232,231.363656 409.417515,230.016479 415.108269,230.016479 C420.476904,230.016479 424.98649,231.282825 428.637162,233.815554 C432.287834,236.348284 434.649998,239.823999 435.723725,244.242804 C438.515415,239.823999 442.058661,236.348284 446.353569,233.815554 C450.648478,231.282825 455.265436,230.016479 460.204579,230.016479 Z M520.124523,301.148104 C515.185379,301.148104 510.487892,300.285911 506.031924,298.561499 C501.575961,296.837088 497.952182,294.304396 495.160494,290.963349 L501.602826,282.233558 C504.287143,284.820176 507.105632,286.813997 510.058382,288.215081 C513.011132,289.616166 515.936993,290.316697 518.836057,290.316697 C522.379354,290.316697 525.278375,289.616166 527.533201,288.215081 C529.788028,286.813997 530.915427,284.658514 530.915427,281.74857 C530.915427,279.48528 530.217513,277.65312 528.821667,276.252035 C527.425825,274.850951 525.842101,273.827097 524.07045,273.180442 C522.298799,272.533788 519.319253,271.563821 515.131718,270.270512 C503.750213,266.606137 498.059544,260.085804 498.059544,250.709316 C498.059544,245.104978 500.126439,240.30903 504.260288,236.321328 C508.394137,232.333626 514.165332,230.339805 521.574045,230.339805 C526.298446,230.339805 530.485917,230.932562 534.13659,232.118095 C537.787264,233.303628 541.169455,235.189675 544.283262,237.776293 L538.324105,246.991072 C536.60614,245.158884 534.431879,243.703934 531.801247,242.626176 C529.170616,241.548419 526.674236,240.955662 524.312038,240.847886 C521.305602,240.847886 518.728696,241.575361 516.58124,243.030333 C514.43379,244.485306 513.360077,246.452183 513.360077,248.931025 C513.360077,250.978764 514.05799,252.676206 515.453832,254.023403 C516.849678,255.370599 518.299191,256.340566 519.802409,256.933333 C521.305627,257.526099 524.258328,258.52301 528.66061,259.924094 C534.13662,261.756282 538.404622,264.127312 541.464743,267.037256 C544.524864,269.947201 546.054903,273.880956 546.054903,278.83864 C546.054903,285.305184 543.80011,290.640002 539.290457,294.843256 C534.780803,299.046509 528.392221,301.148104 520.124523,301.148104 Z M602.91474,230.016479 C609.142354,230.016479 614.779337,231.525317 619.825857,234.543037 C624.872372,237.560757 628.845105,241.790892 631.744164,247.233566 C634.643229,252.67624 636.092736,258.954082 636.092736,266.06728 C636.092736,273.072702 634.535858,279.24277 631.42205,284.577668 C628.308243,289.912567 624.013396,294.034927 618.537391,296.944872 C613.061381,299.854816 606.941227,301.309767 600.176747,301.309767 C595.344979,301.309767 590.728019,300.258969 586.325741,298.157342 C581.923459,296.055716 578.380211,293.226645 575.695894,289.670046 L575.695894,331.864033 L560.71748,331.864033 L560.71748,231.633107 L573.763196,231.633107 L575.051661,242.949502 C578.487587,239.069576 582.594532,235.944127 587.372619,233.57306 C592.150705,231.201994 597.331358,230.016479 602.91474,230.016479 Z M597.277702,289.185058 C601.465237,289.185058 605.357439,288.188147 608.954422,286.194296 C612.55141,284.200446 615.423584,281.452206 617.57104,277.949494 C619.718495,274.446783 620.792203,270.539972 620.792203,266.228943 C620.792203,261.810138 619.799021,257.822496 617.812628,254.265896 C615.826234,250.709298 613.115111,247.907171 609.679186,245.859432 C606.24326,243.811693 602.431584,242.787839 598.244049,242.787839 C592.553296,242.787839 587.694752,244.377507 583.668279,247.556891 C579.641802,250.736275 576.984369,255.020296 575.695894,260.409082 L575.695894,271.563815 C576.554874,276.737049 578.997569,280.967183 583.024047,284.254343 C587.05052,287.541503 591.801692,289.185058 597.277702,289.185058 Z M664.928443,232.764746 L664.928443,299.693139 L649.950024,299.693139 L649.950024,232.764746 L664.928443,232.764746 Z M648.822615,208.676992 C648.822615,206.305926 649.735271,204.312105 651.560608,202.695469 C653.38594,201.078833 655.47968,200.270527 657.841878,200.270527 C660.204076,200.270527 662.270971,201.078833 664.042622,202.695469 C665.814268,204.312105 666.700079,206.305926 666.700079,208.676992 C666.700079,211.048058 665.814268,213.041879 664.042622,214.658515 C662.270971,216.275151 660.204076,217.083456 657.841878,217.083456 C655.47968,217.083456 653.38594,216.275151 651.560608,214.658515 C649.735271,213.041879 648.822615,211.048058 648.822615,208.676992 Z M699.240125,248.607699 C700.958086,244.943325 703.40078,241.710101 706.568273,238.907932 C709.73577,236.105764 713.091116,233.950281 716.634413,232.441421 C720.177715,230.932561 723.291473,230.124255 725.975795,230.016479 L725.331562,245.051118 C720.49979,244.835566 716.124417,245.805533 712.20531,247.961048 C708.286209,250.116563 705.226132,253.107294 703.02499,256.933333 C700.823849,260.759371 699.723296,264.827844 699.723296,269.138873 L699.723296,299.693139 L684.744882,299.693139 L684.744882,232.764746 L698.112717,232.764746 L699.240125,248.607699 Z M770.273086,288.376744 C775.856468,288.376744 781.278708,286.43681 786.539971,282.556884 L793.465474,293.711616 C789.922177,296.082682 786.08366,297.941785 781.949811,299.288982 C777.815962,300.636178 773.816388,301.309767 769.950973,301.309767 C762.542255,301.309767 756.073146,299.773986 750.54345,296.702377 C745.013755,293.630769 740.745758,289.400635 737.739322,284.011849 C734.732887,278.623063 733.229688,272.533825 733.229688,265.743954 C733.229688,259.169635 734.867098,253.161228 738.141967,247.718554 C741.416831,242.27588 745.899575,237.964915 751.590328,234.785531 C757.281081,231.606148 763.508606,230.016479 770.273086,230.016479 C778.970275,230.016479 786.244668,232.576115 792.096477,237.695461 C797.948292,242.814809 801.947865,249.954843 804.095321,259.11578 L751.268214,277.707 C753.200922,281.048048 755.804669,283.66157 759.079538,285.547645 C762.354406,287.43372 766.085552,288.376744 770.273086,288.376744 Z M769.145678,241.979525 C763.025435,241.979525 757.978994,244.135007 754.006202,248.446036 C750.033415,252.757066 748.047051,258.253545 748.047051,264.93564 C748.047051,266.552276 748.100731,267.791678 748.208108,268.653884 L787.023147,254.265896 C785.412553,250.601522 783.13092,247.637734 780.17817,245.374444 C777.22542,243.111153 773.54796,241.979525 769.145678,241.979525 Z" id="Palmspire" fill="#1D1717" transform="translate(484.933296, 253.134257) rotate(-32.000000) translate(-484.933296, -253.134257) "></path>
            </g>
        </g>
    </g>
</svg>