<?xml version="1.0" encoding="iso-8859-1"?>
<!-- Generator: Adobe Illustrator 19.0.0, SVG Export Plug-In . SVG Version: 6.00 Build 0)  -->
<svg version="1.1" id="Layer_1" xmlns="http://www.w3.org/2000/svg" xmlns:xlink="http://www.w3.org/1999/xlink" x="0px" y="0px"
	 viewBox="0 0 482.485 482.485" style="enable-background:new 0 0 482.485 482.485;" xml:space="preserve">
<path style="fill:#EBF0F3;" d="M469.835,0.301H12.047C5.421,0.301,0,5.722,0,12.348v372.856c0,6.626,5.421,12.047,12.047,12.047
	h458.391c6.626,0,12.047-5.421,12.047-12.047V12.348C481.882,5.722,476.461,0.301,469.835,0.301z"/>
<rect x="26.504" y="26.805" style="fill:#64798A;" width="429.478" height="296.96"/>
<rect x="52.405" y="144.866" style="fill:#44C4A1;" width="35.539" height="138.541"/>
<rect x="101.798" y="110.532" style="fill:#FCD462;" width="35.539" height="172.273"/>
<rect x="150.588" y="56.922" style="fill:#27A2DB;" width="35.539" height="226.485"/>
<rect x="199.981" y="138.842" style="fill:#E56353;" width="35.539" height="144.565"/>
<rect x="52.405" y="282.805" style="fill:#3EA69B;" width="35.539" height="10.24"/>
<rect x="101.798" y="282.805" style="fill:#F6C358;" width="35.539" height="10.24"/>
<rect x="150.588" y="282.805" style="fill:#2D93BA;" width="35.539" height="10.24"/>
<rect x="199.981" y="282.805" style="fill:#D15241;" width="35.539" height="10.24"/>
<g>
	<rect x="286.118" y="64.151" style="fill:#E1E6E9;" width="142.758" height="8.433"/>
	<rect x="286.118" y="87.04" style="fill:#E1E6E9;" width="142.758" height="8.433"/>
	<rect x="286.118" y="109.929" style="fill:#E1E6E9;" width="142.758" height="8.433"/>
	<rect x="327.078" y="178.598" style="fill:#E1E6E9;" width="102.4" height="8.433"/>
	<rect x="327.078" y="211.727" style="fill:#E1E6E9;" width="102.4" height="8.433"/>
	<rect x="327.078" y="244.856" style="fill:#E1E6E9;" width="102.4" height="8.433"/>
	<rect x="327.078" y="277.986" style="fill:#E1E6E9;" width="102.4" height="8.433"/>
	<rect x="286.118" y="132.819" style="fill:#E1E6E9;" width="84.932" height="8.433"/>
</g>
<rect x="286.118" y="171.369" style="fill:#44C4A1;" width="21.685" height="21.685"/>
<rect x="286.118" y="204.499" style="fill:#F6C358;" width="21.685" height="21.685"/>
<rect x="286.118" y="237.628" style="fill:#27A2DB;" width="21.685" height="21.685"/>
<rect x="286.118" y="270.758" style="fill:#E56353;" width="21.685" height="21.685"/>
<circle style="fill:#64798A;" cx="240.941" cy="358.701" r="18.673"/>
<rect x="148.179" y="397.252" style="fill:#3A556A;" width="184.922" height="56.019"/>
<polygon style="fill:#64798A;" points="333.704,453.271 148.179,453.271 333.704,397.252 "/>
<path style="fill:#3A556A;" d="M371.049,452.668H110.833c-4.819,0-9.035,4.216-9.035,9.035v20.48h278.889v-20.48
	C380.687,456.885,376.471,452.668,371.049,452.668z"/>
<g>
</g>
<g>
</g>
<g>
</g>
<g>
</g>
<g>
</g>
<g>
</g>
<g>
</g>
<g>
</g>
<g>
</g>
<g>
</g>
<g>
</g>
<g>
</g>
<g>
</g>
<g>
</g>
<g>
</g>
</svg>
