<?xml version="1.0" encoding="iso-8859-1"?>
<!-- Generator: Adobe Illustrator 19.0.0, SVG Export Plug-In . SVG Version: 6.00 Build 0)  -->
<svg version="1.1" id="Capa_1" xmlns="http://www.w3.org/2000/svg" xmlns:xlink="http://www.w3.org/1999/xlink" x="0px" y="0px"
	 viewBox="0 0 448 448" style="enable-background:new 0 0 448 448;" xml:space="preserve">
<g>
	<g>
		<path d="M124.8,126.4l-9.6-12.8l-32,24c-3.535,2.651-4.251,7.665-1.6,11.2c0.455,0.606,0.994,1.145,1.6,1.6l32,24l9.6-12.8
			L101.336,144L124.8,126.4z"/>
	</g>
</g>
<g>
	<g>
		<path d="M222.4,139.2c-0.455-0.606-0.994-1.145-1.6-1.6l-32-24l-9.6,12.8l23.464,17.6L179.2,161.6l9.6,12.8l32-24
			C224.335,147.749,225.051,142.735,222.4,139.2z"/>
	</g>
</g>
<g>
	<g>
		<rect x="108.918" y="135.988" transform="matrix(0.3715 -0.9284 0.9284 0.3715 -38.1503 231.6199)" width="86.16" height="16"/>
	</g>
</g>
<g>
	<g>
		<path d="M440,200h-40v-72c0-17.673-14.327-32-32-32h-64V32c0-17.673-14.327-32-32-32H32C14.327,0,0,14.327,0,32v384
			c0,17.673,14.327,32,32,32h288c17.673,0,32-14.327,32-32v-64h64c17.673,0,32-14.327,32-32V208C448,203.582,444.418,200,440,200z
			 M16,32c0-8.837,7.163-16,16-16h240c8.837,0,16,7.163,16,16v32H16V32z M32,432c-8.837,0-16-7.163-16-16V80h272v336
			c-0.009,5.619,1.474,11.141,4.296,16H32z M336,128v288c0,8.837-7.163,16-16,16s-16-7.163-16-16V112h36.448
			C337.569,116.843,336.033,122.366,336,128z M352,336V128c0-8.837,7.163-16,16-16s16,7.163,16,16v192
			c0.033,5.634,1.569,11.157,4.448,16H352z M432,320c0,8.837-7.163,16-16,16s-16-7.163-16-16V216h32V320z"/>
	</g>
</g>
<g>
	<g>
		<rect x="32" y="32" width="16" height="16"/>
	</g>
</g>
<g>
	<g>
		<rect x="64" y="32" width="16" height="16"/>
	</g>
</g>
<g>
	<g>
		<rect x="96" y="32" width="16" height="16"/>
	</g>
</g>
<g>
	<g>
		<rect x="40" y="240" width="224" height="16"/>
	</g>
</g>
<g>
	<g>
		<rect x="40" y="384" width="192" height="16"/>
	</g>
</g>
<g>
	<g>
		<rect x="40" y="280" width="32" height="16"/>
	</g>
</g>
<g>
	<g>
		<rect x="40" y="312" width="32" height="16"/>
	</g>
</g>
<g>
	<g>
		<rect x="88" y="312" width="32" height="16"/>
	</g>
</g>
<g>
	<g>
		<rect x="40" y="344" width="32" height="16"/>
	</g>
</g>
<g>
	<g>
		<rect x="88" y="280" width="32" height="16"/>
	</g>
</g>
<g>
	<g>
		<rect x="136" y="280" width="32" height="16"/>
	</g>
</g>
<g>
	<g>
		<rect x="88" y="208" width="176" height="16"/>
	</g>
</g>
<g>
	<g>
		<rect x="56" y="208" width="16" height="16"/>
	</g>
</g>
<g>
	<g>
		<rect x="248" y="384" width="16" height="16"/>
	</g>
</g>
<g>
</g>
<g>
</g>
<g>
</g>
<g>
</g>
<g>
</g>
<g>
</g>
<g>
</g>
<g>
</g>
<g>
</g>
<g>
</g>
<g>
</g>
<g>
</g>
<g>
</g>
<g>
</g>
<g>
</g>
</svg>
