<?xml version="1.0" encoding="utf-8"?>
<!-- Generator: Adobe Illustrator 19.2.1, SVG Export Plug-In . SVG Version: 6.00 Build 0)  -->
<svg version="1.1" id="Layer_1" xmlns="http://www.w3.org/2000/svg" xmlns:xlink="http://www.w3.org/1999/xlink" x="0px" y="0px"
	 viewBox="0 0 974.7 615.3" style="enable-background:new 0 0 974.7 615.3;" xml:space="preserve">
<style type="text/css">
	.st0{clip-path:url(#XMLID_2_);fill:#FFFFFF;}
	.st1{clip-path:url(#XMLID_2_);}
	.st2{fill:#5BCAE9;}
	.st3{fill:#08AAB5;}
	.st4{fill:#F47427;}
	.st5{fill:#F3712A;}
	.st6{fill:#AA3995;}
	.st7{fill:#F79421;}
	.st8{fill:#F79A21;}
	.st9{fill:#0D8DA9;}
	.st10{fill:#DA3727;}
	.st11{fill:#00B6D3;}
	.st12{fill:#9E62A8;}
	.st13{fill:#01A7B0;}
	.st14{fill:#D71E42;}
	.st15{fill:#C03A95;}
	.st16{fill:#EF4237;}
	.st17{fill:#F37028;}
	.st18{fill:#C03D96;}
	.st19{fill:#FBB317;}
	.st20{fill:#00A8CB;}
	.st21{fill:#0EACB7;}
	.st22{fill:#068A9F;}
	.st23{fill:#FFC316;}
	.st24{fill:#317989;}
	.st25{fill:#F99F1B;}
	.st26{fill:#8E2783;}
	.st27{fill:#8B2471;}
	.st28{fill:#9A479B;}
	.st29{fill:#3BC5EC;}
	.st30{fill:#079CB2;}
	.st31{fill:#B12790;}
	.st32{fill:#F58220;}
	.st33{fill:#FAA31F;}
	.st34{fill:#F9A11E;}
	.st35{fill:#8E1732;}
	.st36{fill:#EE203A;}
	.st37{fill:#F99C1F;}
	.st38{fill:#F0484A;}
	.st39{fill:#9D248F;}
	.st40{fill:#C04F9D;}
	.st41{fill:#BE4298;}
	.st42{fill:#D273AE;}
	.st43{fill:#0A77A0;}
	.st44{fill:#0C81B5;}
	.st45{fill:#8E278F;}
	.st46{fill:#BD57A1;}
	.st47{fill:#8F2579;}
	.st48{fill:#B83393;}
	.st49{fill:#EE4557;}
	.st50{fill:#EE1E4A;}
	.st51{fill:#D61E43;}
	.st52{fill:#EE2037;}
	.st53{fill:#EE5B2F;}
	.st54{fill:#E81F3D;}
	.st55{fill:#C41F42;}
	.st56{fill:#0B8EA4;}
	.st57{fill:#CA58A1;}
	.st58{fill:#6A256F;}
	.st59{fill:#441E5D;}
	.st60{fill:#EC1F45;}
</style>
<g id="XMLID_715_">
	<g id="XMLID_833_">
		<defs>
			
				<rect id="XMLID_834_" x="0.5" y="338.5" transform="matrix(-1 -8.979363e-011 8.979363e-011 -1 973.5112 953.6953)" width="972.5" height="276.8"/>
		</defs>
		<use xlink:href="#XMLID_834_"  style="overflow:visible;fill:#F2F2F2;"/>
		<clipPath id="XMLID_2_">
			<use xlink:href="#XMLID_834_"  style="overflow:visible;"/>
		</clipPath>
		
			<rect id="XMLID_942_" x="0.5" y="338.5" transform="matrix(-1 -8.979363e-011 8.979363e-011 -1 973.5112 953.6953)" class="st0" width="972.5" height="276.8"/>
		<g id="XMLID_835_" class="st1">
			<polygon id="XMLID_941_" class="st2" points="777.9,697.5 837.5,924.9 886,623.5 			"/>
			<polygon id="XMLID_940_" class="st3" points="646.4,787.6 837.5,924.9 777.9,697.5 			"/>
			<polygon id="XMLID_939_" class="st4" points="496.6,740.6 396.2,803.8 646.4,787.6 			"/>
			<polygon id="XMLID_938_" class="st5" points="414.9,917.7 425.8,984.1 837.5,924.9 646.4,787.6 			"/>
			<polygon id="XMLID_937_" class="st6" points="949.9,525.4 931.3,553.9 931.3,553.9 969.6,529 			"/>
			<polygon id="XMLID_936_" class="st5" points="296.6,984.1 425.8,984.1 414.9,917.7 			"/>
			<polygon id="XMLID_935_" class="st7" points="646.4,787.6 396.2,803.8 414.9,917.7 			"/>
			<polygon id="XMLID_934_" class="st8" points="396.2,803.8 274.6,962.1 296.6,984.1 414.9,917.7 			"/>
			<polygon id="XMLID_933_" class="st9" points="956.2,806.6 936.9,610.3 886,623.5 			"/>
			<polygon id="XMLID_932_" class="st10" points="431.2,720.1 396.2,803.8 496.6,740.6 			"/>
			<polygon id="XMLID_931_" class="st6" points="931.3,553.9 1059.9,545.8 969.6,529 			"/>
			<polygon id="XMLID_930_" class="st11" points="956.2,806.6 837.5,924.9 1015,959.8 956.2,806.6 956.2,806.6 			"/>
			<polygon id="XMLID_929_" class="st12" points="886,623.5 936.9,610.3 931.3,553.9 931.3,553.9 931.3,553.9 			"/>
			<polygon id="XMLID_928_" class="st13" points="837.5,924.9 956.2,806.6 956.2,806.6 886,623.5 			"/>
			<circle id="XMLID_927_" class="st14" cx="956.2" cy="806.6" r="0"/>
			<polygon id="XMLID_926_" class="st15" points="1059.9,545.8 1059.9,545.8 1027.8,491.2 969.6,529 			"/>
			<polygon id="XMLID_925_" class="st14" points="956.2,806.6 956.2,806.6 956.2,806.6 			"/>
			<polygon id="XMLID_924_" class="st16" points="184.9,722.9 129.7,817.2 396.2,803.8 			"/>
			<polygon id="XMLID_923_" class="st7" points="676.5,1050.7 837.5,924.9 425.8,984.1 			"/>
			<path id="XMLID_922_" class="st17" d="M283.2,1092.3c71.1-53.5,142.6-108.2,142.6-108.2H296.6L283.2,1092.3z"/>
			<polygon id="XMLID_921_" class="st14" points="1059.9,545.8 1059.9,545.8 1059.9,545.8 			"/>
			<polygon id="XMLID_920_" class="st18" points="1058.6,358.6 980.2,410.1 1001.4,446.3 			"/>
			<polygon id="XMLID_919_" class="st19" points="129.7,817.2 274.6,962.1 396.2,803.8 			"/>
			<polygon id="XMLID_918_" class="st20" points="777.9,697.5 886,623.5 747.8,582.6 			"/>
			<polygon id="XMLID_917_" class="st21" points="886,623.5 931.3,553.9 743.3,565.6 747.8,582.6 			"/>
			<polygon id="XMLID_916_" class="st22" points="949.9,525.4 836.7,504.3 743.3,565.6 931.3,553.9 			"/>
			<polygon id="XMLID_915_" class="st8" points="496.6,740.6 646.4,787.6 610.5,669 			"/>
			<polygon id="XMLID_914_" class="st23" points="837.5,924.9 676.5,1050.7 876.5,1103.9 1004.6,1103.9 			"/>
			<polygon id="XMLID_913_" class="st24" points="956.2,806.6 1059.9,853.6 1059.9,703.4 956.2,806.6 			"/>
			<polygon id="XMLID_912_" class="st14" points="1059.9,545.8 1059.9,545.8 1059.9,545.8 			"/>
			<polygon id="XMLID_911_" class="st20" points="956.2,806.6 956.2,806.6 1059.9,703.4 1059.9,578.6 936.9,610.3 			"/>
			<polygon id="XMLID_910_" class="st25" points="837.5,924.9 1004.6,1103.9 1059.9,1103.9 1059.9,1076.7 1015,959.8 			"/>
			<polygon id="XMLID_909_" class="st2" points="1059.9,1076.7 1059.9,968.6 1015,959.8 			"/>
			<polygon id="XMLID_908_" class="st21" points="1015,959.8 1059.9,968.6 1059.9,853.6 956.2,806.6 			"/>
			<polygon id="XMLID_907_" class="st26" points="1059.9,545.8 1059.9,545.8 1059.9,470.4 1027.8,491.2 			"/>
			<polygon id="XMLID_906_" class="st27" points="1001.4,446.3 1027.8,491.2 1059.9,470.4 1059.9,357.8 1058.6,358.6 			"/>
			<polygon id="XMLID_905_" class="st14" points="1058.6,358.6 1059.9,357.8 1059.9,356.6 			"/>
			<polygon id="XMLID_904_" class="st15" points="980.2,410.1 1058.6,358.6 1059.9,356.6 1059.9,335.6 950.6,359.8 			"/>
			<polygon id="XMLID_903_" class="st28" points="949.9,525.4 1001.4,446.3 980.2,410.1 836.7,504.3 			"/>
			<polygon id="XMLID_902_" class="st29" points="405.4,553.9 387,496.9 336.9,540.1 			"/>
			<polygon id="XMLID_901_" class="st29" points="718.3,458.6 719.9,424.7 684.7,437.7 			"/>
			<polygon id="XMLID_900_" class="st29" points="532,493.9 515.2,514.3 544.7,530.7 			"/>
			<polygon id="XMLID_898_" class="st29" points="254.9,172.8 226.9,160.6 224,195.8 			"/>
			<polygon id="XMLID_897_" class="st30" points="429.3,537.6 466.7,551.8 456.4,568.3 			"/>
			<polygon id="XMLID_896_" class="st31" points="969.6,529 1027.8,491.2 1001.4,446.3 949.9,525.4 			"/>
			<path id="XMLID_895_" class="st32" d="M283.2,1092.3l-1.4,11.6h158.8l-14.8-119.8C425.8,984.1,354.3,1038.8,283.2,1092.3z"/>
			<polygon id="XMLID_894_" class="st32" points="608.6,1103.9 876.5,1103.9 676.5,1050.7 			"/>
			<path id="XMLID_893_" class="st33" d="M296.6,984.1l-22-22l-108.9,141.8h102.1c5.1-3.8,10.2-7.7,15.4-11.6L296.6,984.1z"/>
			<path id="XMLID_892_" class="st32" d="M267.8,1103.9h13.9l1.4-11.6C278.1,1096.2,272.9,1100,267.8,1103.9z"/>
			<polygon id="XMLID_891_" class="st34" points="425.8,984.1 440.6,1103.9 608.6,1103.9 676.5,1050.7 			"/>
			<polygon id="XMLID_890_" class="st35" points="-16.7,645.7 -16.7,823.6 147.9,708.7 			"/>
			<polygon id="XMLID_889_" class="st36" points="184.9,722.9 147.9,708.7 -16.7,823.6 -16.7,979.8 129.7,817.2 			"/>
			<polygon id="XMLID_888_" class="st37" points="274.6,962.1 129.7,817.2 165.7,1103.9 			"/>
			<polygon id="XMLID_887_" class="st38" points="129.7,817.2 -16.7,979.8 -16.7,1103.9 			"/>
			<polygon id="XMLID_886_" class="st32" points="165.7,1103.9 129.7,817.2 -16.7,1103.9 			"/>
			<polygon id="XMLID_885_" class="st39" points="1016.8,181 1059.9,156.6 1059.9,27.4 986.5,155.8 			"/>
			<polygon id="XMLID_884_" class="st40" points="926.1,105.6 912.9,157.9 950.6,218.7 986.5,155.8 			"/>
			<polygon id="XMLID_883_" class="st41" points="1016.8,181 986.5,155.8 950.6,218.7 950.6,218.7 			"/>
			<polygon id="XMLID_882_" class="st42" points="950.6,218.7 912.9,157.9 886,219.1 950.6,218.7 			"/>
			<polygon id="XMLID_881_" class="st14" points="950.6,218.7 950.6,218.7 950.6,218.7 			"/>
			<polygon id="XMLID_880_" class="st39" points="748,236.4 702.3,133.4 651.1,249.2 			"/>
			<polygon id="XMLID_879_" class="st18" points="919.1,292.9 929.9,312.7 958.1,290.6 			"/>
			<polygon id="XMLID_878_" class="st43" points="812.4,256.3 823.2,276.1 836.7,257.5 			"/>
			<polygon id="XMLID_877_" class="st44" points="855.3,349.3 735.8,390.5 845.1,402 			"/>
			<polygon id="XMLID_876_" class="st45" points="1059.9,261.5 950.6,359.8 1059.9,335.6 			"/>
			<polygon id="XMLID_875_" class="st46" points="950.6,218.7 950.6,218.7 998.4,254 1059.9,240.3 1059.9,234.5 			"/>
			<polygon id="XMLID_874_" class="st47" points="1059.9,216.8 1059.9,156.6 1016.8,181 			"/>
			<polygon id="XMLID_873_" class="st39" points="950.6,218.7 1059.9,234.5 1059.9,216.8 1016.8,181 			"/>
			<polygon id="XMLID_872_" class="st48" points="980.2,410.1 950.6,359.8 836.7,504.3 			"/>
			<polygon id="XMLID_871_" class="st49" points="87.1,536.4 224.5,655.3 253.3,511.2 			"/>
			<polygon id="XMLID_870_" class="st16" points="226.2,494.6 141.5,422.4 144.5,497.9 			"/>
			<polygon id="XMLID_869_" class="st16" points="322.2,465.9 344.4,478.8 351.7,458.1 			"/>
			<polygon id="XMLID_868_" class="st18" points="844.6,469.2 806.8,414.1 796.7,458.4 			"/>
			<polygon id="XMLID_829_" class="st50" points="118.1,406.7 182.8,389.9 144.6,365.4 			"/>
			<polygon id="XMLID_867_" class="st29" points="662,52.6 621.6,20.5 606.3,75.5 			"/>
			<polygon id="XMLID_866_" class="st29" points="554.5,197.4 560,218.1 584.6,206.5 			"/>
			<polygon id="XMLID_865_" class="st44" points="556.3,96.1 510.1,130.6 559.2,120.5 			"/>
			<polygon id="XMLID_864_" class="st18" points="610.7,-60.3 556.8,-61.5 581,-34.1 			"/>
			<polygon id="XMLID_863_" class="st51" points="253.3,511.2 224.5,655.3 340.1,581 			"/>
			<polygon id="XMLID_862_" class="st51" points="147.9,708.7 184.9,722.9 224.5,655.3 			"/>
			<polygon id="XMLID_861_" class="st52" points="184.9,722.9 396.2,803.8 224.5,655.3 			"/>
			<polygon id="XMLID_860_" class="st50" points="87.1,536.4 64.8,517.1 64.8,517.1 -9.1,582 224.5,655.3 87.1,536.4 			"/>
			<polygon id="XMLID_859_" class="st51" points="64.8,517.1 64.8,517.1 -16.7,446.6 -16.7,579.6 -9.1,582 			"/>
			<polygon id="XMLID_858_" class="st53" points="396.2,803.8 431.2,720.1 224.5,655.3 			"/>
			<polygon id="XMLID_857_" class="st51" points="-16.7,579.6 -16.7,588.7 -9.1,582 			"/>
			<polygon id="XMLID_856_" class="st54" points="-9.1,582 -16.7,588.7 -16.7,645.7 147.9,708.7 224.5,655.3 			"/>
			<polygon id="XMLID_855_" class="st51" points="94.6,413.9 20.5,416.2 42.8,435.5 			"/>
			<polygon id="XMLID_854_" class="st51" points="87.1,536.4 64.8,517.1 64.8,517.1 87.1,536.4 			"/>
			<polygon id="XMLID_853_" class="st55" points="64.8,517.1 -16.7,446.6 -16.7,446.6 64.8,517.1 			"/>
			<polygon id="XMLID_852_" class="st20" points="743.3,565.6 567.9,528.2 610.5,669 747.8,582.6 			"/>
			<polygon id="XMLID_851_" class="st30" points="478,598.6 431.2,720.1 567.9,528.2 			"/>
			<polygon id="XMLID_850_" class="st11" points="743.3,565.6 836.7,504.3 567.9,528.2 			"/>
			<polygon id="XMLID_849_" class="st29" points="567.9,528.2 836.7,504.3 670.9,473.4 			"/>
			<polygon id="XMLID_848_" class="st56" points="646.4,787.6 777.9,697.5 610.5,669 			"/>
			<polygon id="XMLID_847_" class="st11" points="610.5,669 777.9,697.5 747.8,582.6 			"/>
			<polygon id="XMLID_846_" class="st6" points="1059.9,578.6 1059.9,545.8 936.9,610.3 			"/>
			<polygon id="XMLID_845_" class="st57" points="931.3,553.9 936.9,610.3 1059.9,545.8 931.3,553.9 			"/>
			<polygon id="XMLID_844_" class="st58" points="986.5,155.8 1059.9,27.4 928.7,107.8 			"/>
			<polygon id="XMLID_843_" class="st59" points="978.5,57.8 981.6,56.3 959.8,-96 914.6,8.5 			"/>
			<polygon id="XMLID_841_" class="st19" points="119.9,220.6 37.7,282.5 175.1,296.5 			"/>
			<polygon id="XMLID_840_" class="st60" points="224.5,655.3 431.2,720.1 340.1,581 			"/>
			<polygon id="XMLID_839_" class="st21" points="340.1,581 431.2,720.1 478,598.6 			"/>
			<polygon id="XMLID_838_" class="st11" points="567.9,528.2 431.2,720.1 610.5,669 			"/>
			<polygon id="XMLID_837_" class="st3" points="431.2,720.1 496.6,740.6 610.5,669 			"/>
			<polygon id="XMLID_836_" class="st42" points="244.8,193.8 248.1,204.8 235,201.1 			"/>
		</g>
	</g>
</g>
</svg>
