<?xml version="1.0" encoding="UTF-8"?>
<svg width="1675px" height="321px" viewBox="0 0 1675 321" version="1.1" xmlns="http://www.w3.org/2000/svg" xmlns:xlink="http://www.w3.org/1999/xlink">
    <!-- Generator: Sketch 48.1 (47250) - http://www.bohemiancoding.com/sketch -->
    <title>palmspire-logo-black</title>
    <desc>Created with Sketch.</desc>
    <defs>
        <linearGradient x1="50%" y1="-1.11022302e-14%" x2="50%" y2="100%" id="linearGradient-1">
            <stop stop-color="#FF2380" offset="0%"></stop>
            <stop stop-color="#FF7C5C" offset="100%"></stop>
        </linearGradient>
        <path d="M100.167852,180.49893 L98.6378252,295.910967 L60.3885449,293.202652 L60.5612071,24.6887026 L105.811646,20.6734605 C128.948714,21.6368253 147.138721,22.2420699 159.1546,25.3793358 C171.291851,28.5166017 181.972472,34.4424595 191.196783,43.157087 C207.339328,58.2624414 215.410479,77.318141 215.410479,100.324758 C215.410479,124.958105 206.79316,144.478578 189.558263,158.886762 C172.323366,173.294946 149.080878,180.49893 119.830102,180.49893 L100.167852,180.49893 Z M100.167852,142.851927 L116.006886,142.851927 C154.967464,142.851927 174.44746,128.502056 174.44746,99.8018826 C174.44746,72.0312696 154.36061,58.1461714 114.186308,58.1461714 L100.167852,58.1461714 L100.167852,142.851927 Z" id="path-2"></path>
        <linearGradient x1="50%" y1="58.8408758%" x2="21.3382609%" y2="37.862572%" id="linearGradient-4">
            <stop stop-color="#787878" stop-opacity="0.351619112" offset="0%"></stop>
            <stop stop-color="#000000" stop-opacity="0" offset="100%"></stop>
        </linearGradient>
        <filter x="-53.6%" y="-46.8%" width="207.2%" height="193.7%" filterUnits="objectBoundingBox" id="filter-5">
            <feGaussianBlur stdDeviation="6" in="SourceGraphic"></feGaussianBlur>
        </filter>
        <filter x="-37.3%" y="-37.2%" width="174.5%" height="174.5%" filterUnits="objectBoundingBox" id="filter-6">
            <feGaussianBlur stdDeviation="6" in="SourceGraphic"></feGaussianBlur>
        </filter>
    </defs>
    <g id="palmspire-icon-copy" stroke="none" stroke-width="1" fill="none" fill-rule="evenodd" transform="translate(-343.000000, -58.000000)">
        <g id="palmspire-logo-black" transform="translate(305.000000, 3.000000)">
            <g id="palmspire-icon" transform="translate(196.500000, 197.500000) rotate(3.000000) translate(-196.500000, -197.500000) translate(10.000000, 10.000000)">
                <g id="Path-13" transform="translate(-0.000000, 0.000000)">
                    <mask id="mask-3" fill="white">
                        <use xlink:href="#path-2"></use>
                    </mask>
                    <use id="Mask" fill="url(#linearGradient-1)" transform="translate(137.899512, 158.292214) rotate(211.000000) translate(-137.899512, -158.292214) " xlink:href="#path-2"></use>
                    <polygon fill="url(#linearGradient-4)" filter="url(#filter-5)" mask="url(#mask-3)" points="185.762764 155.481255 175.480523 152.165494 152.179369 186.275308 162.489184 190.604974"></polygon>
                    <polygon id="Path-13-Copy" fill="url(#linearGradient-4)" filter="url(#filter-6)" mask="url(#mask-3)" points="136.087987 254.319132 115.407449 251.017458 87.7725916 294.800511 103.462247 299.369567"></polygon>
                </g>
                <path d="M201.011051,235.946662 L200.149641,354.451555 L158.909034,354.451555 L159.770445,80.5628861 L206.497999,80.5628861 C229.389895,80.5628861 246.676557,82.0879025 258.358504,85.1379809 C270.15845,88.1880594 280.542247,93.9492323 289.510206,102.421673 C305.204135,117.107236 313.050982,135.63336 313.050982,158.000602 C313.050982,181.949367 304.673146,200.927348 287.917222,214.935116 C271.161298,228.942884 248.564739,235.946662 220.126869,235.946662 L201.011051,235.946662 Z M201.011051,199.345904 L216.409904,199.345904 C254.287732,199.345904 273.226362,185.394828 273.226362,157.492258 C273.226362,130.493416 253.697744,116.994197 214.639921,116.994197 L201.011051,116.994197 L201.011051,199.345904 Z" id="P-Copy-6" fill="url(#linearGradient-1)" transform="translate(235.980008, 217.507221) rotate(31.000000) translate(-235.980008, -217.507221) "></path>
            </g>
            <path d="M479.902081,72.8119884 C505.638218,72.8119884 525.757905,79.270076 540.261745,92.1864449 C554.765585,105.102814 562.017396,123.163567 562.017396,146.369247 C562.017396,159.723459 559.345676,172.201797 554.002156,183.804637 C548.658637,195.407477 540.043703,204.820961 528.157097,212.04537 C516.270491,219.26978 501.276145,222.881931 483.173608,222.881931 L448.168274,222.881931 L448.168274,310.231175 L416.434467,310.231175 L416.434467,72.8119884 L479.902081,72.8119884 Z M483.173608,192.014153 C494.514956,192.014153 503.729664,189.606052 510.818007,184.789779 C517.90635,179.973506 522.977165,174.117444 526.030605,167.221416 C529.084045,160.325389 530.610742,153.593653 530.610742,147.026008 C530.610742,135.64209 526.903049,125.517122 519.487552,116.650801 C512.072055,107.78448 500.512777,103.351386 484.809371,103.351386 L448.168274,103.351386 L448.168274,192.014153 L483.173608,192.014153 Z M729.859452,174.281599 L729.859452,310.231175 L699.434255,310.231175 L699.434255,287.901293 C694.635993,294.250017 687.656806,300.106079 678.496486,305.469656 C669.336166,310.833233 658.976436,313.514981 647.416984,313.514981 C634.548916,313.514981 622.935113,310.723774 612.575227,305.141276 C602.215341,299.558777 594.036607,291.404073 588.038778,280.676919 C582.04095,269.949766 579.04208,257.14305 579.04208,242.256387 C579.04208,227.369725 582.149999,214.39882 588.365931,203.343284 C594.581862,192.287748 602.978696,183.749937 613.556685,177.729596 C624.134673,171.709254 635.857526,168.699129 648.725595,168.699129 C660.285046,168.699129 670.317627,171.216688 678.823638,176.251883 C687.32965,181.287078 694.199787,187.854624 699.434255,195.95472 L701.724324,174.281599 L729.859452,174.281599 Z M655.5958,288.229674 C666.719046,288.229674 676.260903,285.110089 684.221657,278.870826 C692.182411,272.631563 697.253227,264.148482 699.434255,253.421328 L699.434255,226.494118 C696.817021,216.861571 691.364531,209.035245 683.076623,203.014903 C674.788714,196.994562 665.301382,193.984436 654.614342,193.984436 C646.544537,193.984436 639.074626,195.9547 632.204386,199.895288 C625.334146,203.835875 619.881656,209.36356 615.846753,216.478509 C611.811851,223.593458 609.794429,231.638702 609.794429,240.614484 C609.794429,249.371344 611.866376,257.36186 616.01033,264.586269 C620.154284,271.810679 625.715823,277.557282 632.695115,281.826252 C639.674406,286.095221 647.307892,288.229674 655.5958,288.229674 Z M800.53717,55.7361963 L800.53717,310.231175 L770.111974,310.231175 L770.111974,55.7361963 L800.53717,55.7361963 Z M1014.50775,168.699129 C1027.59392,168.699129 1038.00818,172.420739 1045.75083,179.86407 C1053.49348,187.307401 1057.58285,197.158721 1058.01905,209.418325 L1058.01905,310.231175 L1027.59386,310.231175 L1027.59386,220.583266 C1026.93955,204.601996 1019.74226,196.173645 1006.00178,195.297959 C998.150078,195.297959 991.116366,197.65133 984.900435,202.358142 C978.684503,207.064955 973.831787,213.249394 970.342142,220.911647 C966.852496,228.5739 964.998649,236.783333 964.780547,245.540193 L964.780547,310.231175 L934.028198,310.231175 L934.028198,220.583266 C933.373889,204.601996 925.958503,196.173645 911.781817,195.297959 C904.148217,195.297959 897.223556,197.65133 891.007624,202.358142 C884.791693,207.064955 879.938977,213.304124 876.449331,221.075837 C872.959686,228.847551 871.214889,237.111714 871.214889,245.868574 L871.214889,310.231175 L840.789692,310.231175 L840.789692,174.281599 L868.270515,174.281599 L870.560584,199.895288 C875.795052,190.04382 882.937814,182.381682 891.989082,176.908644 C901.040351,171.435607 911.345556,168.699129 922.905007,168.699129 C933.81015,168.699129 942.970333,171.271418 950.38583,176.416073 C957.801327,181.560729 962.599518,188.620841 964.780547,197.596623 C970.451221,188.620841 977.648507,181.560729 986.372621,176.416073 C995.096736,171.271418 1004.47502,168.699129 1014.50775,168.699129 Z M1136.22128,313.186601 C1126.18855,313.186601 1116.64669,311.435255 1107.59542,307.932511 C1098.54416,304.429767 1091.18329,299.285188 1085.51262,292.498622 L1098.59873,274.766068 C1104.0513,280.020185 1109.77641,284.070172 1115.77424,286.916151 C1121.77207,289.762131 1127.71528,291.185099 1133.60406,291.185099 C1140.80145,291.185099 1146.69014,289.762131 1151.2703,286.916151 C1155.85046,284.070172 1158.14051,279.691807 1158.14051,273.780927 C1158.14051,269.183575 1156.72286,265.461965 1153.88752,262.615986 C1151.05219,259.770006 1147.83522,257.690283 1144.23652,256.376754 C1140.63782,255.063225 1134.58556,253.092961 1126.07955,250.465903 C1102.96065,243.022571 1091.40137,229.778019 1091.40137,210.731848 C1091.40137,199.34793 1095.59979,189.606069 1103.99675,181.505973 C1112.39371,173.405877 1124.11656,169.35589 1139.16565,169.35589 C1148.76218,169.35589 1157.26806,170.55994 1164.68356,172.968077 C1172.09906,175.376213 1178.9692,179.207282 1185.29418,184.461398 L1173.18953,203.179094 C1169.69988,199.457428 1165.28337,196.502032 1159.93985,194.312817 C1154.59633,192.123602 1149.52551,190.919552 1144.72725,190.70063 C1138.62037,190.70063 1133.38598,192.178328 1129.02392,195.133769 C1124.66187,198.089209 1122.48087,202.084466 1122.48087,207.119661 C1122.48087,211.27917 1123.89852,214.727132 1126.73385,217.463651 C1129.56919,220.200169 1132.51354,222.170433 1135.56698,223.374502 C1138.62042,224.57857 1144.61815,226.603564 1153.56037,229.449543 C1164.68362,233.171209 1173.35308,237.98741 1179.56901,243.89829 C1185.78494,249.809171 1188.89286,257.799686 1188.89286,267.870075 C1188.89286,281.005366 1184.31277,291.841818 1175.15245,300.379757 C1165.99213,308.917695 1153.0152,313.186601 1136.22128,313.186601 Z M1304.39049,168.699129 C1317.04045,168.699129 1328.49068,171.763984 1338.74152,177.893786 C1348.99235,184.023588 1357.06204,192.616129 1362.95081,203.671665 C1368.83959,214.727201 1371.78393,227.479187 1371.78393,241.928007 C1371.78393,256.157905 1368.62149,268.690973 1362.29651,279.527587 C1355.97153,290.364202 1347.24754,298.737824 1336.1243,304.648705 C1325.00105,310.559585 1312.56937,313.514981 1298.82889,313.514981 C1289.01427,313.514981 1279.63598,311.380529 1270.69377,307.111559 C1261.75155,302.84259 1254.55426,297.095986 1249.10169,289.871577 L1249.10169,375.578918 L1218.6765,375.578918 L1218.6765,171.982935 L1245.17586,171.982935 L1247.79308,194.969578 C1254.77237,187.088404 1263.11468,180.739776 1272.82026,175.923502 C1282.52584,171.107229 1293.04914,168.699129 1304.39049,168.699129 Z M1292.94015,288.886435 C1301.44616,288.886435 1309.35227,286.861441 1316.65871,282.811393 C1323.96516,278.761346 1329.79932,273.178931 1334.16138,266.063982 C1338.52344,258.949033 1340.70443,251.013247 1340.70443,242.256387 C1340.70443,233.280605 1338.68701,225.180631 1334.65211,217.956221 C1330.61721,210.731812 1325.11019,205.039938 1318.1309,200.880429 C1311.15161,196.720921 1303.40907,194.641198 1294.90306,194.641198 C1283.34361,194.641198 1273.4746,197.870241 1265.29575,204.328426 C1257.11689,210.78661 1251.71893,219.48861 1249.10169,230.434685 L1249.10169,253.092948 C1250.84651,263.60118 1255.80828,272.19372 1263.98714,278.870826 C1272.16599,285.547932 1281.8169,288.886435 1292.94015,288.886435 Z M1430.35701,174.281599 L1430.35701,310.231175 L1399.93181,310.231175 L1399.93181,174.281599 L1430.35701,174.281599 Z M1397.64174,125.352887 C1397.64174,120.536614 1399.49559,116.486627 1403.20334,113.202804 C1406.91108,109.918982 1411.16403,108.277095 1415.96229,108.277095 C1420.76055,108.277095 1424.95897,109.918982 1428.55767,113.202804 C1432.15636,116.486627 1433.95568,120.536614 1433.95568,125.352887 C1433.95568,130.16916 1432.15636,134.219148 1428.55767,137.50297 C1424.95897,140.786793 1420.76055,142.428679 1415.96229,142.428679 C1411.16403,142.428679 1406.91108,140.786793 1403.20334,137.50297 C1399.49559,134.219148 1397.64174,130.16916 1397.64174,125.352887 Z M1500.05327,206.4629 C1503.54291,199.019569 1508.50468,192.452022 1514.93871,186.760063 C1521.37275,181.068104 1528.18836,176.689739 1535.38575,173.624838 C1542.58315,170.559937 1548.90803,168.91805 1554.36061,168.699129 L1553.052,199.238526 C1543.23737,198.800683 1534.34981,200.770947 1526.38905,205.149377 C1518.4283,209.527808 1512.21246,215.602788 1507.74135,223.374502 C1503.27024,231.146215 1501.03472,239.410378 1501.03472,248.167238 L1501.03472,310.231175 L1470.60953,310.231175 L1470.60953,174.281599 L1497.7632,174.281599 L1500.05327,206.4629 Z M1644.34033,287.244532 C1655.68168,287.244532 1666.69571,283.304004 1677.38275,275.42283 L1691.45031,298.081092 C1684.25292,302.897365 1676.45586,306.673705 1668.0589,309.410224 C1659.66194,312.146742 1651.53773,313.514981 1643.68603,313.514981 C1628.63693,313.514981 1615.49643,310.395397 1604.26413,304.156134 C1593.03183,297.916871 1584.36238,289.32433 1578.2555,278.378255 C1572.14862,267.43218 1569.09522,255.0633 1569.09522,241.271245 C1569.09522,227.917033 1572.42124,215.712343 1579.07338,204.656806 C1585.72551,193.60127 1594.83117,184.844541 1606.39062,178.386357 C1617.95007,171.928173 1630.59985,168.699129 1644.34033,168.699129 C1662.00666,168.699129 1676.78291,173.898437 1688.66951,184.297208 C1700.55612,194.69598 1708.68033,209.199312 1713.04239,227.80764 L1605.73632,265.571411 C1609.66217,272.357978 1614.95108,277.666745 1621.60322,281.497871 C1628.25536,285.328997 1635.83432,287.244532 1644.34033,287.244532 Z M1642.05026,192.999295 C1629.6184,192.999295 1619.36772,197.377659 1611.29791,206.134519 C1603.22811,214.89138 1599.19327,226.056209 1599.19327,239.629342 C1599.19327,242.913165 1599.30231,245.430724 1599.52042,247.182096 L1678.36421,217.956221 C1675.09266,210.51289 1670.45805,204.492639 1664.46022,199.895288 C1658.46239,195.297936 1650.99248,192.999295 1642.05026,192.999295 Z" id="Palmspire" fill="#1D1717"></path>
        </g>
    </g>
</svg>